<svg xmlns="http://www.w3.org/2000/svg" viewBox="0 0 3000 3000" xmlns:xlink="http://www.w3.org/1999/xlink"><g id="item_j"></g><g id="item_i"></g><g clip-path="url(#kittyClipPath)"><g><g id="tailFur"><clipPath id="tailFurClipPath"><path d="M1942.6 1959.2c69 30 162.4 39.9 162.4 39.9s347.1 45 398.6-246c19.5-161.9-177.1-195.4-177.1-195.4s91.8-36.7 124.7-7c0 0-18.5-30.3-46.3-32.7 0 0 118.2-79.9 213.3 102.6 0 0-12.3-93-50.5-111.6 0 0 142.5 32.6 167.6 241.5 0 0 26.3-41.6 23.4-76.4 0 0 67.9 99.8-7.3 214.7 0 0 58.9-56.3 63.7-86.5 0 0 73.9 212.1-151.5 244.1 0 0 61.2 22.9 101.8 3.3 0 0-39.1 85.3-165.9 74.3 0 0 61.7 42.1 99.3 33.5 0 0-93.2 47.7-251.3 13.2 0 0 53.6 49.5 93.2 50.5l-10.5 2.6a635.5 635.5 0 0 1-345.6-16.1l-151-50.4-90.9-37.1v-161z" fill="none" stroke="#31323d" stroke-linecap="round" stroke-linejoin="round" stroke-width="12.5"></path></clipPath><g clip-path="url(#tailFurClipPath)"><path fill="#d0ead2" d="M1904 1437.5h939v808.41h-939z"></path><path d="M2439.6 1745.9l32.8-69.6c52.4 24.7 89.1 18.8 106.4 13.1 34.7-11.5 65.7-43.7 85-88.5 22.2-51.2 27.9-114.9 16.1-179.2l75.7-13.9c14.5 79.2 7 158.6-21.1 223.6s-75.2 112.4-131.5 131c-28.2 9.4-86.8 19.6-163.4-16.5z" fill="#ffce6c"></path><path d="M2439.6 1745.9l32.8-69.6c52.4 24.7 89.1 18.8 106.4 13.1 34.7-11.5 65.7-43.7 85-88.5 22.2-51.2 27.9-114.9 16.1-179.2l75.7-13.9c14.5 79.2 7 158.6-21.1 223.6s-75.2 112.4-131.5 131c-28.2 9.4-86.8 19.6-163.4-16.5zm-130.5-69.8l14.5-75.6c56.9 10.9 91-4 106.3-13.8 30.7-19.7 52.7-58.7 60.3-106.9 8.7-55.1-1.6-118.2-29.1-177.6l69.8-32.3c33.8 73.1 46.3 151.8 35.3 221.8s-44.8 127.6-94.7 159.6c-25 16.2-79.3 40.7-162.4 24.8z" fill="#ffce6c"></path><path d="M2309.1 1676.1l14.5-75.6c56.9 10.9 91-4 106.3-13.8 30.7-19.7 52.7-58.7 60.3-106.9 8.7-55.1-1.6-118.2-29.1-177.6l69.8-32.3c33.8 73.1 46.3 151.8 35.3 221.8s-44.8 127.6-94.7 159.6c-25 16.2-79.3 40.7-162.4 24.8zm190.5 509.3c-68.1-11.5-127.8-42.4-170.4-88.6-28.9-31.4-50-69.6-62.5-113.5a349.2 349.2 0 0 1-13-87.3l104.9-2.6c.9 37.7 10 91.2 47.8 132.2 30.9 33.5 77.7 54.4 131.8 59 58.6 4.9 122.6-9.7 180.4-41.2l64.3-11.9 33.3 64.7-47.4 39.3c-76.7 41.9-159.5 60.4-239.4 53.7q-15.2-1.3-29.8-3.8z" fill="#ffce6c"></path><path d="M2668.2 1962.8c-68 12.3-134.7 3.6-190.4-25.4-37.9-19.7-70.6-48.4-97.4-85.4a349.2 349.2 0 0 1-41.9-77.7l97.8-38.1c13.7 35.1 40.4 82.4 89.9 108.1 40.4 21 91.5 24.8 144 10.6 56.8-15.3 112-50.8 155.6-100.1l56.5-33.1 53.3 49.5-31.2 53.1c-57.9 65.4-129.4 111-206.9 131.9q-14.7 4-29.3 6.6zm-205 493.9a497.1 497.1 0 0 1-96-9.5 482.1 482.1 0 0 1-108-34.8 459.8 459.8 0 0 1-209.2-193.3 485 485 0 0 1-46-115.5c-17.2-66.9-16.7-122.2-15.7-142.9l199.8 9.8c-.3 6.4-1.3 40.6 9.6 83.2 13.9 54 40.9 99.2 80.2 134.4 35.8 32 78.9 53.2 128.1 62.9 36.9 7.3 66.6 5.8 77.6 4.9l17.2 199.3c-10.5.8-23.1 1.5-37.6 1.5z" fill="#ffce6c"></path><defs><clipPath id="tailShadowClipPath"><path d="M1942.6 1959.2c69 30 162.4 39.9 162.4 39.9s347.1 45 398.6-246c19.5-161.9-177.1-195.4-177.1-195.4s91.8-36.7 124.7-7c0 0-18.5-30.3-46.3-32.7 0 0 118.2-79.9 213.3 102.6 0 0-12.3-93-50.5-111.6 0 0 142.5 32.6 167.6 241.5 0 0 26.3-41.6 23.4-76.4 0 0 67.9 99.8-7.3 214.7 0 0 58.9-56.3 63.7-86.5 0 0 73.9 212.1-151.5 244.1 0 0 61.2 22.9 101.8 3.3 0 0-39.1 85.3-165.9 74.3 0 0 61.7 42.1 99.3 33.5 0 0-93.2 47.7-251.3 13.2 0 0 53.6 49.5 93.2 50.5l-10.5 2.6a635.5 635.5 0 0 1-345.6-16.1l-151-50.4-90.9-37.1v-161z" fill="none"></path></clipPath><linearGradient id="tailShadowGradient" x1="2504.56" y1="1675.22" x2="2504.56" y2="1448.67" gradientUnits="userSpaceOnUse"><stop offset="0" stop-color="#fff" stop-opacity="0"></stop><stop offset=".72" stop-color="#fff"></stop></linearGradient><linearGradient id="tailShadowGradient2" x1="1665.26" y1="2120.22" x2="2549.1" y2="2120.22" gradientUnits="userSpaceOnUse"><stop offset="0" stop-color="gray"></stop><stop offset=".27" stop-color="#7d7d7d"></stop><stop offset=".46" stop-color="#747474"></stop><stop offset=".64" stop-color="#646464"></stop><stop offset=".8" stop-color="#4d4d4d"></stop><stop offset=".95" stop-color="#303030"></stop><stop offset="1" stop-color="#242424"></stop></linearGradient><linearGradient id="tailShadowGradient3" x1="2662.04" y1="1821.69" x2="2662.04" y2="1468.7" gradientTransform="translate(-13.43 21.89)" href="#tailShadowGradient" xlink:href="#tailShadowGradient"></linearGradient><linearGradient id="tailShadowGradient4" x1="2752.98" y1="1933.56" x2="2752.98" y2="1592.06" href="#tailShadowGradient" xlink:href="#tailShadowGradient"></linearGradient><linearGradient id="tailShadowGradient5" x1="2521.14" y1="2094.95" x2="2807.7" y2="2094.95" href="#tailShadowGradient2" xlink:href="#tailShadowGradient2"></linearGradient><linearGradient id="tailShadowGradient6" x1="2408.12" y1="2162.15" x2="2697.59" y2="2162.15" href="#tailShadowGradient2" xlink:href="#tailShadowGradient2"></linearGradient><linearGradient id="tailShadowGradient7" x1="2671.02" y1="1930.16" x2="2859.95" y2="1930.16" href="#tailShadowGradient" xlink:href="#tailShadowGradient"></linearGradient></defs><g clip-path="url(#tailShadowClipPath)" style="mix-blend-mode:overlay"><path d="M2413.6 1500.9c80.6 30.4 147.9 94.3 182.8 173a2.2 2.2 0 0 0 4.3-.5c6.2-37.6 5.3-76.7-6.4-112.9-12.5-38.6-37.8-73.7-73-93.9s-80.2-24.3-116.8-6.8" opacity=".3" fill="url(#tailShadowGradient)" style="mix-blend-mode:overlay"></path><path d="M2580.5 1513.8c84.8 73.9 125.3 194.9 102.9 305a2.2 2.2 0 0 0 3.8 2c45.1-46.5 63.1-116.4 52.8-180.6-10.7-66.7-49.6-127-100.5-171.4" opacity=".3" fill="url(#tailShadowGradient3)" style="mix-blend-mode:overlay"></path><path d="M2756.9 1685.6c7.6 85.4-14.8 173.1-62.2 244.5a2.3 2.3 0 0 0 2.7 3.3c60.4-22.7 101.8-84 111.5-148.1 10.1-66.3-9.7-134.4-41.9-193.3" opacity=".3" fill="url(#tailShadowGradient4)" style="mix-blend-mode:overlay"></path><path d="M2815.2 1815.5c-.8 48.4-17 96.2-44.3 136.2-25.2 36.9-59.6 67.2-98.7 89a2.3 2.3 0 0 0 1.3 4.2 740 740 0 0 0 74.9-11.4c13.9-2.8 27.8-6.1 40.6-12.4 34.4-16.8 55.5-52.8 68.3-88.9 3.1-8.6 4.9-20.1-2.7-25.1" opacity=".3" fill="url(#tailShadowGradient7)" style="mix-blend-mode:overlay"></path></g><g clip-path="url(#tailShadowClipPath)" style="mix-blend-mode:multiply"><path d="M2042 1944.9c13.2 65.6 41.6 120.5 90.7 149.8 128.8 76.8 266.9 119.3 416.4 131.2.7 41.4-25.3 79.9-59.4 103.5s-75.3 34.3-116.1 41.5c-194.7 34.1-402.2-7.1-567.5-115.6-56.1-36.8-109.5-84.1-131.1-147.6-20.8-61.3-7.3-133.1 34.4-182.6s110.1-75.1 174.1-64.9" opacity=".25" fill="url(#tailShadowGradient2)" style="mix-blend-mode:multiply"></path><path d="M2753.1 2055.2c-69.5 37.1-154.5 43.8-229 18.1a2.3 2.3 0 0 0-2.7 3.2c9.8 17.9 26.3 31.7 44.4 41.3 19.8 10.5 41.6 16.6 63.2 22.4 28.7 7.7 58 15.1 87.7 13.7s60.3-13 77.9-36.9 18.3-61.1-3.5-81.3" opacity=".25" fill="url(#tailShadowGradient5)" style="mix-blend-mode:multiply"></path><path d="M2672.3 2157.6c-91.9 11.2-187.6-11.9-264.2-63.8 7.8 45.4 43.4 81.8 83.4 104.6 52.2 29.8 116.2 41.3 173.8 24.1 13.9-4.2 29-11.8 32.3-25.9" opacity=".25" fill="url(#tailShadowGradient6)" style="mix-blend-mode:multiply"></path></g></g></g></g><g id="tail"><path d="M1942.6 1959.2c69 30 162.4 39.9 162.4 39.9s347.1 45 398.6-246c19.5-161.9-177.1-195.4-177.1-195.4s91.8-36.7 124.7-7c0 0-18.5-30.3-46.3-32.7 0 0 118.2-79.9 213.3 102.6 0 0-12.3-93-50.5-111.6 0 0 142.5 32.6 167.6 241.5 0 0 26.3-41.6 23.4-76.4 0 0 67.9 99.8-7.3 214.7 0 0 58.9-56.3 63.7-86.5 0 0 73.9 212.1-151.5 244.1 0 0 61.2 22.9 101.8 3.3 0 0-39.1 85.3-165.9 74.3 0 0 61.7 42.1 99.3 33.5 0 0-93.2 47.7-251.3 13.2 0 0 53.6 49.5 93.2 50.5l-10.5 2.6a635.5 635.5 0 0 1-345.6-16.1l-151-50.4-90.9-37.1v-161z" fill="none" stroke="#31323d" stroke-linecap="round" stroke-linejoin="round" stroke-width="12.5"></path></g></g><g id="item_h"></g><g clip-path="url(#kittyClipPath)"><g><g id="bodyFur"><g><defs><clipPath id="furClipPath"><path fill="none" d="M1117.6,979.2a240.6,240.6,0,0,0-15.5,59L919.2,1999.6a248.6,248.6,0,0,0,12.7,117.6l-.6.2c-38.1,9.1-130.5,43.4-184.5,78.3-26.5,17.1-10.1,55.9,23.2,55.3l266.9-5.2h0c4.5,2.7,9.1,5.4,13.8,7.9v3.3c.4,23.3-6.6,42.4-29.9,43.5-15.6.8-28.2,9.9-30.7,21.1-4.7,21.5,5.9,38.9,27.3,40.4l84.2,5c26.5,1.6,51.9-11.3,65.4-34.1a72.2,72.2,0,0,0,8.8-23.9l5-26.6h533.6l3.4,20.7a71.6,71.6,0,0,0,43.2,54.3,52.6,52.6,0,0,0,22.2,3.9l91.9-3c22-2.2,30.1-15.7,27.8-36.9-.7-7-6.2-24.5-24.4-25.6-15.8-.8-25.3-8.6-28.1-21.9h0a243.5,243.5,0,0,0,65.3-28l261.5,5.1c33.3.6,49.3-37.5,23.2-55.3-43-29.4-132.4-61.7-179.8-75.5l-.8-.3a247.8,247.8,0,0,0,6.4-155.8L1731.1,1004a267.2,267.2,0,0,0-10.3-27.9s34.7-20.6,56.7-54,59.3-92.6,39.3-170.6-31.3-97.4-31.3-97.4,32-22.6,76,18c0,0,0-69.3-81.3-46,0,0,23.3-25.3,61.3-22,6-9.7-90.7-42-98.7,46-8,56.7-50.9,130.1-75.3,149.4l-52.7,51.3c-12,3.3-15.3-.7-31.6-7.1a240.1,240.1,0,0,0-84-15.1H1341a240.2,240.2,0,0,0-120,32s-94.2-115.1-107.5-207.8-75.3-56-92-52c0,0,38.7,4,46,18.7,0,0-44-16-70,47.3,0,0,46.7-28.7,76.7-13.3,0,0-39.4,30-40.7,105.3S1053.7,943,1117.6,979.2Z"></path></clipPath><linearGradient id="furClipPath__b" x1="1844.99" x2="1844.99" y1="2256.39" y2="835.98" gradientUnits="userSpaceOnUse"><stop offset="0" stop-color="#fff" stop-opacity="0"></stop><stop offset=".72" stop-color="#fff"></stop></linearGradient><linearGradient id="furClipPath__a" x1="1759.91" x2="1826.55" y1="647.85" y2="590.41" gradientUnits="userSpaceOnUse"><stop offset="0" stop-color="#fff" stop-opacity="0"></stop><stop offset="1" stop-color="#fff"></stop></linearGradient><linearGradient id="furClipPath__d" x1="1770.12" x2="1854.37" y1="679.19" y2="640.89" xlink:href="#furClipPath__a"></linearGradient><linearGradient id="furClipPath__e" x1="2116.32" x2="2116.32" y1="2248.97" y2="2113.28" xlink:href="#furClipPath__b"></linearGradient><linearGradient id="furClipPath__f" x1="1044.74" x2="1044.74" y1="2253.08" y2="2117.39" gradientTransform="matrix(-1, 0, 0, 1, 1878.82, 0)" xlink:href="#furClipPath__b"></linearGradient><linearGradient id="furClipPath__g" x1="916.62" x2="1280" y1="1544.97" y2="1544.97" xlink:href="#furClipPath__b"></linearGradient><linearGradient id="furClipPath__h" x1="1699.49" x2="1827.4" y1="1019.88" y2="682.1" xlink:href="#furClipPath__a"></linearGradient><linearGradient id="furClipPath__i" x1="1675.51" x2="1803.43" y1="1019.22" y2="678.09" xlink:href="#furClipPath__a"></linearGradient><linearGradient id="furClipPath__j" x1="1167.22" x2="1029.35" y1="1060.01" y2="675.12" xlink:href="#furClipPath__a"></linearGradient><linearGradient id="furClipPath__k" x1="1227.83" x2="1063.53" y1="977.08" y2="727.76" xlink:href="#furClipPath__a"></linearGradient><linearGradient id="furClipPath__l" x1="1131" x2="991.98" y1="596.71" y2="654.16" xlink:href="#furClipPath__a"></linearGradient><linearGradient id="furClipPath__m" x1="1141.12" x2="1044.46" y1="607.34" y2="606.08" xlink:href="#furClipPath__a"></linearGradient></defs><g><g clip-path="url(#furClipPath)"><path style="mix-blend-mode:overlay" fill="url(#furClipPath__b)" d="M1547.8,836.6s70.1,33.6,92.1,64.9,44.1,86.3,65.6,180.9c58.9,258.7,229.4,683.2,275.5,888s-92.3,286-92.3,286l61.1-35.5s63-74.8,72.5-107.6c20.8-71.9,139-33,117.2-147.7-31.7-166.5-305.7-970.4-305.7-970.4s-94.6,29-111.4-17.2c-7.1-19.6-29.9-44.6-39.7-62.1-20.7-36.8-73.2-64.7-124.2-79.9Z" opacity=".6"></path><path style="mix-blend-mode:overlay" fill="url(#furClipPath__a)" d="M1838.2,600.3c-35.5-15.4-60,3-63.9,29.8a80.2,80.2,0,0,0,19.9-12.3l22.3-11.5Z" opacity=".6"></path><path style="mix-blend-mode:overlay" fill="url(#furClipPath__d)" d="M1850.6,640c-21.7-16.8-57.2-16.7-77.8,18.4,12.2-2.7,30.6-9.2,30.6-9.2l21.2.2,38,20.3Z" opacity=".6"></path><path style="mix-blend-mode:overlay" fill="url(#furClipPath__e)" d="M1999.2,2162.4s113.2,21.1,98.3,83.6l92.7,3,43.3-6.5-4.3-68.5-206.9-60.7Z" opacity=".6"></path><path style="mix-blend-mode:overlay" fill="url(#furClipPath__f)" d="M951.2,2166.5s-113.2,21.1-98.3,83.6l-92.7,3-43.3-6.5,4.3-68.5,206.9-60.7Z" opacity=".6"></path><path style="mix-blend-mode:overlay" fill="url(#furClipPath__g)" d="M1124.3,1019.4,948.2,1954.5s-53.6,175,102.2,279l.3,20.1s-124.6-57.2-133.6-215.2,100.1-603.9,100.1-603.9l81.8-433.1s88.4-169.6,181-165C1280,836.4,1139.2,940,1124.3,1019.4Z" opacity=".6"></path><path style="mix-blend-mode:overlay" fill="url(#furClipPath__h)" d="M1782,667.7c10.2,28.9,83.5,178.4-67,294.5-5,4.1,8,17.9,8,17.9l47.3-47.7s27-34.5,35.3-58.8,42.8-84.9-16.1-209Z" opacity=".6"></path><path style="mix-blend-mode:overlay" fill="url(#furClipPath__i)" d="M1687.5,910.1c39.2-34.3,94.1-63.6,88.6-242.7,7.2,30.1,14,73,14,73s-2.3,77.7-19.7,106.4-47.4,75.7-65.4,84.6C1697,921.9,1687.5,910.1,1687.5,910.1Z" opacity=".6"></path><path style="mix-blend-mode:overlay" fill="url(#furClipPath__j)" d="M1076.8,662.2c-20.2,37.6-68.2,182.5,40.5,304.6l-1.8,4.4s-10.9.7-21-11.6-61-90.3-59.6-154.4,1.4-99.9,30.9-137.9C1072.5,661,1076.8,662.2,1076.8,662.2Z" opacity=".6"></path><path style="mix-blend-mode:overlay" fill="url(#furClipPath__k)" d="M1149.5,913.8c-32.2-32.3-74.8-92.2-68.6-259.2-5.3,16.1-12.7,101.6-12.7,101.6s17.8,128.1,60.7,165.4c3.6,4.9,11.1,4.7,11.1,4.7Z" opacity=".6"></path><path style="mix-blend-mode:overlay" fill="url(#furClipPath__l)" d="M1004.7,662.6c11.6-20.1,28.2-37.1,73-32.5-10.2-9.1-35.6-10.4-35.6-10.4l-27,14.1-13,27.9Z" opacity=".6"></path><path style="mix-blend-mode:overlay" fill="url(#furClipPath__m)" d="M1040.3,601.5c21.9-6.8,42.9,3.8,57.4,20.5,0,0-6.7-28-19.1-30.3s-41.9,4.2-41.9,4.2Z" opacity=".6"></path></g></g></g><g id="bodyFur"><g clip-path="url(#furClipPath)"><path fill="#d0ead2" d="M724.1 562.8h1509.4v1824.09H724.1z"></path><path fill="#dad6e1" d="M1156.9 2405.5l122.6-618.4a177.2 177.2 0 0 1 170.7-142.7 177.2 177.2 0 0 1 177.6 145.6l103.5 593.7z"></path><path fill="#ffce6c" d="M1176.2 898l71.3 43.4c85 51.8 74.8-2.2 67.8-27.7s-44-81.1-44-81.1l-57.6 31.2zM1311.2 763.5c27.2 40.6 35 88.5 44.2 136.5 8.5 44 24.5 89.6 54.4 90.6 57.9 1.8 44.4-191.1 44.4-191.1s-3.7-175.3-35.7-201.3c-18.9-15.4-13.4-35-57-16.1-30.3 13.2-113.1 89.5-123.2 110-6.7 13.6 57.2 48 72.9 71.4zM1548.4 831.6s-57 137.1-19.4 154.3 121.3-112.3 121.3-112.3zM917.1 1564.5s62.6-26 96.4-19.2c17.7 16.2 35.2 29.5 51.1 37 45.7 23 50.5 64.3 29.9 86.1-25.9 27.4-102.7-1.4-127.5-17.6s-114.7-86.4-114.7-86.4z"></path><path fill="#ffce6c" d="M804.4 1506.1s149.5 222.4 252.5 270.8c63.9 32.1 70.5 89.8 41.8 120.2-36.2 38.3-143.4-1.9-178-24.6s-160.1-120.6-160.1-120.6zM2014.2 1513.2s-42.7 52.9-90 14.7a337.6 337.6 0 0 0-22.3 31.7c-15.4 25-31.8 46.7-48.1 59.9-38.8 33.3-33.5 74.6-8.3 90.8 31.8 20.3 111-23.7 131.1-45.4s90.6-111.4 90.6-111.4zM2105.4 1569.3s-131.3 187.9-228 247.8c-59.8 39.1-59.8 97.2-27.8 124.1 40.4 33.9 142.3-18.3 174-44.8s145.3-138.1 145.3-138.1zM2210.3 1733.6s-162.4 230.5-270.8 283.9c-28.8 15.1-38.4 43.6-46.6 63.9-10.9 27.1-5.2 54.9 12.5 73s55.4 18.8 92 10.2c0 0 16.8-35.6 24.8-56.1 72.2 7.5 239.3-114.8 239.3-114.8zM854.2 1913.5c38.1-25.9 102.2 19.3 120.6 52.6 13.7 24.7 11.4 42 43.4 86.7 22.8 31.9 28.1 78.2 22 89.3-13 23.7-118.7-6.2-162-63.3-31.3-41.2-67.2-136.1-24-165.3z"></path><path fill="#d0ead2" d="M2468.6 1238.1c3.2 0 3.2-5 0-5s-3.2 5 0 5z"></path></g></g><g><g><path fill="#d0ead2" d="M1217.2,857.5c-12.6-13.7-82.9-101-100.7-189.5-13.2-88.5-46.9-89.8-97.4-64.1,19.5.8,40.3-1.9,48.4,17.1-4.1-.6-54.5-17.3-69.8,49.5,26-12.5,55.9-27.6,78.8-14.6,6.4,15.5-49.7,119.8,59,276.9C1177,871.6,1217.2,857.5,1217.2,857.5Z"></path><path fill="#dad6e1" d="M1134.3,935.4c-28.3-46.8-81.5-113.3-57.5-273.2-6-5.5-55.7,33.5-37,168.4,23.7,122.6,73.4,147.2,75.7,140.6S1128,944.9,1134.3,935.4Z"></path><path fill="#d0ead2" d="M1624.9,837.5c34.7-29.8,91.7-69.5,117.2-181.6,4.6-101.7,96.1-55.6,96.1-55.6s-37.8,6-53.9,26.7c15.7-6,61.7-19.5,78.3,42.7-19.3-12.1-52.3-38.9-85.2-8.2,6.3,24.9,55.4,164.9-75.4,266.6-14.9-22-45.9-55-83.9-75.9-1.1-2-6.2-2.8-4.9-4.1C1621.1,839.4,1624.9,837.5,1624.9,837.5Z"></path><path fill="#dad6e1" d="M1704.9,933.8c-2.9-1,137.3-103.5,75.9-267,7.4-10.6,14.2,7.8,19.4,21.3S1879,858.9,1726.1,972C1722.1,960.1,1706.7,934.3,1704.9,933.8Z"></path></g></g></g></g><g id="shadow" style="mix-blend-mode:multiply"><defs><clipPath id="shadow__d"><path fill="none" d="M1117.6,979.2a240.6,240.6,0,0,0-15.5,59L919.2,1999.6a248.6,248.6,0,0,0,12.7,117.6l-.6.2c-38.1,9.1-130.5,43.4-184.5,78.3-26.5,17.1-10.1,55.9,23.2,55.3l266.9-5.2h0c4.5,2.7,9.1,5.4,13.8,7.9v3.3c.4,23.3-6.6,42.4-29.9,43.5-15.6.8-28.2,9.9-30.7,21.1-4.7,21.5,5.9,38.9,27.3,40.4l84.2,5c26.5,1.6,51.9-11.3,65.4-34.1a72.2,72.2,0,0,0,8.8-23.9l5-26.6h533.6l3.4,20.7a71.6,71.6,0,0,0,43.2,54.3,52.6,52.6,0,0,0,22.2,3.9l91.9-3c22-2.2,30.1-15.7,27.8-36.9-.7-7-6.2-24.5-24.4-25.6-15.8-.8-25.3-8.6-28.1-21.9h0a243.5,243.5,0,0,0,65.3-28l261.5,5.1c33.3.6,49.3-37.5,23.2-55.3-43-29.4-132.4-61.7-179.8-75.5l-.8-.3a247.8,247.8,0,0,0,6.4-155.8L1731.1,1004a267.2,267.2,0,0,0-10.3-27.9s34.7-20.6,56.7-54,59.3-92.6,39.3-170.6-31.3-97.4-31.3-97.4,32-22.6,76,18c0,0,0-69.3-81.3-46,0,0,23.3-25.3,61.3-22,6-9.7-90.7-42-98.7,46-8,56.7-50.9,130.1-75.3,149.4l-52.7,51.3c-12,3.3-15.3-.7-31.6-7.1a240.1,240.1,0,0,0-84-15.1H1341a240.2,240.2,0,0,0-120,32s-94.2-115.1-107.5-207.8-75.3-56-92-52c0,0,38.7,4,46,18.7,0,0-44-16-70,47.3,0,0,46.7-28.7,76.7-13.3,0,0-39.4,30-40.7,105.3S1053.7,943,1117.6,979.2Z"></path></clipPath><linearGradient id="shadow__a" x1="1180.91" x2="1714.46" y1="2153.98" y2="2153.98" gradientUnits="userSpaceOnUse"><stop offset="0" stop-color="gray"></stop><stop offset=".27" stop-color="#7d7d7d"></stop><stop offset=".46" stop-color="#747474"></stop><stop offset=".64" stop-color="#646464"></stop><stop offset=".8" stop-color="#4d4d4d"></stop><stop offset=".95" stop-color="#303030"></stop><stop offset="1" stop-color="#242424"></stop></linearGradient><linearGradient id="shadow__e" x1="1028.58" x2="1028.58" y1="855.47" y2="2254.41" xlink:href="#shadow__a"></linearGradient><linearGradient id="shadow__f" x1="1971.82" x2="1971.82" y1="1970.17" y2="2305.13" xlink:href="#shadow__a"></linearGradient><linearGradient id="shadow__c" x1="1110.61" x2="1188.06" y1="620.08" y2="876.33" gradientUnits="userSpaceOnUse"><stop offset=".03" stop-opacity="0"></stop><stop offset="1"></stop></linearGradient><linearGradient id="shadow__b" x1="997.55" x2="1077.72" y1="656.63" y2="642.08" gradientUnits="userSpaceOnUse"><stop offset="0" stop-opacity="0"></stop><stop offset="1"></stop></linearGradient><linearGradient id="shadow__g" x1="1029.67" x2="1080.86" y1="589.98" y2="619" xlink:href="#shadow__b"></linearGradient><linearGradient id="shadow__h" x1="1060.14" x2="1123.73" y1="768.9" y2="960.42" xlink:href="#shadow__b"></linearGradient><linearGradient id="shadow__i" x1="1779.26" x2="1649.43" y1="529.81" y2="866.44" xlink:href="#shadow__c"></linearGradient></defs><g><g clip-path="url(#shadow__d)"><path style="mix-blend-mode:multiply" fill="url(#shadow__a)" d="M1213.2,2110.7c-22.2,91.7,60.8,117.5,83.2,119.1,41.2,3.1,203.6,5.7,287.8-7.9,43.7-7,109.2-65.4,87.3-196.3l43,256.8H1180.9Z" opacity=".2"></path><path style="mix-blend-mode:multiply" fill="url(#shadow__e)" d="M1233.2,855.5c-66,66-73.4,124.1-101.7,247.9-48.7,214.1-107.5,672-126.4,823.4a927.6,927.6,0,0,0-6.8,98.5v3.3c23.6,26,47.7,88.8,52.6,176.8l1.4,49s-31.4-.7-81-.7c-62,0-110.9-111.8-79.2-278.2,28.4-149.6-68-915.6-68-915.6l282.1-44.2S1122.2,913.5,1233.2,855.5Z" opacity=".2"></path><path style="mix-blend-mode:multiply" fill="url(#shadow__f)" d="M1854.3,2157.4s29.9-91.4,66.3-124.9c-39.4,75,14.1,92.7,28.1,87.7,53.7-19.2,74.9-66.7,79.2-150l65.3,116.3s-55,256-204,214l-38.7-18.1Z" opacity=".2"></path><path style="mix-blend-mode:multiply" fill="url(#shadow__c)" d="M1170.2,898c-21.6-28.1-61.6-190-65.5-257.5,8.5,62.4,99.5,211.6,108.9,218.6C1196.2,866.6,1178.5,889,1170.2,898Z" opacity=".2"></path><path style="mix-blend-mode:multiply" fill="url(#shadow__b)" d="M999,665.3c20.1-24,39.5-34.7,60.9-28.6s21,17.9,21,17.9l-30.1-4Z" opacity=".2"></path><path style="mix-blend-mode:multiply" fill="url(#shadow__g)" d="M1037,600.5c19.4-3.1,30.6.5,37.7,7.1s.3,16.9.3,16.9l-12.1-11.9Z" opacity=".2"></path><path style="mix-blend-mode:multiply" fill="url(#shadow__h)" d="M1119.5,962.2c-10.1-16.9-65.2-96.9-50.6-197.4,7.7,43.9,23.8,117.9,64.4,172.1A282,282,0,0,0,1119.5,962.2Z" opacity=".2"></path><path style="mix-blend-mode:multiply" fill="url(#shadow__i)" d="M1656.3,878.7c28.2-22.4,93-84.2,97.6-209.8,0,0,3-75.5,39.3-78.3-30.2,10-36.9,19.8-36.9,19.8l-20.8,69.2s-24,76.5-50.7,100.4-68.8,49.2-68.8,49.2-2.3,21.5,3.1,24C1635.1,861.1,1656.3,878.7,1656.3,878.7Z" opacity=".2"></path></g></g></g><g id="highlight" style="mix-blend-mode:overlay"><defs><clipPath id="highlight__c"><path fill="none" d="M1117.6,979.2a240.6,240.6,0,0,0-15.5,59L919.2,1999.6a248.6,248.6,0,0,0,12.7,117.6l-.6.2c-38.1,9.1-130.5,43.4-184.5,78.3-26.5,17.1-10.1,55.9,23.2,55.3l266.9-5.2h0c4.5,2.7,9.1,5.4,13.8,7.9v3.3c.4,23.3-6.6,42.4-29.9,43.5-15.6.8-28.2,9.9-30.7,21.1-4.7,21.5,5.9,38.9,27.3,40.4l84.2,5c26.5,1.6,51.9-11.3,65.4-34.1a72.2,72.2,0,0,0,8.8-23.9l5-26.6h533.6l3.4,20.7a71.6,71.6,0,0,0,43.2,54.3,52.6,52.6,0,0,0,22.2,3.9l91.9-3c22-2.2,30.1-15.7,27.8-36.9-.7-7-6.2-24.5-24.4-25.6-15.8-.8-25.3-8.6-28.1-21.9h0a243.5,243.5,0,0,0,65.3-28l261.5,5.1c33.3.6,49.3-37.5,23.2-55.3-43-29.4-132.4-61.7-179.8-75.5l-.8-.3a247.8,247.8,0,0,0,6.4-155.8L1731.1,1004a267.2,267.2,0,0,0-10.3-27.9s34.7-20.6,56.7-54,59.3-92.6,39.3-170.6-31.3-97.4-31.3-97.4,32-22.6,76,18c0,0,0-69.3-81.3-46,0,0,23.3-25.3,61.3-22,6-9.7-90.7-42-98.7,46-8,56.7-50.9,130.1-75.3,149.4l-52.7,51.3c-12,3.3-15.3-.7-31.6-7.1a240.1,240.1,0,0,0-84-15.1H1341a240.2,240.2,0,0,0-120,32s-94.2-115.1-107.5-207.8-75.3-56-92-52c0,0,38.7,4,46,18.7,0,0-44-16-70,47.3,0,0,46.7-28.7,76.7-13.3,0,0-39.4,30-40.7,105.3S1053.7,943,1117.6,979.2Z"></path></clipPath><linearGradient id="highlight__b" x1="1844.99" x2="1844.99" y1="2256.39" y2="835.98" gradientUnits="userSpaceOnUse"><stop offset="0" stop-color="#fff" stop-opacity="0"></stop><stop offset=".72" stop-color="#fff"></stop></linearGradient><linearGradient id="highlight__a" x1="1759.91" x2="1826.55" y1="647.85" y2="590.41" gradientUnits="userSpaceOnUse"><stop offset="0" stop-color="#fff" stop-opacity="0"></stop><stop offset="1" stop-color="#fff"></stop></linearGradient><linearGradient id="highlight__d" x1="1770.12" x2="1854.37" y1="679.19" y2="640.89" xlink:href="#highlight__a"></linearGradient><linearGradient id="highlight__e" x1="2116.32" x2="2116.32" y1="2248.97" y2="2113.28" xlink:href="#highlight__b"></linearGradient><linearGradient id="highlight__f" x1="1044.74" x2="1044.74" y1="2253.08" y2="2117.39" gradientTransform="matrix(-1, 0, 0, 1, 1878.82, 0)" xlink:href="#highlight__b"></linearGradient><linearGradient id="highlight__g" x1="916.62" x2="1280" y1="1544.97" y2="1544.97" xlink:href="#highlight__b"></linearGradient><linearGradient id="highlight__h" x1="1699.49" x2="1827.4" y1="1019.88" y2="682.1" xlink:href="#highlight__a"></linearGradient><linearGradient id="highlight__i" x1="1675.51" x2="1803.43" y1="1019.22" y2="678.09" xlink:href="#highlight__a"></linearGradient><linearGradient id="highlight__j" x1="1167.22" x2="1029.35" y1="1060.01" y2="675.12" xlink:href="#highlight__a"></linearGradient><linearGradient id="highlight__k" x1="1227.83" x2="1063.53" y1="977.08" y2="727.76" xlink:href="#highlight__a"></linearGradient><linearGradient id="highlight__l" x1="1131" x2="991.98" y1="596.71" y2="654.16" xlink:href="#highlight__a"></linearGradient><linearGradient id="highlight__m" x1="1141.12" x2="1044.46" y1="607.34" y2="606.08" xlink:href="#highlight__a"></linearGradient></defs><g><g clip-path="url(#highlight__c)" style="opacity:0.35"><path style="mix-blend-mode:overlay" fill="url(#highlight__b)" d="M1547.8,836.6s70.1,33.6,92.1,64.9,44.1,86.3,65.6,180.9c58.9,258.7,229.4,683.2,275.5,888s-92.3,286-92.3,286l61.1-35.5s63-74.8,72.5-107.6c20.8-71.9,139-33,117.2-147.7-31.7-166.5-305.7-970.4-305.7-970.4s-94.6,29-111.4-17.2c-7.1-19.6-29.9-44.6-39.7-62.1-20.7-36.8-73.2-64.7-124.2-79.9Z" opacity=".6"></path><path style="mix-blend-mode:overlay" fill="url(#highlight__a)" d="M1838.2,600.3c-35.5-15.4-60,3-63.9,29.8a80.2,80.2,0,0,0,19.9-12.3l22.3-11.5Z" opacity=".6"></path><path style="mix-blend-mode:overlay" fill="url(#highlight__d)" d="M1850.6,640c-21.7-16.8-57.2-16.7-77.8,18.4,12.2-2.7,30.6-9.2,30.6-9.2l21.2.2,38,20.3Z" opacity=".6"></path><path style="mix-blend-mode:overlay" fill="url(#highlight__e)" d="M1999.2,2162.4s113.2,21.1,98.3,83.6l92.7,3,43.3-6.5-4.3-68.5-206.9-60.7Z" opacity=".6"></path><path style="mix-blend-mode:overlay" fill="url(#highlight__f)" d="M951.2,2166.5s-113.2,21.1-98.3,83.6l-92.7,3-43.3-6.5,4.3-68.5,206.9-60.7Z" opacity=".6"></path><path style="mix-blend-mode:overlay" fill="url(#highlight__g)" d="M1124.3,1019.4,948.2,1954.5s-53.6,175,102.2,279l.3,20.1s-124.6-57.2-133.6-215.2,100.1-603.9,100.1-603.9l81.8-433.1s88.4-169.6,181-165C1280,836.4,1139.2,940,1124.3,1019.4Z" opacity=".6"></path><path style="mix-blend-mode:overlay" fill="url(#highlight__h)" d="M1782,667.7c10.2,28.9,83.5,178.4-67,294.5-5,4.1,8,17.9,8,17.9l47.3-47.7s27-34.5,35.3-58.8,42.8-84.9-16.1-209Z" opacity=".6"></path><path style="mix-blend-mode:overlay" fill="url(#highlight__i)" d="M1687.5,910.1c39.2-34.3,94.1-63.6,88.6-242.7,7.2,30.1,14,73,14,73s-2.3,77.7-19.7,106.4-47.4,75.7-65.4,84.6C1697,921.9,1687.5,910.1,1687.5,910.1Z" opacity=".6"></path><path style="mix-blend-mode:overlay" fill="url(#highlight__j)" d="M1076.8,662.2c-20.2,37.6-68.2,182.5,40.5,304.6l-1.8,4.4s-10.9.7-21-11.6-61-90.3-59.6-154.4,1.4-99.9,30.9-137.9C1072.5,661,1076.8,662.2,1076.8,662.2Z" opacity=".6"></path><path style="mix-blend-mode:overlay" fill="url(#highlight__k)" d="M1149.5,913.8c-32.2-32.3-74.8-92.2-68.6-259.2-5.3,16.1-12.7,101.6-12.7,101.6s17.8,128.1,60.7,165.4c3.6,4.9,11.1,4.7,11.1,4.7Z" opacity=".6"></path><path style="mix-blend-mode:overlay" fill="url(#highlight__l)" d="M1004.7,662.6c11.6-20.1,28.2-37.1,73-32.5-10.2-9.1-35.6-10.4-35.6-10.4l-27,14.1-13,27.9Z" opacity=".6"></path><path style="mix-blend-mode:overlay" fill="url(#highlight__m)" d="M1040.3,601.5c21.9-6.8,42.9,3.8,57.4,20.5,0,0-6.7-28-19.1-30.3s-41.9,4.2-41.9,4.2Z" opacity=".6"></path></g></g></g><g id="body"><g><path fill="none" d="M1117.6,979.2a240.6,240.6,0,0,0-15.5,59L919.2,1999.6a248.6,248.6,0,0,0,12.7,117.6l-.6.2c-38.1,9.1-130.5,43.4-184.5,78.3-26.5,17.1-10.1,55.9,23.2,55.3l266.9-5.2h0c4.5,2.7,9.1,5.4,13.8,7.9v3.3c.4,23.3-6.6,42.4-29.9,43.5-15.6.8-28.2,9.9-30.7,21.1-4.7,21.5,5.9,38.9,27.3,40.4l84.2,5c26.5,1.6,51.9-11.3,65.4-34.1a72.2,72.2,0,0,0,8.8-23.9l5-26.6h533.6l3.4,20.7a71.6,71.6,0,0,0,43.2,54.3,52.6,52.6,0,0,0,22.2,3.9l91.9-3c22-2.2,30.1-15.7,27.8-36.9-.7-7-6.2-24.5-24.4-25.6-15.8-.8-25.3-8.6-28.1-21.9h0a243.5,243.5,0,0,0,65.3-28l261.5,5.1c33.3.6,49.3-37.5,23.2-55.3-43-29.4-132.4-61.7-179.8-75.5l-.8-.3a247.8,247.8,0,0,0,6.4-155.8L1731.1,1004a267.2,267.2,0,0,0-10.3-27.9s34.7-20.6,56.7-54,59.3-92.6,39.3-170.6-31.3-97.4-31.3-97.4,32-22.6,76,18c0,0,0-69.3-81.3-46,0,0,23.3-25.3,61.3-22,6-9.7-90.7-42-98.7,46-8,56.7-50.9,130.1-75.3,149.4l-52.7,51.3c-12,3.3-15.3-.7-31.6-7.1a240.1,240.1,0,0,0-84-15.1H1341a240.2,240.2,0,0,0-120,32s-94.2-115.1-107.5-207.8-75.3-56-92-52c0,0,38.7,4,46,18.7,0,0-44-16-70,47.3,0,0,46.7-28.7,76.7-13.3,0,0-39.4,30-40.7,105.3S1053.7,943,1117.6,979.2Z"></path></g><g><path fill="none" stroke="#31323d" stroke-linecap="round" stroke-miterlimit="10" stroke-width="12.5" d="M1714.5 2282.4L1180.9 2282.4"></path><path fill="none" stroke="#31323d" stroke-linecap="round" stroke-miterlimit="10" stroke-width="12.5" d="M1050.7,2253.7c-89.1-47.1-145.6-146.2-131.5-254.1l182.9-961.4c15.7-119.9,118-209.6,238.9-209.6h158.2A240.9,240.9,0,0,1,1731.1,1004l295.2,960.1c39,137.9-45.2,275-175.8,309.8"></path><path fill="#31323d" d="M1228.6,2040.8c-3.4,30.5-8.1,60.7-13.2,90.9-2.6,15.1-5.4,30.1-8.2,45.2l-8.3,45.1-16.6,90.4a75.9,75.9,0,0,1-8.8,23.5,75.1,75.1,0,0,1-16.1,19.4,77.9,77.9,0,0,1-45.9,18.8c-2.1.2-4.2.2-6.3.2h-6l-11.5-.7-22.9-1.3-45.9-2.8a56.5,56.5,0,0,1-6.4-.7,38.7,38.7,0,0,1-6.7-1.7,36.8,36.8,0,0,1-12.3-7.3,35.3,35.3,0,0,1-8.3-11.7,43.4,43.4,0,0,1-3.1-13.5,58.3,58.3,0,0,1,1-13.3,31.5,31.5,0,0,1,.9-3.6,36.8,36.8,0,0,1,1.5-3.5,29.7,29.7,0,0,1,4.1-6.3,36.8,36.8,0,0,1,11-8.7,45,45,0,0,1,12.7-4.6,49.5,49.5,0,0,1,6.6-.8l2.6-.2,2.3-.3a25.8,25.8,0,0,0,4.2-1.2,16.9,16.9,0,0,0,3.8-1.9c4.6-3,7.7-8.4,9.4-14.8a54.6,54.6,0,0,0,1.6-10.1,47.1,47.1,0,0,0,.3-5.3v-5.5l-1-22.9-1.8-45.8c-.6-15.3-1.3-30.5-1.8-45.8v.5c-.6-5-1.3-9.9-2.1-14.9s-1.6-9.8-2.6-14.7-2.1-9.7-3.4-14.4-2.7-9.5-4.3-14.2-3.5-9.3-5.5-13.8-4.3-8.9-6.6-13.3a195.2,195.2,0,0,0-16.5-24.9h0a2.3,2.3,0,0,1,.4-3.2,2.2,2.2,0,0,1,2.9.2,157.1,157.1,0,0,1,19.8,23.9c2.9,4.3,5.5,8.8,8,13.4a151.2,151.2,0,0,1,6.7,14.1q3,7.4,5.4,14.7t4.2,15c1.3,5.1,2.3,10.2,3.3,15.2s1.7,10.2,2.4,15.3v.5c.9,15.3,1.6,30.6,2.4,45.9l2.3,45.9,1.1,22.9.2,2.9v3.1c0,2.1-.1,4.1-.2,6.2a69.1,69.1,0,0,1-2,12.5,51,51,0,0,1-2,6.3,39.9,39.9,0,0,1-3.1,6.2,32.4,32.4,0,0,1-9.8,10.4,35.6,35.6,0,0,1-13.2,5.3l-3.3.5-1.7.2h-1.5a35.5,35.5,0,0,0-4.7.6,29.9,29.9,0,0,0-8.8,3.2,23.3,23.3,0,0,0-6.9,5.4,14.1,14.1,0,0,0-2.2,3.4,12.2,12.2,0,0,0-.7,1.7,19.3,19.3,0,0,0-.5,2,39.2,39.2,0,0,0-.7,9.6,27.7,27.7,0,0,0,2,8.7,20.2,20.2,0,0,0,4.9,6.9,20.5,20.5,0,0,0,7.3,4.3,31.5,31.5,0,0,0,4.4,1.1c1.6.2,2.9.4,5,.5l45.8,2.6,22.9,1.4,11.4.7h5.4l5.2-.2a64.3,64.3,0,0,0,37.6-15.2,61.6,61.6,0,0,0,13.1-15.7,66.5,66.5,0,0,0,7.4-19.3l17.3-90,8.7-45c2.9-15.1,5.8-30.1,8.9-45.1,6.2-30,12.7-59.9,20.7-89.5a2.2,2.2,0,0,1,2.7-1.6A2.1,2.1,0,0,1,1228.6,2040.8Z"></path><path fill="#31323d" d="M1095.2,2319.6h-1.5l-1.7.2a17.3,17.3,0,0,0-3.2,1.1,21.2,21.2,0,0,0-5.7,3.6,30.1,30.1,0,0,0-7.8,11.3,56.8,56.8,0,0,0-3.9,13.7,118.3,118.3,0,0,0-1.4,14.6h0a6.3,6.3,0,0,1-6.5,6,6.2,6.2,0,0,1-6-6.5,2.5,2.5,0,0,1,.1-.8,109.3,109.3,0,0,1,3.6-15.8,70,70,0,0,1,6.6-15.2,37.8,37.8,0,0,1,11.4-12.5,27.7,27.7,0,0,1,7.8-3.6,20.4,20.4,0,0,1,4.3-.8h4.5a2.3,2.3,0,0,1,1.8,2.6,2,2,0,0,1-2,1.8Z"></path><path fill="#31323d" d="M1052.7,2314.9h-.7l-.9.2-1.6.4-1.6.7-1.5.7a26.2,26.2,0,0,0-5.5,3.9,33.7,33.7,0,0,0-7.8,11.2c-1,2.1-1.6,4.4-2.4,6.6a8.5,8.5,0,0,0-.4,1.7l-.4,1.7c-.3,1.2-.6,2.3-.8,3.5s-.7,4.7-.9,7l-.5,7.2v.4a6.3,6.3,0,0,1-12.5-.7,1.9,1.9,0,0,1,.1-.8l1.5-7.9c.6-2.6,1.4-5.2,2.1-7.8s1-2.6,1.4-3.8l.7-1.9c.3-.7.5-1.3.8-1.9a63.7,63.7,0,0,1,3.9-7.3,40.7,40.7,0,0,1,11.1-12.3,35.3,35.3,0,0,1,7.5-3.8l2-.7,2-.5,2.1-.3h2.3a2.2,2.2,0,0,1,2.1,2.3,2.1,2.1,0,0,1-1.8,2.1Z"></path><path fill="#31323d" d="M1673.7,2025.2c8.1,34.9,15,70,21.4,105.1l4.7,26.4,4.5,26.4,9.1,52.8,9.1,52.8,2.3,13.2a67.2,67.2,0,0,0,3.1,11.7,78.2,78.2,0,0,0,5.3,10.9,67,67,0,0,0,7.1,9.7,69.8,69.8,0,0,0,8.9,8.2,67.2,67.2,0,0,0,10.2,6.4c.8.5,1.8.8,2.7,1.3l2.7,1.1a38.6,38.6,0,0,0,5.5,1.7,41.3,41.3,0,0,0,11.6,1.3l53.2-1.8,26.7-.8,6.7-.2h6.6l2.7-.4,2.7-.5,2.6-.8,1.2-.5,1.2-.5a3.9,3.9,0,0,0,1.1-.6l1.1-.6,2-1.4c.5-.5,1.1-1,1.6-1.6l.7-.9.4-.4.3-.5a21.9,21.9,0,0,0,3.3-9.5,26.6,26.6,0,0,0,.3-2.8v-4.4c0-.5-.1-1-.1-1.5v-1.5c0-.2-.1-.5-.1-.7v-.6a23,23,0,0,0-1.3-5,23.7,23.7,0,0,0-2.3-4.8l-.6-1.1-.8-1c-.5-.7-1.1-1.2-1.6-1.9a20.7,20.7,0,0,0-3.8-2.8l-1-.5-1.1-.4-2.3-.7h-4l-1.9-.2a42.6,42.6,0,0,1-15.4-4.6,31.9,31.9,0,0,1-12-11.9,38.7,38.7,0,0,1-4.7-15.4,24.8,24.8,0,0,1-.2-3.8v-3.7l.2-6.7.6-26.9.6-26.8c0-1.1.1-2.3.2-3.4l.2-3.5.6-6.9.8-6.8c.3-2.3.6-4.5,1-6.8a261.4,261.4,0,0,1,14.1-52.9c.7-2.1,1.6-4.2,2.5-6.3l2.7-6.3c.9-2.1,1.9-4.2,2.8-6.2s1.9-4.2,3-6.2c4.2-8.1,8.5-16,13.4-23.7a271.6,271.6,0,0,1,33.4-42.6,2.2,2.2,0,0,1,3.2-.1,2.2,2.2,0,0,1,.2,2.9h0a375.6,375.6,0,0,0-28.7,44.6c-4.3,7.7-8.1,15.6-11.7,23.6-1,2-1.8,4-2.7,6s-1.7,4-2.5,6.1l-2.3,6.1c-.8,2.1-1.6,4.1-2.2,6.2a278.7,278.7,0,0,0-12.7,50.7c-.4,2.1-.6,4.3-.8,6.5l-.7,6.5c-.3,2.1-.3,4.3-.5,6.4l-.2,3.3c-.1,1-.2,2.1-.2,3.2l-.3,26.8-.4,26.7v6.7a7.1,7.1,0,0,0,.1,1.5v1.5a29.6,29.6,0,0,0,3.3,12.9,17.3,17.3,0,0,0,6.8,6.6,27,27,0,0,0,10.2,2.9h1.4l1.7.2,2.1.2h1.1l1,.3a32.5,32.5,0,0,1,4.2,1.1l2,.8,2,1a32.6,32.6,0,0,1,7,5.2,41.2,41.2,0,0,1,2.8,3.1l1.2,1.7,1.1,1.8a39.9,39.9,0,0,1,3.5,7.2,50.9,50.9,0,0,1,2.1,7.9v1.1a2.8,2.8,0,0,1,.1.9l.2,1.9c0,.6.1,1.2.1,1.8v3.8c0,.6-.1,1.3-.1,1.9s-.2,2.6-.4,3.9a35.2,35.2,0,0,1-5.4,15.5l-.6.9-.7.9-1.4,1.7c-1,1.1-2.1,2.1-3.1,3l-3.5,2.6-1.8,1-1.9,1-1.9.8a6.2,6.2,0,0,1-1.9.7c-1.2.4-2.5.9-3.8,1.2l-3.8.8-4,.6h-3.4l-3.4.2-6.7.2-26.8.9-53.9,1.7a63.3,63.3,0,0,1-15-1.7,61.8,61.8,0,0,1-7.3-2.3l-3.4-1.5a33.6,33.6,0,0,1-3.3-1.6,90,90,0,0,1-12.5-7.8,82.2,82.2,0,0,1-19.4-21.9,80.9,80.9,0,0,1-6.3-13.3,78.1,78.1,0,0,1-3.7-14.2l-2.2-13.2-8.6-52.9-8.6-52.9-4.3-26.4-4.1-26.5c-5.4-35.3-10.4-70.7-14-106.4a2.2,2.2,0,0,1,2-2.4A2.3,2.3,0,0,1,1673.7,2025.2Z"></path><path fill="#31323d" d="M1783.1,2307.4h2.4l2.3.2,4.5.8a32.5,32.5,0,0,1,8.4,3.5,37.6,37.6,0,0,1,13.3,12.7c.9,1.3,1.6,2.7,2.4,4l1.9,4.2a72.5,72.5,0,0,1,2.7,8.7,83.7,83.7,0,0,1,2.4,17.8,6.2,6.2,0,0,1-5.9,6.5,6.3,6.3,0,0,1-6.6-6v-.7a82.3,82.3,0,0,0-.2-15.7,47.2,47.2,0,0,0-1.4-7.5c-.3-1.2-.8-2.4-1.2-3.6a36.5,36.5,0,0,0-1.4-3.5,31.8,31.8,0,0,0-9.4-11.5,33.6,33.6,0,0,0-6.7-3.7l-3.7-1.1-1.9-.4-1.8-.3h-.2a2.2,2.2,0,0,1-2-2.4A2.3,2.3,0,0,1,1783.1,2307.4Z"></path><path fill="#31323d" d="M1833.8,2304.2h2.4l2.3.2,4.4.8a34.7,34.7,0,0,1,8.5,3.5,37.6,37.6,0,0,1,13.3,12.7,41,41,0,0,1,2.3,4,38.9,38.9,0,0,1,1.9,4.2,73.2,73.2,0,0,1,2.8,8.7,98.8,98.8,0,0,1,2.4,17.8,6.3,6.3,0,0,1-6,6.5,6.2,6.2,0,0,1-6.5-5.9v-.8a82.3,82.3,0,0,0-.2-15.7,66.3,66.3,0,0,0-1.5-7.5c-.3-1.2-.7-2.4-1.1-3.6a36.8,36.8,0,0,0-1.5-3.5,29.9,29.9,0,0,0-9.4-11.5,27,27,0,0,0-6.7-3.6,25.3,25.3,0,0,0-3.6-1.2l-1.9-.4-1.8-.3h-.2a2.2,2.2,0,0,1-2-2.4A2.1,2.1,0,0,1,1833.8,2304.2Z"></path><path fill="none" stroke="#31323d" stroke-linecap="round" stroke-miterlimit="10" stroke-width="12.5" d="M931.3,2117.4c-38.1,9.1-130.5,43.4-184.5,78.3-26.5,17.1-10.1,55.9,23.2,55.3l280.4-5.5"></path><path fill="#31323d" d="M840.4,2200.1a58.8,58.8,0,0,0-7.8,2.5,63.6,63.6,0,0,0-7.5,3.4c-4.7,2.7-8.9,6-11.7,10.1a20.7,20.7,0,0,0-3.8,13.3,37.6,37.6,0,0,0,4.5,14,6.3,6.3,0,0,1-2.6,8.5,6.4,6.4,0,0,1-8.5-2.6l-.3-.7h0a47.2,47.2,0,0,1-3.5-19.2,31.5,31.5,0,0,1,2.2-10,30.5,30.5,0,0,1,5.4-8.6,41.9,41.9,0,0,1,15.5-10.5,53.9,53.9,0,0,1,8.6-2.8,51.9,51.9,0,0,1,8.9-1.7,2.1,2.1,0,0,1,2.4,1.9,2.2,2.2,0,0,1-1.7,2.5Z"></path><path fill="#31323d" d="M793,2202.1a21.9,21.9,0,0,0-3.4,1l-3.2,1.4a29.8,29.8,0,0,0-6,3.6,19.9,19.9,0,0,0-7.6,10.2,21.1,21.1,0,0,0-1,6.1,8.6,8.6,0,0,0,.1,1.6,9.2,9.2,0,0,0,.1,1.6c.1.5.1,1,.2,1.6l.3,1.6a51.7,51.7,0,0,0,5,12.6,6.4,6.4,0,0,1-2.6,8.5,6.3,6.3,0,0,1-8.5-2.6,2.1,2.1,0,0,1-.3-.7H766a61.9,61.9,0,0,1-3.9-16.2v-4.4a34.2,34.2,0,0,1,.4-4.4,28.8,28.8,0,0,1,2.6-8.5,24.7,24.7,0,0,1,5.1-7.2,28.6,28.6,0,0,1,6.8-5.2,41.3,41.3,0,0,1,7.5-3.2l3.9-1.1a25.7,25.7,0,0,1,4-.6,2.2,2.2,0,0,1,.8,4.3Z"></path><path fill="none" stroke="#31323d" stroke-linecap="round" stroke-miterlimit="10" stroke-width="12.5" d="M2020.7,2120.2c47.4,13.8,136.8,46.1,179.8,75.5,26.1,17.8,10.1,55.9-23.2,55.3l-261.6-5.1"></path><path fill="#31323d" d="M2107.6,2193.7a64.1,64.1,0,0,1,8.9,2.1,55.8,55.8,0,0,1,8.6,3.2,43.9,43.9,0,0,1,15.4,11.2,29.7,29.7,0,0,1,5.4,8.7,34.4,34.4,0,0,1,2.2,10.1,47,47,0,0,1-3.5,19.5h-.1a6.2,6.2,0,1,1-11.6-4.5l.3-.7a36.5,36.5,0,0,0,4.4-14.3,21.2,21.2,0,0,0-3.8-13.7,37.8,37.8,0,0,0-11.7-10.7,73.9,73.9,0,0,0-7.4-3.8,62.2,62.2,0,0,0-7.9-2.8h-.1a2.2,2.2,0,0,1,.9-4.3Z"></path><path fill="#31323d" d="M2155.1,2195.7a25.9,25.9,0,0,1,4,.9c1.4.3,2.7.8,4,1.2a47.4,47.4,0,0,1,7.5,3.7,31.1,31.1,0,0,1,6.6,5.5,27.8,27.8,0,0,1,5.1,7.4,31.7,31.7,0,0,1,2.6,8.6,576,576,0,0,1,.4,4.5v4.4a60.2,60.2,0,0,1-4,16.6h0a6.3,6.3,0,0,1-11.7-4.4l.3-.8a46.6,46.6,0,0,0,5-12.9,25.6,25.6,0,0,0-.4-12.9,23.6,23.6,0,0,0-7.6-10.8,36.8,36.8,0,0,0-6-4,31.3,31.3,0,0,0-3.2-1.5,27.9,27.9,0,0,0-3.4-1.2h-.1a2.1,2.1,0,0,1-1.5-2.7A2.2,2.2,0,0,1,2155.1,2195.7Z"></path><path fill="none" stroke="#31323d" stroke-linecap="round" stroke-linejoin="round" stroke-width="12.5" d="M1701.4,934.3c122.3-98.3,87.6-238.2,75-273.8,43.7-28.7,61.6-2.9,86.9,13.2-9.2-58.6-54.8-61-84-45.5,24.1-19.4,24.1-19.4,65.5-25.2-89.6-39-98.5,22.9-103.1,56.2-14.6,58.8-32.4,94.7-56.1,120.6l-1.8,1.9c-39.8,43.8-75.3,71.7-75.3,71.7"></path><path fill="none" stroke="#31323d" stroke-linecap="round" stroke-linejoin="round" stroke-width="12.5" d="M1724.1,977c68.7-52.3,145.1-161.9,60.9-321.3"></path><path fill="#31323d" d="M1214.8,862.2a626.1,626.1,0,0,1-54.2-76.2c-16-26.8-30.1-54.9-40.6-84.6-2.6-7.4-5-14.9-7.1-22.5-1-3.8-2.1-7.6-2.9-11.4-.5-2-.9-3.9-1.3-5.8l-1.2-5.7a219,219,0,0,0-5.5-21.9,93.8,93.8,0,0,0-8.4-20c-3.5-6-8-11.1-13.5-14s-12.1-3.8-19.1-3.3a96.7,96.7,0,0,0-21.1,4.7c-7,2.3-14,5.2-21,8.2l-2.9-11.9h0a120.6,120.6,0,0,1,15.9.4,94.9,94.9,0,0,1,15.8,2.7,64,64,0,0,1,15.3,6,34.9,34.9,0,0,1,7.1,5.2,27.7,27.7,0,0,1,5.4,7.5v.2a4.5,4.5,0,0,1-2.2,5.9,3.9,3.9,0,0,1-2.6.3h0c-4.4-.5-8.6-1.2-12.7-1.6a59.3,59.3,0,0,0-11.9-.1,37.4,37.4,0,0,0-20.9,8.1c-6,4.7-10.7,11.2-14.5,18.3a125.8,125.8,0,0,0-9.3,22.7h0l-8.5-7.7c6.3-2.8,12.6-6.1,19.2-9.3a166.1,166.1,0,0,1,20.7-8.5,70.3,70.3,0,0,1,23.1-3.6,50.3,50.3,0,0,1,23.4,6.1h0a6.2,6.2,0,0,1,3.2,6.5c-2,12-3.7,24-5,36.1s-1.9,24.1-2.1,36.2a332.7,332.7,0,0,0,6.6,71.8,297.1,297.1,0,0,0,22.7,68.2,309.7,309.7,0,0,0,38.5,60.9,6.3,6.3,0,1,1-9.8,7.8,325.2,325.2,0,0,1-40-63.3,312.7,312.7,0,0,1-23.7-71.1A352,352,0,0,1,1063,729c.2-12.5.9-24.9,2.2-37.3s3-24.7,5.1-36.8l3.2,6.5a39.2,39.2,0,0,0-17.8-4.6,56.2,56.2,0,0,0-19.1,3.1,152.1,152.1,0,0,0-19,7.8c-6.3,3-12.7,6.4-19.4,9.4h-.1a6.1,6.1,0,0,1-8.2-3.1,5.9,5.9,0,0,1-.2-4.5h0a138.2,138.2,0,0,1,11-24.6c4.6-7.8,10.4-15.3,18.1-21a45.7,45.7,0,0,1,12.7-6.8,51.8,51.8,0,0,1,14-2.7,68.8,68.8,0,0,1,13.7.7c4.4.5,8.7,1.4,12.8,2l-4.7,6.4c-1.7-3.3-5-6-9-7.9a49.5,49.5,0,0,0-13-4.2,95.1,95.1,0,0,0-14.1-1.6,115.5,115.5,0,0,0-14.4.5h-.1a6.3,6.3,0,0,1-2.8-12c7.2-3.2,14.5-6.1,22.1-8.7a109.7,109.7,0,0,1,24.1-5.2,51.8,51.8,0,0,1,13,.4,40.9,40.9,0,0,1,12.9,4.3,38,38,0,0,1,10.7,8.3,50.9,50.9,0,0,1,7.7,10.4,105.8,105.8,0,0,1,9.6,22.6,236.4,236.4,0,0,1,5.8,23.1l1.1,5.6,1.2,5.5c.9,3.7,1.9,7.4,2.8,11,2,7.3,4.4,14.5,6.9,21.7,10.1,28.6,23.8,56,39.5,82.2a621.1,621.1,0,0,0,53.1,74.8h0a6.3,6.3,0,0,1-.8,8.8,6.2,6.2,0,0,1-8.8-.9Z"></path><path fill="none" stroke="#31323d" stroke-linecap="round" stroke-linejoin="round" stroke-width="12.5" d="M1072.8,653.8c-68.5,73.8-42.3,261.8,41.9,324.6"></path></g></g></g><g id="item_g"></g><g id="item_f"></g><g id="eye"><defs><linearGradient id="eyeColor1" x2="0%" y2="100%"><stop offset="0%" stop-color="#ef4b62"></stop></linearGradient><linearGradient id="eyeColor2" x2="0%" y2="100%"><stop offset="0%" stop-color="#ef4b62"></stop></linearGradient></defs><defs><clipPath id="eyeClipPath"><circle cx="1696" cy="1101.3" r="129.7" fill="#fff" stroke="#31323d" stroke-width="10" stroke-miterlimit="10" transform="translate(381.9 2638.3) rotate(-82.5)" stroke-linecap="round"></circle></clipPath><clipPath id="eyeClipPath2"><circle cx="1168.9" cy="1127" r="129.7" fill="#fff" stroke="#31323d" stroke-width="10" stroke-miterlimit="10" transform="translate(-137.7 163) rotate(-7.5)" stroke-linecap="round"></circle></clipPath></defs><circle cx="1696" cy="1101.3" r="129.7" fill="#fff" transform="translate(381.9 2638.3) rotate(-82.5)"></circle><g clip-path="url(#eyeClipPath)"><circle cx="1653.5" cy="1132.4" r="87.6" fill="url(#eyeColor1)" transform="translate(-134.2 226.5) rotate(-7.5)"></circle><circle cx="1657.1" cy="1133.7" r="64.7" fill="#31323d" transform="translate(-134.3 227) rotate(-7.5)"></circle><circle cx="1679.1" cy="1078.3" r="35.2" fill="#fff" transform="translate(-126.9 229.4) rotate(-7.5)"></circle></g><circle cx="1696" cy="1101.3" r="129.7" fill="none" stroke="#31323d" stroke-width="10" stroke-miterlimit="10" transform="translate(381.9 2638.3) rotate(-82.5)" stroke-linecap="round"></circle><path fill="none" stroke="#31323d" stroke-width="30" stroke-miterlimit="10" d="M1828.1 1011.3c-65.3 5.4-115.7-35.5-151.7-66.9" stroke-linecap="round"></path><circle cx="1168.9" cy="1127" r="129.7" fill="#fff" transform="translate(-137.7 163) rotate(-7.5)"></circle><g clip-path="url(#eyeClipPath2)"><circle cx="1211.4" cy="1158.2" r="87.6" fill="url(#eyeColor2)" transform="translate(-141.4 168.8) rotate(-7.5)"></circle><circle cx="1215" cy="1159.4" r="64.7" fill="#31323d" transform="translate(-141.5 169.3) rotate(-7.5)"></circle><circle cx="1237.1" cy="1104" r="35.2" fill="#fff" transform="translate(-134 171.7) rotate(-7.5)"></circle></g><circle cx="1168.9" cy="1127" r="129.7" fill="none" stroke="#31323d" stroke-width="10" stroke-miterlimit="10" transform="translate(-137.7 163) rotate(-7.5)" stroke-linecap="round"></circle><path fill="none" stroke="#31323d" stroke-width="30" stroke-miterlimit="10" d="M1036.8 1037c65.3 5.4 115.7-35.5 151.7-66.9" stroke-linecap="round"></path></g><g id="item_e"></g><g id="mouth"><g><path style="mix-blend-mode:multiply" fill="#595959" d="M1368.6 1437.1s12.6 65.9 78.6 64.9 83.5-74.6 83.5-74.6-34.7 39.8-72.8 40.3-89.3-30.6-89.3-30.6z" opacity=".2"></path><path fill="#31323d" d="M1534.5 1424.4a52.9 52.9 0 0 1-2.1 6 44 44 0 0 1-3.1 5.6 37.7 37.7 0 0 1-3.7 5.2 48.1 48.1 0 0 1-4.2 4.8 81.1 81.1 0 0 1-20.4 14.6 104.1 104.1 0 0 1-11.3 5.2c-3.9 1.5-7.8 2.8-11.8 3.9s-8 2.1-12.1 2.8l-6.1.9-6.2.7c-4.1.4-8.3.5-12.4.5s-8.3-.3-12.4-.7a103.5 103.5 0 0 1-12.4-2.1c-2-.4-4.1-1-6.1-1.6l-3.1-1-3-1.2a83.1 83.1 0 0 1-21.4-13.1 79.7 79.7 0 0 1-8.9-8.5 87.6 87.6 0 0 1-7.6-9.7 2.6 2.6 0 0 1 .8-3.5 2.4 2.4 0 0 1 3 .3h.1c2.8 2.6 5.8 5 8.8 7.3s6.2 4.3 9.4 6.3a89.5 89.5 0 0 0 20 9.1l2.6.8 2.6.6 5.4.9c3.6.6 7.3.9 11 1.2s7.4.2 11.1.2 7.4-.3 11.1-.7a152.3 152.3 0 0 0 43.3-10.4 100.9 100.9 0 0 0 19.4-10.5 55.2 55.2 0 0 0 15-15.8h.1a2.4 2.4 0 0 1 3.4-.8 2.5 2.5 0 0 1 1.2 2.7z"></path><path fill="#31323d" d="M1446.1 1228.4c0 10.9 0 21.8.4 32.6s1.4 21.2 4.5 31l1.3 3.6c.5 1.2.9 2.4 1.5 3.6a55.2 55.2 0 0 0 3.4 6.9 47.2 47.2 0 0 0 9.8 11.6 71.4 71.4 0 0 0 13.2 8.6c4.8 2.4 9.8 4.6 14.8 6.8a1.4 1.4 0 0 1 .8 1.9 1.5 1.5 0 0 1-1.8.9c-5.3-1.7-10.5-3.4-15.7-5.4a77.3 77.3 0 0 1-15.1-7.8 52.1 52.1 0 0 1-12.5-12.3 56.6 56.6 0 0 1-4.7-7.3c-.7-1.3-1.4-2.6-2-3.9s-1.3-2.6-1.8-4a95.4 95.4 0 0 1-5.1-16.5c-1.2-5.6-2-11.2-2.7-16.7-1.4-11.1-2.4-22-3.3-32.9a7.5 7.5 0 1 1 14.9-1.4c0 .3.1.5.1.7z"></path><path fill="#31323d" d="M1388.8 1338.6a161.1 161.1 0 0 0 14.8-9.4 95 95 0 0 0 13-11.3 50.1 50.1 0 0 0 9.3-13.8c.5-1.3 1-2.5 1.4-3.8s.7-2.6 1-4a73.7 73.7 0 0 0 1.3-8.4c1.4-11.3 1.3-23.1 1.4-34.9s-.1-23.7-.1-35.6a7.5 7.5 0 1 1 15 0v.7c-1.1 11.7-2 23.5-3 35.4s-2 23.8-4.5 35.9a74.3 74.3 0 0 1-2.3 9c-.4 1.4-.9 3-1.5 4.5s-1.4 3-2.1 4.4a54.7 54.7 0 0 1-11.7 14.8 100.9 100.9 0 0 1-14.7 10.8c-5.2 3.1-10.5 5.8-15.9 8.4a1.5 1.5 0 0 1-2-.7 1.5 1.5 0 0 1 .6-2z"></path><path fill="#31323d" d="M1418.5 1323.5a43.5 43.5 0 0 1 44.7-1s-19.4-14-24.4-46c0 0-2.3 36.3-20.3 47z"></path><path fill="#31323d" d="M1371.7 1203a14.9 14.9 0 0 1 2.3-16.1c8.2-9.4 26.4-23.8 61.9-26.8s53.2 8 61.9 16.1a14.8 14.8 0 0 1 3.8 15.9 20.8 20.8 0 0 1-17.2 13.7c-10 1.1-23.6 5.2-31.4 18.4a12.4 12.4 0 0 1-1.7 2.3l-.3.3a17.6 17.6 0 0 1-25.3.5s-8.2-11.8-35.2-11.8a20.8 20.8 0 0 1-18.7-12.1z"></path><path fill="#31323D" d="M1540.9 1255.1c14.3-2.5 28.7-4.6 43.1-6.2s28.9-2.6 43.4-3.1a494.9 494.9 0 0 1 86.9 4.2c28.7 4.2 57.1 11.3 83.9 22.3a267.4 267.4 0 0 1 73.6 45.1 264 264 0 0 0-74.6-42.8c-26.8-10.1-55.1-16.3-83.5-19.6a493 493 0 0 0-85.9-1.7c-14.3.9-28.5 2.3-42.7 4.3s-28.3 4.4-42.4 7.3a5 5 0 0 1-5.9-3.9 5.1 5.1 0 0 1 3.9-5.9z"></path><path fill="#31323D" d="M1715.3 1210.1c-12.9 0-25.8.5-38.7 1.4s-25.6 2.4-38.3 4.3-25.3 4.3-37.8 7.2-24.9 6.2-37.1 9.9a5 5 0 1 1-2.9-9.5h.3c12.7-3 25.4-5.7 38.3-7.7s25.7-3.7 38.6-4.8 25.9-1.7 38.8-1.8 25.9.2 38.8 1z"></path><path fill="#31323D" d="M1553.8 1275.2l5.9-.7 3-.3 2.9-.2h5.9l5.9.2h1.5l1.5.2 2.9.2 3 .3 2.9.5 5.8 1 5.7 1.3a143 143 0 0 1 22 7.6 188.2 188.2 0 0 1 20.3 10.7 220.3 220.3 0 0 1 35.8 28.6c5.4 5.3 10.6 10.8 15.6 16.6a221 221 0 0 1 13.9 18 201.7 201.7 0 0 0-14.9-17.2c-5.2-5.4-10.6-10.6-16.3-15.6a217.6 217.6 0 0 0-36.6-26.1 175.7 175.7 0 0 0-20.2-9.4 147.3 147.3 0 0 0-21.3-6.1l-5.4-.9-5.4-.7-2.8-.2-2.7-.2h-5.5l-5.4.2-2.7.2-2.7.3-2.7.2-2.7.5-5.3.9h-.4a5 5 0 1 1-1.7-9.9z"></path><path fill="#31323D" d="M1340.9 1281c-14.7-5.3-30.2-9.2-45.7-12.6s-31.2-5.8-47-7.7-31.7-3.1-47.6-3.5a420.9 420.9 0 0 0-47.7 1.4 323.4 323.4 0 0 0-47.1 7.7 218.8 218.8 0 0 0-44.8 16.4 150.2 150.2 0 0 0-38.7 27.6 133.8 133.8 0 0 0-27.2 39.2 135.2 135.2 0 0 1 26.3-40.1 154 154 0 0 1 38.5-29 219.6 219.6 0 0 1 44.9-17.7 308.3 308.3 0 0 1 47.5-9 411.6 411.6 0 0 1 48.3-2.7c16.2 0 32.3.7 48.4 2.2s32 3.7 47.9 6.7a343.8 343.8 0 0 1 47.3 11.7 5 5 0 0 1 3.2 6.3 5.1 5.1 0 0 1-6.3 3.2h-.2z"></path><path fill="#31323D" d="M1192.8 1221.4a268.4 268.4 0 0 1 79.5 1.9 275.1 275.1 0 0 1 39 9.9 269.2 269.2 0 0 1 37.3 15.5 5.1 5.1 0 0 1 2.2 6.7 5 5 0 0 1-6.8 2.2h-.2a266.1 266.1 0 0 0-72.5-29.3 268.5 268.5 0 0 0-78.5-6.9z"></path><path fill="#31323D" d="M1331.3 1302.6c-4-.9-8-1.7-12-2.2a100 100 0 0 0-12.2-.8 101.4 101.4 0 0 0-12.3.7c-4 .5-8.1 1.2-12.1 2.1-16.1 3.7-31.4 11-45.5 20.1a235.6 235.6 0 0 0-38.9 32.4c-5.9 6-11.6 12.3-17 18.9a252.6 252.6 0 0 0-15.2 20.5 254.2 254.2 0 0 1 14.2-21.3c5.1-6.8 10.5-13.5 16.2-19.9a236 236 0 0 1 37.9-34.7c13.9-10.1 29.5-18.4 46.4-23.2a109.7 109.7 0 0 1 12.9-2.9 96.8 96.8 0 0 1 13.2-1.4 98.4 98.4 0 0 1 13.3.2 99.6 99.6 0 0 1 13.2 1.8 5 5 0 0 1-1.8 9.8c-.1 0-.2 0-.2-.1z"></path></g></g><g><defs><linearGradient id="alpaca__d" x1="1498.84" x2="1411.52" y1="1005.5" y2="871.71" gradientUnits="userSpaceOnUse"><stop offset=".09" stop-opacity="0"></stop><stop offset=".97"></stop></linearGradient><linearGradient id="alpaca__e" x1="1574.76" x2="1565.3" y1="877.93" y2="932.33" gradientUnits="userSpaceOnUse"><stop offset=".03" stop-opacity="0"></stop><stop offset="1"></stop></linearGradient><linearGradient id="alpaca__a" x1="1514.47" x2="1254.89" y1="755.49" y2="928.54" gradientUnits="userSpaceOnUse"><stop offset=".39" stop-opacity="0"></stop><stop offset="1"></stop></linearGradient><linearGradient id="alpaca__f" x1="1599.9" x2="1295.46" y1="638.82" y2="739.77" xlink:href="#alpaca__a"></linearGradient><linearGradient id="alpaca__b" x1="1428.08" x2="1681.43" y1="780.29" y2="890.97" gradientUnits="userSpaceOnUse"><stop offset="0" stop-color="#fff" stop-opacity="0"></stop><stop offset=".41" stop-color="#fff" stop-opacity=".37"></stop><stop offset=".75" stop-color="#fff" stop-opacity=".66"></stop><stop offset=".87" stop-color="#fff"></stop></linearGradient><linearGradient id="alpaca__g" x1="1395.37" x2="1654.86" y1="707.56" y2="776.56" gradientUnits="userSpaceOnUse"><stop offset="0" stop-color="#fff" stop-opacity="0"></stop><stop offset=".66" stop-color="#fff" stop-opacity=".66"></stop><stop offset=".72" stop-color="#fff"></stop></linearGradient><linearGradient id="alpaca__h" x1="1278.5" x2="1615.99" y1="915.8" y2="1001.3" gradientUnits="userSpaceOnUse"><stop offset="0" stop-color="#fff" stop-opacity="0"></stop><stop offset=".72" stop-color="#fff"></stop></linearGradient><linearGradient id="alpaca__i" x1="1374.87" x2="1703.35" y1="827.48" y2="1038.97" xlink:href="#alpaca__b"></linearGradient><linearGradient id="alpaca__c" x1="1294.54" x2="1258.92" y1="924.86" y2="766.31" gradientUnits="userSpaceOnUse"><stop offset="0" stop-color="#fff" stop-opacity="0"></stop><stop offset="1" stop-color="#fff"></stop></linearGradient><linearGradient id="alpaca__j" x1="1358.55" x2="1373.49" y1="753.61" y2="658.25" xlink:href="#alpaca__c"></linearGradient></defs><g style="isolation:isolate"><path fill="#ffce6c" d="M1351.9,758.4c-16.7-13.5-76-55.5-117.5,18-9.3,19.9-19.3,127.8,89.1,137-2.3,17.7-12.4,95.8,94.4,117.6-20.4-35.6-47.1-74.2-8.1-128-3.1,35.8,94.7,100.8,132.7,15.4-2.6-7.2,46.5,23.4,70.2-56.5,5.4-84.8-37.9-88.6-68-76,25.9-94.6-15.7-159.6-105.2-161.2C1302.5,639.3,1351.9,758.4,1351.9,758.4Z"></path><path style="mix-blend-mode:multiply" fill="url(#alpaca__d)" d="M1443.9,874.9c-26,25.8-9.5,69.7,46.4,85.2-40.2-3.7-75.4-14.4-80.5-57.1C1418.5,886.7,1443.9,874.9,1443.9,874.9Z" opacity=".4"></path><path fill="url(#alpaca__e)" d="M1545.4,892c11.4,11.5,25.2,22.2,53.5,1.6-17.8,18.4-22.4,27.5-53.3,25.6C1543.3,912,1545.4,892,1545.4,892Z" opacity=".4"></path><path style="mix-blend-mode:multiply" fill="url(#alpaca__a)" d="M1328,741.7s-57.7,8.7-45.6,80.1c4.8,28.5,42.4,50.6,65.7,40.8l19.2-19.6s-63.3,138.9,20.4,174.5c0,0-63.7,1.1-68.9-78V913.4s-103.8,7-89.7-135.7c0,0,70.9-101.8,139,5.5" opacity=".4"></path><path style="mix-blend-mode:multiply" fill="url(#alpaca__f)" d="M1436.4,620.5s-21.8-2.7-48,50.6c-21.7,44-19.3,73.7-19.3,121.4,0,0-7.9-27.7-27.3-46.9C1341.8,745.6,1321.2,629.2,1436.4,620.5Z" opacity=".4"></path><path style="mix-blend-mode:multiply" fill="#231f20" d="M1248.6,876.1s.4,58.4,48.9,72.1c0,0-35,78.8,90.2,134.9,0,0,20.1.4-1.6-24.8-29.9-34.8-24.9-48.4-24.9-48.4l63.1,28.4s-67.6-67.1-10-138c0,0-30.2,65.2,33.1,91.1s88.8-32.5,89.6-51.9c0,0,65.6,27.1,71.5-54.9,0,0-22.3,41.8-66,33.8,0,0-13.4,44.4-69,36s-62.3-35.4-53.7-62.4c0,0-64.9,45.9-16.7,125.5l9.2,13.5-56.1-29s-30.5-18.1-35-88.6C1321.2,913.4,1262,912.3,1248.6,876.1Z" opacity=".2"></path><g><path style="mix-blend-mode:overlay" fill="url(#alpaca__b)" d="M1537,808.7c30.6,1.8,71.5,46.5,45,102.5,8.6-9,30.8-24.2,32.7-66.5s-25.6-64.2-50.2-64.7S1537,808.7,1537,808.7Z" opacity=".8"></path><path style="mix-blend-mode:overlay" fill="url(#alpaca__g)" d="M1505.7,843c10.6-31.7,22.8-80.6,8.2-136.9-8.7-33.5-26.7-67.3-101.9-73.6,24.2-9.4,73-35.9,125.7,41.9C1582.8,772.5,1505.7,843,1505.7,843Z" opacity=".8"></path><path style="mix-blend-mode:overlay" fill="url(#alpaca__h)" d="M1445.1,872.9c-30-7.7-140.5,83.1-47.3,153,5,4.7,20.3,10.4,20.3,10.4s-38.2-48.5-28.3-91.4c8.4-26.1,33.7-56.7,33.7-56.7Z" opacity=".8"></path><path style="mix-blend-mode:overlay" fill="url(#alpaca__i)" d="M1500.1,847.6c23.8-2.3,35.3,6.2,44.6,29.1s-9.6,68-28.7,75.1-52.7,5.9-52.7,5.9,45.8-9.4,53.3-52C1525.7,854.5,1500.1,847.6,1500.1,847.6Z" opacity=".8"></path><path style="mix-blend-mode:overlay" fill="url(#alpaca__c)" d="M1296,734.9c-44.1,2.4-90,106.8,1.5,171.7.2,8.2-30.5-10.4-30.5-10.4s-36.7-23.8-37.4-73.5,7.2-66.3,45.6-85.2A84.2,84.2,0,0,1,1296,734.9Z" opacity=".5"></path><path style="mix-blend-mode:overlay" fill="url(#alpaca__j)" d="M1361.4,771.3c-7.2-20.2-21.7-100.7,39.6-138.8-27.7,10.6-48.7,29.3-55.2,55s.9,66.1.9,66.1Z" opacity=".5"></path></g><g><path fill="#31323d" d="M1498.6,845.6a143.4,143.4,0,0,0,19.1-22.8,179.7,179.7,0,0,0,14.4-25.7,164.4,164.4,0,0,0,9.9-27.8,142.1,142.1,0,0,0,4.3-28.9,122.5,122.5,0,0,0-2.1-29,115.3,115.3,0,0,0-9.1-27.3,108.6,108.6,0,0,0-16-23.9c-1.6-1.8-3.2-3.6-4.8-5.2a13.6,13.6,0,0,0-1.2-1.2l-1.3-1-.6-.6-.7-.5-1.3-1a73.4,73.4,0,0,0-12.1-7.3,114.3,114.3,0,0,0-27.2-9,134.4,134.4,0,0,0-29-2.6,126.4,126.4,0,0,0-28.7,3.9,94.7,94.7,0,0,0-26.3,10.8,77.4,77.4,0,0,0-21,18.4,76.6,76.6,0,0,0-7.6,11.8,71.2,71.2,0,0,0-5.1,13.1,92.1,92.1,0,0,0-3.8,28.3,152.3,152.3,0,0,0,3,29.2h0a6.2,6.2,0,1,1-12.2,2.5c-1.1-5.2-2.1-10.4-2.7-15.6a123.2,123.2,0,0,1-1.3-16,114.4,114.4,0,0,1,4-32.3,84.4,84.4,0,0,1,5.9-15.4,86.3,86.3,0,0,1,8.8-14.2,93.4,93.4,0,0,1,11.3-12.2,107,107,0,0,1,13.4-9.8,111.5,111.5,0,0,1,30.1-12.5,132.6,132.6,0,0,1,31.9-4.4,150.4,150.4,0,0,1,32.1,2.9,122,122,0,0,1,30.7,10.3,94.9,94.9,0,0,1,14.2,8.7l1.7,1.3,1.6,1.3,1.7,1.5c.6.5,1,1,1.5,1.5,2,2,3.8,4,5.6,6a125.6,125.6,0,0,1,17.8,27.1,120.4,120.4,0,0,1,9.9,30.8,133,133,0,0,1,2,32.1,160.2,160.2,0,0,1-5.1,31.6,156.7,156.7,0,0,1-11.3,29.7,134.1,134.1,0,0,1-8,13.8,144.7,144.7,0,0,1-9.5,12.7,96.8,96.8,0,0,1-23.9,20.8,2.5,2.5,0,0,1-3.4-.9,2.6,2.6,0,0,1,.4-3.1Z"></path><path fill="#31323d" d="M1366.7,792.9a82,82,0,0,0-24.4-35.3,73.2,73.2,0,0,0-18-11.2,65.8,65.8,0,0,0-41.4-2.9,85.6,85.6,0,0,0-10.1,3.4l-4.9,2.2-2.4,1.2-2.3,1.3c-11.6,6.8-19.8,18.9-23.9,32.5s-5,28.4-2.9,42.8a103.2,103.2,0,0,0,14.8,40.5,94.2,94.2,0,0,0,13.5,16.6,79,79,0,0,0,17.3,12.6c12.5,6.9,27,10.2,41.6,10.6h.1a6.3,6.3,0,0,1-.2,12.5,112.7,112.7,0,0,1-24.5-2.6,101.1,101.1,0,0,1-11.9-3.5,98.1,98.1,0,0,1-11.5-5.1,95.8,95.8,0,0,1-36.3-33.5,116.6,116.6,0,0,1-17.1-46.1,122,122,0,0,1-1.2-12.3c-.1-4.1-.1-8.2.2-12.3a98,98,0,0,1,4.5-24.5,79.4,79.4,0,0,1,11.4-22.7,61.9,61.9,0,0,1,19.2-17.5l2.8-1.6,2.8-1.3c1.9-.9,3.8-1.8,5.7-2.5a83.6,83.6,0,0,1,12-3.8,75.7,75.7,0,0,1,12.5-2,89.7,89.7,0,0,1,12.7,0,78.9,78.9,0,0,1,45.6,19.9,68.1,68.1,0,0,1,15.1,19.9,55.3,55.3,0,0,1,6.1,23.8,2.6,2.6,0,0,1-2.5,2.6,2.5,2.5,0,0,1-2.4-1.7Z"></path><path fill="#31323d" d="M1372.9,842.7a149.1,149.1,0,0,0-21.4,24.3c-3.1,4.4-5.9,9-8.6,13.6A135.6,135.6,0,0,0,1336,895a105.1,105.1,0,0,0-7.9,30.3,82.2,82.2,0,0,0,2.9,30.5,80.7,80.7,0,0,0,14.3,27,95.4,95.4,0,0,0,10.6,11.4,130.9,130.9,0,0,0,12.3,10l6.6,4.5c2.3,1.3,4.5,2.8,6.9,4.1,4.6,2.7,9.4,5.1,14.2,7.5,9.8,4.5,19.9,8.5,30.3,12.1l-6.5,10.2h0a129.5,129.5,0,0,1-16.2-19.8,110.4,110.4,0,0,1-6.6-11,103.7,103.7,0,0,1-5.5-11.7,108,108,0,0,1-7-25,95.7,95.7,0,0,1-.7-26.2,92.6,92.6,0,0,1,19.9-47.8,99.4,99.4,0,0,1,18.4-17.7l5.2-3.7q2.7-1.8,5.4-3.3a117.8,117.8,0,0,1,11.2-5.7,2.5,2.5,0,0,1,3.3,1.4,2.3,2.3,0,0,1-.7,2.9h0l-9.2,7.8-4.5,3.9c-1.4,1.4-2.8,2.8-4.3,4.1a132.2,132.2,0,0,0-15.1,17.7,85.7,85.7,0,0,0-10.9,19.9,83.1,83.1,0,0,0-5.1,21.9c-1.4,15,1.4,30.4,7,44.6a134.1,134.1,0,0,0,24.5,39.1h0a6.3,6.3,0,0,1-.1,8.8,6.1,6.1,0,0,1-6.1,1.5h-.2a247,247,0,0,1-32.1-11.8,171.7,171.7,0,0,1-15.5-7.7l-7.4-4.4-7.3-4.9a124.8,124.8,0,0,1-25.8-24,93.1,93.1,0,0,1-16.4-31.9,89.4,89.4,0,0,1-2.7-35.6,110.2,110.2,0,0,1,9.8-33.9,123.9,123.9,0,0,1,18.8-29.1,109.6,109.6,0,0,1,26.2-22.3,2.5,2.5,0,0,1,3.4.9,2.5,2.5,0,0,1-.5,3.1Z"></path><path fill="#31323d" d="M1418.7,901.3a39.8,39.8,0,0,0,6.5,23.2,52.9,52.9,0,0,0,8.1,9.6,61.1,61.1,0,0,0,10.2,7.8c14.7,8.9,33,13,49.9,10.5a54.9,54.9,0,0,0,23.4-9.1,48.7,48.7,0,0,0,16-19.3,61.2,61.2,0,0,0,4.5-12.2,95.1,95.1,0,0,0,2.7-13.1,124.5,124.5,0,0,0,1.2-13.7c.3-4.7.2-9.3.2-14.1h0a2.6,2.6,0,0,1,2.6-2.5,2.6,2.6,0,0,1,2.4,1.8,105.5,105.5,0,0,1,3.9,29.2l-.2,3.8c0,1.2-.2,2.5-.3,3.7s-.3,2.6-.5,3.8a25,25,0,0,1-.6,3.8,69.6,69.6,0,0,1-4.6,14.7,62.7,62.7,0,0,1-19.4,24.8,63.4,63.4,0,0,1-13.9,7.8,67.3,67.3,0,0,1-15.2,4.2,84.4,84.4,0,0,1-30.9-.8,87.7,87.7,0,0,1-28.6-11.5,71,71,0,0,1-12.4-9.6,63.2,63.2,0,0,1-10-12.4,53.4,53.4,0,0,1-6.2-15,49.2,49.2,0,0,1-1.3-16.2,6.1,6.1,0,0,1,6.7-5.7,6.3,6.3,0,0,1,5.8,6.4Z"></path><path fill="none" stroke="#31323d" stroke-linecap="round" stroke-linejoin="round" stroke-width="12.5" d="M1544.7,785.9c44.9-22.9,71.7,23.6,69.9,62.2s-33.1,81.4-72.1,70.3"></path></g></g></g><g id="item_d"></g><g id="item_c"></g><g id="item_b"></g><g id="item_a"></g></svg>