<svg xmlns="http://www.w3.org/2000/svg" viewBox="0 0 3000 3000" xmlns:xlink="http://www.w3.org/1999/xlink"><g id="item_j"></g><g id="item_i"></g><g clip-path="url(#kittyClipPath)"><g><g id="tailFur"><clipPath id="tailFurClipPath"><path d="M1942.6 1959.2c69 30 162.4 39.9 162.4 39.9s347.1 45 398.6-246c19.5-161.9-177.1-195.4-177.1-195.4s91.8-36.7 124.7-7c0 0-18.5-30.3-46.3-32.7 0 0 118.2-79.9 213.3 102.6 0 0-12.3-93-50.5-111.6 0 0 142.5 32.6 167.6 241.5 0 0 26.3-41.6 23.4-76.4 0 0 67.9 99.8-7.3 214.7 0 0 58.9-56.3 63.7-86.5 0 0 73.9 212.1-151.5 244.1 0 0 61.2 22.9 101.8 3.3 0 0-39.1 85.3-165.9 74.3 0 0 61.7 42.1 99.3 33.5 0 0-93.2 47.7-251.3 13.2 0 0 53.6 49.5 93.2 50.5l-10.5 2.6a635.5 635.5 0 0 1-345.6-16.1l-151-50.4-90.9-37.1v-161z" fill="none" stroke="#31323d" stroke-linecap="round" stroke-linejoin="round" stroke-width="12.5"></path></clipPath><g clip-path="url(#tailFurClipPath)"><path fill="#f8f8e0" d="M1904 1480.4h939v765.57h-939z"></path><path d="M2719.4 1836.1c11.5 9.8 45-2 51.6-23.9 2.9-9.5 1.7-24.4-8.5-31.1s-23.7-1.6-30.5 2.9c-18.2 12.1-23.3 42.9-12.6 52.1zM2373.2 2194.4c-8.2 15.8 14.3 51.5 41.4 53.2 11.7.8 28.6-4.6 33.7-18.1s-4.4-27.8-11.5-34.4c-18.9-17.9-55.9-15.5-63.6-.7zM2539.2 1860.9c19.5 29.6 84.9 43.7 101.8 11.1 7.3-14.1 8.1-42-9.6-64.9s-44.1-27.8-57.9-26.8c-36.8 2.8-52.6 53-34.3 80.6zM2722.4 1942.7c-20.8 40.2 36.2 130.5 104.9 134.9 29.8 1.9 72.4-11.6 85.4-46s-11.2-70.5-29.1-87.3c-48-45.3-141.8-39.2-161.2-1.6zM2673.7 1476.6c-33.8 16.6-51.3 71.4-36.9 116.9 16.9 53.5 74.3 82.9 125.4 73.3 31.4-5.9 70.7-28.3 77.3-61.8 12.9-66-104.9-158.2-165.8-128.4zM2129.7 2293.9c10 36.3 60.7 63.6 108 57.9 55.7-6.7 95.2-57.6 95.3-109.6.1-31.9-14.7-74.8-46.4-87.4-62.5-25-175 73.7-156.9 139.1zM2233.4 2089.1c0 9 9.9 18.5 21.1 20.3 13.2 2 25.6-7.1 29-19.1 2.1-7.3 1.4-18.1-5-23.1-12.8-9.8-45 5.7-45.1 21.9zM2084.9 2027.5c8.9 1.3 19.7-7.2 23-18.2 3.8-12.8-3.6-26.3-15-31.3-7-3-17.8-3.9-23.6 1.9-11.4 11.2-.5 45.3 15.6 47.6zM2328.6 1789.9c-36.8 8-66.8 57.2-63.6 104.7 3.7 56 52.4 98.2 104.3 101 31.9 1.8 75.4-10.7 89.8-41.6 28.3-61-64.3-178.6-130.5-164.1zM2458.4 1410c-26.7-2.2-57.3 25-65.1 58-9.1 38.8 15.2 77.7 49.9 90.4 21.3 7.8 53.5 8.4 69.7-9.6 32-35.7-6.5-134.9-54.5-138.8zM2608.7 1335.9c-26.7-2.2-57.3 25-65.1 58-9.1 38.8 15.2 77.7 49.9 90.4 21.3 7.8 53.5 8.4 69.7-9.6 32-35.6-6.5-134.9-54.5-138.8zM2638.5 1682.1c-13.3 4.9-19.1 34.6-9 55.8 5 10.5 18.2 27.4 35.4 25.5 12.3-1.3 22.8-11.7 25.7-22.6 7.6-28-33.8-65.5-52.1-58.7zM2011.1 2110.6c-3 27.6 27 59.6 61.5 67.1 32.6 7.1 74.8-6.5 87.3-40.9 9.8-27-1.6-58.8-21.9-73.9-41.3-30.5-122.3 5.7-126.9 47.7zM2555.9 1629.5c-12.7-19-48.5-23.4-74.2-10s-43.8 43.6-33.6 71.9c8 22.2 32 36.3 52.9 35.1 42.1-2.4 74.2-68.1 54.9-97zM2640.8 1989.4c1.5-22.8-24.2-48.1-52.8-53.1-27.1-4.7-61.3 7.9-70.4 36.6-7.1 22.5 3.3 48.3 20.6 60 34.9 23.7 100.3-8.8 102.6-43.5zM2718.4 2099.1c.9-12.8-13.6-27.1-29.7-29.9s-34.5 4.4-39.6 20.6c-4 12.7 1.8 27.2 11.6 33.8 19.6 13.3 56.4-5 57.7-24.5zM2889.3 1779.2c-18.6-13.4-53.6-4.9-73 16.7s-25.8 56.2-6.2 79.1c15.3 18 42.7 22.8 61.8 14.3 38.5-17.1 45.5-89.8 17.4-110.1zM2331.6 2113.7c-13.3-37.6 27.5-84.6 53.6-81 17.2 2.4 26.1 26.4 27.7 30.6 11.9 31.9-.8 78.7-28.6 85-20.2 4.5-45.1-13.2-52.7-34.6zM2186.9 2027.7c-36.1-17-40.8-79-19.9-95.1 13.8-10.6 37.2 0 41.3 1.9 31 14 55.4 55.9 40.3 80.1-11 17.5-41.1 22.8-61.7 13.1zM2265.7 1519.8c-12.7 4.9-20.9 32.5-8.3 49.6 11.3 15.4 36.5 18.7 46.3 8.7 5.5-5.6 4.9-14.3 4.7-17.4-1.7-23-27.8-46.5-42.7-40.9z" fill="#ffd5c7"></path><path d="M2478.7 1804.1c-.9-13.6-24.8-29.6-44.9-22.7-18 6.2-28.7 29.3-22.1 41.6 3.7 6.9 12.2 8.9 15.3 9.7 22.4 5.3 52.7-12.7 51.7-28.6zM2527.4 2089c-12.4-5.7-52 10.9-45.3 39.7 2.9 12.4 15.8 25.4 26.9 23.7 22.4-3.5 38.1-54.3 18.4-63.4zM2761.2 2164.4c-17.1-2-39.7 15.7-39.8 35.1s20.6 30 27.6 33.9c10.1 5.6 33.2 14.9 42.6 5.8 14.3-13.8-2-71.5-30.4-74.8zM2583.9 2150.9c-15.2 21-14.2 58.5 8.8 74.4s55.6.1 71.3-15.4 28.1-41 18.6-59c-13.9-26.3-75.4-32.2-98.7 0z" fill="#ffd5c7"></path><defs><clipPath id="tailShadowClipPath"><path d="M1942.6 1959.2c69 30 162.4 39.9 162.4 39.9s347.1 45 398.6-246c19.5-161.9-177.1-195.4-177.1-195.4s91.8-36.7 124.7-7c0 0-18.5-30.3-46.3-32.7 0 0 118.2-79.9 213.3 102.6 0 0-12.3-93-50.5-111.6 0 0 142.5 32.6 167.6 241.5 0 0 26.3-41.6 23.4-76.4 0 0 67.9 99.8-7.3 214.7 0 0 58.9-56.3 63.7-86.5 0 0 73.9 212.1-151.5 244.1 0 0 61.2 22.9 101.8 3.3 0 0-39.1 85.3-165.9 74.3 0 0 61.7 42.1 99.3 33.5 0 0-93.2 47.7-251.3 13.2 0 0 53.6 49.5 93.2 50.5l-10.5 2.6a635.5 635.5 0 0 1-345.6-16.1l-151-50.4-90.9-37.1v-161z" fill="none"></path></clipPath><linearGradient id="tailShadowGradient" x1="2504.56" y1="1675.22" x2="2504.56" y2="1448.67" gradientUnits="userSpaceOnUse"><stop offset="0" stop-color="#fff" stop-opacity="0"></stop><stop offset=".72" stop-color="#fff"></stop></linearGradient><linearGradient id="tailShadowGradient2" x1="1665.26" y1="2120.22" x2="2549.1" y2="2120.22" gradientUnits="userSpaceOnUse"><stop offset="0" stop-color="gray"></stop><stop offset=".27" stop-color="#7d7d7d"></stop><stop offset=".46" stop-color="#747474"></stop><stop offset=".64" stop-color="#646464"></stop><stop offset=".8" stop-color="#4d4d4d"></stop><stop offset=".95" stop-color="#303030"></stop><stop offset="1" stop-color="#242424"></stop></linearGradient><linearGradient id="tailShadowGradient3" x1="2662.04" y1="1821.69" x2="2662.04" y2="1468.7" gradientTransform="translate(-13.43 21.89)" href="#tailShadowGradient" xlink:href="#tailShadowGradient"></linearGradient><linearGradient id="tailShadowGradient4" x1="2752.98" y1="1933.56" x2="2752.98" y2="1592.06" href="#tailShadowGradient" xlink:href="#tailShadowGradient"></linearGradient><linearGradient id="tailShadowGradient5" x1="2521.14" y1="2094.95" x2="2807.7" y2="2094.95" href="#tailShadowGradient2" xlink:href="#tailShadowGradient2"></linearGradient><linearGradient id="tailShadowGradient6" x1="2408.12" y1="2162.15" x2="2697.59" y2="2162.15" href="#tailShadowGradient2" xlink:href="#tailShadowGradient2"></linearGradient><linearGradient id="tailShadowGradient7" x1="2671.02" y1="1930.16" x2="2859.95" y2="1930.16" href="#tailShadowGradient" xlink:href="#tailShadowGradient"></linearGradient></defs><g clip-path="url(#tailShadowClipPath)" style="mix-blend-mode:overlay"><path d="M2413.6 1500.9c80.6 30.4 147.9 94.3 182.8 173a2.2 2.2 0 0 0 4.3-.5c6.2-37.6 5.3-76.7-6.4-112.9-12.5-38.6-37.8-73.7-73-93.9s-80.2-24.3-116.8-6.8" opacity=".3" fill="url(#tailShadowGradient)" style="mix-blend-mode:overlay"></path><path d="M2580.5 1513.8c84.8 73.9 125.3 194.9 102.9 305a2.2 2.2 0 0 0 3.8 2c45.1-46.5 63.1-116.4 52.8-180.6-10.7-66.7-49.6-127-100.5-171.4" opacity=".3" fill="url(#tailShadowGradient3)" style="mix-blend-mode:overlay"></path><path d="M2756.9 1685.6c7.6 85.4-14.8 173.1-62.2 244.5a2.3 2.3 0 0 0 2.7 3.3c60.4-22.7 101.8-84 111.5-148.1 10.1-66.3-9.7-134.4-41.9-193.3" opacity=".3" fill="url(#tailShadowGradient4)" style="mix-blend-mode:overlay"></path><path d="M2815.2 1815.5c-.8 48.4-17 96.2-44.3 136.2-25.2 36.9-59.6 67.2-98.7 89a2.3 2.3 0 0 0 1.3 4.2 740 740 0 0 0 74.9-11.4c13.9-2.8 27.8-6.1 40.6-12.4 34.4-16.8 55.5-52.8 68.3-88.9 3.1-8.6 4.9-20.1-2.7-25.1" opacity=".3" fill="url(#tailShadowGradient7)" style="mix-blend-mode:overlay"></path></g><g clip-path="url(#tailShadowClipPath)" style="mix-blend-mode:multiply"><path d="M2042 1944.9c13.2 65.6 41.6 120.5 90.7 149.8 128.8 76.8 266.9 119.3 416.4 131.2.7 41.4-25.3 79.9-59.4 103.5s-75.3 34.3-116.1 41.5c-194.7 34.1-402.2-7.1-567.5-115.6-56.1-36.8-109.5-84.1-131.1-147.6-20.8-61.3-7.3-133.1 34.4-182.6s110.1-75.1 174.1-64.9" opacity=".25" fill="url(#tailShadowGradient2)" style="mix-blend-mode:multiply"></path><path d="M2753.1 2055.2c-69.5 37.1-154.5 43.8-229 18.1a2.3 2.3 0 0 0-2.7 3.2c9.8 17.9 26.3 31.7 44.4 41.3 19.8 10.5 41.6 16.6 63.2 22.4 28.7 7.7 58 15.1 87.7 13.7s60.3-13 77.9-36.9 18.3-61.1-3.5-81.3" opacity=".25" fill="url(#tailShadowGradient5)" style="mix-blend-mode:multiply"></path><path d="M2672.3 2157.6c-91.9 11.2-187.6-11.9-264.2-63.8 7.8 45.4 43.4 81.8 83.4 104.6 52.2 29.8 116.2 41.3 173.8 24.1 13.9-4.2 29-11.8 32.3-25.9" opacity=".25" fill="url(#tailShadowGradient6)" style="mix-blend-mode:multiply"></path></g></g></g></g><g id="tail"><path d="M1942.6 1959.2c69 30 162.4 39.9 162.4 39.9s347.1 45 398.6-246c19.5-161.9-177.1-195.4-177.1-195.4s91.8-36.7 124.7-7c0 0-18.5-30.3-46.3-32.7 0 0 118.2-79.9 213.3 102.6 0 0-12.3-93-50.5-111.6 0 0 142.5 32.6 167.6 241.5 0 0 26.3-41.6 23.4-76.4 0 0 67.9 99.8-7.3 214.7 0 0 58.9-56.3 63.7-86.5 0 0 73.9 212.1-151.5 244.1 0 0 61.2 22.9 101.8 3.3 0 0-39.1 85.3-165.9 74.3 0 0 61.7 42.1 99.3 33.5 0 0-93.2 47.7-251.3 13.2 0 0 53.6 49.5 93.2 50.5l-10.5 2.6a635.5 635.5 0 0 1-345.6-16.1l-151-50.4-90.9-37.1v-161z" fill="none" stroke="#31323d" stroke-linecap="round" stroke-linejoin="round" stroke-width="12.5"></path></g></g><g id="item_h"></g><g clip-path="url(#kittyClipPath)"><g><g id="bodyFur"><g><defs><clipPath id="furClipPath"><path fill="none" d="M1117.6,979.2a240.6,240.6,0,0,0-15.5,59L919.2,1999.6a248.6,248.6,0,0,0,12.7,117.6l-.6.2c-38.1,9.1-130.5,43.4-184.5,78.3-26.5,17.1-10.1,55.9,23.2,55.3l266.9-5.2h0c4.5,2.7,9.1,5.4,13.8,7.9v3.3c.4,23.3-6.6,42.4-29.9,43.5-15.6.8-28.2,9.9-30.7,21.1-4.7,21.5,5.9,38.9,27.3,40.4l84.2,5c26.5,1.6,51.9-11.3,65.4-34.1a72.2,72.2,0,0,0,8.8-23.9l5-26.6h533.6l3.4,20.7a71.6,71.6,0,0,0,43.2,54.3,52.6,52.6,0,0,0,22.2,3.9l91.9-3c22-2.2,30.1-15.7,27.8-36.9-.7-7-6.2-24.5-24.4-25.6-15.8-.8-25.3-8.6-28.1-21.9h0a243.5,243.5,0,0,0,65.3-28l261.5,5.1c33.3.6,49.3-37.5,23.2-55.3-43-29.4-132.4-61.7-179.8-75.5l-.8-.3a247.8,247.8,0,0,0,6.4-155.8L1731.1,1004a267.2,267.2,0,0,0-10.3-27.9s34.7-20.6,56.7-54,59.3-92.6,39.3-170.6-31.3-97.4-31.3-97.4,32-22.6,76,18c0,0,0-69.3-81.3-46,0,0,23.3-25.3,61.3-22,6-9.7-90.7-42-98.7,46-8,56.7-50.9,130.1-75.3,149.4l-52.7,51.3c-12,3.3-15.3-.7-31.6-7.1a240.1,240.1,0,0,0-84-15.1H1341a240.2,240.2,0,0,0-120,32s-94.2-115.1-107.5-207.8-75.3-56-92-52c0,0,38.7,4,46,18.7,0,0-44-16-70,47.3,0,0,46.7-28.7,76.7-13.3,0,0-39.4,30-40.7,105.3S1053.7,943,1117.6,979.2Z"></path></clipPath><linearGradient id="furClipPath__b" x1="1844.99" x2="1844.99" y1="2256.39" y2="835.98" gradientUnits="userSpaceOnUse"><stop offset="0" stop-color="#fff" stop-opacity="0"></stop><stop offset=".72" stop-color="#fff"></stop></linearGradient><linearGradient id="furClipPath__a" x1="1759.91" x2="1826.55" y1="647.85" y2="590.41" gradientUnits="userSpaceOnUse"><stop offset="0" stop-color="#fff" stop-opacity="0"></stop><stop offset="1" stop-color="#fff"></stop></linearGradient><linearGradient id="furClipPath__d" x1="1770.12" x2="1854.37" y1="679.19" y2="640.89" xlink:href="#furClipPath__a"></linearGradient><linearGradient id="furClipPath__e" x1="2116.32" x2="2116.32" y1="2248.97" y2="2113.28" xlink:href="#furClipPath__b"></linearGradient><linearGradient id="furClipPath__f" x1="1044.74" x2="1044.74" y1="2253.08" y2="2117.39" gradientTransform="matrix(-1, 0, 0, 1, 1878.82, 0)" xlink:href="#furClipPath__b"></linearGradient><linearGradient id="furClipPath__g" x1="916.62" x2="1280" y1="1544.97" y2="1544.97" xlink:href="#furClipPath__b"></linearGradient><linearGradient id="furClipPath__h" x1="1699.49" x2="1827.4" y1="1019.88" y2="682.1" xlink:href="#furClipPath__a"></linearGradient><linearGradient id="furClipPath__i" x1="1675.51" x2="1803.43" y1="1019.22" y2="678.09" xlink:href="#furClipPath__a"></linearGradient><linearGradient id="furClipPath__j" x1="1167.22" x2="1029.35" y1="1060.01" y2="675.12" xlink:href="#furClipPath__a"></linearGradient><linearGradient id="furClipPath__k" x1="1227.83" x2="1063.53" y1="977.08" y2="727.76" xlink:href="#furClipPath__a"></linearGradient><linearGradient id="furClipPath__l" x1="1131" x2="991.98" y1="596.71" y2="654.16" xlink:href="#furClipPath__a"></linearGradient><linearGradient id="furClipPath__m" x1="1141.12" x2="1044.46" y1="607.34" y2="606.08" xlink:href="#furClipPath__a"></linearGradient></defs><g><g clip-path="url(#furClipPath)"><path style="mix-blend-mode:overlay" fill="url(#furClipPath__b)" d="M1547.8,836.6s70.1,33.6,92.1,64.9,44.1,86.3,65.6,180.9c58.9,258.7,229.4,683.2,275.5,888s-92.3,286-92.3,286l61.1-35.5s63-74.8,72.5-107.6c20.8-71.9,139-33,117.2-147.7-31.7-166.5-305.7-970.4-305.7-970.4s-94.6,29-111.4-17.2c-7.1-19.6-29.9-44.6-39.7-62.1-20.7-36.8-73.2-64.7-124.2-79.9Z" opacity=".6"></path><path style="mix-blend-mode:overlay" fill="url(#furClipPath__a)" d="M1838.2,600.3c-35.5-15.4-60,3-63.9,29.8a80.2,80.2,0,0,0,19.9-12.3l22.3-11.5Z" opacity=".6"></path><path style="mix-blend-mode:overlay" fill="url(#furClipPath__d)" d="M1850.6,640c-21.7-16.8-57.2-16.7-77.8,18.4,12.2-2.7,30.6-9.2,30.6-9.2l21.2.2,38,20.3Z" opacity=".6"></path><path style="mix-blend-mode:overlay" fill="url(#furClipPath__e)" d="M1999.2,2162.4s113.2,21.1,98.3,83.6l92.7,3,43.3-6.5-4.3-68.5-206.9-60.7Z" opacity=".6"></path><path style="mix-blend-mode:overlay" fill="url(#furClipPath__f)" d="M951.2,2166.5s-113.2,21.1-98.3,83.6l-92.7,3-43.3-6.5,4.3-68.5,206.9-60.7Z" opacity=".6"></path><path style="mix-blend-mode:overlay" fill="url(#furClipPath__g)" d="M1124.3,1019.4,948.2,1954.5s-53.6,175,102.2,279l.3,20.1s-124.6-57.2-133.6-215.2,100.1-603.9,100.1-603.9l81.8-433.1s88.4-169.6,181-165C1280,836.4,1139.2,940,1124.3,1019.4Z" opacity=".6"></path><path style="mix-blend-mode:overlay" fill="url(#furClipPath__h)" d="M1782,667.7c10.2,28.9,83.5,178.4-67,294.5-5,4.1,8,17.9,8,17.9l47.3-47.7s27-34.5,35.3-58.8,42.8-84.9-16.1-209Z" opacity=".6"></path><path style="mix-blend-mode:overlay" fill="url(#furClipPath__i)" d="M1687.5,910.1c39.2-34.3,94.1-63.6,88.6-242.7,7.2,30.1,14,73,14,73s-2.3,77.7-19.7,106.4-47.4,75.7-65.4,84.6C1697,921.9,1687.5,910.1,1687.5,910.1Z" opacity=".6"></path><path style="mix-blend-mode:overlay" fill="url(#furClipPath__j)" d="M1076.8,662.2c-20.2,37.6-68.2,182.5,40.5,304.6l-1.8,4.4s-10.9.7-21-11.6-61-90.3-59.6-154.4,1.4-99.9,30.9-137.9C1072.5,661,1076.8,662.2,1076.8,662.2Z" opacity=".6"></path><path style="mix-blend-mode:overlay" fill="url(#furClipPath__k)" d="M1149.5,913.8c-32.2-32.3-74.8-92.2-68.6-259.2-5.3,16.1-12.7,101.6-12.7,101.6s17.8,128.1,60.7,165.4c3.6,4.9,11.1,4.7,11.1,4.7Z" opacity=".6"></path><path style="mix-blend-mode:overlay" fill="url(#furClipPath__l)" d="M1004.7,662.6c11.6-20.1,28.2-37.1,73-32.5-10.2-9.1-35.6-10.4-35.6-10.4l-27,14.1-13,27.9Z" opacity=".6"></path><path style="mix-blend-mode:overlay" fill="url(#furClipPath__m)" d="M1040.3,601.5c21.9-6.8,42.9,3.8,57.4,20.5,0,0-6.7-28-19.1-30.3s-41.9,4.2-41.9,4.2Z" opacity=".6"></path></g></g></g><g id="bodyFur"><g clip-path="url(#furClipPath)"><path fill="#f8f8e0" d="M724.1 562.8h1509.4v1824.09H724.1z"></path><ellipse cx="1280.5" cy="1837.3" fill="#ffd5c7" rx="52.4" ry="46.2"></ellipse><path fill="#ffd5c7" d="M1438.8 1814.4c-2.3 17.7 30.9 43.5 57 36 11.3-3.3 25.3-14 25.5-28.5s-13.6-24.6-22.5-28.5c-23.8-10.4-57.8 4.5-60 21zM1684.2 2256.9c-2.3 17.7 30.9 43.5 57 36 11.3-3.3 25.3-14 25.5-28.5s-13.6-24.7-22.5-28.5c-23.8-10.4-57.8 4.4-60 21zM1119.8 2191.4c-2.4 17.7 30.9 43.6 57 36 11.3-3.3 25.3-14 25.5-28.5s-13.6-24.6-22.5-28.5c-23.9-10.3-57.8 4.5-60 21zM1190.8 1573.7c-23.9 26.1-21.5 93 14.2 101.4 15.4 3.6 42.7-2.4 60.5-25.2s16.1-49.6 11.8-62.7c-11.7-35-64.2-38-86.5-13.5zM808.1 2140.3c.4 35.4 47.7 82.8 79.5 64.6 13.8-7.8 29.6-30.8 27.1-59.7s-21.9-47.2-34-53.9c-32.4-17.6-72.9 15.9-72.6 49zM1916 1880c-5.9 44.9 78.4 110.5 144.5 91.3 28.7-8.3 64.3-35.5 64.7-72.3s-34.5-62.4-57-72.2c-60.5-26.3-146.6 11.3-152.2 53.2zM1765.9 1483.4c-26.2 27-24 84.5 5 122.4 34 44.6 98 52.7 142.8 26.4 27.5-16.1 56.9-50.6 51.7-84.3-10.2-66.5-152.4-113.3-199.5-64.5zM859.2 1747.2c-32.7 18.6-46.7 74.4-29.6 118.9 20.1 52.4 79.2 78.2 129.6 65.5 31-7.7 68.9-32.6 73.4-66.4 8.9-66.6-114.4-151.5-173.4-118zM1497.9 1490.1c-25.8 7-45.4 43-41.5 76.7 4.6 39.6 40.7 67.8 77.7 68.1 22.7.1 53.2-10.3 62.3-32.8 17.9-44.3-52-124.6-98.5-112zM2023.7 2195.7c-25.9 7-45.4 42.9-41.5 76.6 4.6 39.6 40.7 67.9 77.6 68.1 22.7.2 53.3-10.2 62.4-32.7 17.9-44.4-52-124.6-98.5-112zM1776.5 1662.9c-10.8 9.1-6.3 39.1 10.5 55.5 8.3 8.1 26.4 19.6 42 12 11-5.4 17.4-18.8 16.5-30-2.5-28.9-54.1-50.1-69-37.5zM1093.3 1692.3c-22.6 3.2-42.1 33.5-41.1 62.6.9 27.4 20.2 58.3 50.2 61.4 23.5 2.3 46.6-13.1 54.5-32.4 16-39.1-29.2-96.4-63.6-91.6zM1674.2 1673.5c-18.4-13.6-53.5-5.5-73.2 15.9s-26.4 55.8-7.1 79c15.1 18.1 42.5 23.3 61.6 15 38.8-16.6 46.7-89.2 18.7-109.9zM1830.8 1976.4c-6.3-21.9-39.1-37-67.7-32-27.1 4.8-55 28.3-53.8 58.3 1 23.6 19.5 44.4 39.7 49.5 40.9 10.4 91.4-42.4 81.8-75.8zM1983.8 1671.5c-22-4-52.2 1.5-63.1 28.4s-5.2 61.6 21 76.5c20.5 11.7 47.9 6.9 63-7.5 30.5-29.2 13.3-91.2-20.9-97.4zM893.3 1436.2c-25.5 41.3-16.2 131.5 32.5 169.3 46 35.7 136.5 28.8 182-16 35.8-35.1 41.9-93.8 21.1-132.9-7.1-13.4-13.7-28.8-26.1-37.9-23-16.8-57-22.3-87.5-25-50.6-4.6-101.9 10-122 42.5zM1073.9 1945.7c33.2-22.1 88.7 5.9 91.7 32 1.9 17.3-19.3 31.9-23 34.4-28 19.3-76.5 18.6-89.3-6.9-9.4-18.4 1.7-46.9 20.6-59.5zM1413 906.9c-13.2 16.1-13.4 46 1.5 63 20.2 23.2 59.2 12.2 70.5 9 27.3-7.6 63-30.3 60-49.5-4.6-29.6-102.6-58.3-132-22.5zM1256.7 913c-8.8 14.9 10 47.9 30 47.1 10.4-.4 19.5-10 23.5-19.2.8-1.9 6.3-15.3 0-25.7-10.2-16.9-45.1-16.2-53.5-2.2zM1377.6 1023.9c-16.5 11.9-20.3 47.6-4.3 64.1 11.9 12.1 31 10.2 47 8.5 2.3-.2 50.5-5.5 53.4-23.4 3.7-23.2-67.7-69.6-96.1-49.2zM1687.2 714.5c-9.6 5.2-68 80.6-80.2 92.9-9.3 9.3-56.3 15.7-52.8 27.5 35.2 117.3 136.4 156.6 185.5 165.6 28 5.1 89.9-7 150.5-110.3 33.9-57.8 22.4-136.4-4-160.5-15.2-13.8 74.7-20.3-64-25.5-30.8-1.1-107.2-5-135 10.3z"></path><path fill="#ffd5c7" d="M1603.3 850.4l50.9 36.4 49.3 52.7 49.3 76.6 38.9 63.3c5.2-8.1 1193.7-742.5 1192.5-747.9-2-8.7 0-319.9 0-319.9H1959.8zM1354 1658.9c-10.3 8.9-8.6 37.6 9 49.5 15.8 10.6 40.7 5.2 46.5-7.5 3.3-7.2-.3-15.1-1.5-18-9.3-21.1-41.9-34.4-54-24zM1650.8 1853.9c-5.4-12.5-33.3-19.4-49.9-6.1-14.9 11.9-17.1 37.3-6.6 46.6 5.8 5.3 14.5 4.3 17.6 4 23-2.7 45.3-29.9 38.9-44.5zM863 2012.4c17-20.8 64.5-18.8 87 6 14.9 16.4 15 38.3 15 46.5 0 11.4.1 31.1-13.5 42-18.9 15.1-49.2.9-51 0-34.9-17-57.2-70.4-37.5-94.5zM1800.2 2119.8c-13.5-1.2-45.2 27.9-29.1 52.7 6.9 10.7 23.5 18.5 33.3 13.1 20-10.9 17.5-63.9-4.2-65.8zM1757.3 1799.9c-16.7 3.9-32 28.3-25.5 46.5s29.6 21.2 37.5 22.5c11.4 1.8 36.3 2.7 42-9 8.7-17.8-26.2-66.5-54-60zM2039 2096.9c-16.8 3.9-32 28.2-25.5 46.5s29.6 21.2 37.5 22.5c11.4 1.8 36.3 2.7 42-9 8.7-17.8-26.2-66.5-54-60z"></path><path fill="#585666" d="M1156.9 2405.5l71.7-361.7a137.4 137.4 0 0 1 134.7-110.6H1539a137.3 137.3 0 0 1 135.1 112.8l61.2 337.7z"></path><path fill="#ffd5c7" d="M1917.2 2099.5c-5.6 19.5 5.1 46.8 26.2 52.4s41-14.7 48.4-30.2 9.8-37.7-2-48.4c-17.2-15.7-64-3.7-72.6 26.2z"></path></g></g><g><g><path fill="#f8f8e0" d="M1217.2,857.5c-12.6-13.7-82.9-101-100.7-189.5-13.2-88.5-46.9-89.8-97.4-64.1,19.5.8,40.3-1.9,48.4,17.1-4.1-.6-54.5-17.3-69.8,49.5,26-12.5,55.9-27.6,78.8-14.6,6.4,15.5-49.7,119.8,59,276.9C1177,871.6,1217.2,857.5,1217.2,857.5Z"></path><path fill="#585666" d="M1134.3,935.4c-28.3-46.8-81.5-113.3-57.5-273.2-6-5.5-55.7,33.5-37,168.4,23.7,122.6,73.4,147.2,75.7,140.6S1128,944.9,1134.3,935.4Z"></path><path fill="#f8f8e0" d="M1624.9,837.5c34.7-29.8,91.7-69.5,117.2-181.6,4.6-101.7,96.1-55.6,96.1-55.6s-37.8,6-53.9,26.7c15.7-6,61.7-19.5,78.3,42.7-19.3-12.1-52.3-38.9-85.2-8.2,6.3,24.9,55.4,164.9-75.4,266.6-14.9-22-45.9-55-83.9-75.9-1.1-2-6.2-2.8-4.9-4.1C1621.1,839.4,1624.9,837.5,1624.9,837.5Z"></path><path fill="#585666" d="M1704.9,933.8c-2.9-1,137.3-103.5,75.9-267,7.4-10.6,14.2,7.8,19.4,21.3S1879,858.9,1726.1,972C1722.1,960.1,1706.7,934.3,1704.9,933.8Z"></path></g></g></g></g><g id="shadow" style="mix-blend-mode:multiply"><defs><clipPath id="shadow__d"><path fill="none" d="M1117.6,979.2a240.6,240.6,0,0,0-15.5,59L919.2,1999.6a248.6,248.6,0,0,0,12.7,117.6l-.6.2c-38.1,9.1-130.5,43.4-184.5,78.3-26.5,17.1-10.1,55.9,23.2,55.3l266.9-5.2h0c4.5,2.7,9.1,5.4,13.8,7.9v3.3c.4,23.3-6.6,42.4-29.9,43.5-15.6.8-28.2,9.9-30.7,21.1-4.7,21.5,5.9,38.9,27.3,40.4l84.2,5c26.5,1.6,51.9-11.3,65.4-34.1a72.2,72.2,0,0,0,8.8-23.9l5-26.6h533.6l3.4,20.7a71.6,71.6,0,0,0,43.2,54.3,52.6,52.6,0,0,0,22.2,3.9l91.9-3c22-2.2,30.1-15.7,27.8-36.9-.7-7-6.2-24.5-24.4-25.6-15.8-.8-25.3-8.6-28.1-21.9h0a243.5,243.5,0,0,0,65.3-28l261.5,5.1c33.3.6,49.3-37.5,23.2-55.3-43-29.4-132.4-61.7-179.8-75.5l-.8-.3a247.8,247.8,0,0,0,6.4-155.8L1731.1,1004a267.2,267.2,0,0,0-10.3-27.9s34.7-20.6,56.7-54,59.3-92.6,39.3-170.6-31.3-97.4-31.3-97.4,32-22.6,76,18c0,0,0-69.3-81.3-46,0,0,23.3-25.3,61.3-22,6-9.7-90.7-42-98.7,46-8,56.7-50.9,130.1-75.3,149.4l-52.7,51.3c-12,3.3-15.3-.7-31.6-7.1a240.1,240.1,0,0,0-84-15.1H1341a240.2,240.2,0,0,0-120,32s-94.2-115.1-107.5-207.8-75.3-56-92-52c0,0,38.7,4,46,18.7,0,0-44-16-70,47.3,0,0,46.7-28.7,76.7-13.3,0,0-39.4,30-40.7,105.3S1053.7,943,1117.6,979.2Z"></path></clipPath><linearGradient id="shadow__a" x1="1180.91" x2="1714.46" y1="2153.98" y2="2153.98" gradientUnits="userSpaceOnUse"><stop offset="0" stop-color="gray"></stop><stop offset=".27" stop-color="#7d7d7d"></stop><stop offset=".46" stop-color="#747474"></stop><stop offset=".64" stop-color="#646464"></stop><stop offset=".8" stop-color="#4d4d4d"></stop><stop offset=".95" stop-color="#303030"></stop><stop offset="1" stop-color="#242424"></stop></linearGradient><linearGradient id="shadow__e" x1="1028.58" x2="1028.58" y1="855.47" y2="2254.41" xlink:href="#shadow__a"></linearGradient><linearGradient id="shadow__f" x1="1971.82" x2="1971.82" y1="1970.17" y2="2305.13" xlink:href="#shadow__a"></linearGradient><linearGradient id="shadow__c" x1="1110.61" x2="1188.06" y1="620.08" y2="876.33" gradientUnits="userSpaceOnUse"><stop offset=".03" stop-opacity="0"></stop><stop offset="1"></stop></linearGradient><linearGradient id="shadow__b" x1="997.55" x2="1077.72" y1="656.63" y2="642.08" gradientUnits="userSpaceOnUse"><stop offset="0" stop-opacity="0"></stop><stop offset="1"></stop></linearGradient><linearGradient id="shadow__g" x1="1029.67" x2="1080.86" y1="589.98" y2="619" xlink:href="#shadow__b"></linearGradient><linearGradient id="shadow__h" x1="1060.14" x2="1123.73" y1="768.9" y2="960.42" xlink:href="#shadow__b"></linearGradient><linearGradient id="shadow__i" x1="1779.26" x2="1649.43" y1="529.81" y2="866.44" xlink:href="#shadow__c"></linearGradient></defs><g><g clip-path="url(#shadow__d)"><path style="mix-blend-mode:multiply" fill="url(#shadow__a)" d="M1213.2,2110.7c-22.2,91.7,60.8,117.5,83.2,119.1,41.2,3.1,203.6,5.7,287.8-7.9,43.7-7,109.2-65.4,87.3-196.3l43,256.8H1180.9Z" opacity=".2"></path><path style="mix-blend-mode:multiply" fill="url(#shadow__e)" d="M1233.2,855.5c-66,66-73.4,124.1-101.7,247.9-48.7,214.1-107.5,672-126.4,823.4a927.6,927.6,0,0,0-6.8,98.5v3.3c23.6,26,47.7,88.8,52.6,176.8l1.4,49s-31.4-.7-81-.7c-62,0-110.9-111.8-79.2-278.2,28.4-149.6-68-915.6-68-915.6l282.1-44.2S1122.2,913.5,1233.2,855.5Z" opacity=".2"></path><path style="mix-blend-mode:multiply" fill="url(#shadow__f)" d="M1854.3,2157.4s29.9-91.4,66.3-124.9c-39.4,75,14.1,92.7,28.1,87.7,53.7-19.2,74.9-66.7,79.2-150l65.3,116.3s-55,256-204,214l-38.7-18.1Z" opacity=".2"></path><path style="mix-blend-mode:multiply" fill="url(#shadow__c)" d="M1170.2,898c-21.6-28.1-61.6-190-65.5-257.5,8.5,62.4,99.5,211.6,108.9,218.6C1196.2,866.6,1178.5,889,1170.2,898Z" opacity=".2"></path><path style="mix-blend-mode:multiply" fill="url(#shadow__b)" d="M999,665.3c20.1-24,39.5-34.7,60.9-28.6s21,17.9,21,17.9l-30.1-4Z" opacity=".2"></path><path style="mix-blend-mode:multiply" fill="url(#shadow__g)" d="M1037,600.5c19.4-3.1,30.6.5,37.7,7.1s.3,16.9.3,16.9l-12.1-11.9Z" opacity=".2"></path><path style="mix-blend-mode:multiply" fill="url(#shadow__h)" d="M1119.5,962.2c-10.1-16.9-65.2-96.9-50.6-197.4,7.7,43.9,23.8,117.9,64.4,172.1A282,282,0,0,0,1119.5,962.2Z" opacity=".2"></path><path style="mix-blend-mode:multiply" fill="url(#shadow__i)" d="M1656.3,878.7c28.2-22.4,93-84.2,97.6-209.8,0,0,3-75.5,39.3-78.3-30.2,10-36.9,19.8-36.9,19.8l-20.8,69.2s-24,76.5-50.7,100.4-68.8,49.2-68.8,49.2-2.3,21.5,3.1,24C1635.1,861.1,1656.3,878.7,1656.3,878.7Z" opacity=".2"></path></g></g></g><g id="highlight" style="mix-blend-mode:overlay"><defs><clipPath id="highlight__c"><path fill="none" d="M1117.6,979.2a240.6,240.6,0,0,0-15.5,59L919.2,1999.6a248.6,248.6,0,0,0,12.7,117.6l-.6.2c-38.1,9.1-130.5,43.4-184.5,78.3-26.5,17.1-10.1,55.9,23.2,55.3l266.9-5.2h0c4.5,2.7,9.1,5.4,13.8,7.9v3.3c.4,23.3-6.6,42.4-29.9,43.5-15.6.8-28.2,9.9-30.7,21.1-4.7,21.5,5.9,38.9,27.3,40.4l84.2,5c26.5,1.6,51.9-11.3,65.4-34.1a72.2,72.2,0,0,0,8.8-23.9l5-26.6h533.6l3.4,20.7a71.6,71.6,0,0,0,43.2,54.3,52.6,52.6,0,0,0,22.2,3.9l91.9-3c22-2.2,30.1-15.7,27.8-36.9-.7-7-6.2-24.5-24.4-25.6-15.8-.8-25.3-8.6-28.1-21.9h0a243.5,243.5,0,0,0,65.3-28l261.5,5.1c33.3.6,49.3-37.5,23.2-55.3-43-29.4-132.4-61.7-179.8-75.5l-.8-.3a247.8,247.8,0,0,0,6.4-155.8L1731.1,1004a267.2,267.2,0,0,0-10.3-27.9s34.7-20.6,56.7-54,59.3-92.6,39.3-170.6-31.3-97.4-31.3-97.4,32-22.6,76,18c0,0,0-69.3-81.3-46,0,0,23.3-25.3,61.3-22,6-9.7-90.7-42-98.7,46-8,56.7-50.9,130.1-75.3,149.4l-52.7,51.3c-12,3.3-15.3-.7-31.6-7.1a240.1,240.1,0,0,0-84-15.1H1341a240.2,240.2,0,0,0-120,32s-94.2-115.1-107.5-207.8-75.3-56-92-52c0,0,38.7,4,46,18.7,0,0-44-16-70,47.3,0,0,46.7-28.7,76.7-13.3,0,0-39.4,30-40.7,105.3S1053.7,943,1117.6,979.2Z"></path></clipPath><linearGradient id="highlight__b" x1="1844.99" x2="1844.99" y1="2256.39" y2="835.98" gradientUnits="userSpaceOnUse"><stop offset="0" stop-color="#fff" stop-opacity="0"></stop><stop offset=".72" stop-color="#fff"></stop></linearGradient><linearGradient id="highlight__a" x1="1759.91" x2="1826.55" y1="647.85" y2="590.41" gradientUnits="userSpaceOnUse"><stop offset="0" stop-color="#fff" stop-opacity="0"></stop><stop offset="1" stop-color="#fff"></stop></linearGradient><linearGradient id="highlight__d" x1="1770.12" x2="1854.37" y1="679.19" y2="640.89" xlink:href="#highlight__a"></linearGradient><linearGradient id="highlight__e" x1="2116.32" x2="2116.32" y1="2248.97" y2="2113.28" xlink:href="#highlight__b"></linearGradient><linearGradient id="highlight__f" x1="1044.74" x2="1044.74" y1="2253.08" y2="2117.39" gradientTransform="matrix(-1, 0, 0, 1, 1878.82, 0)" xlink:href="#highlight__b"></linearGradient><linearGradient id="highlight__g" x1="916.62" x2="1280" y1="1544.97" y2="1544.97" xlink:href="#highlight__b"></linearGradient><linearGradient id="highlight__h" x1="1699.49" x2="1827.4" y1="1019.88" y2="682.1" xlink:href="#highlight__a"></linearGradient><linearGradient id="highlight__i" x1="1675.51" x2="1803.43" y1="1019.22" y2="678.09" xlink:href="#highlight__a"></linearGradient><linearGradient id="highlight__j" x1="1167.22" x2="1029.35" y1="1060.01" y2="675.12" xlink:href="#highlight__a"></linearGradient><linearGradient id="highlight__k" x1="1227.83" x2="1063.53" y1="977.08" y2="727.76" xlink:href="#highlight__a"></linearGradient><linearGradient id="highlight__l" x1="1131" x2="991.98" y1="596.71" y2="654.16" xlink:href="#highlight__a"></linearGradient><linearGradient id="highlight__m" x1="1141.12" x2="1044.46" y1="607.34" y2="606.08" xlink:href="#highlight__a"></linearGradient></defs><g><g clip-path="url(#highlight__c)" style="opacity:0.35"><path style="mix-blend-mode:overlay" fill="url(#highlight__b)" d="M1547.8,836.6s70.1,33.6,92.1,64.9,44.1,86.3,65.6,180.9c58.9,258.7,229.4,683.2,275.5,888s-92.3,286-92.3,286l61.1-35.5s63-74.8,72.5-107.6c20.8-71.9,139-33,117.2-147.7-31.7-166.5-305.7-970.4-305.7-970.4s-94.6,29-111.4-17.2c-7.1-19.6-29.9-44.6-39.7-62.1-20.7-36.8-73.2-64.7-124.2-79.9Z" opacity=".6"></path><path style="mix-blend-mode:overlay" fill="url(#highlight__a)" d="M1838.2,600.3c-35.5-15.4-60,3-63.9,29.8a80.2,80.2,0,0,0,19.9-12.3l22.3-11.5Z" opacity=".6"></path><path style="mix-blend-mode:overlay" fill="url(#highlight__d)" d="M1850.6,640c-21.7-16.8-57.2-16.7-77.8,18.4,12.2-2.7,30.6-9.2,30.6-9.2l21.2.2,38,20.3Z" opacity=".6"></path><path style="mix-blend-mode:overlay" fill="url(#highlight__e)" d="M1999.2,2162.4s113.2,21.1,98.3,83.6l92.7,3,43.3-6.5-4.3-68.5-206.9-60.7Z" opacity=".6"></path><path style="mix-blend-mode:overlay" fill="url(#highlight__f)" d="M951.2,2166.5s-113.2,21.1-98.3,83.6l-92.7,3-43.3-6.5,4.3-68.5,206.9-60.7Z" opacity=".6"></path><path style="mix-blend-mode:overlay" fill="url(#highlight__g)" d="M1124.3,1019.4,948.2,1954.5s-53.6,175,102.2,279l.3,20.1s-124.6-57.2-133.6-215.2,100.1-603.9,100.1-603.9l81.8-433.1s88.4-169.6,181-165C1280,836.4,1139.2,940,1124.3,1019.4Z" opacity=".6"></path><path style="mix-blend-mode:overlay" fill="url(#highlight__h)" d="M1782,667.7c10.2,28.9,83.5,178.4-67,294.5-5,4.1,8,17.9,8,17.9l47.3-47.7s27-34.5,35.3-58.8,42.8-84.9-16.1-209Z" opacity=".6"></path><path style="mix-blend-mode:overlay" fill="url(#highlight__i)" d="M1687.5,910.1c39.2-34.3,94.1-63.6,88.6-242.7,7.2,30.1,14,73,14,73s-2.3,77.7-19.7,106.4-47.4,75.7-65.4,84.6C1697,921.9,1687.5,910.1,1687.5,910.1Z" opacity=".6"></path><path style="mix-blend-mode:overlay" fill="url(#highlight__j)" d="M1076.8,662.2c-20.2,37.6-68.2,182.5,40.5,304.6l-1.8,4.4s-10.9.7-21-11.6-61-90.3-59.6-154.4,1.4-99.9,30.9-137.9C1072.5,661,1076.8,662.2,1076.8,662.2Z" opacity=".6"></path><path style="mix-blend-mode:overlay" fill="url(#highlight__k)" d="M1149.5,913.8c-32.2-32.3-74.8-92.2-68.6-259.2-5.3,16.1-12.7,101.6-12.7,101.6s17.8,128.1,60.7,165.4c3.6,4.9,11.1,4.7,11.1,4.7Z" opacity=".6"></path><path style="mix-blend-mode:overlay" fill="url(#highlight__l)" d="M1004.7,662.6c11.6-20.1,28.2-37.1,73-32.5-10.2-9.1-35.6-10.4-35.6-10.4l-27,14.1-13,27.9Z" opacity=".6"></path><path style="mix-blend-mode:overlay" fill="url(#highlight__m)" d="M1040.3,601.5c21.9-6.8,42.9,3.8,57.4,20.5,0,0-6.7-28-19.1-30.3s-41.9,4.2-41.9,4.2Z" opacity=".6"></path></g></g></g><g id="body"><g><path fill="none" d="M1117.6,979.2a240.6,240.6,0,0,0-15.5,59L919.2,1999.6a248.6,248.6,0,0,0,12.7,117.6l-.6.2c-38.1,9.1-130.5,43.4-184.5,78.3-26.5,17.1-10.1,55.9,23.2,55.3l266.9-5.2h0c4.5,2.7,9.1,5.4,13.8,7.9v3.3c.4,23.3-6.6,42.4-29.9,43.5-15.6.8-28.2,9.9-30.7,21.1-4.7,21.5,5.9,38.9,27.3,40.4l84.2,5c26.5,1.6,51.9-11.3,65.4-34.1a72.2,72.2,0,0,0,8.8-23.9l5-26.6h533.6l3.4,20.7a71.6,71.6,0,0,0,43.2,54.3,52.6,52.6,0,0,0,22.2,3.9l91.9-3c22-2.2,30.1-15.7,27.8-36.9-.7-7-6.2-24.5-24.4-25.6-15.8-.8-25.3-8.6-28.1-21.9h0a243.5,243.5,0,0,0,65.3-28l261.5,5.1c33.3.6,49.3-37.5,23.2-55.3-43-29.4-132.4-61.7-179.8-75.5l-.8-.3a247.8,247.8,0,0,0,6.4-155.8L1731.1,1004a267.2,267.2,0,0,0-10.3-27.9s34.7-20.6,56.7-54,59.3-92.6,39.3-170.6-31.3-97.4-31.3-97.4,32-22.6,76,18c0,0,0-69.3-81.3-46,0,0,23.3-25.3,61.3-22,6-9.7-90.7-42-98.7,46-8,56.7-50.9,130.1-75.3,149.4l-52.7,51.3c-12,3.3-15.3-.7-31.6-7.1a240.1,240.1,0,0,0-84-15.1H1341a240.2,240.2,0,0,0-120,32s-94.2-115.1-107.5-207.8-75.3-56-92-52c0,0,38.7,4,46,18.7,0,0-44-16-70,47.3,0,0,46.7-28.7,76.7-13.3,0,0-39.4,30-40.7,105.3S1053.7,943,1117.6,979.2Z"></path></g><g><path fill="none" stroke="#31323d" stroke-linecap="round" stroke-miterlimit="10" stroke-width="12.5" d="M1714.5 2282.4L1180.9 2282.4"></path><path fill="none" stroke="#31323d" stroke-linecap="round" stroke-miterlimit="10" stroke-width="12.5" d="M1050.7,2253.7c-89.1-47.1-145.6-146.2-131.5-254.1l182.9-961.4c15.7-119.9,118-209.6,238.9-209.6h158.2A240.9,240.9,0,0,1,1731.1,1004l295.2,960.1c39,137.9-45.2,275-175.8,309.8"></path><path fill="#31323d" d="M1228.6,2040.8c-3.4,30.5-8.1,60.7-13.2,90.9-2.6,15.1-5.4,30.1-8.2,45.2l-8.3,45.1-16.6,90.4a75.9,75.9,0,0,1-8.8,23.5,75.1,75.1,0,0,1-16.1,19.4,77.9,77.9,0,0,1-45.9,18.8c-2.1.2-4.2.2-6.3.2h-6l-11.5-.7-22.9-1.3-45.9-2.8a56.5,56.5,0,0,1-6.4-.7,38.7,38.7,0,0,1-6.7-1.7,36.8,36.8,0,0,1-12.3-7.3,35.3,35.3,0,0,1-8.3-11.7,43.4,43.4,0,0,1-3.1-13.5,58.3,58.3,0,0,1,1-13.3,31.5,31.5,0,0,1,.9-3.6,36.8,36.8,0,0,1,1.5-3.5,29.7,29.7,0,0,1,4.1-6.3,36.8,36.8,0,0,1,11-8.7,45,45,0,0,1,12.7-4.6,49.5,49.5,0,0,1,6.6-.8l2.6-.2,2.3-.3a25.8,25.8,0,0,0,4.2-1.2,16.9,16.9,0,0,0,3.8-1.9c4.6-3,7.7-8.4,9.4-14.8a54.6,54.6,0,0,0,1.6-10.1,47.1,47.1,0,0,0,.3-5.3v-5.5l-1-22.9-1.8-45.8c-.6-15.3-1.3-30.5-1.8-45.8v.5c-.6-5-1.3-9.9-2.1-14.9s-1.6-9.8-2.6-14.7-2.1-9.7-3.4-14.4-2.7-9.5-4.3-14.2-3.5-9.3-5.5-13.8-4.3-8.9-6.6-13.3a195.2,195.2,0,0,0-16.5-24.9h0a2.3,2.3,0,0,1,.4-3.2,2.2,2.2,0,0,1,2.9.2,157.1,157.1,0,0,1,19.8,23.9c2.9,4.3,5.5,8.8,8,13.4a151.2,151.2,0,0,1,6.7,14.1q3,7.4,5.4,14.7t4.2,15c1.3,5.1,2.3,10.2,3.3,15.2s1.7,10.2,2.4,15.3v.5c.9,15.3,1.6,30.6,2.4,45.9l2.3,45.9,1.1,22.9.2,2.9v3.1c0,2.1-.1,4.1-.2,6.2a69.1,69.1,0,0,1-2,12.5,51,51,0,0,1-2,6.3,39.9,39.9,0,0,1-3.1,6.2,32.4,32.4,0,0,1-9.8,10.4,35.6,35.6,0,0,1-13.2,5.3l-3.3.5-1.7.2h-1.5a35.5,35.5,0,0,0-4.7.6,29.9,29.9,0,0,0-8.8,3.2,23.3,23.3,0,0,0-6.9,5.4,14.1,14.1,0,0,0-2.2,3.4,12.2,12.2,0,0,0-.7,1.7,19.3,19.3,0,0,0-.5,2,39.2,39.2,0,0,0-.7,9.6,27.7,27.7,0,0,0,2,8.7,20.2,20.2,0,0,0,4.9,6.9,20.5,20.5,0,0,0,7.3,4.3,31.5,31.5,0,0,0,4.4,1.1c1.6.2,2.9.4,5,.5l45.8,2.6,22.9,1.4,11.4.7h5.4l5.2-.2a64.3,64.3,0,0,0,37.6-15.2,61.6,61.6,0,0,0,13.1-15.7,66.5,66.5,0,0,0,7.4-19.3l17.3-90,8.7-45c2.9-15.1,5.8-30.1,8.9-45.1,6.2-30,12.7-59.9,20.7-89.5a2.2,2.2,0,0,1,2.7-1.6A2.1,2.1,0,0,1,1228.6,2040.8Z"></path><path fill="#31323d" d="M1095.2,2319.6h-1.5l-1.7.2a17.3,17.3,0,0,0-3.2,1.1,21.2,21.2,0,0,0-5.7,3.6,30.1,30.1,0,0,0-7.8,11.3,56.8,56.8,0,0,0-3.9,13.7,118.3,118.3,0,0,0-1.4,14.6h0a6.3,6.3,0,0,1-6.5,6,6.2,6.2,0,0,1-6-6.5,2.5,2.5,0,0,1,.1-.8,109.3,109.3,0,0,1,3.6-15.8,70,70,0,0,1,6.6-15.2,37.8,37.8,0,0,1,11.4-12.5,27.7,27.7,0,0,1,7.8-3.6,20.4,20.4,0,0,1,4.3-.8h4.5a2.3,2.3,0,0,1,1.8,2.6,2,2,0,0,1-2,1.8Z"></path><path fill="#31323d" d="M1052.7,2314.9h-.7l-.9.2-1.6.4-1.6.7-1.5.7a26.2,26.2,0,0,0-5.5,3.9,33.7,33.7,0,0,0-7.8,11.2c-1,2.1-1.6,4.4-2.4,6.6a8.5,8.5,0,0,0-.4,1.7l-.4,1.7c-.3,1.2-.6,2.3-.8,3.5s-.7,4.7-.9,7l-.5,7.2v.4a6.3,6.3,0,0,1-12.5-.7,1.9,1.9,0,0,1,.1-.8l1.5-7.9c.6-2.6,1.4-5.2,2.1-7.8s1-2.6,1.4-3.8l.7-1.9c.3-.7.5-1.3.8-1.9a63.7,63.7,0,0,1,3.9-7.3,40.7,40.7,0,0,1,11.1-12.3,35.3,35.3,0,0,1,7.5-3.8l2-.7,2-.5,2.1-.3h2.3a2.2,2.2,0,0,1,2.1,2.3,2.1,2.1,0,0,1-1.8,2.1Z"></path><path fill="#31323d" d="M1673.7,2025.2c8.1,34.9,15,70,21.4,105.1l4.7,26.4,4.5,26.4,9.1,52.8,9.1,52.8,2.3,13.2a67.2,67.2,0,0,0,3.1,11.7,78.2,78.2,0,0,0,5.3,10.9,67,67,0,0,0,7.1,9.7,69.8,69.8,0,0,0,8.9,8.2,67.2,67.2,0,0,0,10.2,6.4c.8.5,1.8.8,2.7,1.3l2.7,1.1a38.6,38.6,0,0,0,5.5,1.7,41.3,41.3,0,0,0,11.6,1.3l53.2-1.8,26.7-.8,6.7-.2h6.6l2.7-.4,2.7-.5,2.6-.8,1.2-.5,1.2-.5a3.9,3.9,0,0,0,1.1-.6l1.1-.6,2-1.4c.5-.5,1.1-1,1.6-1.6l.7-.9.4-.4.3-.5a21.9,21.9,0,0,0,3.3-9.5,26.6,26.6,0,0,0,.3-2.8v-4.4c0-.5-.1-1-.1-1.5v-1.5c0-.2-.1-.5-.1-.7v-.6a23,23,0,0,0-1.3-5,23.7,23.7,0,0,0-2.3-4.8l-.6-1.1-.8-1c-.5-.7-1.1-1.2-1.6-1.9a20.7,20.7,0,0,0-3.8-2.8l-1-.5-1.1-.4-2.3-.7h-4l-1.9-.2a42.6,42.6,0,0,1-15.4-4.6,31.9,31.9,0,0,1-12-11.9,38.7,38.7,0,0,1-4.7-15.4,24.8,24.8,0,0,1-.2-3.8v-3.7l.2-6.7.6-26.9.6-26.8c0-1.1.1-2.3.2-3.4l.2-3.5.6-6.9.8-6.8c.3-2.3.6-4.5,1-6.8a261.4,261.4,0,0,1,14.1-52.9c.7-2.1,1.6-4.2,2.5-6.3l2.7-6.3c.9-2.1,1.9-4.2,2.8-6.2s1.9-4.2,3-6.2c4.2-8.1,8.5-16,13.4-23.7a271.6,271.6,0,0,1,33.4-42.6,2.2,2.2,0,0,1,3.2-.1,2.2,2.2,0,0,1,.2,2.9h0a375.6,375.6,0,0,0-28.7,44.6c-4.3,7.7-8.1,15.6-11.7,23.6-1,2-1.8,4-2.7,6s-1.7,4-2.5,6.1l-2.3,6.1c-.8,2.1-1.6,4.1-2.2,6.2a278.7,278.7,0,0,0-12.7,50.7c-.4,2.1-.6,4.3-.8,6.5l-.7,6.5c-.3,2.1-.3,4.3-.5,6.4l-.2,3.3c-.1,1-.2,2.1-.2,3.2l-.3,26.8-.4,26.7v6.7a7.1,7.1,0,0,0,.1,1.5v1.5a29.6,29.6,0,0,0,3.3,12.9,17.3,17.3,0,0,0,6.8,6.6,27,27,0,0,0,10.2,2.9h1.4l1.7.2,2.1.2h1.1l1,.3a32.5,32.5,0,0,1,4.2,1.1l2,.8,2,1a32.6,32.6,0,0,1,7,5.2,41.2,41.2,0,0,1,2.8,3.1l1.2,1.7,1.1,1.8a39.9,39.9,0,0,1,3.5,7.2,50.9,50.9,0,0,1,2.1,7.9v1.1a2.8,2.8,0,0,1,.1.9l.2,1.9c0,.6.1,1.2.1,1.8v3.8c0,.6-.1,1.3-.1,1.9s-.2,2.6-.4,3.9a35.2,35.2,0,0,1-5.4,15.5l-.6.9-.7.9-1.4,1.7c-1,1.1-2.1,2.1-3.1,3l-3.5,2.6-1.8,1-1.9,1-1.9.8a6.2,6.2,0,0,1-1.9.7c-1.2.4-2.5.9-3.8,1.2l-3.8.8-4,.6h-3.4l-3.4.2-6.7.2-26.8.9-53.9,1.7a63.3,63.3,0,0,1-15-1.7,61.8,61.8,0,0,1-7.3-2.3l-3.4-1.5a33.6,33.6,0,0,1-3.3-1.6,90,90,0,0,1-12.5-7.8,82.2,82.2,0,0,1-19.4-21.9,80.9,80.9,0,0,1-6.3-13.3,78.1,78.1,0,0,1-3.7-14.2l-2.2-13.2-8.6-52.9-8.6-52.9-4.3-26.4-4.1-26.5c-5.4-35.3-10.4-70.7-14-106.4a2.2,2.2,0,0,1,2-2.4A2.3,2.3,0,0,1,1673.7,2025.2Z"></path><path fill="#31323d" d="M1783.1,2307.4h2.4l2.3.2,4.5.8a32.5,32.5,0,0,1,8.4,3.5,37.6,37.6,0,0,1,13.3,12.7c.9,1.3,1.6,2.7,2.4,4l1.9,4.2a72.5,72.5,0,0,1,2.7,8.7,83.7,83.7,0,0,1,2.4,17.8,6.2,6.2,0,0,1-5.9,6.5,6.3,6.3,0,0,1-6.6-6v-.7a82.3,82.3,0,0,0-.2-15.7,47.2,47.2,0,0,0-1.4-7.5c-.3-1.2-.8-2.4-1.2-3.6a36.5,36.5,0,0,0-1.4-3.5,31.8,31.8,0,0,0-9.4-11.5,33.6,33.6,0,0,0-6.7-3.7l-3.7-1.1-1.9-.4-1.8-.3h-.2a2.2,2.2,0,0,1-2-2.4A2.3,2.3,0,0,1,1783.1,2307.4Z"></path><path fill="#31323d" d="M1833.8,2304.2h2.4l2.3.2,4.4.8a34.7,34.7,0,0,1,8.5,3.5,37.6,37.6,0,0,1,13.3,12.7,41,41,0,0,1,2.3,4,38.9,38.9,0,0,1,1.9,4.2,73.2,73.2,0,0,1,2.8,8.7,98.8,98.8,0,0,1,2.4,17.8,6.3,6.3,0,0,1-6,6.5,6.2,6.2,0,0,1-6.5-5.9v-.8a82.3,82.3,0,0,0-.2-15.7,66.3,66.3,0,0,0-1.5-7.5c-.3-1.2-.7-2.4-1.1-3.6a36.8,36.8,0,0,0-1.5-3.5,29.9,29.9,0,0,0-9.4-11.5,27,27,0,0,0-6.7-3.6,25.3,25.3,0,0,0-3.6-1.2l-1.9-.4-1.8-.3h-.2a2.2,2.2,0,0,1-2-2.4A2.1,2.1,0,0,1,1833.8,2304.2Z"></path><path fill="none" stroke="#31323d" stroke-linecap="round" stroke-miterlimit="10" stroke-width="12.5" d="M931.3,2117.4c-38.1,9.1-130.5,43.4-184.5,78.3-26.5,17.1-10.1,55.9,23.2,55.3l280.4-5.5"></path><path fill="#31323d" d="M840.4,2200.1a58.8,58.8,0,0,0-7.8,2.5,63.6,63.6,0,0,0-7.5,3.4c-4.7,2.7-8.9,6-11.7,10.1a20.7,20.7,0,0,0-3.8,13.3,37.6,37.6,0,0,0,4.5,14,6.3,6.3,0,0,1-2.6,8.5,6.4,6.4,0,0,1-8.5-2.6l-.3-.7h0a47.2,47.2,0,0,1-3.5-19.2,31.5,31.5,0,0,1,2.2-10,30.5,30.5,0,0,1,5.4-8.6,41.9,41.9,0,0,1,15.5-10.5,53.9,53.9,0,0,1,8.6-2.8,51.9,51.9,0,0,1,8.9-1.7,2.1,2.1,0,0,1,2.4,1.9,2.2,2.2,0,0,1-1.7,2.5Z"></path><path fill="#31323d" d="M793,2202.1a21.9,21.9,0,0,0-3.4,1l-3.2,1.4a29.8,29.8,0,0,0-6,3.6,19.9,19.9,0,0,0-7.6,10.2,21.1,21.1,0,0,0-1,6.1,8.6,8.6,0,0,0,.1,1.6,9.2,9.2,0,0,0,.1,1.6c.1.5.1,1,.2,1.6l.3,1.6a51.7,51.7,0,0,0,5,12.6,6.4,6.4,0,0,1-2.6,8.5,6.3,6.3,0,0,1-8.5-2.6,2.1,2.1,0,0,1-.3-.7H766a61.9,61.9,0,0,1-3.9-16.2v-4.4a34.2,34.2,0,0,1,.4-4.4,28.8,28.8,0,0,1,2.6-8.5,24.7,24.7,0,0,1,5.1-7.2,28.6,28.6,0,0,1,6.8-5.2,41.3,41.3,0,0,1,7.5-3.2l3.9-1.1a25.7,25.7,0,0,1,4-.6,2.2,2.2,0,0,1,.8,4.3Z"></path><path fill="none" stroke="#31323d" stroke-linecap="round" stroke-miterlimit="10" stroke-width="12.5" d="M2020.7,2120.2c47.4,13.8,136.8,46.1,179.8,75.5,26.1,17.8,10.1,55.9-23.2,55.3l-261.6-5.1"></path><path fill="#31323d" d="M2107.6,2193.7a64.1,64.1,0,0,1,8.9,2.1,55.8,55.8,0,0,1,8.6,3.2,43.9,43.9,0,0,1,15.4,11.2,29.7,29.7,0,0,1,5.4,8.7,34.4,34.4,0,0,1,2.2,10.1,47,47,0,0,1-3.5,19.5h-.1a6.2,6.2,0,1,1-11.6-4.5l.3-.7a36.5,36.5,0,0,0,4.4-14.3,21.2,21.2,0,0,0-3.8-13.7,37.8,37.8,0,0,0-11.7-10.7,73.9,73.9,0,0,0-7.4-3.8,62.2,62.2,0,0,0-7.9-2.8h-.1a2.2,2.2,0,0,1,.9-4.3Z"></path><path fill="#31323d" d="M2155.1,2195.7a25.9,25.9,0,0,1,4,.9c1.4.3,2.7.8,4,1.2a47.4,47.4,0,0,1,7.5,3.7,31.1,31.1,0,0,1,6.6,5.5,27.8,27.8,0,0,1,5.1,7.4,31.7,31.7,0,0,1,2.6,8.6,576,576,0,0,1,.4,4.5v4.4a60.2,60.2,0,0,1-4,16.6h0a6.3,6.3,0,0,1-11.7-4.4l.3-.8a46.6,46.6,0,0,0,5-12.9,25.6,25.6,0,0,0-.4-12.9,23.6,23.6,0,0,0-7.6-10.8,36.8,36.8,0,0,0-6-4,31.3,31.3,0,0,0-3.2-1.5,27.9,27.9,0,0,0-3.4-1.2h-.1a2.1,2.1,0,0,1-1.5-2.7A2.2,2.2,0,0,1,2155.1,2195.7Z"></path><path fill="none" stroke="#31323d" stroke-linecap="round" stroke-linejoin="round" stroke-width="12.5" d="M1701.4,934.3c122.3-98.3,87.6-238.2,75-273.8,43.7-28.7,61.6-2.9,86.9,13.2-9.2-58.6-54.8-61-84-45.5,24.1-19.4,24.1-19.4,65.5-25.2-89.6-39-98.5,22.9-103.1,56.2-14.6,58.8-32.4,94.7-56.1,120.6l-1.8,1.9c-39.8,43.8-75.3,71.7-75.3,71.7"></path><path fill="none" stroke="#31323d" stroke-linecap="round" stroke-linejoin="round" stroke-width="12.5" d="M1724.1,977c68.7-52.3,145.1-161.9,60.9-321.3"></path><path fill="#31323d" d="M1214.8,862.2a626.1,626.1,0,0,1-54.2-76.2c-16-26.8-30.1-54.9-40.6-84.6-2.6-7.4-5-14.9-7.1-22.5-1-3.8-2.1-7.6-2.9-11.4-.5-2-.9-3.9-1.3-5.8l-1.2-5.7a219,219,0,0,0-5.5-21.9,93.8,93.8,0,0,0-8.4-20c-3.5-6-8-11.1-13.5-14s-12.1-3.8-19.1-3.3a96.7,96.7,0,0,0-21.1,4.7c-7,2.3-14,5.2-21,8.2l-2.9-11.9h0a120.6,120.6,0,0,1,15.9.4,94.9,94.9,0,0,1,15.8,2.7,64,64,0,0,1,15.3,6,34.9,34.9,0,0,1,7.1,5.2,27.7,27.7,0,0,1,5.4,7.5v.2a4.5,4.5,0,0,1-2.2,5.9,3.9,3.9,0,0,1-2.6.3h0c-4.4-.5-8.6-1.2-12.7-1.6a59.3,59.3,0,0,0-11.9-.1,37.4,37.4,0,0,0-20.9,8.1c-6,4.7-10.7,11.2-14.5,18.3a125.8,125.8,0,0,0-9.3,22.7h0l-8.5-7.7c6.3-2.8,12.6-6.1,19.2-9.3a166.1,166.1,0,0,1,20.7-8.5,70.3,70.3,0,0,1,23.1-3.6,50.3,50.3,0,0,1,23.4,6.1h0a6.2,6.2,0,0,1,3.2,6.5c-2,12-3.7,24-5,36.1s-1.9,24.1-2.1,36.2a332.7,332.7,0,0,0,6.6,71.8,297.1,297.1,0,0,0,22.7,68.2,309.7,309.7,0,0,0,38.5,60.9,6.3,6.3,0,1,1-9.8,7.8,325.2,325.2,0,0,1-40-63.3,312.7,312.7,0,0,1-23.7-71.1A352,352,0,0,1,1063,729c.2-12.5.9-24.9,2.2-37.3s3-24.7,5.1-36.8l3.2,6.5a39.2,39.2,0,0,0-17.8-4.6,56.2,56.2,0,0,0-19.1,3.1,152.1,152.1,0,0,0-19,7.8c-6.3,3-12.7,6.4-19.4,9.4h-.1a6.1,6.1,0,0,1-8.2-3.1,5.9,5.9,0,0,1-.2-4.5h0a138.2,138.2,0,0,1,11-24.6c4.6-7.8,10.4-15.3,18.1-21a45.7,45.7,0,0,1,12.7-6.8,51.8,51.8,0,0,1,14-2.7,68.8,68.8,0,0,1,13.7.7c4.4.5,8.7,1.4,12.8,2l-4.7,6.4c-1.7-3.3-5-6-9-7.9a49.5,49.5,0,0,0-13-4.2,95.1,95.1,0,0,0-14.1-1.6,115.5,115.5,0,0,0-14.4.5h-.1a6.3,6.3,0,0,1-2.8-12c7.2-3.2,14.5-6.1,22.1-8.7a109.7,109.7,0,0,1,24.1-5.2,51.8,51.8,0,0,1,13,.4,40.9,40.9,0,0,1,12.9,4.3,38,38,0,0,1,10.7,8.3,50.9,50.9,0,0,1,7.7,10.4,105.8,105.8,0,0,1,9.6,22.6,236.4,236.4,0,0,1,5.8,23.1l1.1,5.6,1.2,5.5c.9,3.7,1.9,7.4,2.8,11,2,7.3,4.4,14.5,6.9,21.7,10.1,28.6,23.8,56,39.5,82.2a621.1,621.1,0,0,0,53.1,74.8h0a6.3,6.3,0,0,1-.8,8.8,6.2,6.2,0,0,1-8.8-.9Z"></path><path fill="none" stroke="#31323d" stroke-linecap="round" stroke-linejoin="round" stroke-width="12.5" d="M1072.8,653.8c-68.5,73.8-42.3,261.8,41.9,324.6"></path></g></g></g><g id="item_g"></g><g id="item_f"></g><g id="eye"><defs><linearGradient id="eyeColor1" x2="0%" y2="100%"><stop offset="0%" stop-color="#729100"></stop></linearGradient><linearGradient id="eyeColor2" x2="0%" y2="100%"><stop offset="0%" stop-color="#729100"></stop></linearGradient></defs><defs><clipPath id="eyeClipPath"><circle cx="1696" cy="1101.3" r="129.7" transform="rotate(-68.1 1696.37388916 1101.3227275)" fill="#fff" stroke="#31323d" stroke-linecap="round" stroke-miterlimit="10" stroke-width="10"></circle></clipPath><clipPath id="eyeClipPath2"><circle cx="1168.9" cy="1127" r="129.7" transform="rotate(-23.1 1170.57230332 1127.99609272)" fill="#fff" stroke="#31323d" stroke-linecap="round" stroke-miterlimit="10" stroke-width="10"></circle></clipPath></defs><path fill="none" d="M3000 3010L0 3000 0 0 3000 10 3000 3010z"></path><circle cx="1696" cy="1101.3" r="129.7" transform="rotate(-68.1 1696.37388916 1101.3227275)" fill="#fff"></circle><g clip-path="url(#eyeClipPath)"><circle cx="1686.2" cy="1102.4" r="105.1" fill="url(#eyeColor1)"></circle><circle cx="1682.8" cy="1103.5" r="83" transform="rotate(-83.2 1682.21022125 1103.59307204)" fill="#31323d"></circle><circle cx="1738.2" cy="1045.5" r="44.2" transform="rotate(-83.2 1737.6065591 1045.62246994)" fill="#fff"></circle></g><circle cx="1696" cy="1101.3" r="129.7" transform="rotate(-68.1 1696.37388916 1101.3227275)" fill="none" stroke="#31323d" stroke-linecap="round" stroke-miterlimit="10" stroke-width="10"></circle><path d="M1763.9 938.4c-69.4-36-117.5-25.9-164.1 24M1109.8 968.4c69.4-36 117.5-25.9 164.1 24" fill="none" stroke="#31323d" stroke-linecap="round" stroke-miterlimit="10" stroke-width="30"></path><circle cx="1168.9" cy="1127" r="129.7" transform="rotate(-23.1 1170.57230332 1127.99609272)" fill="#fff"></circle><g clip-path="url(#eyeClipPath2)"><circle cx="1180.2" cy="1126.6" r="105.1" transform="rotate(-7.5 1185.37964878 1131.12230357)" fill="url(#eyeColor2)"></circle><circle cx="1177.2" cy="1128.5" r="83" transform="rotate(-7.5 1182.94109102 1133.26086132)" fill="#31323d"></circle><circle cx="1216.4" cy="1058.6" r="44.2" transform="rotate(-7.5 1222.01945732 1063.0398658)" fill="#fff"></circle></g><circle cx="1168.9" cy="1127" r="129.7" transform="rotate(-23.1 1170.57230332 1127.99609272)" fill="none" stroke="#31323d" stroke-linecap="round" stroke-miterlimit="10" stroke-width="10"></circle><path d="M1795.8 1183.6a129.4 129.4 0 0 1-207-9.8s38.7-10.9 103.5-7.4S1795.8 1183.6 1795.8 1183.6zM1068.9 1209.7a129.4 129.4 0 0 0 207-9.8s-38.7-10.9-103.5-7.4S1068.9 1209.7 1068.9 1209.7z" fill="#f8f8e0"></path><path d="M1795.8 1183.6a129.4 129.4 0 0 1-207-9.8s38.7-10.9 103.5-7.4S1795.8 1183.6 1795.8 1183.6zM1068.9 1209.7a129.4 129.4 0 0 0 207-9.8s-38.7-10.9-103.5-7.4S1068.9 1209.7 1068.9 1209.7z" fill="none" stroke="#31323d" stroke-linecap="round" stroke-miterlimit="10" stroke-width="10"></path></g><g id="item_e"></g><g id="mouth"><path fill="#f8f8e0" d="M1318.3,1236.5c-11-20.4-63.9-37-112.2-38.9-66.2-2.7-119.6,34.9-119.2,83.8,0,0,24.4,71.1,117.6,55.4S1332.8,1265.8,1318.3,1236.5Z"></path><path fill="#31323d" d="M1317.7,1237.3a179,179,0,0,0-63.3-27.4,243.7,243.7,0,0,0-34.1-5c-5.7-.5-11.5-.8-17.2-.9a137.9,137.9,0,0,0-17,.5,157.5,157.5,0,0,0-16.8,2.2,131.8,131.8,0,0,0-16.4,4.3,113.1,113.1,0,0,0-30.3,14.6,83.6,83.6,0,0,0-23.7,23.7,69.4,69.4,0,0,0-7.5,15.2,73.6,73.6,0,0,0-3.5,16.9,1,1,0,0,1-1.1,1,1.2,1.2,0,0,1-.9-.9,65.2,65.2,0,0,1,7-35.6,85.3,85.3,0,0,1,23.7-28.3,116.8,116.8,0,0,1,32.4-17.9,156,156,0,0,1,17.7-5.2,165.6,165.6,0,0,1,18.3-2.9c6.1-.5,12.2-.7,18.4-.6,3.1,0,6.1.2,9.1.4l9,.7a209.3,209.3,0,0,1,35.8,6.8,150.2,150.2,0,0,1,33.5,14.3l3.9,2.4,3.8,2.5c2.5,1.7,4.9,3.6,7.3,5.4a128.1,128.1,0,0,1,13.2,12.3,1,1,0,0,1-.1,1.4A1,1,0,0,1,1317.7,1237.3Z"></path><path fill="#f8f8e0" d="M1552.1,1231.4c11.9-20.1,66.3-35.2,115.6-35.8,67.7-.7,121.1,38.3,119.3,87.2,0,0-26.9,70.4-121.6,52.1S1536.5,1260.3,1552.1,1231.4Z"></path><path fill="#31323d" d="M1551.5,1230.6a132.1,132.1,0,0,1,13.9-11.9,146.3,146.3,0,0,1,15.6-9.8,150.5,150.5,0,0,1,34.5-13.4,204.2,204.2,0,0,1,36.4-5.7c6.2-.5,12.2-.7,18.4-.7s12.5.4,18.7,1.1,12.3,1.9,18.4,3.3a168.1,168.1,0,0,1,17.9,5.6,120.4,120.4,0,0,1,32.5,18.5c9.8,7.9,18.3,17.7,23.8,29a63.8,63.8,0,0,1,6.4,36.3.9.9,0,0,1-1.1.8c-.5,0-.8-.4-.9-.9a67.6,67.6,0,0,0-3.1-17.3,66.6,66.6,0,0,0-7.3-15.5,86.4,86.4,0,0,0-23.8-24.4,120.1,120.1,0,0,0-30.6-15.3,156.7,156.7,0,0,0-16.6-4.6,160.2,160.2,0,0,0-17.1-2.7,165.1,165.1,0,0,0-17.2-.9c-5.8,0-11.7.2-17.6.5a267.1,267.1,0,0,0-34.7,4,185.1,185.1,0,0,0-65.2,25.6,1.1,1.1,0,0,1-1.4-.3A1,1,0,0,1,1551.5,1230.6Z"></path><path fill="#31323d" d="M1322.4,1317.5l4.5,3.1c1.5,1,3.1,1.8,4.7,2.7a73.8,73.8,0,0,0,30.1,9.7,59.5,59.5,0,0,0,39.1-9.9,61.8,61.8,0,0,0,14.6-13.8,68.6,68.6,0,0,0,9.7-17.6,83,83,0,0,0,4.8-19.8c.3-1.6.3-3.4.5-5.1l.2-2.5v-7.7a5.8,5.8,0,0,1,.5-2.6,6.4,6.4,0,0,1,1.9-2.7l.4-.4a7.5,7.5,0,0,1,9.6-.2,7.3,7.3,0,0,1,2.1,2.8,7.7,7.7,0,0,1,.5,2.9v3l-.2,2.9-.2,2.9-.3,3c-.3,1.9-.5,3.9-.9,5.8a95.5,95.5,0,0,1-6.7,22.7,78.4,78.4,0,0,1-12.7,20.1,70,70,0,0,1-18.3,15.1,68.5,68.5,0,0,1-22.1,8.1,70.1,70.1,0,0,1-23.3-.1,76.9,76.9,0,0,1-21.6-7.5,96,96,0,0,1-9.6-6c-1.5-1.1-3-2.2-4.4-3.4l-4.3-3.7a1.1,1.1,0,0,1-.1-1.6,1,1,0,0,1,1.5-.2Z"></path><path fill="#31323d" d="M1561.4,1317.7l-4.3,3.7c-1.4,1.2-3,2.3-4.5,3.4l-1.2.9-1.2.7-2.4,1.6a49.1,49.1,0,0,1-5,2.8,79.2,79.2,0,0,1-21.9,7.7,77.7,77.7,0,0,1-23.6.4,73.4,73.4,0,0,1-22.6-7.5c-14.3-7.4-25.8-19.8-33.2-34.1a97.1,97.1,0,0,1-7.9-22.7l-.6-3-.5-2.9c-.3-2-.6-4-.7-6l-.3-3c-.1-1-.2-2-.2-3a8,8,0,0,1,.6-3,6.3,6.3,0,0,1,2-2.9,7.2,7.2,0,0,1,9.5,0l.5.3a7.9,7.9,0,0,1,1.9,2.7,5,5,0,0,1,.5,2.6,21.7,21.7,0,0,0,.1,2.6v2.6c0,1.8.2,3.5.3,5.2l.3,2.6.4,2.5a78.6,78.6,0,0,0,5.9,19.7,69.4,69.4,0,0,0,10.8,17.4,66.7,66.7,0,0,0,15.6,13.4,64.3,64.3,0,0,0,40.1,9.2,73.5,73.5,0,0,0,20.9-5.1l5-2.2,2.4-1.2,1.2-.7,1.2-.6c1.6-1,3.2-1.8,4.7-2.9l4.6-3h.1a1.2,1.2,0,0,1,1.6.3A1.1,1.1,0,0,1,1561.4,1317.7Z"></path><path fill="#31323d" d="M1390.8,1242.6a11.1,11.1,0,0,1,2.6-11.7c6.6-6.4,20.6-15.8,46.7-16s38.4,8.9,44.3,15.3a10.9,10.9,0,0,1,1.8,11.8h0a15.1,15.1,0,0,1-13.3,9c-7.4.2-17.5,2.4-23.9,11.6a10.7,10.7,0,0,1-1.4,1.6l-.2.2a13.1,13.1,0,0,1-18.6-1h0s-5.3-9.1-25-10.7a14.9,14.9,0,0,1-12.9-9.9Z"></path><path fill="#31323D" d="M1382.8,1275.8a211.7,211.7,0,0,0-20.1-8.9,167.1,167.1,0,0,0-20.8-6.5,147.9,147.9,0,0,0-43.5-4.2,145.9,145.9,0,0,0-43,9.3,175,175,0,0,0-20.2,9.3,220.4,220.4,0,0,0-19,11.7,194.9,194.9,0,0,1,18.4-12.8,179.5,179.5,0,0,1,19.9-10.5,148,148,0,0,1,43.5-12,154.4,154.4,0,0,1,45.5,1.8,207.4,207.4,0,0,1,43.5,13.7,5,5,0,0,1-4,9.2C1383,1275.8,1382.9,1275.8,1382.8,1275.8Z"></path><path fill="#31323D" d="M1380.4,1299a147.2,147.2,0,0,0-24.6-5.1,111.8,111.8,0,0,0-25.2-.3,79.7,79.7,0,0,0-24.4,6.2,63,63,0,0,0-20.7,14.8,61.9,61.9,0,0,1,19.6-17,85.6,85.6,0,0,1,24.8-9,122.3,122.3,0,0,1,26.4-2.2,156.8,156.8,0,0,1,26.4,2.9h0a5,5,0,0,1-1.8,9.8Z"></path><path fill="#31323D" d="M1505.7,1261.8a190.4,190.4,0,0,1,43.4-13.7,183.8,183.8,0,0,1,45-3.2,150.4,150.4,0,0,1,44.1,8.9,141,141,0,0,1,38.8,21.8,138.9,138.9,0,0,0-39.6-19.4,149,149,0,0,0-43.4-6.3,180.3,180.3,0,0,0-43.3,5.5,178.2,178.2,0,0,0-40.5,15.4h-.1a4.9,4.9,0,0,1-6.7-2.1,4.9,4.9,0,0,1,2-6.7Z"></path><path fill="#31323D" d="M1510.3,1284.4a140,140,0,0,1,26.4-5.9,81.6,81.6,0,0,1,27,.9,74.8,74.8,0,0,1,24.8,10,109.3,109.3,0,0,1,20.3,16.8,110.2,110.2,0,0,0-21.5-14.6,73.1,73.1,0,0,0-24.4-7.3,77.8,77.8,0,0,0-25,1.6,121.4,121.4,0,0,0-24.1,7.9h0a5.1,5.1,0,0,1-6.6-2.7,4.9,4.9,0,0,1,2.6-6.5Z"></path><path fill="#31323d" d="M1502,1384.3a42.8,42.8,0,0,1-3.2,9.1,59.5,59.5,0,0,1-5.2,8.2,59.6,59.6,0,0,1-14.7,13,69,69,0,0,1-37.6,9.8l-4.9-.3-4.8-.5a80.3,80.3,0,0,1-27.3-9.6c-11.1-6.5-20.6-15.9-25.9-27.3a2.5,2.5,0,0,1,4.1-2.8h0a82.8,82.8,0,0,0,27.5,18.8,79.6,79.6,0,0,0,31.6,6.7,72.2,72.2,0,0,0,31.1-6.3,60.6,60.6,0,0,0,13.6-8.5,77,77,0,0,0,5.9-5.6,83.8,83.8,0,0,0,5.2-6.6h.1a2.5,2.5,0,0,1,3.5-.6A2.3,2.3,0,0,1,1502,1384.3Z"></path><path style="mix-blend-mode:multiply" fill="#595959" d="M1381.7,1387.1s3.5,62,58.5,59.9c53.3-2.1,59.1-60.2,59.1-60.2s-19.1,25.9-53.5,26.4S1381.7,1387.1,1381.7,1387.1Z" opacity=".2"></path></g><g id="alpacaHair"><defs><linearGradient id="alpaca__a" x1="1753.6" x2="1466.43" y1="1032.45" y2="1215.92" gradientUnits="userSpaceOnUse"><stop offset=".03" stop-opacity="0"></stop><stop offset="1"></stop></linearGradient><linearGradient id="alpaca__c" x1="1969.56" x2="1722.32" y1="1178.29" y2="1130.88" xlink:href="#alpaca__a"></linearGradient><linearGradient id="alpaca__d" x1="1769.61" x2="1525.42" y1="528.91" y2="907.87" xlink:href="#alpaca__a"></linearGradient><linearGradient id="alpaca__e" x1="1418.97" x2="1567.54" y1="574.28" y2="876.08" xlink:href="#alpaca__a"></linearGradient><linearGradient id="alpaca__f" x1="1449.18" x2="1424.55" y1="569.42" y2="1442.19" xlink:href="#alpaca__a"></linearGradient><linearGradient id="alpaca__g" x1="1734.06" x2="663.71" y1="919.51" y2="1172.8" xlink:href="#alpaca__a"></linearGradient><linearGradient id="alpaca__b" x1="1791.5" x2="1884.97" y1="1154.49" y2="1011.95" gradientUnits="userSpaceOnUse"><stop offset="0" stop-color="#fff" stop-opacity="0"></stop><stop offset="1" stop-color="#fff"></stop></linearGradient><linearGradient id="alpaca__h" x1="1728.44" x2="1771.6" y1="1003.65" y2="856.01" xlink:href="#alpaca__b"></linearGradient><linearGradient id="alpaca__i" x1="1632.32" x2="1772.01" y1="986.22" y2="816.73" gradientUnits="userSpaceOnUse"><stop offset="0" stop-color="#fff" stop-opacity="0"></stop><stop offset=".83" stop-color="#fff"></stop></linearGradient><linearGradient id="alpaca__j" x1="1681.1" x2="1769.04" y1="1197.88" y2="1032.09" xlink:href="#alpaca__b"></linearGradient><linearGradient id="alpaca__k" x1="1396.96" x2="1557.43" y1="1235.74" y2="1018.64" xlink:href="#alpaca__b"></linearGradient><linearGradient id="alpaca__l" x1="1530.24" x2="1527.03" y1="862.12" y2="689.95" xlink:href="#alpaca__b"></linearGradient><linearGradient id="alpaca__m" x1="1513.64" x2="1479.69" y1="868.76" y2="741.43" xlink:href="#alpaca__b"></linearGradient><linearGradient id="alpaca__n" x1="1415.36" x2="1311.87" y1="964.26" y2="718.78" xlink:href="#alpaca__b"></linearGradient><linearGradient id="alpaca__o" x1="1120.71" x2="1201.42" y1="1193.37" y2="813.24" xlink:href="#alpaca__b"></linearGradient><linearGradient id="alpaca__p" x1="999.43" x2="1012.41" y1="1244.14" y2="964.45" xlink:href="#alpaca__b"></linearGradient><linearGradient id="alpaca__q" x1="1063.37" x2="1064.53" y1="1228.85" y2="1061.45" xlink:href="#alpaca__b"></linearGradient><linearGradient id="alpaca__r" x1="1178.04" x2="1228.18" y1="1244.37" y2="1014.64" xlink:href="#alpaca__b"></linearGradient></defs><g style="isolation:isolate"><path fill="#ffd5c7" d="M1643,803.9c.5-40.4,16.9-110.5,73.1-100.9-23.5-22.8-87.7-20.8-128.2,32.5-10.4,11.7-26.1,32.6-26.1,32.6s-2.5-51.9-64.2-94.6c0,0,37.5,76.1,21,110.2-7.8-12.6-64.9-74.5-114.3-7.5-7.6-31.9-20-103.7-150.5-84.8,16.2,10.3,81.3,29.5,73.5,59.4-19.2-11.6-131.5-28.6-197.5,40.5s-56.1,131.5-56.1,131.5-101.2,11.8-122,112.1,58.1,162.4,107.9,147.5c17.8,11.9,66.4,52.2,132.1,15.2,35,11.8,139.1,46.7,220.1-28.6,20.4-25.7,30.8-37.3,30.8-37.3s-9.9,95-85.5,126c52.4-1,172.8,4.4,215.1-123.1,27.7,21.5,109.3,75.6,173.8,26,23.3,1.3,109,27.2,148.8-47.6s4.6-122.6-14.5-133.1c-3.4-33.6-2-133.3-180.8-174.9C1673.9,803.9,1643,803.9,1643,803.9Z"></path><path style="mix-blend-mode:multiply" fill="url(#alpaca__a)" d="M1568.9,1018.6c10.8,40.8,54.2,143.9,131.1,154.2,32-2.3,15.2,27.5-34.6,39.3s-107-37.7-107-37.7l13.4-38.5,8-44.6Z" opacity=".3"></path><path style="mix-blend-mode:multiply" fill="url(#alpaca__c)" d="M1772.2,1122.2c14.8,13.4,51,41.1,105,13.4-35.9,24.1-58.3,36.3-88.6,32.3s-42.2-8.4-42.2-8.4,13.2-10.5,19.5-23.9Z" opacity=".4"></path><path style="mix-blend-mode:multiply" fill="url(#alpaca__d)" d="M1713.2,697.6c-33.8-13.6-122.1,13.7-153.2,160.9-1.7-46.9-8-88.6,24.9-119.6s42.7-43.1,94.1-49.9C1717.8,684.6,1713.2,697.6,1713.2,697.6Z" opacity=".4"></path><path style="mix-blend-mode:multiply" fill="url(#alpaca__e)" d="M1482.9,667.9c39.2,25.1,91,115.6,19.7,149.1,12.7-17.7,19.4-44.7,19.4-44.7s1.7-39.2-8.4-61.5S1482.9,667.9,1482.9,667.9Z" opacity=".4"></path><path style="mix-blend-mode:multiply" fill="url(#alpaca__f)" d="M1391.2,1185.7c17.4-13.4,35.4-82.9,11-179.1-3.8-19.3-21.2-37.1-21.2-37.1s82.8,2.4,105.6,89.3-34.6,184.3-111.4,198.7c-11-2.6,13.5-18,13.5-18s44-50,48.9-90.1-23.9,16-25.7,19.4" opacity=".3"></path><path style="mix-blend-mode:multiply" fill="#231f20" d="M1457.1,745.6l-39.7,15.2s-13.5,11.5-15.2,3.1c-.6,21.8-4.3,22.7-28.2,4.2-3.3-2.5-28.5-99.4-108-70.9,43.2,6.9,80.4,61,73.8,59,0,0,50.4,6.8,70.8,96.6,0,0-8.1-74.9,45.5-103.4Z" opacity=".2"></path><path style="mix-blend-mode:multiply" fill="url(#alpaca__g)" d="M1438.7,1130.5s-20.2,43.3-74.3,67.9c0,0-141.3,4.4-117.5-122.2,8.5-45,47.7-49.8,47.7-49.8s-17.7-37.8-88.6-37.8c98.8,8.1,142.3-27.5,142.3-27.5-138.4,15.4-131.9-106.8-131.9-106.8-3.2-70.4,55.9-99.6,99-106.9-65.8-18.3-139.8,14.7-139.8,14.7-113.3,46.6-101.8,159.8-101.8,159.8-93.2,5.1-121.1,102.5-121.1,102.5-16.2,71.9,25.5,122.2,44.8,141,0,0,22.4,18.1,53.4,15.5,0,0,40.1,56.6,83.4,59.1s54.2-11.2,54.2-11.2,77.5,46,153.3,10.5c0,0-21.9,22.2-61.8,36.5,0,0-22.2,27.5,106.1,16.1s149.7-92.2,149.7-92.2-75.6,72.9-174.2,55C1361.6,1254.7,1443.6,1218.8,1438.7,1130.5Z" opacity=".4"></path><g><path style="mix-blend-mode:overlay" fill="url(#alpaca__b)" d="M1776.1,1062.4s28.9-30.3,38.9-54.1c5.7,7.4,47,16.2,54.4,1.3,9.5-25.6,10.9-29.7,10.9-29.7s29,25.1,31.7,65.1-26.1,81-26.1,81-22.7,18.8-45.7,21c0,0,51.6-21.9,33.1-117,0,0-18,9.5-50-1.6C1809.7,1044.7,1776.1,1062.4,1776.1,1062.4Z" opacity=".7"></path><path style="mix-blend-mode:overlay" fill="url(#alpaca__h)" d="M1642.7,811.2c109.9,10.8,148.1,49.5,183.7,94.4,40.9,51.6,39.7,103.7,39.7,103.7s3.8-6,8.2-19.1,12.5-81.6-52.8-131.4-154.1-55-154.1-55Z" opacity=".7"></path><path style="mix-blend-mode:overlay" fill="url(#alpaca__i)" d="M1677.3,878.3c9-3.1,109.1-7.2,138.1,69.6,3.6,6.3.9,11.2.9,11.2,11.6,99.7-82.8,116.2-109.6,112.1,6.2.2,86.5-22.1,63.8-101.7-21.3-74.9-105-80.7-105-80.7s-32.4-14.6-38.1-35.7c-26.1-109.8,30.7-166.7,79.2-157.2,0,0-13.9-7.5-49.3,52.6s-6.2,110.3-6.2,110.3,15.9,14.2,22.1,20" opacity=".7"></path><path style="mix-blend-mode:overlay" fill="url(#alpaca__j)" d="M1775.3,1059.3c1.2,15.9-5.7,84.4-31.5,100.1-20.9,12.7-32.1,14.2-40.2,15,21.1-9.3,29.7-18.5,37.6-34.1,12.9-25.3,7.8-52.6,7.8-52.6s-39.3-2.6-49.5-14.4C1753.4,1081.9,1775.3,1059.3,1775.3,1059.3Z" opacity=".7"></path><path style="mix-blend-mode:overlay" fill="url(#alpaca__k)" d="M1375.2,1257.5c62.4-19.6,263.8-79.7,124-315.1,64.4,46,70.4,77.1,70.4,77.1s31,116.1-29,174.6C1480.7,1261.8,1375.2,1257.5,1375.2,1257.5Z" opacity=".7"></path><path style="mix-blend-mode:overlay" fill="url(#alpaca__l)" d="M1492.7,678.8c35.2,20.8,59.3,69.2,61.7,122.5,13.5-12.3,6.6-39.1,6.6-39.1s-16.9-52.1-40.1-70.4S1492.7,678.8,1492.7,678.8Z" opacity=".7"></path><path style="mix-blend-mode:overlay" fill="url(#alpaca__m)" d="M1501.7,818.8c-.4-22.8-12.3-65.2-47.7-70.3,16.6-12.3,42.6,8.5,42.6,8.5s18.4,14.8,21.3,24.3S1501.7,818.8,1501.7,818.8Z" opacity=".7"></path><path style="mix-blend-mode:overlay" fill="url(#alpaca__n)" d="M1256.3,699.3c57.3-5.9,115.9-2.6,137,79.5,0,0,11,2,9.2-10.4s-15.5-85.3-118.4-78S1256.3,699.3,1256.3,699.3Z" opacity=".8"></path><path style="mix-blend-mode:overlay" fill="url(#alpaca__o)" d="M1327.3,750.8s-23.8-7.3-59.7-10.6-91.9,16-143,51.8-68.9,134.7-36.7,175.8,115.6,20.8,115.6,20.8-41.9-5.5-79.5-30.7c-81-85,39.4-236.7,203.7-208.7Z" opacity=".5"></path><path style="mix-blend-mode:overlay" fill="url(#alpaca__p)" d="M1071.9,935.5c-34.6,3.8-151.6,75.3-79.1,221.1,9.4,14.9-17.7-13.3-17.7-13.3s-28.1-39.4-26.6-69.7-2.7-65.4,33.8-101.8,91.3-49.8,91.3-49.8Z" opacity=".5"></path><path style="mix-blend-mode:overlay" fill="url(#alpaca__q)" d="M1080,1193.7c-37.6-35.2-83.6-117.3,13.4-164.3-40,29.2-63.3,82.3-9.3,162C1100.9,1208.7,1080,1193.7,1080,1193.7Z" opacity=".5"></path><path style="mix-blend-mode:overlay" fill="url(#alpaca__r)" d="M1175.8,1035.2c31.9-23.1,74.1-30.1,120.5-10.1-32.7-9.9-112-7.9-135.9,79.2-4.3,20.5,2.5,73.7,49.4,90.3,0,0-6.3,1.9-21.9-5.4s-59.1-24.3-47.9-90.7C1145.9,1050.2,1175.8,1035.2,1175.8,1035.2Z" opacity=".5"></path></g><g><path fill="#31323d" d="M1404.9,849.4a112.3,112.3,0,0,0-9.9-30.5l-1.8-3.6c-.6-1.2-1.3-2.3-2-3.5l-2-3.4L1387,805l-2.3-3.3-2.4-3.2-2.6-3.1a24.3,24.3,0,0,0-2.6-3l-2.7-3c-.9-1-1.9-1.9-2.8-2.8l-2.9-2.8-3-2.7c-2-1.8-4.1-3.4-6.2-5.1a38.8,38.8,0,0,0-3.3-2.3l-3.2-2.4a138.1,138.1,0,0,0-28.7-14.5c-20.3-7.4-42.1-10.1-63.9-9.1a222.3,222.3,0,0,0-32.4,4l-8.1,1.7-8,2-3.9,1.1-3.9,1.2-3.9,1.2-2,.6-1.9.7-7.7,2.9-7.4,3.2c-2.6,1-5,2.3-7.4,3.5s-4.9,2.4-7.2,3.8l-3.6,2-3.5,2.1-6.8,4.4-6.6,4.8-1.7,1.2-1.5,1.2-3.2,2.6a169.1,169.1,0,0,0-41.2,49.8,152.6,152.6,0,0,0-18.6,61.5c-.2,2.7-.2,5.4-.3,8.1s.1,5.4.2,8l.3,4c.1,1.3.2,2.7.4,4l.6,4,.3,1.9.4,2a130.3,130.3,0,0,0,9.9,30.2h.1a4.5,4.5,0,0,1-2.2,6,4.4,4.4,0,0,1-5.5-1.3,83.4,83.4,0,0,1-14.4-32.5,123.2,123.2,0,0,1-2.5-35.3,164.8,164.8,0,0,1,19.6-67.1c10.9-20.7,26.3-38.9,44.2-53.9l3.4-2.8,1.7-1.4,1.8-1.3,7.1-5.1,7.3-4.8c1.2-.8,2.5-1.5,3.8-2.2l3.8-2.2,3.8-2.2,3.9-1.9c2.6-1.3,5.2-2.7,7.9-3.8l8-3.4,8.2-3.1,2.1-.7,2.1-.7,4.1-1.3,4.2-1.2c1.4-.5,2.8-.8,4.2-1.2l8.4-2.1,8.5-1.8a235.2,235.2,0,0,1,34.6-4.2c23.2-1,46.9,2.1,69,10.3a147.8,147.8,0,0,1,31.4,16.1,135.5,135.5,0,0,1,14,11l3.3,3,3.1,3.1c2.1,2.1,4,4.4,6,6.6s1.9,2.3,2.8,3.4l2.7,3.5,2.5,3.7c.9,1.2,1.7,2.4,2.5,3.7l2.2,3.8c.8,1.3,1.4,2.6,2.2,3.9s1.4,2.6,2,4l1.8,4c.6,1.4,1.1,2.8,1.6,4.2s1.1,2.7,1.6,4.1l1.3,4.3.6,2.1.5,2.1,1.1,4.3.7,4.4.4,2.2.2,2.2.4,4.4a4.4,4.4,0,0,1-4,4.9,4.6,4.6,0,0,1-4.9-3.7Z"></path><path fill="#31323d" d="M1443.5,1122.7c-.1,1.5-.3,2.9-.5,4.4l-.5,2.2-.5,2.1c-.4,1.4-.9,2.8-1.3,4.2s-1.1,2.8-1.6,4.1a117.2,117.2,0,0,1-8.4,15.6,103.9,103.9,0,0,1-10.6,14.1,121.9,121.9,0,0,1-12.4,12.5,156.4,156.4,0,0,1-28.9,19.6,181.8,181.8,0,0,1-32.1,13.1,207.1,207.1,0,0,1-33.8,7c-5.7.7-11.4,1.1-17.2,1.4s-11.5.3-17.2.2a251.2,251.2,0,0,1-67.7-11.3c-5.5-1.7-10.9-3.6-16.2-5.8l-4.1-1.6-2.1-.9-2-1.1-4-2.1c-1.2-.8-2.5-1.4-3.8-2.2a107.3,107.3,0,0,1-27-23.3,89.5,89.5,0,0,1-16.5-32,97.4,97.4,0,0,1-2.9-35.6,115.2,115.2,0,0,1,9-34.2,118.5,118.5,0,0,1,18.5-29.9,97.5,97.5,0,0,1,27.2-22.3,86.5,86.5,0,0,1,16.4-6.6,64.6,64.6,0,0,1,17.5-2.2,2.5,2.5,0,0,1,2.4,2.6,2.5,2.5,0,0,1-2,2.4h0a79.8,79.8,0,0,0-15.3,4.7,89,89,0,0,0-13.9,7.6,106.7,106.7,0,0,0-23,21.5,117.2,117.2,0,0,0-16.2,27.2,103.8,103.8,0,0,0-7.7,30.4,86.2,86.2,0,0,0,2.8,30.8,75.8,75.8,0,0,0,14.2,27.1,89.6,89.6,0,0,0,23.6,20.1,82.3,82.3,0,0,0,13.9,7c5.1,2,10.2,3.8,15.3,5.5a265.8,265.8,0,0,0,31.6,8,207.1,207.1,0,0,0,32.4,3.5c5.4.2,10.8.2,16.3,0s10.8-.7,16.2-1.4a189.7,189.7,0,0,0,31.7-6.5,161.8,161.8,0,0,0,29.9-12.2,135.8,135.8,0,0,0,26.2-18.1,133.8,133.8,0,0,0,11.2-11.4,118.7,118.7,0,0,0,9.5-12.6,116.6,116.6,0,0,0,7.8-13.8c.5-1.2,1.1-2.4,1.6-3.5l1.8-3.6.8-1.8,1-1.8c.6-1.2,1.2-2.4,1.9-3.6l.2-.2a4.6,4.6,0,0,1,8.5,2.7Z"></path><path fill="#31323d" d="M1565,1005.5a41.5,41.5,0,0,1,4.2,5.2c1.2,1.9,2.3,3.8,3.4,5.7a106,106,0,0,1,5.2,12,129.4,129.4,0,0,1,6.1,25.1,169.9,169.9,0,0,1,1.8,25.7,223,223,0,0,1-1.4,25.8,198,198,0,0,1-12.6,50.1,169,169,0,0,1-26.6,44.7,162.8,162.8,0,0,1-39.4,34.1,193.8,193.8,0,0,1-47.4,20.7,251.6,251.6,0,0,1-50.5,9.1,361.8,361.8,0,0,1-51,.3h0a6.3,6.3,0,0,1-2-12.1h.1a92.3,92.3,0,0,0,17.3-9.1,132.6,132.6,0,0,0,15.6-12.4,138.5,138.5,0,0,0,24.8-31.2,142.6,142.6,0,0,0,15.1-37.1,152.6,152.6,0,0,0,4.3-39.9,194.7,194.7,0,0,0-5-40.1,282.2,282.2,0,0,0-12.1-38.9q-3.7-9.6-8.1-18.9c-1.4-3.2-2.8-6.3-4.3-9.4s-3.1-6.2-4.7-9.2c-6.3-12.3-13-24.4-20-36.5h0a2.5,2.5,0,0,1,.9-3.4,2.6,2.6,0,0,1,3.2.6,278.5,278.5,0,0,1,24.8,34.2c3.8,6,7.3,12.2,10.7,18.5,1.6,3.2,3.2,6.3,4.7,9.5s3,6.5,4.4,9.8a230.9,230.9,0,0,1,13.4,40.7,194.4,194.4,0,0,1,5.1,43,170,170,0,0,1-5.1,43.1,155.5,155.5,0,0,1-16.5,40.3,150.7,150.7,0,0,1-27.1,34.1,142.8,142.8,0,0,1-17.2,13.6,111.9,111.9,0,0,1-19.7,10.4l-1.9-12.1h0c8.2.3,16.4.3,24.6.1s16.3-.6,24.4-1.4a263.8,263.8,0,0,0,47.8-9.1,181.7,181.7,0,0,0,43.9-19.4,150.9,150.9,0,0,0,36.1-31,156.8,156.8,0,0,0,24.6-40.8,185.3,185.3,0,0,0,12.4-46.6,215.3,215.3,0,0,0,1.8-24.1c0-8.1-.4-16.2-1.1-24.2a208.5,208.5,0,0,0-3.6-23.9,109.5,109.5,0,0,0-3-11.6,67.5,67.5,0,0,0-4.4-11.1h0a2.4,2.4,0,0,1,1-3.4A2.4,2.4,0,0,1,1565,1005.5Z"></path><path fill="#31323d" d="M1778.8,1083.1a81.5,81.5,0,0,1,1.9,17.8,79.4,79.4,0,0,1-1.8,18.1,78.4,78.4,0,0,1-5.9,17.5,89.1,89.1,0,0,1-9.9,15.8,86.7,86.7,0,0,1-13.2,13.2,92.4,92.4,0,0,1-15.6,10.1,106.8,106.8,0,0,1-35.1,10.8,129.8,129.8,0,0,1-36.3,0,151,151,0,0,1-35-8.8,172,172,0,0,1-60-38.5,6.2,6.2,0,0,1,8.5-9.1h.1a172.5,172.5,0,0,0,56.3,34.5,161.7,161.7,0,0,0,31.9,7.9,131.8,131.8,0,0,0,32.6.2,96.7,96.7,0,0,0,30.9-9.1,81.6,81.6,0,0,0,13.5-8.3,74.2,74.2,0,0,0,11.4-11c6.8-8.1,11.6-17.8,14.9-28a138.1,138.1,0,0,0,3.8-16c.9-5.4,1.5-11,2-16.7h0a2.4,2.4,0,0,1,2.7-2.3A2.5,2.5,0,0,1,1778.8,1083.1Z"></path><path fill="#31323d" d="M1648.5,861.7a56.3,56.3,0,0,1-6.4-12.1,97.7,97.7,0,0,1-3.9-12.7,151.3,151.3,0,0,1-3.7-25.8,204.8,204.8,0,0,1,.5-26,173.4,173.4,0,0,1,4.2-25.8,127.9,127.9,0,0,1,8.7-25,82.2,82.2,0,0,1,15.4-22.4,59.7,59.7,0,0,1,11.1-8.8,49.5,49.5,0,0,1,13.2-5.6,52.1,52.1,0,0,1,14.1-1.9,63.4,63.4,0,0,1,13.8,1.4h0l-7.5,6.1a1.4,1.4,0,0,0,.2.9c0,.1,0,0-.1-.1l-.9-1a21.5,21.5,0,0,0-3.7-2.4,39.7,39.7,0,0,0-9.5-3.5,68.8,68.8,0,0,0-21.3-1.7c-14.5,1-28.8,5.9-41.7,13.1a159.8,159.8,0,0,0-35.4,27.7,253.1,253.1,0,0,0-28.7,35.5,6.1,6.1,0,0,1-8.6,1.7,6.2,6.2,0,0,1-1.7-8.7h0a261.4,261.4,0,0,1,30.1-37.3,171.4,171.4,0,0,1,38.2-29.8c14.2-7.9,30.2-13.5,46.9-14.7a85.7,85.7,0,0,1,25.2,2,55.3,55.3,0,0,1,12.4,4.7,29.6,29.6,0,0,1,6.1,4.1,19.5,19.5,0,0,1,2.9,3.3,11.7,11.7,0,0,1,1.4,2.5,9.8,9.8,0,0,1,.7,3.7,6.3,6.3,0,0,1-6.2,6.3h-1.2c-7.5-1.3-15.1-1.3-22,.7a43.8,43.8,0,0,0-18.5,11.2,69.2,69.2,0,0,0-12.8,18.9,117.1,117.1,0,0,0-8,22.4,177.2,177.2,0,0,0-5,48.2,159.9,159.9,0,0,0,2.3,24,103.4,103.4,0,0,0,2.7,11.6,53.2,53.2,0,0,0,4.3,10.7h0a4.5,4.5,0,0,1-1.8,6.1A4.6,4.6,0,0,1,1648.5,861.7Z"></path><path fill="#31323d" d="M1554.4,798.1c.6-7.1,1.3-13.9,1.3-20.8a87.1,87.1,0,0,0-1.9-20.4,101.5,101.5,0,0,0-17-37.4,157.9,157.9,0,0,0-29.2-30.3c-5.5-4.5-11.3-8.7-17.2-12.8l-4.5-2.9-4.5-2.9-2.3-1.4-2.3-1.4-4.7-2.8,7.4-10h0l2.1,2.1,2,2.1q2.1,2.1,3.9,4.2c2.5,2.8,4.9,5.7,7.3,8.7a176.9,176.9,0,0,1,12.9,18.7,150.5,150.5,0,0,1,17.7,42.1,119.8,119.8,0,0,1,3,23.1c0,3.9-.1,7.8-.4,11.7a103.1,103.1,0,0,1-4.9,22.9,101.2,101.2,0,0,1-4.3,10.8,67,67,0,0,1-5.7,10.1,57.3,57.3,0,0,1-7.4,8.9,4.6,4.6,0,0,1-6.4-.1,4.3,4.3,0,0,1-.9-5v-.2c1.5-3.3,3.1-6.4,4.6-9.5s3-6.3,4.4-9.4a100.3,100.3,0,0,0,3.7-9.6,79.6,79.6,0,0,0,2.5-9.9,92.2,92.2,0,0,0,1.6-20.3,100.2,100.2,0,0,0-2.8-20.4,137.4,137.4,0,0,0-16.1-38.4,174.2,174.2,0,0,0-11.8-17.6c-2.1-2.8-4.3-5.5-6.6-8.2l-3.5-4-1.8-1.9-1.7-1.8h0a6.2,6.2,0,0,1-.4-8.8,6.3,6.3,0,0,1,7.6-1.3h.1c6.6,3.6,13.1,7.4,19.4,11.5l4.7,3.2,4.6,3.2,4.6,3.4,4.4,3.5c11.8,9.5,22.8,20.3,31.7,32.9a109.8,109.8,0,0,1,18.7,42.5c.4,2,.7,3.9,1,5.8s.5,3.9.6,5.9l.2,2.9c.1,1,.1,2,.1,3a56.1,56.1,0,0,1-.1,5.8,64.8,64.8,0,0,1-1.6,11.6,61.9,61.9,0,0,1-3.4,11.1,4.7,4.7,0,0,1-6,2.5,4.6,4.6,0,0,1-2.7-4.6Z"></path><path fill="none" stroke="#31323d" stroke-linecap="round" stroke-linejoin="round" stroke-width="12.5" d="M1073.7,922.8c-85.8,5.8-140.3,105-122.5,168.5s55.5,92.9,108.4,91.1"></path><path fill="none" stroke="#31323d" stroke-linecap="round" stroke-linejoin="round" stroke-width="12.5" d="M1518.6,783.7c-18-39.1-80.1-60.6-114.3-7.5-12.4-126.7-181.2-78.8-178.4-78.8,11.9,0,94.8-1,108,56.1"></path><path fill="none" stroke="#31323d" stroke-linecap="round" stroke-linejoin="round" stroke-width="12.5" d="M1746,1160.6c99,30.1,177.7-34.8,164.6-136.2,0,0-6.1-34-30.3-44.5"></path><path fill="#31323d" d="M1195.3,1203.9a117.2,117.2,0,0,1-122.5-4.4,101.2,101.2,0,0,1-39.4-50.1c-7.2-20.4-6.3-43.6,2.9-62.5a2.5,2.5,0,0,1,3.4-1.2,2.5,2.5,0,0,1,1.3,2.8c-4.3,19.3-3,39.1,4,56.6a88.8,88.8,0,0,0,14.3,24.3,99.5,99.5,0,0,0,21.2,18.7,103.6,103.6,0,0,0,25.6,12.1,106,106,0,0,0,28,4.8,84.2,84.2,0,0,0,14.2-.3,108.9,108.9,0,0,0,14.1-2.1,106.1,106.1,0,0,0,26.8-9.7h.1a6.2,6.2,0,0,1,8.4,2.7A6.4,6.4,0,0,1,1195.3,1203.9Z"></path><path fill="#31323d" d="M1815.1,939.6a82.6,82.6,0,0,1,5.2,14.4,85.3,85.3,0,0,1,2.7,15.1,97.3,97.3,0,0,1-2,30.9,102.9,102.9,0,0,1-31.5,53.2,96.5,96.5,0,0,1-12.5,9.6,102.8,102.8,0,0,1-13.8,7.6,114.9,114.9,0,0,1-14.9,5.3,102.9,102.9,0,0,1-15.5,2.8,101.3,101.3,0,0,1-31.1-1.6,87.6,87.6,0,0,1-28.5-11.5,2.5,2.5,0,0,1,2.2-4.5h0a109,109,0,0,0,27.8,6.5l3.5.3h10.6a109.1,109.1,0,0,0,13.9-1.4,105.7,105.7,0,0,0,49.7-23,91.6,91.6,0,0,0,10-9.7,83.4,83.4,0,0,0,8.6-11,101.7,101.7,0,0,0,6.8-12.1,86.3,86.3,0,0,0,5-13.1,93.4,93.4,0,0,0-.8-56.1,2.4,2.4,0,0,1,1.6-3.1A2.5,2.5,0,0,1,1815.1,939.6Z"></path><path fill="#31323d" d="M1646.9,800l.9-.2.7-.2,1.5-.3,3-.5a57.7,57.7,0,0,1,5.8-.8,115.5,115.5,0,0,1,11.6-.9,221.3,221.3,0,0,1,23.1.6c7.6.6,15.2,1.5,22.8,2.8s15,2.9,22.4,4.8l5.5,1.5,5.6,1.7c3.7,1.1,7.3,2.5,10.9,3.9a199,199,0,0,1,21,9.6c6.8,3.5,13.4,7.4,19.9,11.5l9.5,6.5c3.1,2.2,6.2,4.5,9.2,6.9a209.3,209.3,0,0,1,32.8,32.4,150.1,150.1,0,0,1,23.4,40.3,126.8,126.8,0,0,1,6.1,22.7,115.1,115.1,0,0,1,1.3,11.8,116.4,116.4,0,0,1-.1,11.8,98.5,98.5,0,0,1-4.3,22.9,101.2,101.2,0,0,1-4,10.9c-.8,1.8-1.7,3.5-2.5,5.2s-1.8,3.4-2.7,5a2.5,2.5,0,0,1-4.7-1.8h.1c.4-1.8.9-3.6,1.4-5.4l1.2-5.3c.4-1.8.9-3.5,1.2-5.3s.7-3.5.9-5.3a127.1,127.1,0,0,0,1.7-21.2,112.5,112.5,0,0,0-7.7-41.3,136.2,136.2,0,0,0-21.9-36.3,195,195,0,0,0-31-29.9,227.8,227.8,0,0,0-36.4-23.4c-6.4-3.3-12.9-6.3-19.6-9-3.3-1.3-6.7-2.6-10.1-3.7l-5.1-1.5-5.2-1.4a262,262,0,0,0-42.8-7.9,193.3,193.3,0,0,0-21.5-.9c-3.6.1-7.2.2-10.7.5l-5.3.6-2.5.4-1.3.2-1,.2h-.4a6.2,6.2,0,0,1-2.7-12.2Z"></path></g></g></g><g id="item_d"></g><g id="item_c"></g><g id="item_b"></g><g id="item_a"></g></svg>