<svg xmlns="http://www.w3.org/2000/svg" viewBox="0 0 3000 3000" xmlns:xlink="http://www.w3.org/1999/xlink"><g id="item_j"></g><g id="item_i"></g><mask id="hooktail_mask"><g fill="white"><path d="M0 0h3000v3000H0z"></path><path d="M0 0h3000v3000H0z"></path></g><g fill="black"><path d="M2399.9,1601.2a38.3,38.3,0,0,1,19.5,3.8l14.1,8.6c-25.9,53.4-14.1,96.3.5,123a151.2,151.2,0,0,0,38.5,45.7c10,8.6,28.1,16.7,51.7,16.7a111.4,111.4,0,0,0,13.8-.9,121.9,121.9,0,0,0,24.1-5.7h31.8v155.1H2251.8V1636.6h86.1Z"></path></g></mask><g clip-path="url(#kittyClipPath)" mask="url(#hooktail_mask)"><g id="tailFur"><clipPath id="tailFurClipPath"><path fill="none" d="M2518.1 1775.9c67.6-29 132.6 39.9 146.7 73.7 47.9 115.1-49.5 194.9-49.5 194.9-36.6 34.8-88.5 67.7-157.3 88.8-175.2 53.8-339.1-38.4-422.2-99l-34.7-24.9-36.1 140.1 220.5 76.5a855.3 855.3 0 0 0 229.1 11.7c98.1-8.4 186.8-29.1 266-104.6 93.5-89.2 148.8-239.5 82.8-373.6-44.5-90.3-152-191.5-273.7-171.9-89 14.4-190.9 94.4-182.6 186.5 5.7 64 64.5 132.1 133.1 133.9 48.3 1.2 112.1-30.2 112.1-73.4-.1-34.5-40.8-73.1-100.9-79.5"></path></clipPath><g clip-path="url(#tailFurClipPath)"><path fill="#d1dadf" d="M1904 1437.5h939v808.41h-939z"></path><path fill="#44e192" d="M2636.5 1906.6l-48.7-50.3c37.9-36.6 44.7-69.8 45.4-86.3 1.4-33.2-16.1-69.9-48-100.8-36.5-35.3-88.8-60.6-147.3-71.3l12.5-68.9c72 13.1 137.2 45 183.5 89.9s71.5 100.1 69.2 154c-1.1 27-11.3 80.2-66.6 133.7z"></path><path fill="#44e192" d="M2694.4 2026.8c-74.8 0-130.5-44-142.6-54.3l78.1-91.1c1.4 1.2 30 25.4 64.5 25.4a69.8 69.8 0 0 0 16.9-2c18.6-4.6 35.7-17 48.2-34.9 13.8-19.7 21-44.6 20.3-70.1l119.9-3.5c3.1 106.6-63.9 201.2-159.5 225a190 190 0 0 1-45.8 5.5zm-88.9 200.8c-59.3 0-114.2-17.6-156.9-50.6-29-22.4-52.2-51.7-69.1-87a299.6 299.6 0 0 1-23.5-72l88.3-17.2c6.2 31.7 21.5 75.7 59.4 105 30.9 23.9 73.5 34.9 120 31 50.3-4.2 102.3-25.8 146.6-60.7l55.7 70.7c-58.8 46.4-126.2 74-194.8 79.7q-13 1.1-25.7 1.1zm-142.3 229.1a497.1 497.1 0 0 1-96-9.5 482.1 482.1 0 0 1-108-34.8 459.8 459.8 0 0 1-209.2-193.3 485 485 0 0 1-46-115.5c-17.2-66.9-16.7-122.2-15.7-142.9l199.8 9.8c-.3 6.4-1.3 40.6 9.6 83.2 13.9 54 40.9 99.2 80.2 134.4 35.8 32 78.9 53.2 128.1 62.9 36.9 7.3 66.6 5.8 77.6 4.9l17.2 199.3c-10.5.8-23.1 1.5-37.6 1.5z"></path><path fill="#44e192" d="M2305.7 2002.2q-10.5 0-21.1-1c-52.7-4.8-101-27.1-135.8-62.8s-53.8-84.3-49.4-132.7 30.1-91.6 72.5-121.6c40.7-28.9 92.1-42.1 144.9-37.3s101 27.1 135.8 62.8 53.8 84.3 49.4 132.7-30.1 91.6-72.5 121.6c-35.3 25-78.6 38.3-123.8 38.3zm-10.1-286.3c-30.8 0-59.9 8.8-83.2 25.4-25.4 18-40.8 43.2-43.3 70.8s8.1 55.2 29.8 77.5 55.8 38.7 92 42 71-5.5 98-24.7c25.4-18 40.8-43.2 43.3-70.8s-8.1-55.2-29.8-77.5-55.8-38.7-92-42q-7.4-.7-14.8-.7z"></path><path fill="#44e192" d="M2305.7 2002.2q-10.5 0-21.1-1c-52.7-4.8-101-27.1-135.8-62.8s-53.8-84.3-49.4-132.7 30.1-91.6 72.5-121.6c40.7-28.9 92.1-42.1 144.9-37.3s101 27.1 135.8 62.8 53.8 84.3 49.4 132.7-30.1 91.6-72.5 121.6c-35.3 25-78.6 38.3-123.8 38.3zm-10.1-286.3c-30.8 0-59.9 8.8-83.2 25.4-25.4 18-40.8 43.2-43.3 70.8s8.1 55.2 29.8 77.5 55.8 38.7 92 42 71-5.5 98-24.7c25.4-18 40.8-43.2 43.3-70.8s-8.1-55.2-29.8-77.5-55.8-38.7-92-42q-7.4-.7-14.8-.7z"></path><defs><clipPath id="tailShadowClipPath"><path fill="none" d="M2518.1 1775.9c67.6-29 132.6 39.9 146.7 73.7 47.9 115.1-49.5 194.9-49.5 194.9-36.6 34.8-88.5 67.7-157.3 88.8-175.2 53.8-339.1-38.4-422.2-99l-34.7-24.9-36.1 140.1 220.5 76.5a855.3 855.3 0 0 0 229.1 11.7c98.1-8.4 186.8-29.1 266-104.6 93.5-89.2 148.8-239.5 82.8-373.6-44.5-90.3-152-191.5-273.7-171.9-89 14.4-190.9 94.4-182.6 186.5 5.7 64 64.5 132.1 133.1 133.9 48.3 1.2 112.1-30.2 112.1-73.4-.1-34.5-40.8-73.1-100.9-79.5"></path></clipPath><linearGradient id="tailShadow__a" x1="2364.15" x2="2364.15" y1="2291.47" y2="2013.47" gradientUnits="userSpaceOnUse"><stop offset="0" stop-color="gray"></stop><stop offset=".27" stop-color="#7d7d7d"></stop><stop offset=".46" stop-color="#747474"></stop><stop offset=".64" stop-color="#646464"></stop><stop offset=".8" stop-color="#4d4d4d"></stop><stop offset=".95" stop-color="#303030"></stop><stop offset="1" stop-color="#242424"></stop></linearGradient><linearGradient id="tailShadow__c" x1="2579.15" x2="2579.15" y1="1867.47" y2="1441.6" gradientUnits="userSpaceOnUse"><stop offset="0" stop-color="#fff" stop-opacity="0"></stop><stop offset=".72" stop-color="#fff"></stop></linearGradient><linearGradient id="tailShadow__d" x1="2587.47" x2="2587.47" y1="2073.86" y2="1728.38" xlink:href="#tailShadow__a"></linearGradient><linearGradient id="tailShadow__e" x1="2396.61" x2="2485.21" y1="1887.62" y2="1887.62" xlink:href="#tailShadow__a"></linearGradient><linearGradient id="tailShadow__f" x1="2304.65" x2="2348.9" y1="1780.65" y2="1780.65" xlink:href="#tailShadow__a"></linearGradient><linearGradient id="tailShadow__g" x1="2506.83" x2="2569.65" y1="2112.03" y2="2112.03" xlink:href="#tailShadow__a"></linearGradient></defs><g clip-path="url(#tailShadowClipPath)" style="mix-blend-mode:overlay"><path style="mix-blend-mode:overlay" fill="url(#tailShadow__c)" d="M2307.1 1774.1s88.4-203.4 288.4-129.1c66.9 24.8 105.7 57.5 134.4 94.2 4.4 5.7 19.9-21.7 19.9-21.7.4 11.2 7.3 50.8 11.4 58.3 27.2 50.1 25 91.7 25 91.7l136-196-234-212.5-344-17.4-108 123.9z" opacity=".35"></path></g><g clip-path="url(#tailShadowClipPath)" style="mix-blend-mode:multiply"><path style="mix-blend-mode:multiply" fill="url(#tailShadow__a)" d="M2135.9 2084.1c107 52 21.6 101.5 187.6 129.2 212 11.5 341.1-57.3 402.4-136.4l100.3-44.4-96 259-828-9.1 54-268.9s122.4 42.7 179.7 70.6z" opacity=".25"></path><path style="mix-blend-mode:multiply" fill="url(#tailShadow__d)" d="M2518.1 1732c7.7-2.1 88.7-22.5 150.9 63.5 14.2 19.6 27.4 39.3 42.7 58.6 3.7 4.6 8 9.1 11.9 14.1-6.5-.8-30.7-15.2-28.4-9.4 6.7 17.7 7.4 15.6 6 35.7-.5 5.7-38.2-23.4-34.8-18.7 67.4 91.3-10.7 176.9-30.7 198.1 15.5-24.1 6.8-63.7.5-63.7l-57-202.7s-20.1-11.2-61.1-31.6-66.7-20.8-66.7-20.8 30.8-12.4 66.7-23.1z" opacity=".25"></path><path style="mix-blend-mode:multiply" fill="url(#tailShadow__e)" d="M2399.5 1867s24.8 47.5 85.7 32c0 0-34.8 20.8-85.7.1 0 0-6.6-16.6 0-32.1z" opacity=".25"></path><path style="mix-blend-mode:multiply" fill="url(#tailShadow__f)" d="M2348.9 1745.4s-42.7 33.6-28.7 70.6c0 0-15-30.8-15.5-56.4 0 0 19-15.3 44.2-14.2z" opacity=".25"></path><path style="mix-blend-mode:multiply" fill="url(#tailShadow__g)" d="M2506.8 2142.1s50.9-4.6 62.9-60.1l-26.5 13s5.8 28.7-36.4 47.1z" opacity=".25"></path></g></g></g><g id="tail"><path fill="#44e192" d="M2590.9 1602.2c-9-21-4.3-49.5 12.4-66.9-.5 33.9 48.2 90.6 67.1 108.5"></path><path fill="#31323d" d="M2588.6 1603.2a48.9 48.9 0 0 1-7-17.9 60.7 60.7 0 0 1-.3-19.5 57.9 57.9 0 0 1 6-18.6 71.1 71.1 0 0 1 11.5-16.2l10.9-11.4v15.8a47.7 47.7 0 0 0 2.3 14.1 112.4 112.4 0 0 0 5.7 14.1 219.3 219.3 0 0 0 16.2 27 314.1 314.1 0 0 0 19.4 25.3q5.1 6.1 10.5 12c3.6 3.9 7.3 7.8 11 11.3a6.2 6.2 0 1 1-8.5 9.1c-4.2-3.9-8-7.8-11.7-11.9s-7.4-8.2-10.9-12.4c-7.1-8.5-13.8-17.2-20.1-26.2a217.3 217.3 0 0 1-17.1-28.7 106.8 106.8 0 0 1-6.4-16 57.2 57.2 0 0 1-2.9-17.8l10.7 4.4a46.7 46.7 0 0 0-8.9 13.1 89.7 89.7 0 0 0-5.1 15.4 79 79 0 0 0-2.1 16.2 69.1 69.1 0 0 0 1.5 16.8 2.6 2.6 0 0 1-2 3 2.7 2.7 0 0 1-2.7-1z"></path><path fill="#31323d" d="M2401.9 1893.3a109 109 0 0 0 37.6 7.9 112.6 112.6 0 0 0 19.2-1.2 136.5 136.5 0 0 0 19-4 139.1 139.1 0 0 0 35.5-15.5 103.3 103.3 0 0 0 15.2-11.6 65.1 65.1 0 0 0 11.5-14.3 43.6 43.6 0 0 0 5.6-16.6 42.3 42.3 0 0 0-.1-8.7 54.6 54.6 0 0 0-2-8.7 63.8 63.8 0 0 0-8.6-16.3 81.8 81.8 0 0 0-12.8-14.2 104.1 104.1 0 0 0-15.4-11.7 131.5 131.5 0 0 0-17.4-9.3 164.6 164.6 0 0 0-38.1-11.5 2.4 2.4 0 0 1-2-2.9 2.5 2.5 0 0 1 2.5-2.1 138.4 138.4 0 0 1 41.1 7.8 145.7 145.7 0 0 1 19.4 8.7 123.1 123.1 0 0 1 17.7 12.1 93.1 93.1 0 0 1 15 15.7 72.4 72.4 0 0 1 10.7 19.5 59.2 59.2 0 0 1 2.8 11.2 56.8 56.8 0 0 1 .4 11.7 55.7 55.7 0 0 1-7 22 81.9 81.9 0 0 1-13.8 17.6 104.1 104.1 0 0 1-17.2 13.3 150.4 150.4 0 0 1-39.2 17.2 137.8 137.8 0 0 1-42.5 5.3 118.3 118.3 0 0 1-41.9-9.8 6.3 6.3 0 0 1 4.8-11.6z"></path><path fill="none" stroke="#31323d" stroke-linecap="round" stroke-miterlimit="10" stroke-width="12.5" d="M2518.1 1775.9c67.6-29 132.6 39.9 146.7 73.7a200 200 0 0 1 8.2 24.4"></path><path fill="#31323d" d="M2503.4 2140.6a105.9 105.9 0 0 0 16-8.5 50.1 50.1 0 0 0 12.6-11.6 32 32 0 0 0 6.1-14.5 29.8 29.8 0 0 0 .2-7.9 26.3 26.3 0 0 0-.6-3.9 12.1 12.1 0 0 0-.5-1.8c-.1-.3-.1-.6-.2-.9l-.2-.4v-.2h-.1l10.7 1.4a76.8 76.8 0 0 1-14.8 14.8 115.3 115.3 0 0 1-17 11.1 220.2 220.2 0 0 1-36.4 15.8l-9.4 3.1-9.2 2.8c-6.3 1.9-12.6 3.8-19 5.3a317.6 317.6 0 0 1-38.7 7.2 367.3 367.3 0 0 1-39.2 3 424.933 424.933 0 0 1-78.1-5.4c-6.5-1-12.9-2.1-19.3-3.4s-12.7-2.7-19-4.3a6.1 6.1 0 0 1-4.6-7.5 6.3 6.3 0 0 1 7.3-4.7c6.3 1.4 12.5 2.6 18.8 3.7s12.5 2.1 18.8 3c12.5 1.7 25.2 3 37.8 3.7 6.3.4 12.6.6 19 .7s12.6.1 18.9-.1 12.7-.5 19-1 12.5-1 18.8-1.9 12.5-1.7 18.7-2.8 12.3-2.4 18.5-3.9 12.1-3.1 18.2-4.9l9.3-2.7 9-2.9a218.9 218.9 0 0 0 34.6-14.3 121.2 121.2 0 0 0 15.4-9.7 75.9 75.9 0 0 0 6.8-5.7 69.8 69.8 0 0 0 5.9-6.4l7-8.5 3.7 9.9.2.5v.3l.2.8a6.5 6.5 0 0 1 .4 1.3l.6 2.7a49.9 49.9 0 0 1 .7 5.4 44.2 44.2 0 0 1-.8 10.9 41.3 41.3 0 0 1-3.6 10.2 45.9 45.9 0 0 1-6.1 8.8 52.1 52.1 0 0 1-16.5 12.1 79 79 0 0 1-18.5 6.2 2.6 2.6 0 0 1-3-2 2.6 2.6 0 0 1 1.5-2.8z"></path><path fill="#31323d" d="M2386.8 1639.1a208.1 208.1 0 0 0-28.8 25.9 219.2 219.2 0 0 0-23.4 30.8l-2.5 4.1-2.4 4.2c-.9 1.4-1.6 2.9-2.4 4.3l-2.3 4.3-4.6 8.8-2.3 4.5-2 4.2a119.5 119.5 0 0 0-6.6 17.8 76.7 76.7 0 0 0-2.2 9.2c-.3 1.5-.5 3-.7 4.5l-.3 2.2v2l-10.9-4.1a70.5 70.5 0 0 1 11.7-9.5 63 63 0 0 1 13.3-6.5 65.2 65.2 0 0 1 14.2-3.4 99 99 0 0 1 14.3-.9 3.8 3.8 0 0 1 3.8 3.9 3.7 3.7 0 0 1-3.5 3.8h-.1a108.3 108.3 0 0 0-12.9 1.9 60.6 60.6 0 0 0-12 4.1 50.5 50.5 0 0 0-10.7 6.4 59 59 0 0 0-8.8 8.5l-10.8 13.1v-18.8a7.6 7.6 0 0 1 .1-1.5 12.4 12.4 0 0 1 .3-2.7 45.1 45.1 0 0 1 .8-5.3c.6-3.5 1.5-6.9 2.4-10.3a148.5 148.5 0 0 1 7.3-19.6l2.3-4.7 2.3-4.5 4.6-8.8 2.4-4.5c.8-1.5 1.6-3 2.5-4.5l2.5-4.4 2.7-4.4a232.4 232.4 0 0 1 24.8-32.7 220.3 220.3 0 0 1 30.5-27.4h.1a6.3 6.3 0 0 1 7.4 10.1z"></path><path fill="#31323d" d="M2517.2 2197c.9 2.5 1.9 5 2.9 7.3a33.4 33.4 0 0 0 3.5 6.2 20.8 20.8 0 0 0 4.5 4.4 33.9 33.9 0 0 0 6 3.5l11.4 5.8-12.1 5.1-2 .8-1.9.7a27.8 27.8 0 0 1-3.8 1.2 73.8 73.8 0 0 1-7.8 1.9 67.3 67.3 0 0 1-16.2 1.2 47.2 47.2 0 0 1-8.3-1.1 39.3 39.3 0 0 1-8-2.6 31 31 0 0 1-7.3-4.6 30 30 0 0 1-5.5-6.3 2.6 2.6 0 0 1 3.6-3.5h.2a38.9 38.9 0 0 0 5.8 3.5 42.1 42.1 0 0 0 6.3 2 46.2 46.2 0 0 0 6.5.9h6.8a93.6 93.6 0 0 0 13.7-1.8l6.8-1.6 3.4-1 1.7-.5 1.5-.5-.6 10.9a39.1 39.1 0 0 1-7.6-5.6 27 27 0 0 1-5.7-8.1 29.8 29.8 0 0 1-2.5-8.9 42.7 42.7 0 0 1-.3-8.7 2.6 2.6 0 0 1 2.7-2.4 2.8 2.8 0 0 1 2.3 1.7z"></path><path fill="#31323d" d="M2249.3 2181.5a79.8 79.8 0 0 0 12.7 1.1 31.1 31.1 0 0 0 11.6-2 30.6 30.6 0 0 0 9.5-6.4 95.2 95.2 0 0 0 8.6-9.2l4.9 10.7a65.4 65.4 0 0 1-19.7-1.5 79.9 79.9 0 0 1-18.3-6.7c-5.6-2.9-10.9-6.2-16-9.5s-10.1-6.7-15-9.8l-12.1-7.7 13.8-3.6a39.4 39.4 0 0 0 23-17.2l7.4 9.2a96.3 96.3 0 0 1-38 4.9 94.2 94.2 0 0 1-19-3.1c-3.1-.9-6.1-1.9-9.2-3.1l-2.3-.9-2.1-.9-4.1-1.8-4.1-1.9-4.1-1.7-8.3-3.4-16.8-7.3c-11-5.1-21.9-10.4-32.7-16.1s-21.3-11.6-31.7-17.8-20.7-12.7-30.8-19.5c-5-3.3-10-6.8-15-10.3l-14.7-10.5-29.3-21.1 9.7-3.5-36.2 140.2-4-7.5 220.6 76.5-.9-.2c5.8 1 12 1.8 18.1 2.6s12.2 1.5 18.4 2.1c12.3 1.3 24.6 2.4 37 3.3q37.1 2.8 74.1 3.6c12.4.2 24.8.2 37.1 0s24.7-.6 37-1.3 24.5-1.9 36.7-3.5 24.2-3.3 36.3-5.5a5 5 0 0 1 2.4 9.7 225.6 225.6 0 0 1-37.1 8.2c-12.4 1.7-25 2.8-37.5 3.7-25.1 1.7-50.1 2-75.1 1.5s-50-1.8-74.9-3.7c-12.5-1-24.9-2.1-37.3-3.5-6.3-.6-12.5-1.4-18.7-2.2s-12.4-1.6-18.8-2.8h-.4l-.5-.2-220.6-76.5-5.4-1.9 1.4-5.5 36.2-140.2 2.3-8.9 7.4 5.4 29.3 21.1 14.6 10.4c4.9 3.5 9.8 6.8 14.8 10.2 9.9 6.6 19.9 13 30.2 19.1s20.6 11.9 31.1 17.5 21.3 10.8 32.1 15.7c5.4 2.5 10.9 4.8 16.4 7.2l8.3 3.4 4.2 1.7 4.2 1.9 4.1 1.9 2 .9 1.9.7c2.6 1 5.3 1.8 8 2.6a83.7 83.7 0 0 0 16.5 2.8 86.1 86.1 0 0 0 33.1-4.3l16.6-5.6-9.2 14.8a52.1 52.1 0 0 1-30.5 22.7l1.7-11.4c10.4 6.6 20 13.6 30.1 18.7a68.2 68.2 0 0 0 15.4 5.7 50.5 50.5 0 0 0 16 1.2l16.9-1.2-12 11.9c-3.4 2.9-7 5.9-10.9 8.7a56.4 56.4 0 0 1-6.4 3.7 35.5 35.5 0 0 1-7.1 2.6 36.6 36.6 0 0 1-14.7.5 82.9 82.9 0 0 1-13.3-3 2.4 2.4 0 0 1-1.7-3.1 2.4 2.4 0 0 1 2.7-1.8z"></path><path fill="#31323d" d="M2630.8 2076.6a72.8 72.8 0 0 0 5.4-15.9 75.2 75.2 0 0 0 1.7-16.3 86.1 86.1 0 0 0-1.4-16.1 48 48 0 0 0-5.7-14.9l11.5-1.8a56 56 0 0 1-6.8 16.2 97.2 97.2 0 0 1-9.8 13.5 191 191 0 0 1-23.2 22.7c-8.2 6.8-16.7 13.2-25.4 19.3s-17.7 11.8-26.9 17.1a6.4 6.4 0 0 1-8.6-2.3 6.2 6.2 0 0 1 2.3-8.5h.1c8.8-5.1 17.5-10.7 26-16.6s16.7-12 24.5-18.6a197.1 197.1 0 0 0 21.7-21.1 96.8 96.8 0 0 0 8.6-11.9 43.5 43.5 0 0 0 5.3-12.5l3.5-15.4 8 13.5a69.6 69.6 0 0 1 7.4 18.4 59 59 0 0 1 1.6 19.6 61.9 61.9 0 0 1-4.8 18.9 46.9 46.9 0 0 1-11 15.7 2.5 2.5 0 0 1-3.6-.1 2.6 2.6 0 0 1-.4-2.8z"></path><path fill="#31323d" d="M2528 2212.4c9.5-2.7 19-5.7 28.3-9.1l6.9-2.6 3.4-1.3 3.5-1.4 6.8-2.9 6.7-3.1c8.9-4.1 17.8-8.6 26.3-13.6 4.3-2.3 8.4-5 12.6-7.6l6.2-4 3.1-2.1 3-2.1 6.1-4.3 5.9-4.5 2.9-2.2 2.9-2.3 5.7-4.7 5.6-4.8c1.9-1.7 3.8-3.2 5.6-4.9l5.4-5.1 1.4-1.2 1.3-1.3 2.6-2.6 5.2-5.2 1.3-1.3.3-.3.2-.2.6-.7 2.4-2.8c3.2-3.8 6.3-7.7 9.4-11.6 6.1-7.8 12-15.8 17.8-23.9a488.6 488.6 0 0 0 31.6-50.4c9.5-17.3 17.8-35.3 23.8-54a185.3 185.3 0 0 0 6.9-28.3l1.1-7.3c.4-2.4.7-4.8.9-7.3.6-4.8.9-9.7 1.2-14.6l.3-7.6.3-4 .4-3.9a141.9 141.9 0 0 1 2.8-15.6 146.8 146.8 0 0 1 10.8-29.5l7.6 8.7a91.8 91.8 0 0 0-15.7 4.7 46.2 46.2 0 0 0-13.5 9 2.5 2.5 0 0 1-3.6-.1 2.4 2.4 0 0 1-.2-3.1 44.6 44.6 0 0 1 5.8-7.2 58.6 58.6 0 0 1 7.1-6.1 99.9 99.9 0 0 1 16.2-9.1l14.9-6.8-7.3 15.5a127 127 0 0 0-9.9 27 109.5 109.5 0 0 0-2.6 14.1l-.4 3.5-.2 3.6-.4 7.5c-.2 5.1-.6 10.2-1.1 15.4-.3 2.5-.6 5.1-1 7.6l-1.1 7.6a218.2 218.2 0 0 1-7.4 30.2c-6.3 19.6-15 38.2-24.7 56.1a520.7 520.7 0 0 1-32.4 51.7c-5.9 8.2-11.9 16.4-18.2 24.4-3.2 3.9-6.4 7.9-9.7 11.8l-2.4 2.9-.7.8-.4.4-.3.4-1.4 1.4-5.5 5.4c-7.2 7.4-14.9 14-22.7 20.7l-5.9 4.8-3 2.4-3 2.4-6.2 4.6-6.2 4.4-3.1 2.2-3.2 2.1-6.4 4.3c-4.4 2.6-8.7 5.4-13.2 7.9-8.8 5.1-18 9.8-27.2 14.1l-7 3.2-7.1 2.9-3.5 1.5-3.6 1.4-7.2 2.7c-9.6 3.5-19.3 6.6-29.1 9.4a6.3 6.3 0 0 1-7.7-4.3 6.1 6.1 0 0 1 4.3-7.7z"></path><path fill="#31323d" d="M2785.3 1864a254.3 254.3 0 0 0-5.9-37.3c-1.6-6-3.5-11.9-5.7-17.8a185.6 185.6 0 0 0-7.8-17c-6-11.7-11.6-23.9-15.4-37a104.5 104.5 0 0 1-3.8-40.9l9.2 4.9a69 69 0 0 0-13.4 13.6 95.7 95.7 0 0 0-9.5 16.9l-5.8 12.9-3.1-13.5a85.6 85.6 0 0 0-4.6-14.9 92.6 92.6 0 0 0-6.8-14.2l6.5-.7a106.8 106.8 0 0 0-4.3 12.4q-1.7 6.3-2.7 12.9a2.5 2.5 0 0 1-2.8 2.1 2.4 2.4 0 0 1-2.1-2.6 92.6 92.6 0 0 1 1.6-13.8 121.5 121.5 0 0 1 3.5-13.5l2.2-6.8 4.2 6.1a102.6 102.6 0 0 1 8.4 14.8 108.4 108.4 0 0 1 6 15.9l-8.9-.6a103.4 103.4 0 0 1 9.7-19.4 77.2 77.2 0 0 1 14.8-16.4l10.2-8.5-1 13.5a85.1 85.1 0 0 0 .5 18.2 100.6 100.6 0 0 0 4 17.9 160.6 160.6 0 0 0 6.8 17.4c2.6 5.8 5.5 11.5 8.5 17.1a170 170 0 0 1 8.4 18.4 144.6 144.6 0 0 1 6.2 19.3q1.2 4.9 2.1 9.9c.6 3.4 1.1 6.7 1.5 10q1.4 9.9 1.8 19.8a6.3 6.3 0 0 1-5.9 6.6 6.4 6.4 0 0 1-6.6-5.6z"></path><path fill="#31323d" d="M2312.9 1759.8c0 1 0 2.5.1 3.8s.1 2.8.2 4.2l.6 8.4.4 4.2.2 2 .3 1.9.3 1.8c.1.6.4 1.3.5 1.9s.6 2.6 1 3.9a243.3 243.3 0 0 0 12.1 31.1c4.7 10.2 9.8 20.2 15.4 29.9 1.4 2.5 2.9 4.8 4.4 7.2s3 4.6 4.5 6.9l2.4 3.3 1.2 1.7 1.3 1.5 1.2 1.6a8.6 8.6 0 0 0 1.3 1.4l2.6 2.7-10.3 6.2a99.6 99.6 0 0 1-2.8-34.8l2.1-20.5 9.7 18.1c3.1 5.9 6.2 11.7 9.4 17.4a163 163 0 0 0 10.2 16.1 81.4 81.4 0 0 0 12.3 13.8 49.6 49.6 0 0 0 14.9 9.3l-7.2 9.6a39.5 39.5 0 0 1-7.5-11.8 42.6 42.6 0 0 1-3.4-13.5 45.5 45.5 0 0 1 .8-13.8 36.1 36.1 0 0 1 5-12.5 2.7 2.7 0 0 1 3.6-.8 3 3 0 0 1 1.2 2.4 76.5 76.5 0 0 0-.1 11.7 66.4 66.4 0 0 0 1.8 11 72.2 72.2 0 0 0 3.5 10.2 86 86 0 0 0 5 9.5l10.8 18.4-18-8.8a59.7 59.7 0 0 1-18.7-11.5 99.8 99.8 0 0 1-14.1-15.8c-8.2-11.3-14.3-23.4-20.6-35l11.8-2.3a84.2 84.2 0 0 0 2.4 30.4l6.1 23.1-16.4-16.9-3.4-3.5a12.2 12.2 0 0 1-1.5-1.7l-1.5-1.8-1.4-1.8-1.3-1.8-2.7-3.7c-1.6-2.4-3.3-4.9-4.8-7.4l-4.6-7.5c-5.8-10.1-11.1-20.5-16-31a254.6 254.6 0 0 1-12.7-32.9l-1.2-4.4c-.1-.8-.4-1.5-.5-2.3l-.4-2.4c-.1-.8-.3-1.6-.4-2.4l-.2-2.2-.4-4.4c-.3-2.8-.5-5.7-.7-8.6s-.2-3-.2-4.5-.1-2.9-.1-4.7a6.3 6.3 0 1 1 12.5.3z"></path><path fill="#31323d" d="M2721.7 1872.3a25.6 25.6 0 0 0-6.5-4.4 63.6 63.6 0 0 0-7.5-3.4 69.8 69.8 0 0 0-7.8-2.3 24.6 24.6 0 0 0-7.4-.7l3.5-5.3a79.9 79.9 0 0 0 4.2 8.2 55.6 55.6 0 0 1 4.3 9.5 40.4 40.4 0 0 1 2 10.7 61 61 0 0 1-.2 10.5l-.8 9.7-7.8-6.4c-2.9-2.5-6-4.9-9.1-7.1s-6.2-4.3-9.5-6.2a83.7 83.7 0 0 0-10-4.8c-3.4-1.4-7.1-2.6-10.9-3.8l6.3-10.1a54.9 54.9 0 0 1 12 18.6 93.7 93.7 0 0 1 5.3 20.5 128.6 128.6 0 0 1-6.3 61.3c-.5 1.6-1.1 3.2-1.7 4.7l-1.8 4.7c-.5 1.5-1.3 3.2-2 4.8l-2.1 4.7c-3 6.1-6.4 12-9.9 17.8l-5.6 8.4c-2 2.8-4 5.5-6.1 8.2a6.2 6.2 0 0 1-8.8 1 6.3 6.3 0 0 1-1.2-8.6q2.8-3.9 5.4-7.8t5.1-8.1a178.1 178.1 0 0 0 8.9-16.7c.7-1.5 1.3-2.9 2-4.3a42.8 42.8 0 0 0 1.7-4.3l1.7-4.6 1.6-4.5a121.4 121.4 0 0 0 4.9-17.9 114.9 114.9 0 0 0 1.2-37 80.2 80.2 0 0 0-4.2-17.7 43.6 43.6 0 0 0-8.7-14.6l-17.9-18.8 24.2 8.8c3.7 1.3 7.6 2.7 11.5 4.4a81.5 81.5 0 0 1 11.3 6 117.6 117.6 0 0 1 10.2 7.2c3.3 2.5 6.3 5.2 9.4 8l-8.6 3.2a52.2 52.2 0 0 0 .7-8.8 33.3 33.3 0 0 0-1-8.4 45.4 45.4 0 0 0-3.2-8.3 80.3 80.3 0 0 1-3.9-9.4l-1.8-5.3h5.3a31.6 31.6 0 0 1 9.6 1.6 63.6 63.6 0 0 1 8.6 3.3 75.2 75.2 0 0 1 7.9 4.3 34.3 34.3 0 0 1 7.2 6.1 2.5 2.5 0 0 1-.2 3.5 2.5 2.5 0 0 1-3.4-.1z"></path><path fill="#31323d" d="M2737.2 1726.8a356.5 356.5 0 0 0-68.3-76.2 283.1 283.1 0 0 0-42-29.1l-5.5-3.1c-1.9-1-3.8-2.1-5.7-2.9l-5.7-2.9-2.9-1.3-2.9-1.3c-3.9-1.7-7.8-3.4-11.7-4.9s-8-2.8-12-4a191.1 191.1 0 0 0-49.8-7.9 193.9 193.9 0 0 0-25.3 1l-3.1.4-2 .2h-1.6l-6.4.6-6.4.6-6.3.8c-17 2.2-33.7 5.7-49.4 11.4a118.5 118.5 0 0 0-22.3 11l-2.5 1.6-2.4 1.9a42.2 42.2 0 0 0-4.6 3.8 82.3 82.3 0 0 0-8.2 8.5l-7.7-9.7a155 155 0 0 1 15.8-5.4 151.8 151.8 0 0 1 16.3-3.3l4.1-.5 4.1-.4 4.2-.3h4.1a111.9 111.9 0 0 1 16.4.8 2.5 2.5 0 0 1-.1 5c-5.3.4-10.5 1-15.6 1.9l-3.9.6-3.8.8-3.8.8-3.8 1c-4.9 1.3-9.9 2.9-14.7 4.7a134 134 0 0 0-14 6l-23.5 11.4 15.8-21.1 2.2-2.8 2.3-2.7c1.7-1.8 3.4-3.4 5.2-5s3.6-3 5.5-4.3l2.9-2 3-1.9a143.4 143.4 0 0 1 24.6-12c17-6.2 34.6-9.8 52.2-12.1l6.6-.9 6.6-.6 6.6-.6h2.1c-.1.1.5 0-.2.1h1.1l3.3-.4a219.2 219.2 0 0 1 26.9-1.1 203.6 203.6 0 0 1 53.1 8.4c4.3 1.3 8.6 2.7 12.8 4.3s8.3 3.4 12.4 5.2l3 1.3 3 1.5 6.1 2.9c2 .9 3.9 2 5.9 3.1l5.8 3.2a308.2 308.2 0 0 1 43.8 30.4 369.2 369.2 0 0 1 70.8 78.9 6.2 6.2 0 0 1-1.8 8.6 6.1 6.1 0 0 1-8.6-1.7h-.1z"></path></g></g><g id="item_h"></g><g id="wild"><g id="wild_pirate_hooktail_hook"><g id="wild_hook_full"><defs><radialGradient id="wild__c" cx="2568.78" cy="1563.59" r="420.26" gradientTransform="matrix(1, 0.06, -0.06, 1, 106.99, -152.75)" gradientUnits="userSpaceOnUse"><stop offset="0" stop-color="#e6e7e8"></stop><stop offset=".04" stop-color="#cecfd1"></stop><stop offset=".11" stop-color="#acaeb0"></stop><stop offset=".18" stop-color="#949698"></stop><stop offset=".24" stop-color="#85878a"></stop><stop offset=".29" stop-color="#808285"></stop><stop offset=".34" stop-color="#889397"></stop><stop offset=".45" stop-color="#9cbec4"></stop><stop offset=".47" stop-color="#a1c8cf"></stop><stop offset=".67" stop-color="#868789"></stop><stop offset=".77" stop-color="#d5d7d8"></stop><stop offset=".79" stop-color="#c7d1d3"></stop><stop offset=".83" stop-color="#b0c6cb"></stop><stop offset=".87" stop-color="#a2c0c6"></stop><stop offset=".9" stop-color="#9dbec4"></stop></radialGradient><radialGradient id="wild__d" cx="2397.76" cy="1465.95" r="340.75" gradientTransform="matrix(1, 0.06, -0.06, 1, 106.99, -152.75)" gradientUnits="userSpaceOnUse"><stop offset="0" stop-color="#e6e7e8"></stop><stop offset=".31" stop-color="#808285"></stop><stop offset=".46" stop-color="#96b0b6"></stop><stop offset=".55" stop-color="#a1c8cf"></stop><stop offset=".62" stop-color="#9fc3c9"></stop><stop offset=".71" stop-color="#99b4b9"></stop><stop offset=".81" stop-color="#8e9b9e"></stop><stop offset=".87" stop-color="#868789"></stop></radialGradient><linearGradient id="wild__a" x1="2582.2" x2="2479.58" y1="1598.73" y2="1777.12" gradientTransform="matrix(1, 0.06, -0.06, 1, 106.99, -152.75)" gradientUnits="userSpaceOnUse"><stop offset=".32" stop-opacity="0"></stop><stop offset=".85"></stop></linearGradient><radialGradient id="wild__e" cx="2662.72" cy="1711.71" r="482.14" gradientTransform="matrix(1, 0.06, -0.06, 1, 106.99, -152.75)" xlink:href="#wild__a"></radialGradient><radialGradient id="wild__f" cx="2438.58" cy="1429.66" r="134.97" gradientTransform="matrix(1, 0.06, -0.06, 1, 106.99, -152.75)" xlink:href="#wild__a"></radialGradient><radialGradient id="wild__g" cx="2389.69" cy="1773.14" r="388.73" gradientTransform="matrix(1, 0.06, -0.06, 1, 106.99, -152.75)" gradientUnits="userSpaceOnUse"><stop offset=".2" stop-color="#fff"></stop><stop offset=".33" stop-color="#fff"></stop><stop offset=".36" stop-color="#fff" stop-opacity=".84"></stop><stop offset=".4" stop-color="#fff" stop-opacity=".62"></stop><stop offset=".44" stop-color="#fff" stop-opacity=".43"></stop><stop offset=".48" stop-color="#fff" stop-opacity=".28"></stop><stop offset=".52" stop-color="#fff" stop-opacity=".16"></stop><stop offset=".56" stop-color="#fff" stop-opacity=".07"></stop><stop offset=".59" stop-color="#fff" stop-opacity=".02"></stop><stop offset=".63" stop-color="#fff" stop-opacity="0"></stop></radialGradient><linearGradient id="wild__h" x1="2728.04" x2="2333.23" y1="1708.41" y2="1681.36" gradientTransform="matrix(1, 0.06, -0.06, 1, 106.99, -152.75)" gradientUnits="userSpaceOnUse"><stop offset=".3" stop-color="#fff" stop-opacity="0"></stop><stop offset=".37" stop-color="#fff" stop-opacity="0"></stop><stop offset=".39" stop-color="#fff" stop-opacity=".03"></stop><stop offset=".43" stop-color="#fff" stop-opacity=".11"></stop><stop offset=".47" stop-color="#fff" stop-opacity=".25"></stop><stop offset=".51" stop-color="#fff" stop-opacity=".44"></stop><stop offset=".56" stop-color="#fff" stop-opacity=".69"></stop><stop offset=".61" stop-color="#fff" stop-opacity=".98"></stop><stop offset=".62" stop-color="#fff"></stop></linearGradient><linearGradient id="wild__i" x1="2537.86" x2="2631.86" y1="1674.42" y2="1470.42" gradientTransform="matrix(1, 0.06, -0.06, 1, 106.99, -152.75)" gradientUnits="userSpaceOnUse"><stop offset=".37" stop-color="#fff" stop-opacity="0"></stop><stop offset=".4" stop-color="#fff" stop-opacity=".03"></stop><stop offset=".45" stop-color="#fff" stop-opacity=".11"></stop><stop offset=".51" stop-color="#fff" stop-opacity=".25"></stop><stop offset=".58" stop-color="#fff" stop-opacity=".44"></stop><stop offset=".66" stop-color="#fff" stop-opacity=".69"></stop><stop offset=".74" stop-color="#fff" stop-opacity=".98"></stop><stop offset=".74" stop-color="#fff"></stop></linearGradient><linearGradient id="wild__j" x1="2404.5" x2="2451.67" y1="1504.13" y2="1657.16" gradientTransform="matrix(1, 0.06, -0.06, 1, 106.99, -152.75)" gradientUnits="userSpaceOnUse"><stop offset=".31" stop-color="#fff" stop-opacity="0"></stop><stop offset=".36" stop-color="#fff" stop-opacity=".23"></stop><stop offset=".42" stop-color="#fff" stop-opacity=".5"></stop><stop offset=".47" stop-color="#fff" stop-opacity=".71"></stop><stop offset=".52" stop-color="#fff" stop-opacity=".87"></stop><stop offset=".56" stop-color="#fff" stop-opacity=".97"></stop><stop offset=".58" stop-color="#fff"></stop></linearGradient><linearGradient id="wild__b" x1="1034.98" x2="797.64" y1="2039.63" y2="2038.65" gradientTransform="matrix(-0.65, 0.76, -0.76, -0.65, 4539.63, 2111.39)" gradientUnits="userSpaceOnUse"><stop offset=".21" stop-color="#fff" stop-opacity="0"></stop><stop offset=".26" stop-color="#fff" stop-opacity=".03"></stop><stop offset=".33" stop-color="#fff" stop-opacity=".11"></stop><stop offset=".41" stop-color="#fff" stop-opacity=".25"></stop><stop offset=".51" stop-color="#fff" stop-opacity=".44"></stop><stop offset=".62" stop-color="#fff" stop-opacity=".69"></stop><stop offset=".73" stop-color="#fff" stop-opacity=".98"></stop><stop offset=".74" stop-color="#fff"></stop></linearGradient><linearGradient id="wild__k" x1="2340.24" x2="2425.26" y1="1432.77" y2="1708.64" gradientTransform="matrix(1, 0.06, -0.06, 1, 106.99, -152.75)" xlink:href="#wild__b"></linearGradient></defs><g style="isolation:isolate"><path fill="none" d="M0 0H3000V3000H0z"></path><g><path fill="url(#wild__c)" d="M2439.8,1614.8s-52.7,87.2,42.2,167.5c62.6,52.9,269.5-95.1,161.6-235.1-24.5-31.8-126.7-45.4-167,14.5,0,0,21,15.7,23.9,18.2s19.5,18.8,8.6,33.3-23.2,21.5-34.3,16.8Z"></path><path fill="url(#wild__d)" d="M2422.5,1599.6c9.7,6.1,36.5,23.5,44.4,27s31.1,6.4,38.4-9.4,6-28.9-13.4-41.3-34.1-22-41.4-25.5-29-15.8-53.5,0-47.6,8.5-53.4-3.9-10.1-38,13-50.2,37.9-16.9,57.7-5.1,37.7,30.4,43.9,21-32.7-50.4-53.6-55.7-57.1-22.7-97.5,41.2,13.5,98.8,29.2,102.5,39.2,3.6,50.5-1.9S2414.2,1594.4,2422.5,1599.6Z"></path><path style="mix-blend-mode:multiply" fill="url(#wild__a)" d="M2639.3,1724.9s-71.2,102.6-164.9,55.4c0,0-95.4-98.3-28.9-167.8l22.6,16s25.5,18,39.6-11.9C2507.7,1616.6,2508.9,1695.6,2639.3,1724.9Z" opacity=".6"></path><path style="mix-blend-mode:multiply" fill="url(#wild__e)" d="M2490.2,1631l-18.4-1.5s-44.7-30.1-54.1-32.2-26.9-7.1-38.2,4-45.6,2.3-58.1-8.9-34.1-32.3-28.2-60.6,31.3-46.8,31.3-46.8-28.8,49.5,4.1,79.8c23.2,21.4,43.6,16.4,54.8,12.7,18.1-6,28.4-13.2,57.6,4.1s60.8,37.6,60.8,37.6Z" opacity=".4"></path><path style="mix-blend-mode:multiply" fill="url(#wild__f)" d="M2331.6,1533.3a45.8,45.8,0,0,1,3.9-34c14.2-25.7,51.3-48.1,117.1,8.3l6.1,6.4S2367.9,1439.2,2331.6,1533.3Z" opacity=".4"></path><g><path style="mix-blend-mode:overlay" fill="url(#wild__g)" d="M2569.1,1776.7s-33.1,28.5-84.5,6c-85.1-37.1-57.9-156.7-44.8-167.9l7,.2s13.8,10.6,5.6,8.8c-3.5-.7-37.2,80.5,30.1,132.7,4.2,3.2,15,9.8,19.7,12.5C2523.7,1781.5,2554.3,1779.9,2569.1,1776.7Z" opacity=".6"></path><path style="mix-blend-mode:overlay" fill="url(#wild__h)" d="M2628.4,1740.7s-123.4-5.7-140-114.6l-9,.4s-41.8,100.8,110.7,146.6Z" opacity=".2"></path><path style="mix-blend-mode:overlay" fill="url(#wild__i)" d="M2673.7,1643.7s-7.2-81.7-29.3-97.8c-9.5-6.9-89.9-67.7-166,12.5,0,0,4.6,9,11.5,13.5S2603.7,1511.5,2673.7,1643.7Z" opacity=".8"></path><path style="mix-blend-mode:overlay" fill="url(#wild__j)" d="M2511.5,1592.4s-53.6-33.7-62-38c-13.3-6.8-33.5-12.4-46.3-4.1-16.1,10.3-22.9,10.3-33.1,9.2-8.3-1-7.2-1-14.1-1.9-1.2-.2-7.4.7-6.4,1.3,8.3,5.1,23.7,11.9,48,4.1,27.5-8.7,36.9-2.6,61.1,11.5s51.7,34.3,51.7,34.3Z" opacity=".8"></path><path style="mix-blend-mode:overlay" fill="url(#wild__b)" d="M2458.3,1512s-41.3-52.1-95.2-45.7c-12.7,1.6-35.9,13.3-50.3,27.3,0,0-23.8,19,15.3-22s96.2-21,130.2,40.4" opacity=".6"></path><path style="mix-blend-mode:overlay" fill="url(#wild__k)" d="M2302.5,1515.4s-9.3,55.7,33.8,71.9c31.5,11.8,39.1-1.4,65.8-4.5,20.3-2.4,46.1,17.4,46.1,17.4l45.1,29s-10.1,8.3-35.3-6.5-46.3-36.6-78.8-23.5-51.9-.3-63.8-10.6S2274.8,1545.7,2302.5,1515.4Z" opacity=".6"></path></g><g fill="none" stroke="#31323d" stroke-linecap="round" stroke-miterlimit="10" stroke-width="12.5"><path d="M2476.6,1561.7c47.7-52.4,94.6-49.6,128.4-37.4,29.7,10.7,53.4,33.6,64.2,63.2s13,72.1-23.7,126.2c-65.9,97.2-143.5,86.1-169.1,63.7,0,0-86.2-62.5-36.6-162.6"></path><path d="M2468.5,1627.5l-46-27.9s-17.4-9.8-35.2-1.3c-20,9.5-47,7.7-65.9-5.9s-52.8-50.8-4.5-107.7,97-28.1,119.5-6.9,35,49.5,2.2,28c-35.3-23.2-60-36-91.3-.1,0,0-22.4,24.9.5,45.1s45.5-.5,63.1-6.4c11.2-3.7,24.3-3.1,43.9,8.4s44.4,27.9,44.4,27.9,20,14.9,6.1,36.5C2492.8,1636.6,2473.4,1630.5,2468.5,1627.5Z"></path></g></g></g></g></g></g><g clip-path="url(#kittyClipPath)"><g id="bodyFur"><clipPath id="furClipPath"><path d="M1211.5 866.4a240.2 240.2 0 0 1 129.5-37.8h158.2A240.5 240.5 0 0 1 1607 854c24.5-19.2 89.4-68.2 129.3-66.3a15 15 0 0 1 12.1 22.9L1684 914.8a240.5 240.5 0 0 1 47.2 89.2l295.1 960.1a248.1 248.1 0 0 1-6.4 155.9l.8.3c47.5 13.8 136.8 46.1 179.8 75.5 26.1 17.8 10.1 55.9-23.2 55.3l-261.6-5a246.8 246.8 0 0 1-65.3 28c2.8 13.3 12.3 21 28.1 21.9 18.2 1 23.7 18.6 24.5 25.5 2.3 21.2-5.8 34.7-27.9 36.9l-91.8 3a53.5 53.5 0 0 1-22.3-4 71.6 71.6 0 0 1-43.1-54.3l-3.5-20.7h-533.5l-5 26.6a71.4 71.4 0 0 1-8.8 23.9c-13.4 22.8-38.9 35.7-65.3 34.1l-84.3-5c-21.4-1.6-31.9-18.9-27.2-40.4 2.5-11.1 15.1-20.3 30.6-21.1 23.3-1.2 30.3-20.2 29.9-43.6v-3.3q-7.1-3.7-13.9-7.9L770 2251c-33.3.6-49.7-38.2-23.2-55.3 54-34.9 146.4-69.2 184.5-78.3l.6-.2a248.9 248.9 0 0 1-12.6-117.6l182.9-961.4a240.3 240.3 0 0 1 33-93.8l-60.5-108.1a15 15 0 0 1 .9-16c24.9-34.9 89.3 8.5 130.8 42.6z" fill="none"></path></clipPath><g clip-path="url(#furClipPath)"><path fill="#d1dadf" d="M724.1 562.8h1509.4v1824.09H724.1z"></path><path fill="#f9cfad" d="M1156.9 2405.5l122.6-618.4a177.2 177.2 0 0 1 170.7-142.7 177.2 177.2 0 0 1 177.6 145.6l103.5 593.7z"></path><path fill="#44e192" d="M1176.2 898l71.3 43.4c85 51.8 74.8-2.2 67.8-27.7s-44-81.1-44-81.1l-57.6 31.2zM1311.2 763.5c27.2 40.6 35 88.5 44.2 136.5 8.5 44 24.5 89.6 54.4 90.6 57.9 1.8 44.4-191.1 44.4-191.1s-3.7-175.3-35.7-201.3c-18.9-15.4-13.4-35-57-16.1-30.3 13.2-113.1 89.5-123.2 110-6.7 13.6 57.2 48 72.9 71.4zM1548.4 831.6s-57 137.1-19.4 154.3 121.3-112.3 121.3-112.3zM917.1 1564.5s62.6-26 96.4-19.2c17.7 16.2 35.2 29.5 51.1 37 45.7 23 50.5 64.3 29.9 86.1-25.9 27.4-102.7-1.4-127.5-17.6s-114.7-86.4-114.7-86.4z"></path><path fill="#44e192" d="M804.4 1506.1s149.5 222.4 252.5 270.8c63.9 32.1 70.5 89.8 41.8 120.2-36.2 38.3-143.4-1.9-178-24.6s-160.1-120.6-160.1-120.6zM2014.2 1513.2s-42.7 52.9-90 14.7a337.6 337.6 0 0 0-22.3 31.7c-15.4 25-31.8 46.7-48.1 59.9-38.8 33.3-33.5 74.6-8.3 90.8 31.8 20.3 111-23.7 131.1-45.4s90.6-111.4 90.6-111.4zM2105.4 1569.3s-131.3 187.9-228 247.8c-59.8 39.1-59.8 97.2-27.8 124.1 40.4 33.9 142.3-18.3 174-44.8s145.3-138.1 145.3-138.1zM2210.3 1733.6s-162.4 230.5-270.8 283.9c-28.8 15.1-38.4 43.6-46.6 63.9-10.9 27.1-5.2 54.9 12.5 73s55.4 18.8 92 10.2c0 0 16.8-35.6 24.8-56.1 72.2 7.5 239.3-114.8 239.3-114.8zM854.2 1913.5c38.1-25.9 102.2 19.3 120.6 52.6 13.7 24.7 11.4 42 43.4 86.7 22.8 31.9 28.1 78.2 22 89.3-13 23.7-118.7-6.2-162-63.3-31.3-41.2-67.2-136.1-24-165.3z"></path><path fill="#d1dadf" d="M2468.6 1238.1c3.2 0 3.2-5 0-5s-3.2 5 0 5z"></path></g></g><g id="shadow" style="mix-blend-mode:multiply"><defs><clipPath id="shadowClipPath"><path d="M1211.5 866.4a240.2 240.2 0 0 1 129.5-37.8h158.2A240.5 240.5 0 0 1 1607 854c24.5-19.2 89.4-68.2 129.3-66.3a15 15 0 0 1 12.1 22.9L1684 914.8a240.5 240.5 0 0 1 47.2 89.2l295.1 960.1a248.1 248.1 0 0 1-6.4 155.9l.8.3c47.5 13.8 136.8 46.1 179.8 75.5 26.1 17.8 10.1 55.9-23.2 55.3l-261.6-5a246.8 246.8 0 0 1-65.3 28c2.8 13.3 12.3 21 28.1 21.9 18.2 1 23.7 18.6 24.5 25.5 2.3 21.2-5.8 34.7-27.9 36.9l-91.8 3a53.5 53.5 0 0 1-22.3-4 71.6 71.6 0 0 1-43.1-54.3l-3.5-20.7h-533.5l-5 26.6a71.4 71.4 0 0 1-8.8 23.9c-13.4 22.8-38.9 35.7-65.3 34.1l-84.3-5c-21.4-1.6-31.9-18.9-27.2-40.4 2.5-11.1 15.1-20.3 30.6-21.1 23.3-1.2 30.3-20.2 29.9-43.6v-3.3q-7.1-3.7-13.9-7.9L770 2251c-33.3.6-49.7-38.2-23.2-55.3 54-34.9 146.4-69.2 184.5-78.3l.6-.2a248.9 248.9 0 0 1-12.6-117.6l182.9-961.4a240.3 240.3 0 0 1 33-93.8l-60.5-108.1a15 15 0 0 1 .9-16c24.9-34.9 89.3 8.5 130.8 42.6z" fill="none"></path></clipPath><linearGradient id="shadowGradient" x1="1180.91" y1="2153.98" x2="1714.46" y2="2153.98" gradientUnits="userSpaceOnUse"><stop offset="0" stop-color="gray"></stop><stop offset=".27" stop-color="#7d7d7d"></stop><stop offset=".46" stop-color="#747474"></stop><stop offset=".64" stop-color="#646464"></stop><stop offset=".8" stop-color="#4d4d4d"></stop><stop offset=".95" stop-color="#303030"></stop><stop offset="1" stop-color="#242424"></stop></linearGradient><linearGradient id="shadowGradient2" x1="1713.27" y1="794.55" x2="1713.27" y2="927.94" gradientUnits="userSpaceOnUse"><stop offset="0" stop-color="gray"></stop><stop offset=".14" stop-color="#797979"></stop><stop offset=".35" stop-color="#646464"></stop><stop offset=".6" stop-color="#434343"></stop><stop offset=".89" stop-color="#141414"></stop><stop offset="1"></stop></linearGradient><linearGradient id="shadowGradient3" x1="1028.58" y1="855.47" x2="1028.58" y2="2254.41" href="#shadowGradient" xlink:href="#shadowGradient"></linearGradient><linearGradient id="shadowGradient4" x1="1971.82" y1="1970.17" x2="1971.82" y2="2305.13" href="#shadowGradient" xlink:href="#shadowGradient"></linearGradient><linearGradient id="shadowGradient5" x1="1041.15" y1="888.73" x2="1175.15" y2="888.73" href="#shadowGradient2" xlink:href="#shadowGradient2"></linearGradient></defs><g clip-path="url(#shadowClipPath)"><path d="M1213.2 2110.7c-22.2 91.8 60.8 117.5 83.2 119.2 41.2 3.1 203.6 5.6 287.7-7.9 43.8-7 109.2-65.4 87.3-196.3l43 256.8h-533.5z" opacity=".2" fill="url(#shadowGradient)"></path><path d="M1233.2 855.5c-66 66-73.4 124.2-101.7 248-48.7 214.1-107.5 671.9-126.3 823.4a910.2 910.2 0 0 0-6.8 98.4v3.4c23.5 26 47.6 88.8 52.6 176.8l1.3 49s-31.3-.8-81-.8c-62 0-110.8-111.7-79.2-278.2 28.4-149.5-68-915.5-68-915.5l282.1-44.3s16-102.2 127-160.2z" opacity=".2" fill="url(#shadowGradient3)"></path><path d="M1854.3 2157.4s29.9-91.4 66.3-124.9c-39.4 75 14.1 92.7 28.1 87.7 53.7-19.2 75-66.7 79.2-150l65.3 116.3s-55 256-204 214l-38.7-18.1z" opacity=".2" fill="url(#shadowGradient4)"></path><path d="M1781.2 799.5s-38-26-102 41.5l-33.7 40.5 56.1 46.5z" opacity=".4" fill="url(#shadowGradient2)" style="mix-blend-mode:multiply"></path><path d="M1041.2 839.5s27.5-18.9 71.6-.8a122.7 122.7 0 0 1 47.5 35.2l14.9 17.9-37.7 54.9z" opacity=".4" fill="url(#shadowGradient5)" style="mix-blend-mode:multiply"></path></g></g><g id="highlight" style="mix-blend-mode:overlay"><defs><clipPath id="highlightClipPath"><path d="M1211.5 866.4a240.2 240.2 0 0 1 129.5-37.8h158.2A240.5 240.5 0 0 1 1607 854c24.5-19.2 89.4-68.2 129.3-66.3a15 15 0 0 1 12.1 22.9L1684 914.8a240.5 240.5 0 0 1 47.2 89.2l295.1 960.1a248.1 248.1 0 0 1-6.4 155.9l.8.3c47.5 13.8 136.8 46.1 179.8 75.5 26.1 17.8 10.1 55.9-23.2 55.3l-261.6-5a246.8 246.8 0 0 1-65.3 28c2.8 13.3 12.3 21 28.1 21.9 18.2 1 23.7 18.6 24.5 25.5 2.3 21.2-5.8 34.7-27.9 36.9l-91.8 3a53.5 53.5 0 0 1-22.3-4 71.6 71.6 0 0 1-43.1-54.3l-3.5-20.7h-533.5l-5 26.6a71.4 71.4 0 0 1-8.8 23.9c-13.4 22.8-38.9 35.7-65.3 34.1l-84.3-5c-21.4-1.6-31.9-18.9-27.2-40.4 2.5-11.1 15.1-20.3 30.6-21.1 23.3-1.2 30.3-20.2 29.9-43.6v-3.3q-7.1-3.7-13.9-7.9L770 2251c-33.3.6-49.7-38.2-23.2-55.3 54-34.9 146.4-69.2 184.5-78.3l.6-.2a248.9 248.9 0 0 1-12.6-117.6l182.9-961.4a240.3 240.3 0 0 1 33-93.8l-60.5-108.1a15 15 0 0 1 .9-16c24.9-34.9 89.3 8.5 130.8 42.6z" fill="none"></path></clipPath><linearGradient id="highlightGradient" x1="1844.99" y1="2256.39" x2="1844.99" y2="835.98" gradientUnits="userSpaceOnUse"><stop offset="0" stop-color="#fff" stop-opacity="0"></stop><stop offset=".72" stop-color="#fff"></stop></linearGradient><linearGradient id="highlightGradient2" x1="2116.32" y1="2248.97" x2="2116.32" y2="2113.28" href="#highlightGradient" xlink:href="#highlightGradient"></linearGradient><linearGradient id="highlightGradient3" x1="1044.74" y1="2253.08" x2="1044.74" y2="2117.39" gradientTransform="matrix(-1 0 0 1 1878.82 0)" href="#highlightGradient" xlink:href="#highlightGradient"></linearGradient><linearGradient id="highlightGradient4" x1="916.62" y1="1544.97" x2="1280" y2="1544.97" href="#highlightGradient" xlink:href="#highlightGradient"></linearGradient></defs><g clip-path="url(#highlightClipPath)" opacity=".3"><path d="M1547.8 836.6s70.1 33.5 92.1 64.8 44.1 86.3 65.6 181c58.9 258.7 229.4 683.2 275.5 888s-92.3 286-92.3 286l61.1-35.5s63-74.8 72.5-107.6c20.8-71.9 139-33 117.2-147.7-31.7-166.5-305.7-970.5-305.7-970.5s-123.4-29.9-151.2-79.3c-20.7-36.8-73.2-64.7-124.1-79.9z" fill="url(#highlightGradient)"></path><path d="M1999.2 2162.4s113.2 21.1 98.4 83.6l92.6 3 43.3-6.5-4.3-68.5-206.8-60.7z" fill="url(#highlightGradient2)"></path><path d="M951.2 2166.5s-113.2 21.1-98.4 83.6l-92.6 3-43.3-6.5 4.3-68.5 206.8-60.7z" opacity=".7" fill="url(#highlightGradient3)"></path><path d="M1124.3 1019.4l-176.1 935.1s-53.5 175 102.2 279l.3 20.2s-124.5-57.2-133.5-215.2 100-604 100-604l81.8-433s88.4-169.6 181-165c0-.1-140.8 103.5-155.7 182.9z" fill="url(#highlightGradient4)" style="mix-blend-mode:overlay"></path></g></g><g id="bodyMask"><path d="M1211.5 866.4a240.2 240.2 0 0 1 129.5-37.8h158.2A240.5 240.5 0 0 1 1607 854c24.5-19.2 89.4-68.2 129.3-66.3a15 15 0 0 1 12.1 22.9L1684 914.8a240.5 240.5 0 0 1 47.2 89.2l295.1 960.1a248.1 248.1 0 0 1-6.4 155.9l.8.3c47.5 13.8 136.8 46.1 179.8 75.5 26.1 17.8 10.1 55.9-23.2 55.3l-261.6-5a246.8 246.8 0 0 1-65.3 28c2.8 13.3 12.3 21 28.1 21.9 18.2 1 23.7 18.6 24.5 25.5 2.3 21.2-5.8 34.7-27.9 36.9l-91.8 3a53.5 53.5 0 0 1-22.3-4 71.6 71.6 0 0 1-43.1-54.3l-3.5-20.7h-533.5l-5 26.6a71.4 71.4 0 0 1-8.8 23.9c-13.4 22.8-38.9 35.7-65.3 34.1l-84.3-5c-21.4-1.6-31.9-18.9-27.2-40.4 2.5-11.1 15.1-20.3 30.6-21.1 23.3-1.2 30.3-20.2 29.9-43.6v-3.3q-7.1-3.7-13.9-7.9L770 2251c-33.3.6-49.7-38.2-23.2-55.3 54-34.9 146.4-69.2 184.5-78.3l.6-.2a248.9 248.9 0 0 1-12.6-117.6l182.9-961.4a240.3 240.3 0 0 1 33-93.8l-60.5-108.1a15 15 0 0 1 .9-16c24.9-34.9 89.3 8.5 130.8 42.6z" fill="none"></path></g><g id="body"><path fill="none" stroke="#31323D" stroke-width="12.5" stroke-miterlimit="10" d="M1714.5 2282.4h-533.6m-130.2-28.7c-89.2-47.1-145.7-146.2-131.5-254.1l182.9-961.4c15.8-119.9 118-209.6 238.9-209.6h158.2c107.8 0 202.5 71.6 231.9 175.4l295.1 960.1c39 137.9-45.2 275-175.8 309.9" stroke-linecap="round"></path><path fill="#31323D" d="M1228.6 2040.8c-1.7 15.3-3.8 30.4-6 45.6l-3.5 22.7-3.8 22.6c-2.6 15.1-5.4 30.1-8.1 45.2l-8.3 45.1-16.6 90.3c-.8 4.1-2 8.2-3.5 12.1-1.5 3.9-3.3 7.8-5.4 11.4-4.2 7.3-9.6 13.9-16 19.4-12.9 11.1-29 17.6-45.9 18.8l-6.3.2h-6.1l-11.5-.7-22.9-1.3-45.8-2.8h-4.7l-1.8-.3c-2.3-.4-4.5-1-6.7-1.7-4.6-1.6-8.7-4.1-12.3-7.3-3.6-3.3-6.4-7.3-8.3-11.7-1.8-4.3-2.9-8.9-3.1-13.5-.2-4.4.1-8.9 1-13.2l.2-.8v-1.7l.3-1.1c.4-1.2.9-2.4 1.5-3.6 1.1-2.2 2.5-4.3 4.1-6.2 3.1-3.6 6.8-6.6 11-8.8 4-2.1 8.3-3.6 12.7-4.5 2.2-.4 4.4-.8 6.6-.9l2.7-.2 2.1-.3c1.5-.3 2.9-.7 4.3-1.2 1.3-.5 2.6-1.1 3.8-1.9 4.6-3 7.7-8.4 9.4-14.8 1.6-6.8 2.2-13.8 1.8-20.8l-.9-22.9-1.9-45.9c-.6-15.3-1.3-30.6-1.8-45.9v.5c-.6-5-1.3-9.9-2-14.9-.4-2.5-.8-4.9-1.2-7.4s-.9-4.9-1.4-7.3-1-4.9-1.6-7.3l-1.8-7.2c-1.3-4.8-2.7-9.5-4.4-14.2-.8-2.3-1.7-4.6-2.6-6.9s-1.8-4.6-2.9-6.8l-1.5-3.4-1.6-3.3-1.7-3.3-1.8-3.3-1.8-3.2-1.9-3.2-4-6.3c-1.4-2.1-2.8-4.1-4.3-6.2l-2.2-3-2.3-3c-.8-.9-.7-2.3.2-3.2s2.3-.7 3.2.2l5.4 5.6c1.7 1.9 3.4 3.9 5.1 5.9 1.7 2 3.3 4 4.8 6.1l2.3 3.2 2.2 3.2c1.5 2.2 2.9 4.3 4.2 6.6l2 3.4 1.9 3.4c1.3 2.3 2.4 4.6 3.5 7 1.1 2.4 2.2 4.7 3.2 7.2 2 4.8 3.8 9.7 5.4 14.7 1.6 5 3 10 4.2 15 .6 2.5 1.2 5.1 1.7 7.6s1.1 5.1 1.5 7.6c.9 5.1 1.7 10.2 2.4 15.3v.5c.9 15.3 1.6 30.6 2.4 45.8l2.3 45.8 1.1 22.9c.2 4.1.2 8.2-.1 12.3-.3 4.2-.9 8.4-1.9 12.5-.5 2.1-1.2 4.2-2 6.3-.9 2.1-1.9 4.2-3.1 6.2-2.5 4.1-5.8 7.7-9.8 10.4-4 2.6-8.5 4.5-13.2 5.3l-3.5.5-3 .2c-1.6.1-3.1.3-4.7.6-3.1.6-6 1.7-8.8 3.2-2.6 1.4-5 3.3-6.9 5.5-.9 1-1.6 2.1-2.2 3.3-.6 1.2-1 2.4-1.2 3.7-.7 3.2-.9 6.4-.7 9.6.2 3 .8 5.9 2 8.7 1.1 2.6 2.8 5 4.9 6.9 2.1 1.9 4.6 3.4 7.3 4.3 1.4.5 2.9.8 4.4 1.1l1 .2h3.9l45.8 2.7 22.9 1.4 11.5.7h10.5c13.8-.9 27-6.2 37.6-15.2 5.2-4.5 9.6-9.8 13.1-15.7 3.5-6 6-12.4 7.4-19.2l17.4-90.1 8.7-45.1c2.9-15 5.8-30 8.8-45l4.7-22.5 5-22.4c3.4-14.9 7-29.8 11-44.6.2-1.4 1.4-2.3 2.7-2.2s2.4 1.5 2.2 2.9z"></path><path fill="#31323D" d="M1095.2 2319.6h-.5l-1.7.2c-2 .3-4 1-5.8 2-2.6 1.4-4.8 3.2-6.7 5.5-1.1 1.3-2 2.6-2.9 4-.9 1.5-1.7 3-2.4 4.6l-.5 1.2-.5 1.2-.5 1.2-.4 1.3c-.5 1.7-.9 3.4-1.3 5l-.5 2.4c-.2.8-.3 1.6-.4 2.4s-.4 3-.6 4.4-.2 2.6-.3 3.7-.1 2.1-.2 2.9v2.7c.2 3.5-2.4 6.5-5.9 6.7-3.5.2-6.5-2.4-6.7-5.9 0-.5 0-1 .1-1.5 0-.3.1-.5.1-.8l.5-2.7c.2-.9.3-1.9.6-3.1s.5-2.6.9-4.1.8-3.1 1.3-4.8l.8-2.6.9-2.7c.7-1.8 1.4-3.7 2.3-5.5l.6-1.4.7-1.4.7-1.4.8-1.4c1.1-1.8 2.3-3.5 3.6-5.2 1.3-1.6 2.7-3.1 4.2-4.5 2.7-2.5 5.9-4.5 9.4-5.8 2.5-.9 5.1-1.4 7.7-1.5h3.1c1.3.1 2.3 1.3 2.2 2.7-.2 1.4-1.4 2.3-2.7 2.2zm-42.5-4.7h-.6l-1.6.4-2.5.9-.7.3-.8.4-1.6.9-1.7 1.1-1.7 1.3-.9.7-.8.8-1.6 1.7-1.5 2-.7 1-.6 1.1-1.3 2.2-1.1 2.4c-.3.8-.7 1.6-1 2.4l-.8 2.5-.8 2.4-.6 2.5c-.4 1.5-.8 3.1-1 4.7l-.6 4.3c-.2 1.2-.3 2.5-.3 3.7l-.2 2.8-.2 2.5v.4c.2 3.5-2.5 6.4-6 6.6-3.5.2-6.4-2.5-6.6-6 0-.5 0-.9.1-1.4 0-.3.1-.5.1-.8l.5-2.7.6-3.1c.3-1.2.4-2.5.9-4l1.3-4.7c.5-1.8 1.1-3.5 1.8-5.2l1-2.7 1.3-2.7 1.3-2.7c.5-.9 1.1-1.8 1.6-2.7l1.7-2.6 1.9-2.4.9-1.2 1.1-1.1 2.1-2.1 2.2-1.8 1.1-.9 1.2-.7 2.2-1.4 2.2-1.1 2.1-.8 1-.4 1-.3c1.1-.3 2.1-.5 3.2-.7l2.2-.2h.8c1.2-.1 2.3.8 2.4 2 .1 1.2-.8 2.3-2 2.4zm621-289.7l2.2 9.4c1.4 6.1 3.4 15.1 5.8 26.6 1.2 5.7 2.5 12.1 3.9 19l4.4 22.5 4.8 25.6 5 28.4 23.3 135.3c1.1 6.1 2 12.8 3.6 17.8 1.7 5.5 4.1 10.8 7.2 15.7 6.3 10 15.3 18.1 25.9 23.4l4.1 1.9 1.1.4 1 .4 2 .7c2.7.8 5.6 1.4 8.4 1.7l4.3.3h4.6l10-.3 40.1-1.4 39.4-1.2 2.5-.3 1.2-.2.9-.2 1.9-.4 1.9-.6c2.4-.8 4.5-2 6.5-3.5 1.8-1.5 3.3-3.3 4.3-5.4.2-.6.6-1.1.7-1.7l.6-1.8c.4-1.3.6-2.6.8-3.9.2-1.4.3-2.7.4-4.1v-2.1s0-1.4-.1-2.2l-.2-2.2v-.3c0 .2-.2.3-.3.2-.2 0-.3-.2-.2-.3 0-.2.2-.3.3-.2.1 0 .2.1.2.2v-1.6l-.2-.8-.2-.9c-.1-.6-.4-1.3-.6-1.9-1.7-5-4.7-9.3-8.4-11.7-2-1.2-4.1-2-6.4-2.3l-1.8-.2-2.6-.2h-1.2l-1.5-.2-2.9-.5c-3.8-.9-7.5-2.3-10.9-4.2-3.5-2-6.6-4.7-9.1-8-2.4-3.1-4.1-6.7-5.3-10.4-1-3.5-1.7-7.1-1.9-10.7-.1-.9-.1-1.7-.1-2.6v-7.2l.2-9.1.8-35.4.2-8.6v-4.6l.3-4.2.3-4.2c.1-1.4.2-2.7.4-4.2l1-8.4c1.5-10.6 3.6-21.1 6.4-31.5 2.5-9.5 5.6-18.8 9.1-28l2.7-6.4c.9-2.1 1.7-4.2 2.7-6.2l2.8-5.9c.9-1.9 1.8-3.9 2.8-5.7l2.9-5.4 1.4-2.6 1.5-2.5 2.9-4.9c.9-1.6 1.8-3.2 2.8-4.7l5.6-8.7 5.4-7.7 2.6-3.5 2.5-3.2c1.6-2.1 3.1-4.1 4.6-5.8l4.1-4.9 3.5-4 6.6-7.1c.8-.9 2.2-1.1 3.1-.3.9.8 1.1 2.2.3 3.1l-5.6 7.8c-3.6 5.1-8.8 12.6-14.9 22.5l-4.7 7.8-4.8 8.8c-.9 1.5-1.7 3.1-2.5 4.7l-2.5 4.9-1.3 2.5-1.2 2.6-2.5 5.4c-7.4 16.3-13.4 33.2-17.7 50.6l-.9 3.6-.4 1.8-.4 1.8-1.5 7.4-.4 1.9-.3 1.9-.6 3.8-.6 3.9-.3 1.9-.2 1.9-.9 7.8c-.2 1.3-.2 2.7-.3 4.1l-.3 4.2-.3 4.2v12.5l-.5 35.4v15.8s0 1.4.1 2c.2 2.5.7 5.1 1.4 7.5.7 2.2 1.8 4.3 3.2 6.2 2.7 3.6 6.9 5.8 12 6.9l1.8.3.9.2h1.2l2.2.2 3 .3c4.1.6 8.1 2 11.7 4.2 3.5 2.2 6.6 5.1 9 8.5 2.3 3.2 4.1 6.8 5.4 10.5.3.9.6 1.8.8 2.8l.4 1.4.3 1.6v2.9l.2 2.7c.1.9.1 1.8.1 2.8s.1 1.8 0 2.8c-.1 1.9-.2 3.8-.5 5.7-.3 2-.7 3.9-1.2 5.8l-1 2.9c-.3 1-.8 1.9-1.3 2.9-1.9 3.9-4.6 7.3-7.9 10.1-3.3 2.6-6.9 4.7-10.9 6l-2.8.9-3 .7-1.5.3-1.3.2-2.5.3h-5.7l-5 .2-10 .4-20.1.7-40.1 1.3-10 .3h-5.4l-5.6-.4c-3.7-.4-7.4-1.2-11-2.3l-2.7-.9-1.4-.5-1.2-.5-4.9-2.3c-12.9-6.5-23.7-16.4-31.4-28.6-3.8-6-6.7-12.4-8.7-19.2l-.7-2.6-.3-1.3c-.1-.4-.2-.9-.3-1.3l-.5-2.3-.2-1.2v-1.4l-1.5-9.3-22-135.6-4.5-28.5-3.8-25.7-3.2-22.7c-1-7-1.8-13.4-2.5-19.3-1.5-11.6-2.5-20.8-3.2-27.1l-1-9.6c.4-1.1 1.7-1.7 2.8-1.3.4.1.7.4 1 .7z"></path><path fill="#31323D" d="M1783.2 2307.4h3.2c2.7.3 5.4.8 8 1.7 1.8.6 3.5 1.3 5.1 2.1 1.9.9 3.6 2 5.3 3.3 1.8 1.3 3.5 2.9 5 4.5.7.9 1.5 1.7 2.2 2.7l1 1.4 1 1.5c1.2 1.9 2.4 4 3.3 6.1.9 2 1.7 4.1 2.4 6.2.4 1 .6 2 .9 3s.5 2 .7 2.9l.6 2.8.4 2.6c.3 1.7.4 3.2.6 4.6s.3 2.5.3 3.5l.2 3.1c-.2 3.5-3.1 6.2-6.6 6-3-.1-5.4-2.3-5.9-5.2v-1l.2-2.7c.1-.9.1-1.9.1-3.1s.1-2.6 0-4v-2.3l-.2-2.4c-.1-.8-.2-1.7-.3-2.5s-.2-1.8-.4-2.6c-.3-1.8-.8-3.6-1.3-5.3-.6-1.8-1.3-3.5-2.1-5.2l-.6-1.3-.7-1.2c-.4-.8-1-1.6-1.5-2.3-1-1.5-2.2-2.8-3.5-4.1-2.3-2.3-5-4.1-8-5.5-2.1-1-4.3-1.7-6.6-2.2l-1.9-.3h-.7c-1.3.1-2.4-1-2.5-2.3s1-2.4 2.3-2.5zm50.6-3.2h3.2c2.7.3 5.4.8 8 1.7 1.8.6 3.5 1.3 5.1 2.1 1.9.9 3.6 2 5.3 3.3 1.8 1.3 3.5 2.9 5 4.5.7.9 1.5 1.7 2.2 2.7l1 1.4 1 1.5c1.2 1.9 2.4 4 3.3 6.1.9 2 1.7 4.1 2.4 6.2.4 1 .6 2 .9 3s.5 2 .7 2.9l.6 2.8.4 2.6c.3 1.7.4 3.2.6 4.6s.3 2.5.3 3.5l.2 3.1c.5 3.4-2 6.6-5.4 7.1-3.4.5-6.6-2-7.1-5.4-.1-.5-.1-1.1 0-1.6v-.3l.2-2.7c.1-.9.1-1.9.1-3.1s.1-2.6 0-4v-2.3l-.2-2.4c-.1-.8-.2-1.7-.3-2.5s-.2-1.8-.4-2.6c-.3-1.8-.8-3.6-1.3-5.3-.6-1.8-1.3-3.5-2.1-5.2l-.6-1.3-.7-1.2c-.4-.8-1-1.6-1.5-2.3-1-1.5-2.2-2.8-3.5-4.1-2.3-2.3-5-4.1-8-5.5-2.1-1-4.3-1.7-6.6-2.2l-1.9-.3h-.7c-1.3.1-2.4-1-2.5-2.3s1-2.4 2.3-2.5z"></path><path fill="none" stroke="#31323D" stroke-width="12.5" stroke-miterlimit="10" d="M1206.2 862.9c-41.5-34.1-105.9-77.5-130.8-42.6-3.4 4.7-3.7 10.9-.9 16l60.5 108.1m472-90.4c24.5-19.2 89.4-68.2 129.3-66.3 8.3.4 14.7 7.4 14.3 15.6-.1 2.6-.9 5.1-2.2 7.3L1684 914.8M931.3 2117.4c-38.1 9.1-130.4 43.4-184.5 78.3-26.5 17.1-10.1 55.9 23.2 55.3l280.4-5.5" stroke-linecap="round"></path><path fill="#31323D" d="M840.5 2200.1l-.7.2-2 .6-3.1 1-4 1.5-4.5 2.1c-1.6.8-3.2 1.8-4.7 2.8-1.6 1.1-3 2.2-4.4 3.5-1.4 1.3-2.6 2.7-3.7 4.2l-.8 1.1-.7 1.2c-.4.8-.8 1.6-1.1 2.4-.2.4-.3.8-.4 1.2l-.3 1.2c-.2.8-.3 1.6-.4 2.4v3.6c0 .4.1.8.1 1.2 0 .7.1 1.5.3 2.2.2.7.3 1.4.5 2.1.3 1.2.7 2.4 1.2 3.6.4 1 .8 1.9 1.2 2.8l1.2 2.4.2.3c1.3 3.2-.3 6.9-3.5 8.2-2.9 1.2-6.2 0-7.8-2.7l-.3-.7-1.1-3.1c-.4-1-.7-2.2-1.1-3.7-.4-1.6-.8-3.3-1-4.9-.1-.9-.2-1.9-.3-2.9-.1-1.1-.1-2.1-.1-3.2v-1.7l.2-1.7c.1-.6.1-1.2.2-1.7l.4-1.8c.3-1.2.6-2.4 1-3.5.2-.6.4-1.1.7-1.7l.8-1.7c.6-1.1 1.3-2.2 2-3.2l1.1-1.5 1.2-1.4c1.6-1.8 3.4-3.5 5.4-4.9 1.8-1.4 3.8-2.6 5.8-3.6 1.9-1 3.8-1.8 5.7-2.6l5.2-1.8 4.4-1.2 3.5-.7 2.3-.3h.8c1.2-.2 2.4.6 2.6 1.8.2 1.2-.6 2.4-1.8 2.6h-.2zm-47.5 2h-.6l-1.7.5c-2 .7-4 1.5-5.9 2.5-1.2.7-2.4 1.4-3.6 2.2-1.2.9-2.4 1.8-3.5 2.9-1.1 1.1-2.1 2.4-2.9 3.7-.8 1.3-1.5 2.7-2 4.2-.2.7-.4 1.5-.6 2.2-.1.8-.3 1.5-.3 2.3-.1 1.5-.1 3.1.1 4.6.2 1.4.4 2.9.8 4.3s.7 2.7 1.2 3.9l.6 1.7.7 1.5.6 1.3.6 1.1 1.1 2.1v.2c1.2 3.3-.5 6.9-3.7 8.1-2.8 1-5.9 0-7.5-2.5l-.3-.8-.9-2.7-.5-1.4-.5-1.7-.5-1.9c-.2-.7-.3-1.4-.5-2.2s-.6-3.3-.8-5.1c-.2-2-.3-3.9-.2-5.9.1-2.1.3-4.2.8-6.3.2-1.1.6-2.1.9-3.2.4-1.1.8-2.1 1.3-3.1 1-2 2.2-3.9 3.6-5.6 1.4-1.6 2.9-3 4.5-4.3 1.5-1.1 3.1-2.1 4.8-3 1.5-.8 3-1.4 4.6-2 2.3-.9 4.7-1.5 7.1-2l2-.3h.8c1.2-.2 2.4.6 2.6 1.8.2 1.2-.6 2.4-1.8 2.6h-.4v.3z"></path><path fill="none" stroke="#31323D" stroke-width="12.5" stroke-miterlimit="10" d="M2020.7 2120.2c47.5 13.8 136.8 46.1 179.8 75.5 26.1 17.8 10.1 55.9-23.2 55.3l-261.6-5.1" stroke-linecap="round"></path><path fill="#31323D" d="M2107.6 2193.7h.8l2.3.4 3.5.8 4.5 1.4 5.2 2c1.9.8 3.8 1.8 5.6 2.8 2 1.1 3.9 2.4 5.7 3.8 1.9 1.5 3.7 3.2 5.3 5.1l1.2 1.5 1.1 1.6c.7 1.1 1.3 2.2 1.9 3.3.3.6.5 1.2.8 1.7s.5 1.2.7 1.8l.6 1.8.3.9.2.9c.3 1.2.5 2.3.6 3.5.1 1.1.2 2.3.2 3.4 0 2.1-.1 4.1-.4 6.2-.2 1.7-.6 3.4-1 5-.4 1.5-.7 2.8-1.1 3.7l-1.1 3.2c-1.6 3.1-5.3 4.4-8.5 2.8-2.5-1.3-3.9-4.1-3.3-6.9l.3-.7.2-.3 1.2-2.4c.4-.8.7-1.7 1.2-2.8s.8-2.3 1.2-3.7c.4-1.4.6-2.9.8-4.4.1-.8.1-1.6.1-2.4 0-.8 0-1.7-.1-2.5v-1.2l-.2-1.3c-.1-.4-.2-.8-.4-1.3-.1-.4-.2-.9-.4-1.3-.3-.9-.7-1.7-1.1-2.5l-.7-1.2-.8-1.2c-1.1-1.6-2.3-3.1-3.7-4.4-1.4-1.4-2.8-2.6-4.4-3.8-1.5-1.1-3.1-2.1-4.7-3l-4.5-2.3c-2.3-1.1-4.7-2.1-7.1-2.9l-2-.6-.7-.2h-.1c-1.2-.4-1.8-1.6-1.5-2.7.3-1 1.3-1.7 2.3-1.6zm47.5 2h.8l2.1.4c2.4.6 4.8 1.4 7.1 2.4 1.5.7 3 1.4 4.5 2.3 1.6 1 3.2 2.1 4.7 3.3 1.6 1.4 3.1 2.9 4.4 4.5 2.1 2.6 3.7 5.6 4.8 8.8.4 1.1.6 2.2.9 3.2s.4 2.2.6 3.3.3 2.2.2 3.2.1 2.1 0 3.1l-.2 2.9c-.3 1.8-.5 3.6-.8 5.2l-.5 2.3-.6 2-.5 1.8-.5 1.4-.9 2.7c-1.6 3.1-5.3 4.4-8.5 2.8-2.5-1.3-3.9-4.1-3.3-6.9l.3-.7v-.3l1.1-2.2.6-1.2.6-1.4.7-1.6.6-1.7c.5-1.2.8-2.6 1.2-4l.4-2.2c.2-.7.2-1.5.3-2.3s.1-1.5.1-2.3-.1-1.6-.1-2.4-.2-1.6-.3-2.4c-.2-.8-.4-1.5-.6-2.3-.5-1.5-1.2-3-2-4.4-.8-1.4-1.8-2.7-2.9-3.9-1.1-1.2-2.3-2.2-3.5-3.2-1.1-.9-2.4-1.7-3.6-2.4-1.9-1.1-3.9-2.1-5.9-2.9l-1.7-.6-.6-.2h-.1c-1-.6-1.4-2-.8-3 .4-.7 1.1-1.1 1.9-1.1z"></path></g></g><g id="item_g"></g><g id="item_f"></g><g id="eye"><defs><linearGradient id="eyeColor1" x2="0%" y2="100%"><stop offset="0%" stop-color="#Fa9fff"></stop></linearGradient><linearGradient id="eyeColor2" x2="0%" y2="100%"><stop offset="0%" stop-color="#Fa9fff"></stop></linearGradient></defs><defs><clipPath id="eyeClipPath"><circle cx="1696" cy="1101.3" r="129.7" transform="rotate(-68.1 1696.37388916 1101.3227275)" fill="#fff" stroke="#31323d" stroke-linecap="round" stroke-miterlimit="10" stroke-width="10"></circle></clipPath><clipPath id="eyeClipPath2"><circle cx="1168.9" cy="1127" r="129.7" transform="rotate(-23.1 1170.57230332 1127.99609272)" fill="#fff" stroke="#31323d" stroke-linecap="round" stroke-miterlimit="10" stroke-width="10"></circle></clipPath></defs><path fill="none" d="M3000 3010L0 3000 0 0 3000 10 3000 3010z"></path><circle cx="1696" cy="1101.3" r="129.7" transform="rotate(-68.1 1696.37388916 1101.3227275)" fill="#fff"></circle><g clip-path="url(#eyeClipPath)"><circle cx="1686.2" cy="1102.4" r="105.1" fill="url(#eyeColor1)"></circle><circle cx="1682.8" cy="1103.5" r="83" transform="rotate(-83.2 1682.21022125 1103.59307204)" fill="#31323d"></circle><circle cx="1738.2" cy="1045.5" r="44.2" transform="rotate(-83.2 1737.6065591 1045.62246994)" fill="#fff"></circle></g><circle cx="1696" cy="1101.3" r="129.7" transform="rotate(-68.1 1696.37388916 1101.3227275)" fill="none" stroke="#31323d" stroke-linecap="round" stroke-miterlimit="10" stroke-width="10"></circle><path d="M1763.9 938.4c-69.4-36-117.5-25.9-164.1 24M1109.8 968.4c69.4-36 117.5-25.9 164.1 24" fill="none" stroke="#31323d" stroke-linecap="round" stroke-miterlimit="10" stroke-width="30"></path><circle cx="1168.9" cy="1127" r="129.7" transform="rotate(-23.1 1170.57230332 1127.99609272)" fill="#fff"></circle><g clip-path="url(#eyeClipPath2)"><circle cx="1180.2" cy="1126.6" r="105.1" transform="rotate(-7.5 1185.37964878 1131.12230357)" fill="url(#eyeColor2)"></circle><circle cx="1177.2" cy="1128.5" r="83" transform="rotate(-7.5 1182.94109102 1133.26086132)" fill="#31323d"></circle><circle cx="1216.4" cy="1058.6" r="44.2" transform="rotate(-7.5 1222.01945732 1063.0398658)" fill="#fff"></circle></g><circle cx="1168.9" cy="1127" r="129.7" transform="rotate(-23.1 1170.57230332 1127.99609272)" fill="none" stroke="#31323d" stroke-linecap="round" stroke-miterlimit="10" stroke-width="10"></circle><path d="M1795.8 1183.6a129.4 129.4 0 0 1-207-9.8s38.7-10.9 103.5-7.4S1795.8 1183.6 1795.8 1183.6zM1068.9 1209.7a129.4 129.4 0 0 0 207-9.8s-38.7-10.9-103.5-7.4S1068.9 1209.7 1068.9 1209.7z" fill="#d1dadf"></path><path d="M1795.8 1183.6a129.4 129.4 0 0 1-207-9.8s38.7-10.9 103.5-7.4S1795.8 1183.6 1795.8 1183.6zM1068.9 1209.7a129.4 129.4 0 0 0 207-9.8s-38.7-10.9-103.5-7.4S1068.9 1209.7 1068.9 1209.7z" fill="none" stroke="#31323d" stroke-linecap="round" stroke-miterlimit="10" stroke-width="10"></path></g><g id="item_e"></g><g id="mouth"><path d="M1387.6,1449.1s7.9,72.2,68.5,66.4c58.7-5.7,61.4-73.9,61.4-73.9s-19.4,31.4-57.4,34.1S1387.6,1449.1,1387.6,1449.1Z" fill="#595959" opacity=".2" style="mix-blend-mode:multiply"></path><path d="M1371.7,1227.7a15,15,0,0,1,2.3-16.1c8.2-9.4,26.4-23.8,61.9-26.8s53.3,8,62,16.1a14.9,14.9,0,0,1,3.8,15.9h0a20.8,20.8,0,0,1-17.2,13.7c-10,1.1-23.6,5.2-31.4,18.4a13.2,13.2,0,0,1-1.7,2.3l-0.3.3a17.7,17.7,0,0,1-25.3.6h0s-8.2-11.9-35.2-11.9a20.7,20.7,0,0,1-18.7-12.1Z" fill="#31323d"></path><path d="M1447.5,1255.1v0.5l0.5,1.7c0.4,1.5,1.1,3.8,2.1,6.6a194.1,194.1,0,0,0,9.7,23.3c2.3,4.7,5,9.7,8.2,14.8a168.1,168.1,0,0,0,10.7,15.5,145.1,145.1,0,0,0,13.4,14.9,123,123,0,0,0,16,13.1c2.8,2,5.8,3.8,8.8,5.5s6.1,3.2,9.2,4.6a112.1,112.1,0,0,0,19.1,6.5,116.7,116.7,0,0,0,18.7,2.9,142,142,0,0,0,17.1.2l7.6-.6,3.5-.4,3.3-.5,6-1,5.1-1,7.1-1.6,2.5-.6h0.1a1.8,1.8,0,0,1,.9,3.4l-2.5.8-7.1,2-5.1,1.3-6.1,1.3-3.4.6-3.6.6c-2.5.4-5.1,0.7-7.8,1a147.7,147.7,0,0,1-17.8.7,123.3,123.3,0,0,1-19.9-2.1,119.7,119.7,0,0,1-20.7-5.9c-3.4-1.3-6.8-2.8-10.2-4.5s-6.6-3.5-9.8-5.4a132.8,132.8,0,0,1-17.9-13.2,155.9,155.9,0,0,1-15.2-15.3,179.8,179.8,0,0,1-12.3-16c-3.6-5.3-6.8-10.5-9.5-15.3a208,208,0,0,1-11.7-24.4c-1.2-3.1-2.1-5.5-2.7-7.2l-0.7-2-0.2-.7a7.5,7.5,0,1,1,14.3-4.4v0.3h0Z" fill="#31323d"></path><path d="M1318.9 1385.5h2.4l6.7-.3c2.9-.2 6.4-.6 10.3-1.2s8.4-1.5 13.1-2.8a115.8 115.8 0 0 0 15-5l2-.8 1.9-.9 3.9-1.8c2.6-1.4 5.2-2.7 7.8-4.3l1.9-1.2 1.9-1.3 3.8-2.7 1.8-1.4 1.8-1.5a45 45 0 0 0 3.6-3l3.4-3.2 3.2-3.5c2.2-2.3 4-4.9 6-7.3a21.1 21.1 0 0 0 1.4-1.9l1.3-2 1.3-2a19.7 19.7 0 0 0 1.2-2l2.3-4.1 1.1-2 1-2.1a90.4 90.4 0 0 0 3.7-8.5 88.6 88.6 0 0 0 2.9-8.6 167.8 167.8 0 0 0 4-16.8l1.2-8 .3-1.9c.1-.6.1-1.3.2-1.9l.3-3.7c.2-2.4.4-4.7.5-6.9l.2-6.3V1259a41.1 41.1 0 0 1 .1-4.7 27.3 27.3 0 0 1 1.3-6.6 17.2 17.2 0 0 1 1-2.4V1245a5.6 5.6 0 0 1 9.8-.1 16.7 16.7 0 0 1 1 2.4 29.4 29.4 0 0 1 1.4 6.9 40.9 40.9 0 0 1 .1 5l-.4 5.9-.4 6.7c-.2 2.4-.6 4.8-.9 7.4l-.5 3.9c-.1.7-.2 1.3-.3 2l-.4 2.1-1.6 8.5c-.7 2.9-1.5 5.9-2.3 8.9l-.6 2.3c-.2.8-.5 1.5-.8 2.3l-1.6 4.6c-1 3.1-2.4 6.2-3.7 9.3a101.9 101.9 0 0 1-4.5 9.2l-1.2 2.3-1.4 2.2-2.8 4.4a23.6 23.6 0 0 1-1.5 2.2l-1.6 2.1-1.6 2.1a25.3 25.3 0 0 1-1.6 2.1c-2.4 2.6-4.5 5.4-7.1 7.7l-3.8 3.6-4 3.3c-1.3 1.1-2.7 2.1-4.1 3.1s-2.7 2-4.2 2.9l-4.3 2.6-2.2 1.2-2.2 1.1c-2.8 1.6-5.8 2.8-8.7 4.1l-4.3 1.6-2.1.8-2.1.7a121.9 121.9 0 0 1-16.1 4 132.4 132.4 0 0 1-13.8 1.7c-4.1.2-7.7.3-10.7.2l-6.9-.4-1.8-.2h-.6a1.2 1.2 0 0 1 .2-2.3h0zM1520.1 1438.4l-.4 1.8c-.1.6-.2 1.3-.5 2.2l-.9 3.1c-.4 1.1-.8 2.3-1.4 3.6s-1.2 2.7-2 4.2a56.1 56.1 0 0 1-6.1 9.3 63 63 0 0 1-9.3 9.4l-2.9 2.2-3 2.1c-2.1 1.3-4.3 2.6-6.6 3.8s-4.7 2.2-7.2 3.1l-3.8 1.3-3.9 1.1a77.5 77.5 0 0 1-16.2 2.3 81.8 81.8 0 0 1-16.2-1 83.6 83.6 0 0 1-15.1-4l-.9-.3-.4-.2h-.5l-1.6-.7-3.4-1.5c-2.3-1.1-4.3-2.2-6.3-3.4a76.6 76.6 0 0 1-10.6-7.5 75.2 75.2 0 0 1-7.8-7.6 71.2 71.2 0 0 1-5.1-6.6c-.7-.9-1.2-1.8-1.7-2.6l-1.2-2-.9-1.7a2.5 2.5 0 0 1 4-3h.1l1.3 1.2 3.6 3.3c1.5 1.4 3.6 3 5.9 4.8s5 3.6 8 5.4a91.1 91.1 0 0 0 10.1 5.2l2.8 1.2 2.9 1.1 3 1 1.7.5 1.5.4a85.9 85.9 0 0 0 13 2.6 81.6 81.6 0 0 0 13.6.5 80.5 80.5 0 0 0 13.4-1.8l3.2-.8 3.2-.9c2.1-.6 4.1-1.4 6.1-2.2s3.9-1.7 5.7-2.6l2.7-1.4 2.5-1.5a65.7 65.7 0 0 0 8.8-6.6 60.7 60.7 0 0 0 6.6-6.8 72.3 72.3 0 0 0 4.5-5.9l1.5-2.3c.4-.6.8-1.4 1.1-1.9l.9-1.6A2.5 2.5 0 0 1 1520.1 1438.4z" fill="#31323d"></path><path d="M1542.7 1278.1l4-.8 11.4-2.1c9.9-1.7 24-3.8 41-5.4a545 545 0 0 1 58.3-2.4c10.7.1 21.7.6 32.9 1.5s22.5 2.3 33.7 4.2 22.4 4.2 33.2 7.1a301.1 301.1 0 0 1 31.3 10.2 259.9 259.9 0 0 1 27.9 12.9 220.6 220.6 0 0 1 23.4 14.5 202.8 202.8 0 0 1 18.1 14.5l3.7 3.4 3.3 3.2 3 3 2.7 2.9c1.7 1.8 3.1 3.5 4.4 4.9l3.1 3.7 2.6 3.2-2.7-3.1-3.2-3.6c-1.3-1.4-2.8-3.1-4.5-4.8l-2.7-2.8-3.1-3-3.4-3.1-3.8-3.3a201.6 201.6 0 0 0-18.4-13.9 218.7 218.7 0 0 0-23.5-13.8 257.3 257.3 0 0 0-27.9-12 297.5 297.5 0 0 0-31.2-9.2c-10.8-2.6-21.8-4.6-33-6.1s-22.3-2.6-33.4-3.2-21.9-.8-32.5-.6a537.3 537.3 0 0 0-57.4 4c-16.7 2-30.5 4.5-40.1 6.4l-11.1 2.4-3.9.9h0a5 5 0 0 1-2.3-9.7h.1zM1715.6 1228.8l-6.6.3-7.6.4-9.9.7-11.7 1-13 1.5c-4.5.6-9.1 1.2-13.8 2l-7.1 1.1-7.1 1.3-7.1 1.4-7 1.4-6.9 1.5-6.7 1.6-6.4 1.6-6.1 1.6-11.2 3.1-9.4 2.8-7.2 2.3-6.2 2.1h-.1a5 5 0 0 1-3.2-9.5h.3l6.5-1.7 7.5-1.9 9.7-2.3 11.6-2.5 6.3-1.2 6.6-1.2 6.9-1.2 7-1.1 7.2-1 7.2-.9 7.2-.8 7.2-.7c4.8-.5 9.5-.7 14-1.1l13.1-.6 11.7-.3H1709zM1556.6 1301.2l7.7-1.2 4.3-.4 5.1-.4c3.6 0 7.7-.2 12.1.3l3.4.2 3.5.5 3.6.5 3.7.7 3.8.7 3.8.9 3.9 1 3.9 1.2 3.9 1.3 3.9 1.5 3.9 1.6 3.9 1.7 2 .9 1.9 1 3.9 1.9 7.6 4.2c4.9 3 9.8 6 14.4 9.3s9 6.7 13.1 10.1 8 6.9 11.6 10.2 6.8 6.7 9.8 9.7 5.6 6 7.8 8.6 4.2 4.9 5.8 6.9c3.1 3.9 4.8 6.2 4.8 6.2s-1.8-2.2-5.1-5.9c-1.7-1.8-3.7-4.1-6.1-6.5s-5.2-5.2-8.3-8.1-6.5-6-10.2-9.1-7.7-6.3-12-9.5-8.7-6.3-13.4-9.2-9.6-5.7-14.5-8.3l-7.6-3.6-3.8-1.7-1.9-.8-1.9-.7-3.8-1.4-3.8-1.3-3.8-1.2-3.8-1-3.7-1-3.7-.8-3.6-.7-3.6-.5-3.5-.4-3.4-.3-3.3-.3h-3.1c-4.1-.2-7.8.2-11.2.4l-4.5.6-3.8.5-7.6 1.6a5 5 0 1 1-2-9.8h.3zM1345.9 1303.2l-15.5-3c-9.8-1.9-23.8-4.7-40.7-7.4-8.4-1.4-17.6-2.7-27.3-4s-20-2.3-30.6-3.2-21.6-1.4-32.8-1.6-22.6.1-33.9.8a334.9 334.9 0 0 0-33.7 3.9c-5.5.9-11 2-16.3 3.2s-10.6 2.6-15.7 4.2a200.6 200.6 0 0 0-52.8 24.1 165.1 165.1 0 0 0-18.6 14.1c-1.3 1.1-2.5 2.3-3.7 3.4l-3.4 3.2-3.1 3.1-2.7 2.9c-1.7 1.8-3.1 3.5-4.4 5l-1.7 2.1-1.4 1.8-2.5 3.2 2.5-3.3 1.3-1.8 1.7-2.1c1.2-1.5 2.6-3.3 4.3-5.1l2.6-3 3-3.2 3.3-3.4c1.2-1.1 2.3-2.4 3.7-3.5a166.3 166.3 0 0 1 18.3-14.7 202.9 202.9 0 0 1 52.8-25.9c5.1-1.7 10.4-3.2 15.8-4.6s10.9-2.7 16.4-3.7a339.4 339.4 0 0 1 34-4.9c11.5-1.1 23-1.6 34.3-1.8s22.5.1 33.3.7 21.2 1.4 31 2.4 19.1 2.1 27.7 3.3c17.1 2.3 31.2 4.7 41.1 6.4l15.5 2.6h0a5 5 0 1 1-1.7 9.9h-.1zM1171.2 1244.5l1.8-.3 5-.8 7.8-1.1 10.1-1.1c7.4-.7 16.2-1.1 25.6-1 4.7.1 9.5.2 14.5.5l7.4.6 7.4.8 7.5 1 7.4 1.2c4.9.8 9.6 1.9 14.2 2.9l6.8 1.7 6.4 1.8c4.2 1.2 8.1 2.4 11.7 3.6l9.7 3.5 7.4 2.9 4.7 2 1.7.7a5 5 0 1 1-4 9.2h-.3l-1.6-.8-4.4-2.2-7-3.3-9.2-3.9c-3.4-1.4-7.1-2.8-11.1-4.2l-6.1-2.1-6.5-2c-4.4-1.3-9-2.6-13.7-3.7l-7.1-1.6-7.2-1.4-7.3-1.2-7.2-1c-4.8-.6-9.6-1.1-14.2-1.4-9.2-.7-17.9-.8-25.3-.6l-10.1.4-7.8.6-5 .5zM1333.2 1327l-7.6-1.9-3.8-.6-2.1-.3-1.1-.2h-1.2l-5.3-.4h-9l-3.3.3c-2.2.1-4.5.6-6.8.9s-4.7 1-7.1 1.5l-1.8.4-1.8.5-3.7 1.1-3.7 1.3-3.8 1.4-7.5 3.2a163.1 163.1 0 0 0-14.8 7.9l-3.6 2.2-3.5 2.3c-2.4 1.5-4.6 3.2-6.9 4.8l-6.6 5c-2.1 1.7-4.3 3.4-6.3 5.1l-3 2.6-2.9 2.6-5.5 5.1-5.1 5-4.7 4.8c-3 3.1-5.6 6-7.9 8.6l-5.8 6.9c-3.2 3.9-4.9 6.2-4.9 6.2s1.6-2.4 4.5-6.4c1.5-2 3.3-4.5 5.5-7.2s4.6-5.8 7.4-9.1l4.4-5.1 4.9-5.3 5.3-5.4 2.8-2.8 2.9-2.8c1.9-1.9 4-3.7 6.1-5.5l6.4-5.4c2.2-1.7 4.4-3.6 6.8-5.3l3.5-2.6 3.6-2.5a168.4 168.4 0 0 1 14.8-9l7.7-3.8 3.9-1.7 3.9-1.6 3.9-1.4 1.9-.7 1.9-.6c2.6-.7 5-1.6 7.5-2s4.9-1.2 7.3-1.4l3.5-.5 1.7-.2h1.7l6.4-.4h8.5l2.5.3 4.5.5 7.7 1.4a5 5 0 0 1-1.8 9.8h-.3z" fill="#31323D"></path></g><g id="item_d"></g><g id="item_c"></g><g id="item_b"></g><g id="item_a"></g></svg>