<svg xmlns="http://www.w3.org/2000/svg" viewBox="0 0 3000 3000" xmlns:xlink="http://www.w3.org/1999/xlink"><g id="item_j"></g><g id="item_i"></g><mask id="hooktail_mask"><g fill="white"><path d="M0 0h3000v3000H0z"></path><path d="M0 0h3000v3000H0z"></path></g><g fill="black"><path d="M2399.9,1601.2a38.3,38.3,0,0,1,19.5,3.8l14.1,8.6c-25.9,53.4-14.1,96.3.5,123a151.2,151.2,0,0,0,38.5,45.7c10,8.6,28.1,16.7,51.7,16.7a111.4,111.4,0,0,0,13.8-.9,121.9,121.9,0,0,0,24.1-5.7h31.8v155.1H2251.8V1636.6h86.1Z"></path></g></mask><g clip-path="url(#kittyClipPath)" mask=""><g id="tail"></g><g id="robo_tail"><defs><linearGradient id="robo_tail__a" x1="2252.58" x2="2338.7" y1="1873.25" y2="1873.25" gradientUnits="userSpaceOnUse"><stop offset=".04" stop-color="#f456e9"></stop><stop offset=".49" stop-color="#ff5a9d"></stop><stop offset=".52" stop-color="#fd659e"></stop><stop offset=".61" stop-color="#fa7b9f"></stop><stop offset=".7" stop-color="#f888a0"></stop><stop offset=".78" stop-color="#f78ca0"></stop><stop offset=".96" stop-color="#fab5c2"></stop></linearGradient><linearGradient id="robo_tail__e" x1="2341.57" x2="2427.75" y1="1863.95" y2="1863.95" xlink:href="#robo_tail__a"></linearGradient><linearGradient id="robo_tail__b" x1="2414.53" x2="2315.53" y1="1899.47" y2="1891.17" gradientUnits="userSpaceOnUse"><stop offset="0" stop-color="#ff0069"></stop><stop offset="1" stop-color="#ccf" stop-opacity="0"></stop></linearGradient><linearGradient id="robo_tail__f" x1="2278.79" x2="2314.45" y1="1857.49" y2="1930.18" xlink:href="#robo_tail__b"></linearGradient><linearGradient id="robo_tail__g" x1="2482.49" x2="2521.17" y1="1771.67" y2="1742.56" gradientTransform="translate(317.7 -379.7) rotate(9.3)" xlink:href="#robo_tail__b"></linearGradient><linearGradient id="robo_tail__h" x1="2510.58" x2="2510.58" y1="1273.96" y2="1324.05" gradientTransform="matrix(0.54, -0.22, 0.3, 0.75, 764.79, 873.77)" gradientUnits="userSpaceOnUse"><stop offset=".13" stop-color="#e7e6ef"></stop><stop offset="1" stop-color="#ffceff"></stop></linearGradient><linearGradient id="robo_tail__c" x1="2369.96" x2="2379.9" y1="1855.85" y2="1750.84" gradientUnits="userSpaceOnUse"><stop offset="0" stop-color="#fff" stop-opacity="0"></stop><stop offset="1" stop-color="#231f20"></stop></linearGradient><linearGradient id="robo_tail__i" x1="2429.77" x2="2439.71" y1="1861.51" y2="1756.5" xlink:href="#robo_tail__c"></linearGradient><linearGradient id="robo_tail__d" x1="2441.99" x2="2450.78" y1="1198.87" y2="1303.31" gradientUnits="userSpaceOnUse"><stop offset=".1" stop-color="#fff"></stop><stop offset=".19" stop-color="#fff" stop-opacity=".83"></stop><stop offset=".31" stop-color="#fff" stop-opacity=".61"></stop><stop offset=".43" stop-color="#fff" stop-opacity=".42"></stop><stop offset=".55" stop-color="#fff" stop-opacity=".27"></stop><stop offset=".67" stop-color="#fff" stop-opacity=".15"></stop><stop offset=".79" stop-color="#fff" stop-opacity=".07"></stop><stop offset=".9" stop-color="#fff" stop-opacity=".02"></stop><stop offset="1" stop-color="#fff" stop-opacity="0"></stop></linearGradient><linearGradient id="robo_tail__j" x1="2470.58" x2="2544.54" y1="1367.69" y2="1367.69" xlink:href="#robo_tail__d"></linearGradient></defs><g style="isolation:isolate"><path fill="#e6e7e8" d="M2405.5 1419L2426.9 1563 2444.5 1560.7 2429.2 1436.6 2413.1 1414 2405.5 1419z"></path><path fill="#e6e7e8" d="M2378.7,1876.3l-78.9,88.6c4.6,28.1-26.1,30.1-26.1,30.1-4.6,23-24.5,9.2-24.5,9.2-9.2,44.4-41.3,35.2-41.3,35.2-32.2,41.4-84.3,19.9-84.3,19.9-23,15.4-35.2-1.5-35.2-1.5l-156-44.9s-57.5-21.5-20.7-80.7c0,0,18.4-22.5,59.2-10.2l73.6,22.5,12.2,26.5,16.3,4.1c-.2-7.7,6.2-15.3,13.5-17.9a18.8,18.8,0,0,1,20.7,6.1c6.4-15.6,22.6-30.5,39.2-33.3s41.1-1.2,52.3,11.4c4.8-14.5,21.8-15.5,33.4-5.6a14.2,14.2,0,0,1,9-14.5c5.7-2.1,11.6,1.2,15,6.3.7-7.1,7.9-14.3,15-15.3s12.3,1,14.9,7.6l72.7-75.8,3.7,1.3,8.5,11.2,6.8,9.9Z"></path><path fill="#e6e7e8" d="M2489.2,1705.8c5,10.3,4.1,17.5,4.6,29,6.3,7,14.4,16.6,15.2,26.1s-4.5,21.7-11.3,28.5a33.9,33.9,0,0,1-.7,11c-1.4,4.8-4.8,8.7-8.2,12.3-11.2,12.1-24,24.2-40.2,27.5-9.2,1.9-18.8.8-28.1,1.5s-19.4,4-24.4,12c-6.6-7.5-13.6-16.6-11.7-26.4.8-4.4,3.5-8.3,6.3-11.8a87.1,87.1,0,0,1,33.1-25.1c-1.2-18.7-2.2-37.9,3.4-55.7s16.4-26.1,31-35.7c1.1-.8,4.5-.6,5.3-1.4s1.3-4.9,1.5-5.1c3.5-2.2.3-3.5,5.9-3.7C2478.2,1688.6,2486.5,1700.2,2489.2,1705.8Z"></path><path fill="#e6e7e8" d="M2381,1706.6c-10.3,10.5-12.8,26.3-13.7,41.1-1.2,18.2,1.5,35.1,3.4,53.3a205.4,205.4,0,0,1,53.4-27.2,83.4,83.4,0,0,1,5.5-41.9c2.3-5.7,5.4-11.5,4.9-17.7a16.3,16.3,0,0,0-11-13.9c-1.4-.5-3-.8-4.4-1.4-10.1-4.7-2.6-10.6-14.5-7.7C2397.1,1693,2386.3,1701.2,2381,1706.6Z"></path><path fill="#e6e7e8" d="M2433 1314.8L2404.7 1403.7 2420.8 1397.6 2446.8 1330.9 2433 1314.8z"></path><ellipse cx="2416.2" cy="1413.3" fill="#e6e7e8" rx="17.6" ry="19.5"></ellipse><path fill="#a444e7" d="M2300.5,1958.3c.7,7-3.1,14-5.2,20.7s-3.5,14.7-10.4,15.6c-4.4.6-8,1-10.1,4.8-.7,1.4-6.8,0-7.2,1.5-1.3,3.8-5.5,5.9-9.6,6.1s.3,7-3.4,5.5c-.5,19.8-27.5,28.8-47.2,27.7,3.4-8.4,6.9-16.9,8.3-25.9s.3-11.7-4.8-19.3l-8.4,4.6c-.3-6.4-.6-19.8-1-26.2,0-1.6-1.1-5.4-.3-6.8s2.9-4,3.7-5.1c2.7-3.3,1.6-4.1-.1-7.9s-4.3-7.5-4.2-11.6c.2-6,5.9-10.8,11.9-11.5s21.7-4.5,26.6-1.2c9.6-4.8,10-11.3,15.5-13.2s3.1-3.9,9.1-3a1,1,0,0,0,1.1-1c-.1-3.3,19.1,1.8,24.6,6C2300.4,1926.6,2299.2,1945.6,2300.5,1958.3Z"></path><path fill="url(#robo_tail__a)" d="M2317.8,1840.4c-6.2-2.2-24.4-12-39.6-5-3.7,1.6-20.3,8.7-25,29.5-1.5,6.7,0,21.5,1.5,28.9s.5,21.8,17.8,19.6c5.4-.7,12.5.4,7.3-22.1-.9-6.2,2.7-18.4,7.3-24.1s18-1.1,24.9,5.1a51,51,0,0,1,4.2,4.6c2.4,2.1,4.9,3.8,5.8,3.3C2352.9,1862.7,2334.6,1846.5,2317.8,1840.4Z"></path><path fill="url(#robo_tail__e)" d="M2360.6,1805.8c-3.6,5.2-3.9,22.1-3,28.4.6,4.3,3.2,8.1,5.8,11.7,4.6,6.7,9.3,13.3,14,19.9,5.9,8.4,30.9,48,14.1,54.8-5.1,2.1-15.8,2.1-20.3-5.4-8.4-13.9-11.6-16.9-21.4-6.7-4.9,5.1-9.8,12.4-7.8,19.2,2.7,8.9,22.1,24.9,29.1,25.7,27.5,3.6,50-12.3,54.7-29,5.9-21.1-2.6-38.8-11.6-56.8-1.6-3.2-18.7-26.3-18.9-29.9s-3.4-11.2-1.5-15.1c4.9-9.5,9.2-15.9,19.7-18.3,13.5-3.2,15.9-28.3,7.1-30.1C2405.1,1771.1,2368.3,1794.7,2360.6,1805.8Z"></path><path fill="#886662" d="M2426.4,1300c-42-72.7-50-141.5-22.5-157.3s83.7,30.3,125.7,103,53.8,144.6,26.4,160.5c-22.7,13.1-64.3-12.7-102-64.3"></path><path fill="#886662" d="M2463.2,1694.2c-1-15.3-15.3-24.5-15.3-24.5l-17.4-9.2-8.2-13.2s10.2-15.4,1-25.6c0,0,15.4-11.2,13.3-26.5l16.4-30.7s-5.1-21.4-39.9-13.2c0,0-6.1,18.3-5.1,29.6l-6.1,6.1s-7.2,14.3-4.1,25.5l-9.2,12.3s-4.1,18.4,5.1,29.6l2.1,21.5s0,3,11.2,5.1l12.8,18.9,9.7,1.5,5.1,14.3"></path><path fill="#886662" d="M2439.2,1278.1l-16.9,38.3s14.6,19.9,26.8,24.5c0,0,21.5,0,26.8-11.5C2475.9,1329.4,2478.2,1289.6,2439.2,1278.1Z"></path><path fill="#886662" d="M2087.8,1956.6c7.9-1.2,15.9,3.2,20.8,9.5s7.2,14.2,8.8,22a194.2,194.2,0,0,1,3.5,52.7c-.4,6.6-1.1,13.3-4.5,18.9s-9.8,9.9-16.2,8.6-11-8-12.2-14.6.1-13.4.6-20.1a93.4,93.4,0,0,0-7.8-45.5C2076,1977.3,2069,1959.7,2087.8,1956.6Z"></path><ellipse cx="2489.3" cy="1764.4" fill="#ff5a9d" rx="19.9" ry="29.6"></ellipse><path fill="url(#robo_tail__b)" d="M2390.3,1855.6c20,33.9,28.6,62.9,4.6,75.2s-41-5.1-41-5.1,14.2,27.3,43.7,11.7,12.9-50.7,10.3-56.4C2400.2,1863.9,2382.5,1842.5,2390.3,1855.6Z"></path><path fill="url(#robo_tail__f)" d="M2266.1,1910.3c-3.3-6.2-6.3-32.5-1.6-41,16-29,53.3-11,53.3-11s-61.2-20.8-44.6,51.2Z"></path><ellipse cx="2493.5" cy="1763.4" fill="url(#robo_tail__g)" rx="9.1" ry="16.4" transform="translate(-252.1 426) rotate(-9.3)"></ellipse><g><path fill="url(#robo_tail__h)" d="M2524,1303.6c-7.4-18.3-20.4-30.3-29.1-26.8s-9.8,21.2-2.4,39.5l7,17.4c3.3,8.1,9.1,13.5,13,12l17.5-7.1c3.8-1.5,4.3-9.5,1-17.6Z" opacity=".8"></path><path fill="#ff5a9d" d="M2522.4,1306c-2-5.1-10.7-24.6-21-23.9s-13.7,8.6-8.5,26.4,13.1,33.1,19.7,32.2,8-2.2,14.1-5.4S2524.5,1311.1,2522.4,1306Z"></path><path fill="#fff" d="M2508.7,1294.7c-2.6,1-3.5,5.5-2.3,10.8-2.9-4.6-6.6-7.2-9.3-6.2s-3.8,8.3-.9,15.5,8,11.9,11.4,10.6,3.5-5.6,2.4-10.9c2.9,4.6,6.6,7.3,9.2,6.2s3.9-8.3,1-15.5S2512.1,1293.3,2508.7,1294.7Z"></path><ellipse cx="2502.2" cy="1311.6" fill="#7320d3" rx="4.3" ry="9.2" transform="translate(-308.9 1030.2) rotate(-21.9)"></ellipse><ellipse cx="2513.6" cy="1307.1" fill="#7320d3" rx="4.3" ry="9.2" transform="translate(-306.3 1034.1) rotate(-21.9)"></ellipse><ellipse cx="2501.5" cy="1304.8" fill="#fff" rx="1.9" ry="4" transform="translate(-306.4 1029.4) rotate(-21.9)"></ellipse><ellipse cx="2513.3" cy="1300.1" fill="#fff" rx="1.9" ry="4" transform="translate(-303.7 1033.5) rotate(-21.9)"></ellipse></g><g><path style="mix-blend-mode:multiply" fill="#231f20" d="M2554,1376.2a329,329,0,0,0-44.8-127.2c-19.5-32.2-46-66.7-77.8-87.8-39.5-26.2-48.8,12.2-43,44.7,6.2,34.6,19.5,68.2,38.2,98.6a160,160,0,0,0,8.5-17.7c1.4-3.7,5-6.4,9.1-5.2,11.5,3.4,22.1,12.8,27.6,23.4s6,24.9-4.7,31.9a20.7,20.7,0,0,1-15.5,2.7,296.7,296.7,0,0,0,59.6,55.2c12,8.4,30.1,19.8,39,8.1C2554.9,1396.9,2555,1383.7,2554,1376.2Z" opacity=".5"></path><path style="mix-blend-mode:multiply" fill="#231f20" d="M2459.1,1291.1l-26.8,39.8s5.7,9.7,19.3,8.7h0l24.3-7.1s-.7-30.7-16.8-41.4" opacity=".3"></path><path style="mix-blend-mode:multiply" fill="#231f20" d="M2435.3,1332.5s9,1.8,3.6,15.6l-9.7,5-12,38.3-10.2,3.9,20.7-71.3,7.6,8.5" opacity=".3"></path><path style="mix-blend-mode:multiply" fill="#231f20" d="M2411.7,1412.4c-5.2,4.2-9.8,1.7-11.5.1s-.5,1-.6,1.6a16.5,16.5,0,0,0,6.9,15.6,16.7,16.7,0,0,0,17,1,2.7,2.7,0,0,0-.4-3.4,9.1,9.1,0,0,0-3.2-2c-4.3-2.1-8.6-6.2-7.5-10.9" opacity=".3"></path><path style="mix-blend-mode:multiply" fill="#231f20" d="M2424,1445.8a8.6,8.6,0,0,0-2.1,2.6,7.5,7.5,0,0,0-.3,4.2c3.9,31.4,9.8,63.7,13.7,95.1.1.4-1.9,0-2.2.3a2.1,2.1,0,0,1-1.1.4l-4.8.3c-4.9-22.3-9.1-44.7-12.4-67.3-1.1-7.2-2-14.4-3-21.7-1.2-9.1-2.4-18.2-3.7-27.3a35.8,35.8,0,0,0,9.8.8c2.4-.2,7.6-2.3,9.4-1.2C2431.6,1434.9,2426.2,1443.5,2424,1445.8Z" opacity=".3"></path><path style="mix-blend-mode:multiply" fill="#231f20" d="M2412.9,1613.6c-1.5,6.2-7,12.6-7.2,18.9s5.3,13.6,6.9,20c1,3.7-1.6,8.9,0,12.3s7.1,4.6,9.1,7.5,2.2,2.8,3.4,4.1.6,6.4,2.4,7.9,8.9,2.3,12.1,4.8,2.8,6.4,4.9,8.3,5.7,1.2,7.5,3.4a101.1,101.1,0,0,1-18,13.1,13.4,13.4,0,0,0-8.8-13.5c-2.1-.7-4.4-.9-6.4-2-6.1-3.5-5.4-14-11.8-17-2.4-1.1-5.6-.9-7.4-2.8a7.6,7.6,0,0,1-1.8-4.1c-2.8-10.7-5.5-21.4-8.2-32.1-2.2-8.6-3.7-19.4,3.2-25,1.5-1.2,3.3-2.1,4.2-3.8s.3-3.8,0-5.7a25.6,25.6,0,0,1,3.3-16.9c1.9-3.2,4.5-6,6-9.4s1.7-5.8,2.2-8.8l3.3-22.8c.6-4.1,19.2-1.2,21.7-.4,4.5,1.4,6.4,2.4,6.7,3.6s-8,6.2-11.2,11.5-3,11.5-6.2,19.1c-1.5,3.7-8.9,9.7-10.2,13.5C2410.4,1603.6,2414.4,1607.7,2412.9,1613.6Z" opacity=".5"></path><path style="mix-blend-mode:multiply" fill="#231f20" d="M2398.6,1731.9c-4.7,17-1.8,39.4-2.5,48.5,7.9-1.6,11.1-2.6,21.4-5.2,1.5-.4,3.2-.9,4.1-2.2a6.5,6.5,0,0,0,.8-3.1c1-10.3,2.4-20.6,4.3-30.8,1.1-6.4,2.5-12.9,5.8-18.5a10.4,10.4,0,0,0,1.5-3.8,6.3,6.3,0,0,0-.4-2.7l-1.5-5.4C2427.8,1693,2401.8,1720.4,2398.6,1731.9Z" opacity=".3"></path><path style="mix-blend-mode:multiply" fill="url(#robo_tail__c)" d="M2390.2,1725.4c-4.6,7.2-4.3,16.2-3.8,24.7l1.8,34.8a5.7,5.7,0,0,1-.4,2.6,3.9,3.9,0,0,1-1.5,1.6l-12.7,9.4c-3.1-11-3.3-22.5-3.5-34l-.2-17.4c-.1-5.4-1.3-17.1,2.8-21.4S2384.4,1724.4,2390.2,1725.4Z" opacity=".5"></path><path style="mix-blend-mode:multiply" fill="url(#robo_tail__i)" d="M2429.6,1731.9l16.1,4.7-2.3,12.1h0l2.3,91.4-18,1.7s-5.4-96.5,1.9-109.9" opacity=".5"></path><path style="mix-blend-mode:multiply" fill="#231f20" d="M2477.8,1803.9c-9.8-3.2-14-11.9-15.5-21.1s-.9-18.7,4.9-26.1c-.9,6-1.8,12-.4,18,4.3,17.5,20.7,17.9,35.1,22.4C2497.6,1804.3,2486.5,1806.8,2477.8,1803.9Z" opacity=".3"></path><path style="mix-blend-mode:multiply" fill="#231f20" d="M2394.5,1820.7c-2.5,3.8-1.4,7.7-.9,12.2.3,2.2,2.8,6.7,3.8,8.7,2.2,4.7,2.3,1.3,5,5.7,1.1,1.8.1,3.8,1.9,4.8,4.6,2.5,5.6-5.6,9.3-9.4l4.9-4.8c2.7-2.8,5.6-5.7,7-9.3a24.5,24.5,0,0,0,1.4-9.3c.3-11.3,9-21.2-7-18.2C2408.6,1803.2,2400.4,1811.7,2394.5,1820.7Z" opacity=".3"></path><path style="mix-blend-mode:multiply" fill="#231f20" d="M2373.3 1858.3L2326.3 1908.7 2331.1 1924.4 2379.4 1870.6 2373.3 1858.3z" opacity=".3"></path><path style="mix-blend-mode:multiply" fill="#231f20" d="M2322.2,1911.8l-25.2,26.9,3.1,22.8,31.3-34.1S2329.7,1916.2,2322.2,1911.8Z" opacity=".3"></path><path style="mix-blend-mode:multiply" fill="#231f20" d="M2302,1943.2h-4.1s-6.3,29.8-38.8,13.2c0,0-16.6,36-58.3,19l.6,25.7,11.6-4.8s3,26.5-4.5,40.4c0,0,32.4,8.3,39.6-14.8l2.6-6.6s6.9-14.3,20.8-15l7.5-6.8s17.4-4.9,21.5-21.8c1.1-4.8,1.1-17.1,1.1-17.1Z" opacity=".3"></path><path style="mix-blend-mode:multiply" fill="#231f20" d="M2176.4 1980.5L2170.1 1983.1 2170.1 2018.6 2198.7 2003 2199.4 1966.7 2176.4 1980.5" opacity=".3"></path><path style="mix-blend-mode:multiply" fill="#231f20" d="M2149.2,1946.6c-9.8,12.6-12.8,34.1-13.1,50.1-.3,12.4,4.3,28.3,9.4,39.7s9.5,18.8,21,23.7c-12.2,5.9-33.6-5.8-46.1-.7,1.8-26.8,3.5-54.4-5.5-79.7-2.6-7.3-6-14.8-4.6-22.4,1-5.2,4.1-9.6,7.8-13.3,14.7-15.1,46.7-22,63.7-7C2166.4,1934.9,2158.7,1934.4,2149.2,1946.6Z" opacity=".3"></path><path style="mix-blend-mode:multiply" fill="#231f20" d="M2087.4,2004.6a142,142,0,0,1,1.5,44.6c-.3,2.9-.7,6.1.9,8.5a10.1,10.1,0,0,0,4,3.1c6.4,3,13.8,2.9,20.7,1.4,1.9-.4,3.9-1,5.2-2.5a9.8,9.8,0,0,0,2-4.4c3-12.2,5.2-35.1-.8-46.7-3.6-7.1-6.3-3.7-13.5-2.4C2105,2006.7,2088.1,2008,2087.4,2004.6Z" opacity=".3"></path><path style="mix-blend-mode:multiply" fill="#231f20" d="M2090.1,2020.3l-13-7.8c-.2.5-.1,2.6-.6,2.5-11.9-2.5-9.2-1.3-18.3-4.9-1.3-.5-2.6,3.6-2.2,2.4l-160.7-48.1c-2.3,9.2,28.4,45.9,28.4,45.9l151.6,45.2C2097.6,2059.3,2090.1,2020.3,2090.1,2020.3Z" opacity=".3"></path><path style="mix-blend-mode:multiply" fill="#231f20" d="M1980.4,1928.4l-10,8.4,19.9,16.8-74.5-21.4s17.8-18.4,35.5-13.8h0Z" opacity=".3"></path><path style="mix-blend-mode:multiply" fill="#231f20" d="M2394.2,1838.2c-3.1-17.1,6.1-30.3,22.7-36.3,1.6-.6,8.3-.1,8.9-1.6s-1.3-12.2-1.4-13.1c-.6-4.3-1.5-8.9-2.1-13.3-5.1,2.2-11.3,3-16.4,5.3-7.6,3.3-15.2,5-21.8,9.9C2365.9,1802.2,2393.6,1820.9,2394.2,1838.2Z" opacity=".3"></path><path style="mix-blend-mode:multiply" fill="#231f20" d="M2387.7,1923c10.1.8-26,22.1-46.1,1.4,4.4-5.9,14.1-16.4,18.6-22.3,1.8-2.4.2.7,4.1-1.5C2371.9,1917.4,2380.1,1922.4,2387.7,1923Z" opacity=".3"></path><path style="mix-blend-mode:multiply" fill="#231f20" d="M2332.1,1850.8s-3.4,8-23,19.5c0,0,6.5,8,10.6,12.4l23.8-22.9Z" opacity=".3"></path><path style="mix-blend-mode:multiply" fill="#231f20" d="M2265.7,1891.3c6.3-1.9,4.6-10.2,7.8-16.2,4.5-8.3,13.9-11.9,14.9-12.4.1,4-11.3,14.2-7,42,.1.7,4.9,13.8-8.5,7.8-.9-.4-3.5-4.5-4.3-3.9s-4.2,3.2-6.7,2.9a6.4,6.4,0,0,1-4.7-3.6,15.6,15.6,0,0,1-1.5-6c-.5-3.4-5.4-14.8-.9-16.2C2256.2,1889.7,2260.2,1893,2265.7,1891.3Z" opacity=".3"></path><path style="mix-blend-mode:multiply" fill="#231f20" d="M2473,1747.9c-6.7,7-2.2,11.9-1.1,20.7s6.7,17.2,15.1,23a11.9,11.9,0,0,0,5.5,2.4c2.1.1,4.5-.8,4.8-2.5s3.8-3.8,2.5-4.6c-6.2-4.1-15.1-3.6-18-18.2-3.6-17.8,1.6-25.5,4.7-28.1C2478.4,1737.9,2477.1,1743.7,2473,1747.9Z" opacity=".3"></path><path style="mix-blend-mode:multiply" fill="#231f20" d="M2170.5,1933.2s-27.2,40.6-8.5,88.7c0,0,13.4,33.9,42.3,21.8l-32.8,18s-37.7-24.3-35.4-63.2S2153.6,1940.8,2170.5,1933.2Z" opacity=".3"></path></g><g><path style="mix-blend-mode:overlay" fill="url(#robo_tail__d)" d="M2472.4,1202l3.5,127.4s-5.6-43.7-36.7-51.3l-1.6,5.2-.6,1.1L2408,1153S2431.5,1146.8,2472.4,1202Z" opacity=".9"></path><path style="mix-blend-mode:overlay" fill="#fff" d="M2157.9,1945.1s-21.4,42.5-7,76.8c6.9,16.5,22.3,29.1,36.9,31.4,0,0-16.3,13.2-21.3,6.8S2106.9,2011.4,2157.9,1945.1Z" opacity=".6"></path><path style="mix-blend-mode:overlay" fill="#fff" d="M1900.5,1975.1s20,22.6,65.6,34.5,122.9,33,122.9,33,22.2,15.3,32.3,2c0,0,20.7,8.3,33.3,3.7,0,0,24.7,15.2,22.9,14.9s-11.3,11.1-58.1-1.3c0,0-8.9,13.1-35.1-5.3l-153.1-41.1S1899.2,1999.1,1900.5,1975.1Z"></path><path style="mix-blend-mode:overlay" fill="#fff" d="M2206.1,2037l7.4-13.1s33.9-6.6,47.1-42.7c0,0,30.1-5.1,37.6-19.7,0,0,.9,8.2.6-9.5l79.3-89.3,1.3,7.9-75.5,92.7s-4.1,20.1-10.1,24.8l-15.6,12.1s-8.8,4-17.5,3.3-6.8,10.7-6.8,10.7-6.3,22.7-28,26.1S2206.1,2037,2206.1,2037Z" opacity=".6"></path><path style="mix-blend-mode:overlay" fill="#fff" d="M2395.3 1837.7L2424.8 1806.9 2428.2 1829.2 2403.1 1847.3 2395.3 1837.7z" opacity=".6"></path><path style="mix-blend-mode:overlay" fill="#fff" d="M2148.3,1932.2s-32.9,30.7-31.7,57.6l-6.6-14.7s-21.3-10.2-28.4,9.5l.8,5.2-176.8-44.7,6.1-12.9,155,40.8,19.8-15.8,19.7-.8S2126.2,1931.2,2148.3,1932.2Z"></path><path style="mix-blend-mode:overlay" fill="#fff" d="M2433 1329.9L2414.5 1392.4 2407 1395.3 2427.4 1326.6 2433 1329.9z" opacity=".6"></path><path style="mix-blend-mode:overlay" fill="#fff" d="M2415.3 1433.6L2433.1 1548 2427.2 1548.7 2408.1 1432.4 2415.3 1433.6z" opacity=".6"></path><path style="mix-blend-mode:overlay" fill="#fff" d="M2288.1,1868.8s-12.4,12.5-2.1,47.3c0,0-2.1,3.9-7.9-3-10.1-12.1-5.3-43.1,5.5-47.2Z"></path></g><g><path style="mix-blend-mode:overlay" fill="#fff" d="M2533.6,1255.1l-15.3,7.7s-74-136.9-129.2-103.2l12.3-15.8s65.9-21.5,132.2,111.3" opacity=".8"></path><path style="mix-blend-mode:overlay" fill="#fff" d="M2411.1,1409.9s-7.5,0-10.7-2.5c0,0,9.2-19.6,24.4-10.8l1.1.6-1.5,5.2-7.7,1.9-5.2,6.2" opacity=".8"></path><path style="mix-blend-mode:overlay" fill="#fff" d="M2186.8,1933.2c3.1,4.7,3.7,2.6,9.4,7.3s6.4,14.6,9.9,21l-12.8,6.2c2.9-7.6.6-12.8-7-20.9s-22.5-9.6-19.3-10.9c7.8-3,8.9-2.5,17.1-3.7Z" opacity=".8"></path><path style="mix-blend-mode:overlay" fill="#fff" d="M1981.1 1932.2L2040.3 1950.6 2047.5 1965.9" opacity=".6"></path><path fill="#fff" d="M2458.6,1728c5.9-9.4,10.7-7.5,22.9-11.7,1.7-.6,8.2-5.1,8.6-6.9,2-9.4-20.1-13.8-25.5-11.7-9.3,3.5-19.4,8.9-24.3,17.5,1.6,1.5,14.3,4.8,16,6.1,0,0-13.1,5.3-12.2,38s3.3,81.9,3.3,81.9l4.6-.8S2439.7,1738.7,2458.6,1728Z"></path><path style="mix-blend-mode:overlay" fill="#fff" d="M2401.7,1709.9a114.1,114.1,0,0,0-13.9-4.8,62.7,62.7,0,0,1,22.9-17.3l7.2,10.5a1.8,1.8,0,0,1,.5,1.3,1.8,1.8,0,0,1-.8.9c-5.3,3.5-12,4.7-16.4,9.2" opacity=".8"></path><path style="mix-blend-mode:overlay" fill="#fff" d="M2353.9 1857.6L2352.9 1905.6 2342.7 1913.8 2335.5 1869.9 2353.9 1857.6z" opacity=".8"></path><path style="mix-blend-mode:overlay" fill="#fff" d="M2450.3,1557.9s-12.7,13.4-16.3,30.5c0,0-6.3,20.9-14.8,28.9,0,0,.6,20.5-3,34,0,0,3.2,17.5,9.6,17.5,0,0,14,4.9,16.5,12.5s9.3,4.7,14.1,20.1l8.2-3.7s-4.2-25.6-22.3-30.9-19.3-18.4-19.3-18.4,7.9-19.9-1.1-27.3c0,0,15.2-10.9,14.7-25.9l16.4-30.7Z" opacity=".6"></path><path style="mix-blend-mode:overlay" fill="#fff" d="M2452 1281L2430.7 1324 2422.3 1316.4 2439.2 1278.1 2452 1281z" opacity=".6"></path><path style="mix-blend-mode:overlay" fill="#fff" d="M2425.4,1776s-72.5,22.5-47.3,68.9c11.3,20.8,47.3,62.2,13,80.4,0,0,17.4-14.3-11.8-55.9C2355.8,1835.8,2335.5,1786.9,2425.4,1776Z"></path><path style="mix-blend-mode:overlay" fill="#fff" d="M2480.3,1741.8a24.4,24.4,0,0,1,12.4,10.2c1.2,1.9-2.7,1.3-1.7,11.4a7.6,7.6,0,0,0,3.7,6c.7.4,2.7-1.9,2.7-1.1.8,21.6-11.1,22.5-11.1,22.5s22.4,2.2,22.9-35.3C2509.2,1755.5,2506.8,1730.1,2480.3,1741.8Z"></path><path style="mix-blend-mode:overlay" fill="#fff" d="M2201,1939.2s15.4-12.2,24.7-8.6c0,0,11,.1,18.8-1.5s11.4-8.5,11.4-8.5a39.7,39.7,0,0,1,17.8-4.5c10.1-.1,13.4,4.5,26.9,18.8l-17.3-23.4-19.6,1.6-19.8,13.7-14.8,1.8-25.7.7-7.2,8.3Z" opacity=".6"></path><path style="mix-blend-mode:overlay" fill="url(#robo_tail__j)" d="M2478.2,1327.1l66.3,81.2s-28.3-7.8-45.9-23.2l-28-48.8Z" opacity=".9"></path><path style="mix-blend-mode:overlay" fill="#fff" d="M2423,1551.5s-7.7,18.5-5.7,29.9c0,0-17.8,10.6-10.3,31.1,0,0-10.4,10.7-10.4,20s2.6,19.5,6.5,21.1-1.7,22.9,7.3,24.8,15.8,20.4,22,18.7,12.4,9.7,12.4,9.7l-9.1,12.8-8.2-18.6-9.1-1.4-9.9-16.4-8.9-4.6s-7.2-7.9-5.9-9.3-.2-14.3-1.9-17.6-5.9-23.8-1.6-29.6,7.3-7.7,7.3-19.7,8.8-20.8,8.8-20.8l5.5-31.6Z" opacity=".5"></path><path style="mix-blend-mode:overlay" fill="#fff" d="M2170.1,2015.5l42.4-22.1s11.6,42.6-15.2,57l2.1-5.1s4.1-5,4.9-20.9C2205.7,1994.4,2191.3,2026,2170.1,2015.5Z" opacity=".8"></path><ellipse style="mix-blend-mode:overlay" cx="2423.9" cy="1410.5" fill="#fff" opacity=".8" rx="5.4" ry="7.1"></ellipse><path style="mix-blend-mode:overlay" fill="#fff" d="M2438.9,1334.4s18-1.3,19.6-10.4c0,0,9.9,6.2,15.8-9.2,0,0,6.8,18.1-3.7,21.5S2450.2,1344.8,2438.9,1334.4Z" opacity=".6"></path><path style="mix-blend-mode:overlay" fill="#fff" d="M2257.8,1865.9s11.6-19.9,33.5-19.9c19.7,0,38.6,8.3,47.4,14s-8.6-32-64.8-25.2C2273.9,1834.8,2251.4,1845.8,2257.8,1865.9Z"></path><path style="mix-blend-mode:overlay" fill="#fff" d="M2199.3,1973.1s-.2,3.2,1.5,2.6c0,0,38,17.7,58.3-19.3,0,0,31.5,18.5,39.5-15.8l-2.7-6.7s-16.2,18.2-39.3,13.7c0,0-34.8,19.3-47.1,15.7,0,0-3.4,3.4-10.1,1.4Z" opacity=".9"></path><path style="mix-blend-mode:overlay" fill="#fff" d="M2361.1,1944s23.3,15.3,45.5,0,25.4-40.2,1.4-83.2-11.3-27.7-13.5-40.1c0,0-11.8,6.3,2.1,33,17.1,33,37.4,66,5.8,84.4C2380.6,1950.8,2361.1,1944,2361.1,1944Z" opacity=".6"></path></g><g><path fill="none" stroke="#31323d" stroke-linecap="round" stroke-linejoin="round" stroke-width="8" d="M2410.1,1689.1s-42.1,12.3-39.8,57.2l1.5,47.7"></path><path fill="none" stroke="#31323d" stroke-linecap="round" stroke-linejoin="round" stroke-width="12.5" d="M2466.7,1690.7s27.8,1.5,27.1,32.9v11.2"></path><path fill="none" stroke="#31323d" stroke-linecap="round" stroke-linejoin="round" stroke-width="12.5" d="M2422.8,1840.3h22.5c24.5,2,52.1-33.7,52.1-33.7l-.2-13.1"></path><path fill="none" stroke="#31323d" stroke-linecap="round" stroke-linejoin="round" stroke-width="8" d="M2470.3,1695.3s-45.9,12.2-45.9,61.2l4.1,77.7"></path><path fill="none" stroke="#31323d" stroke-linecap="round" stroke-linejoin="round" stroke-width="6" d="M2490.9,1713.9c3.9-.5-40,.1-40.4,41l3.4,83.3"></path><path fill="none" stroke="#31323d" stroke-linecap="round" stroke-linejoin="round" stroke-width="6" d="M2426.9,1703.1c2.6-.4-31.8,7.7-30.8,47.5l1,29.8"></path><path fill="none" stroke="#31323d" stroke-linecap="round" stroke-linejoin="round" stroke-width="8" d="M2055.7 1973L1915.8 1932.2"></path><path fill="none" stroke="#31323d" stroke-linecap="round" stroke-linejoin="round" stroke-width="12.5" d="M2405.9 1847.3L2425.4 1827"></path><path fill="#31323d" d="M2384.8,1879.2c-3.3,3.8-6.6,7.5-9.8,11.3l-9.9,11.3c-6.6,7.5-13.3,14.9-20,22.3s-13.4,14.8-20.2,22.1l-10.3,10.9c-3.5,3.6-6.8,7.3-10.8,10.4l.9-2.2h0a41.7,41.7,0,0,1-3.5,17.2,45.7,45.7,0,0,1-4.7,7.9,39.2,39.2,0,0,1-6.3,6.6,45.1,45.1,0,0,1-15.7,8.4,43.9,43.9,0,0,1-8.6,1.8l-4.4.4H2257l3.9-2.7a72.2,72.2,0,0,1-6.8,16.3,52.1,52.1,0,0,1-11.5,14.3,45.3,45.3,0,0,1-16.6,8.9,43.4,43.4,0,0,1-9.3,1.7,38.5,38.5,0,0,1-4.8.1h-2.5l-1.2-.2h-1.5l6.1-2.3a82.9,82.9,0,0,1-8.5,9.3,69.9,69.9,0,0,1-10.2,7.7,67.7,67.7,0,0,1-23.6,9.3,83.5,83.5,0,0,1-24.9,1.1,100.1,100.1,0,0,1-12.2-2,60.3,60.3,0,0,1-6.1-1.5l-2.9-.9-1.6-.6-1.6-.6,5.9-.6a42.4,42.4,0,0,1-9.9,5.2,32.1,32.1,0,0,1-11.7,2.3,26.7,26.7,0,0,1-12.1-2.6,36.5,36.5,0,0,1-5.4-3.2l-2.3-2.1-1.2-1.1-.5-.7-.3-.3-.4-.5,3.3,2.3-155.9-44.9h-.1l-.4-.2-.9-.3-.8-.4-1.6-.7-3-1.5c-1.9-1.1-3.8-2.2-5.7-3.5a70.2,70.2,0,0,1-10.4-8.5,53,53,0,0,1-8.3-11,45.7,45.7,0,0,1-5.1-13,50.3,50.3,0,0,1-1.2-13.9,66.1,66.1,0,0,1,2.3-13.3,96.5,96.5,0,0,1,10.9-23.7h0l.4-.6.4-.4.2-.2.5-.6,1-.9,1.9-1.7c1.4-1.1,2.7-2.1,4.1-3a49.6,49.6,0,0,1,8.8-4.7,59.2,59.2,0,0,1,18.9-4.4,61.5,61.5,0,0,1,9.6-.1c3.2.2,6.3.6,9.4,1.1l4.6,1,2.3.5,2.2.6,2.3.7,2.1.6,4.1,1.3,67.1,20.5a6.2,6.2,0,0,1,3.8,3.3l12.3,26.6-4.2-3.5,16.4,4.1-7.8,6.3a19.8,19.8,0,0,1,1.4-8.1,22,22,0,0,1,3.8-6.7,27.4,27.4,0,0,1,11.9-9,24.7,24.7,0,0,1,15.4-.6,25.3,25.3,0,0,1,12.9,8.5l-10.8,1.5a61.3,61.3,0,0,1,7.6-13.2,67.8,67.8,0,0,1,10.4-11,60.2,60.2,0,0,1,12.6-8.4,45.5,45.5,0,0,1,7.2-3l3.9-1,1.9-.4,1.9-.3a100.1,100.1,0,0,1,14.5-1.2,90,90,0,0,1,14.6.8,65,65,0,0,1,14.7,3.8,36.9,36.9,0,0,1,13.6,9.2h0l-9.8.7a33.8,33.8,0,0,1,11.3-9.8,42.9,42.9,0,0,1,13.3-4.6,39.3,39.3,0,0,1,14.1.1,26.2,26.2,0,0,1,13.1,6.5h0l-6.2,1.2a34.3,34.3,0,0,1,7.5-12.8,30.6,30.6,0,0,1,13.1-8.4,25.5,25.5,0,0,1,7.7-1.4,39.4,39.4,0,0,1,7.7.8,36.2,36.2,0,0,1,7.3,2.2l3.5,1.7a16.2,16.2,0,0,1,3.4,2.6h0l-5.4.3a14.4,14.4,0,0,1,2.9-6.1c.6-.8,1.4-1.6,2.1-2.4l2.2-2.3,8.7-9.4c5.8-6.3,11.7-12.5,17.5-18.7l8.9-9.3,8.9-9.2c6-6.1,12-12.2,18.1-18.1a6.3,6.3,0,0,1,9.1,8.6c-5.7,6.4-11.6,12.7-17.4,18.9l-8.8,9.3-8.9,9.2c-6,6.2-11.9,12.3-18,18.3l-9,9.1-2.3,2.3a16.1,16.1,0,0,1-2.3,2.2,13.8,13.8,0,0,1-6,3.2l-4.3,1a.9.9,0,0,1-1.1-.6h0a11.2,11.2,0,0,0-2.2-.9l-2.5-.7a25.7,25.7,0,0,0-5.5-.6,36.2,36.2,0,0,0-10.5,2,26.2,26.2,0,0,0-9.2,4.8,48.5,48.5,0,0,0-8.1,8.2l-1,1.3a3.2,3.2,0,0,1-4.6.4,1.2,1.2,0,0,1-.5-.5h0a19.7,19.7,0,0,0-9.4-3,30.6,30.6,0,0,0-10.4.9,33,33,0,0,0-9.6,4.2,21.9,21.9,0,0,0-6.9,6.6,6,6,0,0,1-8.2,2l-1-.8-.6-.6h0a25.6,25.6,0,0,0-9-5.9,49,49,0,0,0-11.7-3,94.7,94.7,0,0,0-25.5.3l-1.6.3-1.4.3a17.2,17.2,0,0,0-2.8.8,30.7,30.7,0,0,0-5.4,2.2,53.3,53.3,0,0,0-24.6,26.1h0a6.3,6.3,0,0,1-8.2,3.4,7.1,7.1,0,0,1-2.5-2,13.1,13.1,0,0,0-6.4-4.2,12,12,0,0,0-7.5.3,16.6,16.6,0,0,0-6.6,4.9,10.8,10.8,0,0,0-2.5,6.8,6.1,6.1,0,0,1-5.9,6.4,5.5,5.5,0,0,1-1.8-.1h-.1l-16.3-4.1a6.4,6.4,0,0,1-4.2-3.5l-12.2-26.5,3.8,3.3-67-20.4-4.2-1.3-2.1-.7-1.9-.5-2-.6-2-.4a25.7,25.7,0,0,0-4-.8,53,53,0,0,0-8-1,52.1,52.1,0,0,0-7.9,0,50.5,50.5,0,0,0-15,3.5,39.1,39.1,0,0,0-6.7,3.6l-3,2.2-1.3,1.2-.6.5-.4.5.5-.7a78.9,78.9,0,0,0-9.4,20.5,40.7,40.7,0,0,0-1,21,37.7,37.7,0,0,0,10.1,18,51.3,51.3,0,0,0,8.5,6.9l4.7,2.9,2.4,1.2,1.2.6.6.2.5.2h-.5l156,44.9,3.3,2.3h.1l.3.3.5.6,1.4,1.2a14.9,14.9,0,0,0,3,1.8,15.2,15.2,0,0,0,6.7,1.4,20,20,0,0,0,7.4-1.5,34.5,34.5,0,0,0,7.3-3.9,6.4,6.4,0,0,1,5.7-.6h.2l1.1.4,1.2.4,2.6.8a43.9,43.9,0,0,0,5.2,1.3,95.5,95.5,0,0,0,10.7,1.8,75.7,75.7,0,0,0,21.3-.9,56.3,56.3,0,0,0,19.4-7.7,62.5,62.5,0,0,0,8.3-6.3,75.6,75.6,0,0,0,7.1-7.8,6.4,6.4,0,0,1,5.2-2.4h4l3.5-.2a39.8,39.8,0,0,0,6.9-1.2,40.6,40.6,0,0,0,12.8-6,35.1,35.1,0,0,0,5.6-4.6,37.1,37.1,0,0,0,4.9-5.6,63.9,63.9,0,0,0,7.5-13.6l.2-.6a3.5,3.5,0,0,1,3.7-2.1l1.7-.2,1.8-.3,3.6-.8c2.4-.6,4.7-1.3,7-2.1a41.4,41.4,0,0,0,12.3-7,37.8,37.8,0,0,0,4.8-5,32.5,32.5,0,0,0,3.7-5.9,55.4,55.4,0,0,0,4.7-13.7h0a1.6,1.6,0,0,1,.2-1l.8-1.3a104.3,104.3,0,0,1,9-12l9.5-11.5c6.4-7.7,12.9-15.3,19.4-22.9l19.7-22.6,9.9-11.2,10.1-11.1a6.3,6.3,0,0,1,8.8-.4A6.4,6.4,0,0,1,2384.8,1879.2Z"></path><path fill="none" stroke="#31323d" stroke-linecap="round" stroke-linejoin="round" stroke-width="8" d="M2424.1,1773.8s-100.1,15.3-53.9,81.8c0,0,40,52.5,23.5,63.9,0,0-15,17.1-31.7-20"></path><path fill="none" stroke="#31323d" stroke-linecap="round" stroke-linejoin="round" stroke-width="8" d="M2425.4,1800.3s-46.7,9.6-27.8,42.3c0,0,62.5,75.5,7.9,104.6,0,0-45.4,24.2-64.9-22.8"></path><path fill="none" stroke="#31323d" stroke-linecap="round" stroke-linejoin="round" stroke-width="8" d="M2259,1912.5c-18.2-62.9,12.3-74.3,12.3-74.3s31.6-19.5,69.3,19.4"></path><path fill="none" stroke="#31323d" stroke-linecap="round" stroke-linejoin="round" stroke-width="6" d="M2312,1900s19.9,9.2,19.9,32.2"></path><path fill="#31323d" d="M2289.3,1914.8c.4.3.7.4.9.7l.8.6,1.4,1.2,2.6,2.7a40.4,40.4,0,0,1,4.3,5.9,48.5,48.5,0,0,1,5.7,13.5c.3,1.2.5,2.4.7,3.6l.3,1.8.2,1.8c0,1.2.2,2.4.2,3.6v3.6c-.1.6,0,1.2-.1,1.8l-.2,1.8-.4,3.5c-.4,2.3-.9,4.6-1.4,7a4.1,4.1,0,0,1-4.7,3.1,4,4,0,0,1-3.1-4.7v-.4c.5-2.1,1-4.2,1.3-6.2l.4-3.1V1955a7.6,7.6,0,0,0,.1-1.5v-3.1c0-1-.1-2-.2-3.1v-1.5l-.3-1.5c-.2-1-.3-2-.6-3a40.3,40.3,0,0,0-4.7-11.1,29,29,0,0,0-3.5-4.9l-2.1-2.1-1.1-1c-.2-.2-.4-.3-.5-.5l-.5-.3-.2-.2a4,4,0,0,1,4.7-6.4Z"></path><path fill="none" stroke="#31323d" stroke-linecap="round" stroke-linejoin="round" stroke-width="8" d="M2242.5,1930.6s32.7,24.3,15.1,72.6"></path><path fill="none" stroke="#31323d" stroke-linecap="round" stroke-linejoin="round" stroke-width="6" d="M2408.5 1433.6L2426.2 1549.2"></path><path fill="none" stroke="#31323d" stroke-linecap="round" stroke-linejoin="round" stroke-width="6" d="M2426.9 1428.2L2444.5 1551.5"></path><path fill="none" stroke="#31323d" stroke-linecap="round" stroke-linejoin="round" stroke-width="6" d="M2442.7 1339.9L2423.1 1394.5"></path><path fill="none" stroke="#31323d" stroke-linecap="round" stroke-linejoin="round" stroke-width="6" d="M2427.4 1326.6L2407 1395.3"></path><path fill="none" stroke="#31323d" stroke-linecap="round" stroke-linejoin="round" stroke-width="8" d="M2207.8 1959.9L2172.7 1978.9 2172.7 2017.4 2211.9 1995.3"></path><path fill="none" stroke="#31323d" stroke-linecap="round" stroke-linejoin="round" stroke-width="6" d="M2199.7 1967.5L2200.2 2000.9"></path><path fill="none" stroke="#31323d" stroke-linecap="round" stroke-linejoin="round" stroke-width="8" d="M2106.2,1963.3s25.1,43.5,11.8,96.6"></path><path fill="none" stroke="#31323d" stroke-linecap="round" stroke-linejoin="round" stroke-width="8" d="M2073,1975.1s23.5,19.4,15.4,82.7"></path><path fill="none" stroke="#31323d" stroke-linecap="round" stroke-linejoin="round" stroke-width="6" d="M2086.9 2018.4L1905.6 1967.9"></path><path fill="none" stroke="#31323d" stroke-linecap="round" stroke-linejoin="round" stroke-width="6" d="M2463.2,1694.2c-1-15.3-15.3-24.5-15.3-24.5l-17.4-9.2-8.2-13.2s10.2-15.4,1-25.6c0,0,15.4-11.2,13.3-26.5l16.4-30.7s-5.1-21.4-39.9-13.2c0,0-6.1,18.3-5.1,29.6l-6.1,6.1s-7.2,14.3-4.1,25.5l-9.2,12.3s-4.1,18.4,5.1,29.6l2.1,21.5s0,3,11.2,5.1l12.8,18.9,9.7,1.5,5.1,14.3"></path><path fill="none" stroke="#31323d" stroke-linecap="round" stroke-linejoin="round" stroke-width="6" d="M2436.6,1595.2s-10-19.2-29.9-12.3"></path><path fill="none" stroke="#31323d" stroke-linecap="round" stroke-linejoin="round" stroke-width="6" d="M2397.8,1612.5s14.5-1.2,25.2,9.6"></path><path fill="none" stroke="#31323d" stroke-linecap="round" stroke-linejoin="round" stroke-width="6" d="M2422.3,1647.3s-16.6,13.5-28.6,7.1"></path><path fill="none" stroke="#31323d" stroke-linecap="round" stroke-linejoin="round" stroke-width="6" d="M2430.5,1660.5s-7.4,18.9-23.5,20.5"></path><path fill="none" stroke="#31323d" stroke-linecap="round" stroke-linejoin="round" stroke-width="6" d="M2445.3,1671s-5.1,27.1-20.9,30.4"></path><path fill="none" stroke="#31323d" stroke-linecap="round" stroke-linejoin="round" stroke-width="8" d="M2439.2,1278.1l-16.9,38.3s14.6,19.9,26.8,24.5c0,0,21.5,0,26.8-11.5C2475.9,1329.4,2478.2,1289.6,2439.2,1278.1Z"></path><path fill="none" stroke="#31323d" stroke-linecap="round" stroke-linejoin="round" stroke-width="6" d="M2434.6,1298.8s24.5,17.6,28.3,36"></path><path fill="none" stroke="#31323d" stroke-linecap="round" stroke-linejoin="round" stroke-width="8" d="M2317.8,1879.6c-5.9-14-49.1-35.5-35.3,31.4"></path><ellipse cx="2421.9" cy="1414" fill="none" stroke="#31323d" stroke-linecap="round" stroke-linejoin="round" stroke-width="6" rx="8.8" ry="11.9"></ellipse><ellipse cx="2416.2" cy="1413.3" fill="none" stroke="#31323d" stroke-linecap="round" stroke-linejoin="round" stroke-width="6" rx="17.6" ry="19.5"></ellipse><path fill="none" stroke="#31323d" stroke-linecap="round" stroke-linejoin="round" stroke-width="8" d="M2426.4,1300c-42-72.7-50-141.5-22.5-157.3s83.7,30.3,125.7,103,53.8,144.6,26.4,160.5c-22.7,13.1-64.3-12.7-102-64.3"></path><path fill="none" stroke="#31323d" stroke-linecap="round" stroke-linejoin="round" stroke-width="6" d="M2389.9,1163.6a20.1,20.1,0,0,1,7.5-7.8c24.6-14.2,77.2,31,117.6,100.8s53,138,28.4,152.2"></path><ellipse cx="2489.2" cy="1764.8" fill="none" stroke="#31323d" stroke-linecap="round" stroke-linejoin="round" stroke-width="8.85" rx="19.8" ry="28.2"></ellipse><path fill="none" stroke="#31323d" stroke-linecap="round" stroke-linejoin="round" stroke-width="8" d="M2179.7,1933.2c-24-.1-43.5,28.2-43.6,63.3s18.6,62.2,42.6,62.3"></path><path fill="#31323d" d="M2204.2,1960.1a55.3,55.3,0,0,0-4.7-9.8,30.7,30.7,0,0,0-6.4-7.8,22.6,22.6,0,0,0-8.2-4.4,30.2,30.2,0,0,0-9.6-.9,6.4,6.4,0,0,1-.7-12.8h.8a40.2,40.2,0,0,1,13.4,2.8,35,35,0,0,1,11.5,7.8,41.7,41.7,0,0,1,7.4,11,66.1,66.1,0,0,1,4.1,11.8,4,4,0,0,1-2.8,4.9,4.1,4.1,0,0,1-4.8-2.5Z"></path><path fill="#31323d" d="M2197.4,2041.8a46.1,46.1,0,0,0,6.9-9.5,50.2,50.2,0,0,0,4.4-11.2,8.3,8.3,0,0,0,.4-1.5l.3-1.5a25.4,25.4,0,0,0,.4-2.9c.2-2,.3-4.1.3-6.1a42.3,42.3,0,0,0-1.7-11.9h0a4.1,4.1,0,0,1,2.7-5,3.9,3.9,0,0,1,4.9,2.5,49.8,49.8,0,0,1,2.5,14.1c.1,2.4.1,4.7,0,7.1s-.5,4.7-.8,7a61.6,61.6,0,0,1-3.5,13.9,59.1,59.1,0,0,1-7.1,12.8h0a6.3,6.3,0,0,1-8.8,1.4,6.2,6.2,0,0,1-1.4-8.7Z"></path></g></g></g></g><g id="item_h"></g><g clip-path="url(#kittyClipPath)"><g id="bodyFur"><clipPath id="furClipPath"><path d="M2200.5 2195.7c-43-29.4-132.4-61.7-179.8-75.5l-.8-.3a248.1 248.1 0 0 0 6.4-155.8l-174.8-568.6c14.6-15.2 23.3-25.6 23.3-25.6 42.4 27.2 109.7-3.5 137.1-18.2a3.1 3.1 0 0 0-1.5-5.9c-53.6 0-129.9-41.6-129.9-41.6 60.7 16.1 84-1.1 91.8-10.5a3.1 3.1 0 0 0-2.3-5.2c-19.6-.9-86-12.3-134.4-122.4-6.6-15.1-13.6-30-21.2-44.7-14.6-28.2-38.8-72.8-66.6-117.1l1.3-7.1 50-205.4c6.6-27.3-24.5-47.9-47-31.2L1620.9 858l-2.1 2.6-4.9-3.1A240.6 240.6 0 0 0 1559 836l-3.3-.8c10-28.5 40.9-44.3 40.9-44.3-35.9-33.7-100 19.4-100 19.4-37-35.7 17.4-102.7 17.4-102.7-64.8-29.4-112.8 85.4-112.8 85.4-4.7-56.4-86.1-64.9-86.1-64.9 27.1 29.7 13.6 82.9 13.6 82.9-38.1-37.3-110.7-2.4-110.7-2.4 29.7 2.9 48.9 15.7 60.8 28l-3 .8a240.6 240.6 0 0 0-79 39l-131-81.2c-23.3-14.4-52.1 7.3-44.7 33.7l57.5 202.6 4.2 14.9c-13.6 32.5-24.1 61.9-29.8 78.5q-5.3 15.7-12.1 30.8c-40.9 107.2-130.3 143.6-160.1 153.1a3.1 3.1 0 0 0 .1 6c20.6 5.7 72.8 17.4 111-21 0 0-37.3 51.7-83.2 70.2a3.1 3.1 0 0 0 .9 6.1c16.5 1.6 47.9.7 87.8-18.6 0 0-21.7 30.1-40.8 44.4a3.2 3.2 0 0 0 2.3 5.7c15.5-1.7 34.4-5.1 45.5-11.9l.5 12.2c.5 11.7 8.6 24.2 21.3 36.7l-107 561a248.9 248.9 0 0 0 12.6 117.5l-.6.3c-38.1 9.1-130.4 43.4-184.5 78.3-26.5 17.1-10.1 55.9 23.2 55.3l266.9-5.2q6.8 4.1 13.8 7.9l.2 3.4c.4 23.3-6.7 42.4-29.9 43.6-15.6.8-28.2 9.9-30.6 21.1-4.7 21.5 5.8 38.9 27.2 40.4l84.3 5c26.4 1.6 51.9-11.3 65.3-34.1a71.4 71.4 0 0 0 8.8-23.9l5-26.6h533.6l3.5 20.7a71.6 71.6 0 0 0 43.1 54.3 53.5 53.5 0 0 0 22.3 4l91.8-3c22-2.2 30.1-15.7 27.9-36.9-.7-6.9-6.2-24.5-24.5-25.5-15.8-.9-25.2-8.6-28.1-21.9a246.8 246.8 0 0 0 65.4-28.1l261.5 5.1c33.2.3 49.2-37.8 23.1-55.6z" fill="none"></path></clipPath><g clip-path="url(#furClipPath)"><path fill="#ded0ee" d="M715.6 567.3H2225v1824.09H715.6z"></path><path fill="#585666" d="M1181.5 2294.7c1.7-6.6 5.2-56.8 22.7-141.2 10.4-50.5 16.8-83.5 22-105 38.7-162 16.1-179.6 50-276 23.1-65.9 47.1-131.2 111-162 7.6-3.7 65.8-30.8 125-7 57.6 23.1 81.2 80.6 105.3 141.9 29.1 74.1 19.9 99.7 53 285.3 6.9 38.6 13.7 77.2 20.7 115.8 4 22.6 5.9 45.3 10 68 9.4 53.2 11.6 54.1 11.3 56.2-9.7 78.5-486.6 140.6-531 24z"></path></g></g><g id="shadow" style="mix-blend-mode:multiply"><defs><clipPath id="shadowClipPath"><path d="M2200.5 2195.7c-43-29.4-132.4-61.7-179.8-75.5l-.8-.3a248.1 248.1 0 0 0 6.4-155.8l-174.8-568.6c14.6-15.2 23.3-25.6 23.3-25.6 42.4 27.2 109.7-3.5 137.1-18.2a3.1 3.1 0 0 0-1.5-5.9c-53.6 0-129.9-41.6-129.9-41.6 60.7 16.1 84-1.1 91.8-10.5a3.1 3.1 0 0 0-2.3-5.2c-19.6-.9-86-12.3-134.4-122.4-6.6-15.1-13.6-30-21.2-44.7-14.6-28.2-38.8-72.8-66.6-117.1l1.3-7.1 50-205.4c6.6-27.3-24.5-47.9-47-31.2L1620.9 858l-2.1 2.6-4.9-3.1A240.6 240.6 0 0 0 1559 836l-3.3-.8c10-28.5 40.9-44.3 40.9-44.3-35.9-33.7-100 19.4-100 19.4-37-35.7 17.4-102.7 17.4-102.7-64.8-29.4-112.8 85.4-112.8 85.4-4.7-56.4-86.1-64.9-86.1-64.9 27.1 29.7 13.6 82.9 13.6 82.9-38.1-37.3-110.7-2.4-110.7-2.4 29.7 2.9 48.9 15.7 60.8 28l-3 .8a240.6 240.6 0 0 0-79 39l-131-81.2c-23.3-14.4-52.1 7.3-44.7 33.7l57.5 202.6 4.2 14.9c-13.6 32.5-24.1 61.9-29.8 78.5q-5.3 15.7-12.1 30.8c-40.9 107.2-130.3 143.6-160.1 153.1a3.1 3.1 0 0 0 .1 6c20.6 5.7 72.8 17.4 111-21 0 0-37.3 51.7-83.2 70.2a3.1 3.1 0 0 0 .9 6.1c16.5 1.6 47.9.7 87.8-18.6 0 0-21.7 30.1-40.8 44.4a3.2 3.2 0 0 0 2.3 5.7c15.5-1.7 34.4-5.1 45.5-11.9l.5 12.2c.5 11.7 8.6 24.2 21.3 36.7l-107 561a248.9 248.9 0 0 0 12.6 117.5l-.6.3c-38.1 9.1-130.4 43.4-184.5 78.3-26.5 17.1-10.1 55.9 23.2 55.3l266.9-5.2q6.8 4.1 13.8 7.9l.2 3.4c.4 23.3-6.7 42.4-29.9 43.6-15.6.8-28.2 9.9-30.6 21.1-4.7 21.5 5.8 38.9 27.2 40.4l84.3 5c26.4 1.6 51.9-11.3 65.3-34.1a71.4 71.4 0 0 0 8.8-23.9l5-26.6h533.6l3.5 20.7a71.6 71.6 0 0 0 43.1 54.3 53.5 53.5 0 0 0 22.3 4l91.8-3c22-2.2 30.1-15.7 27.9-36.9-.7-6.9-6.2-24.5-24.5-25.5-15.8-.9-25.2-8.6-28.1-21.9a246.8 246.8 0 0 0 65.4-28.1l261.5 5.1c33.2.3 49.2-37.8 23.1-55.6z" fill="none"></path></clipPath><linearGradient id="shadowGradient" x1="1721.47" y1="787.6" x2="1721.47" y2="997.24" gradientUnits="userSpaceOnUse"><stop offset="0" stop-color="gray"></stop><stop offset=".14" stop-color="#797979"></stop><stop offset=".35" stop-color="#646464"></stop><stop offset=".6" stop-color="#434343"></stop><stop offset=".89" stop-color="#141414"></stop><stop offset="1"></stop></linearGradient><linearGradient id="shadowGradient2" x1="1027.09" y1="934.24" x2="1148.15" y2="934.24" href="#shadowGradient" xlink:href="#shadowGradient"></linearGradient></defs><g clip-path="url(#shadowClipPath)"><path d="M1020.9 1433.2c-5.4 0 42.7 35.7 61.5 45.6-25.2 6.1-37.3 68.9-37.4 69.2-20.1 133.2-33.5 328-39.9 378.8a910.2 910.2 0 0 0-6.8 98.4v3.4c23.5 26 47.6 88.8 52.6 176.8l1.3 49s-31.3-.8-81-.8c-62 0-110.8-111.7-79.2-278.2M959.5 1395.5a100.4 100.4 0 0 0 47.6-29 3.4 3.4 0 0 1 5.7 3.2 191.6 191.6 0 0 1-19.6 45.2 5.2 5.2 0 0 1-2 2.2 1.8 1.8 0 0 1-2.5-.7M910.2 1367.1c17.1-4.7 33.2-12.3 49.2-19.9s33.3-16 46.5-27.9a3.4 3.4 0 0 1 5.3 4 132.6 132.6 0 0 1-43.9 49.6M884.9 1312.7c27.6-3.1 55-9.4 80.3-20.8 19.8-8.9 36-22.6 52-37.5a1.7 1.7 0 0 1 2.5 2.2q-13.6 18.2-28.5 35.4c-11.2 12.9-23.9 26.1-40.6 29.7" fill="#7f7f7f" opacity=".2" style="mix-blend-mode:multiply"></path><path d="M1796.7 801.2s-17.5-43.2-81.6 24.2c-33.7 40.5-68.9 54-68.9 54L1749 997.2z" opacity=".4" fill="url(#shadowGradient)" style="mix-blend-mode:multiply"></path><path d="M1027.9 853.3s-9.4-38.9 34.7-20.8c18.5 7.6 50.7 40.6 63.5 56l22 35-65.3 117.3z" opacity=".4" fill="url(#shadowGradient2)" style="mix-blend-mode:multiply"></path><path d="M1226.5 2040.4c-24.3 147.7 54.3 178.3 68.5 181.6 86.5 15.5 223.8 8.8 268.5-7 41.8-14.8 129.9-58.5 108-189.5l43 256.8h-533.6z" fill="#7f7f7f" opacity=".15" style="mix-blend-mode:multiply"></path><path d="M1854.3 2157.4s29.9-91.4 66.3-124.9c-39.4 75 14.1 92.7 28.1 87.7 53.7-19.2 75-66.7 79.2-150l65.3 116.3s-55 256-204 214l-38.7-18.1zM1280.9 847.4a118.7 118.7 0 0 1 28.6 36.3 4.6 4.6 0 0 0 8.8-2.3c-.9-15.5-3.8-30.6-11.8-43.7-15.6-25.4-48.4-36.7-78-32.8-7.6 1-15.8 2.8-22.5-.9M1325 802.3a285.5 285.5 0 0 1 18.7 59.9 4.6 4.6 0 0 0 8.9.8c7.8-20.8 11.4-43.1 8.7-65.1-3.3-27.2-16.8-53.6-38.7-70.1-4.8-3.6-10.7-6.9-16.5-5.3M1401.1 775.5a178.8 178.8 0 0 0 .2 34.4 4.6 4.6 0 0 0 9 1.1c8.4-22.4 22.3-42.7 39.3-59.6 21.8-21.6 48.6-37.7 76.8-49.6-21.7-13.9-51.2-14.2-73.2-.8-7.4 4.5-14.1 10.8-16.8 19M1502.4 779.4a359.3 359.3 0 0 0-10.2 53.5 4.6 4.6 0 0 0 8 3.7c25.1-27 62-42.9 98.9-41.9 2.1.1 4.5.1 5.6-2.8a6.8 6.8 0 0 0 .3-3.4c-1.5-9.9-9.3-17.6-18-22.3a56.2 56.2 0 0 0-45.6-3.3" fill="#7f7f7f" opacity=".2" style="mix-blend-mode:multiply"></path><path d="M1087.2 1037.5s44.1-157.9 191.6-200.7l17 25.4c-81.5 23.6-167.5 135.3-182.2 181.3s-55.7 135.7-124.7 198.5" fill="#7f7f7f" opacity=".2" style="mix-blend-mode:multiply"></path></g></g><g id="highlight" style="mix-blend-mode:overlay"><defs><clipPath id="highlightClipPath"><path d="M2200.5 2195.7c-43-29.4-132.4-61.7-179.8-75.5l-.8-.3a248.1 248.1 0 0 0 6.4-155.8l-174.8-568.6c14.6-15.2 23.3-25.6 23.3-25.6 42.4 27.2 109.7-3.5 137.1-18.2a3.1 3.1 0 0 0-1.5-5.9c-53.6 0-129.9-41.6-129.9-41.6 60.7 16.1 84-1.1 91.8-10.5a3.1 3.1 0 0 0-2.3-5.2c-19.6-.9-86-12.3-134.4-122.4-6.6-15.1-13.6-30-21.2-44.7-14.6-28.2-38.8-72.8-66.6-117.1l1.3-7.1 50-205.4c6.6-27.3-24.5-47.9-47-31.2L1620.9 858l-2.1 2.6-4.9-3.1A240.6 240.6 0 0 0 1559 836l-3.3-.8c10-28.5 40.9-44.3 40.9-44.3-35.9-33.7-100 19.4-100 19.4-37-35.7 17.4-102.7 17.4-102.7-64.8-29.4-112.8 85.4-112.8 85.4-4.7-56.4-86.1-64.9-86.1-64.9 27.1 29.7 13.6 82.9 13.6 82.9-38.1-37.3-110.7-2.4-110.7-2.4 29.7 2.9 48.9 15.7 60.8 28l-3 .8a240.6 240.6 0 0 0-79 39l-131-81.2c-23.3-14.4-52.1 7.3-44.7 33.7l57.5 202.6 4.2 14.9c-13.6 32.5-24.1 61.9-29.8 78.5q-5.3 15.7-12.1 30.8c-40.9 107.2-130.3 143.6-160.1 153.1a3.1 3.1 0 0 0 .1 6c20.6 5.7 72.8 17.4 111-21 0 0-37.3 51.7-83.2 70.2a3.1 3.1 0 0 0 .9 6.1c16.5 1.6 47.9.7 87.8-18.6 0 0-21.7 30.1-40.8 44.4a3.2 3.2 0 0 0 2.3 5.7c15.5-1.7 34.4-5.1 45.5-11.9l.5 12.2c.5 11.7 8.6 24.2 21.3 36.7l-107 561a248.9 248.9 0 0 0 12.6 117.5l-.6.3c-38.1 9.1-130.4 43.4-184.5 78.3-26.5 17.1-10.1 55.9 23.2 55.3l266.9-5.2q6.8 4.1 13.8 7.9l.2 3.4c.4 23.3-6.7 42.4-29.9 43.6-15.6.8-28.2 9.9-30.6 21.1-4.7 21.5 5.8 38.9 27.2 40.4l84.3 5c26.4 1.6 51.9-11.3 65.3-34.1a71.4 71.4 0 0 0 8.8-23.9l5-26.6h533.6l3.5 20.7a71.6 71.6 0 0 0 43.1 54.3 53.5 53.5 0 0 0 22.3 4l91.8-3c22-2.2 30.1-15.7 27.9-36.9-.7-6.9-6.2-24.5-24.5-25.5-15.8-.9-25.2-8.6-28.1-21.9a246.8 246.8 0 0 0 65.4-28.1l261.5 5.1c33.2.3 49.2-37.8 23.1-55.6z" fill="none"></path></clipPath><linearGradient id="highlightGradient" x1="1982.16" y1="2256.39" x2="1982.16" y2="1369.83" gradientUnits="userSpaceOnUse"><stop offset="0" stop-color="#fff" stop-opacity="0"></stop><stop offset=".72" stop-color="#fff"></stop></linearGradient><linearGradient id="highlightGradient2" x1="2116.32" y1="2248.97" x2="2116.32" y2="2113.28" href="#highlightGradient" xlink:href="#highlightGradient"></linearGradient><linearGradient id="highlightGradient3" x1="1044.74" y1="2253.08" x2="1044.74" y2="2117.39" gradientTransform="matrix(-1 0 0 1 1878.82 0)" href="#highlightGradient" xlink:href="#highlightGradient"></linearGradient><linearGradient id="highlightGradient4" x1="1841.6" y1="1322.67" x2="2023.46" y2="1322.67" href="#highlightGradient" xlink:href="#highlightGradient"></linearGradient><linearGradient id="highlightGradient5" x1="1540.47" y1="1061.99" x2="1985.64" y2="1061.99" href="#highlightGradient" xlink:href="#highlightGradient"></linearGradient><linearGradient id="highlightGradient6" x1="916.62" y1="1844.05" x2="1050.67" y2="1844.05" href="#highlightGradient" xlink:href="#highlightGradient"></linearGradient></defs><g clip-path="url(#highlightClipPath)" opacity=".3"><path d="M1822.2 1426.8c65.5 192.8 120.8 423.9 147.8 543.6 46.1 204.7-81.2 286-81.2 286l61.1-35.5s63-74.8 72.5-107.6c20.8-71.9 139-33 117.2-147.7-31.7-166.5-264.8-595.8-264.8-595.8s-53.8 53.6-52.6 57z" fill="url(#highlightGradient)" style="mix-blend-mode:overlay"></path><path d="M1999.2 2162.4s113.2 21.1 98.4 83.6l92.6 3 43.3-6.5-4.3-68.5-206.8-60.7z" fill="url(#highlightGradient2)"></path><path d="M951.2 2166.5s-113.2 21.1-98.4 83.6l-92.6 3-43.3-6.5 4.3-68.5 206.8-60.7z" opacity=".7" fill="url(#highlightGradient3)"></path><path d="M1898.6 1313.5a235 235 0 0 1-53.2-24.9 2.4 2.4 0 0 0-3.2 3.6c27.3 32 63 57.8 104.3 63.6 19.5 2.7 39.3.9 58.9-1.1 6.3-.6 12.9-1.4 18-5.2" fill="url(#highlightGradient4)" style="mix-blend-mode:overlay"></path><path d="M1985.6 1289.8a142.1 142.1 0 0 1-45.5 1c-43.6-6.1-82.5-32.5-111.3-65.8s-43.7-73.3-61.6-113.5a1039.6 1039.6 0 0 0-62.4-118.9 385.5 385.5 0 0 0-119.4-121.9c-8-5.1-39.4-16.4-45-24 0 0-.7-5 4.8-12.7s38.4 6.5 46.3 11c96 55 89.3 67 132.5 130 37.1 54.2 90.1 146.5 126.3 221.4" fill="url(#highlightGradient5)" style="mix-blend-mode:overlay"></path><path d="M1041.7 1452l-93.6 502.5s-53.5 175 102.2 279l.3 20.2s-124.5-57.2-133.5-215.2 100-604 100-604z" fill="url(#highlightGradient6)" style="mix-blend-mode:overlay"></path></g></g><g id="bodyMask"><path d="M2200.5 2195.7c-43-29.4-132.4-61.7-179.8-75.5l-.8-.3a248.1 248.1 0 0 0 6.4-155.8l-174.8-568.6c14.6-15.2 23.3-25.6 23.3-25.6 42.4 27.2 109.7-3.5 137.1-18.2a3.1 3.1 0 0 0-1.5-5.9c-53.6 0-129.9-41.6-129.9-41.6 60.7 16.1 84-1.1 91.8-10.5a3.1 3.1 0 0 0-2.3-5.2c-19.6-.9-86-12.3-134.4-122.4-6.6-15.1-13.6-30-21.2-44.7-14.6-28.2-38.8-72.8-66.6-117.1l1.3-7.1 50-205.4c6.6-27.3-24.5-47.9-47-31.2L1620.9 858l-2.1 2.6-4.9-3.1A240.6 240.6 0 0 0 1559 836l-3.3-.8c10-28.5 40.9-44.3 40.9-44.3-35.9-33.7-100 19.4-100 19.4-37-35.7 17.4-102.7 17.4-102.7-64.8-29.4-112.8 85.4-112.8 85.4-4.7-56.4-86.1-64.9-86.1-64.9 27.1 29.7 13.6 82.9 13.6 82.9-38.1-37.3-110.7-2.4-110.7-2.4 29.7 2.9 48.9 15.7 60.8 28l-3 .8a240.6 240.6 0 0 0-79 39l-131-81.2c-23.3-14.4-52.1 7.3-44.7 33.7l57.5 202.6 4.2 14.9c-13.6 32.5-24.1 61.9-29.8 78.5q-5.3 15.7-12.1 30.8c-40.9 107.2-130.3 143.6-160.1 153.1a3.1 3.1 0 0 0 .1 6c20.6 5.7 72.8 17.4 111-21 0 0-37.3 51.7-83.2 70.2a3.1 3.1 0 0 0 .9 6.1c16.5 1.6 47.9.7 87.8-18.6 0 0-21.7 30.1-40.8 44.4a3.2 3.2 0 0 0 2.3 5.7c15.5-1.7 34.4-5.1 45.5-11.9l.5 12.2c.5 11.7 8.6 24.2 21.3 36.7l-107 561a248.9 248.9 0 0 0 12.6 117.5l-.6.3c-38.1 9.1-130.4 43.4-184.5 78.3-26.5 17.1-10.1 55.9 23.2 55.3l266.9-5.2q6.8 4.1 13.8 7.9l.2 3.4c.4 23.3-6.7 42.4-29.9 43.6-15.6.8-28.2 9.9-30.6 21.1-4.7 21.5 5.8 38.9 27.2 40.4l84.3 5c26.4 1.6 51.9-11.3 65.3-34.1a71.4 71.4 0 0 0 8.8-23.9l5-26.6h533.6l3.5 20.7a71.6 71.6 0 0 0 43.1 54.3 53.5 53.5 0 0 0 22.3 4l91.8-3c22-2.2 30.1-15.7 27.9-36.9-.7-6.9-6.2-24.5-24.5-25.5-15.8-.9-25.2-8.6-28.1-21.9a246.8 246.8 0 0 0 65.4-28.1l261.5 5.1c33.2.3 49.2-37.8 23.1-55.6z" fill="none"></path></g><g id="body"><path fill="none" stroke="#31323d" stroke-width="12.5" stroke-miterlimit="10" d="M1620.8 858.1l131.2-97.4c22.5-16.7 53.7 3.9 47 31.2l-50 205.4-1.3 7.1m-550.9-127.9l-131-81.2c-23.3-14.4-52.1 7.3-44.7 33.7l57.5 202.6 4.2 14.9" stroke-linecap="round"></path><path fill="#fff" stroke="#31323d" stroke-width="12.5" stroke-miterlimit="10" d="M1714.5 2282.4h-533.6" stroke-linecap="round"></path><path fill="none" stroke="#31323d" stroke-width="12.5" stroke-miterlimit="10" d="M1851.5 1395.4l174.8 568.6c39 137.9-45.2 275-175.8 309.9m-799.8-20.2c-89.2-47.1-145.7-146.2-131.5-254.1l106.3-558.8" stroke-linecap="round"></path><path fill="#31323d" d="M1228.6 2040.8c-1.7 15.3-3.8 30.4-6 45.6l-3.5 22.7-3.8 22.6c-2.6 15.1-5.4 30.1-8.1 45.2l-8.3 45.1-16.6 90.3a76.3 76.3 0 0 1-3.5 12.1 77.5 77.5 0 0 1-5.4 11.4 75.5 75.5 0 0 1-16 19.4 78.7 78.7 0 0 1-45.9 18.8l-6.3.2h-6.1l-11.5-.7-22.9-1.3-45.8-2.8h-4.7l-1.8-.3a44.1 44.1 0 0 1-6.7-1.7 35.7 35.7 0 0 1-12.3-7.3 34.7 34.7 0 0 1-8.3-11.7 40.4 40.4 0 0 1-3.1-13.5 50.7 50.7 0 0 1 1-13.2l.2-.8v-1.7l.3-1.1a26.9 26.9 0 0 1 1.5-3.6 30.2 30.2 0 0 1 4.1-6.2 37.9 37.9 0 0 1 11-8.8 45.9 45.9 0 0 1 12.7-4.5 49 49 0 0 1 6.6-.9l2.7-.2 2.1-.3a22 22 0 0 0 4.3-1.2 18.5 18.5 0 0 0 3.8-1.9c4.6-3 7.7-8.4 9.4-14.8a70.5 70.5 0 0 0 1.8-20.8l-.9-22.9-1.9-45.9c-.6-15.3-1.3-30.6-1.8-45.9v.5c-.6-5-1.3-9.9-2-14.9-.4-2.5-.8-4.9-1.2-7.4s-.9-4.9-1.4-7.3-1-4.9-1.6-7.3l-1.8-7.2q-1.9-7.2-4.4-14.2c-.8-2.3-1.7-4.6-2.6-6.9s-1.8-4.6-2.9-6.8l-1.5-3.4-1.6-3.3-1.7-3.3-1.8-3.3-1.8-3.2-1.9-3.2-4-6.3c-1.4-2.1-2.8-4.1-4.3-6.2l-2.2-3-2.3-3a2.2 2.2 0 0 1 3.4-2.9l5.4 5.6q2.6 2.9 5.1 5.9c1.7 2 3.3 4 4.8 6.1l2.3 3.2 2.2 3.2c1.5 2.2 2.9 4.3 4.2 6.6l2 3.4 1.9 3.4q1.9 3.4 3.5 7c1.1 2.4 2.2 4.7 3.2 7.2q3 7.2 5.4 14.7c1.6 5 3 10 4.2 15q.9 3.8 1.7 7.6c.5 2.5 1.1 5.1 1.5 7.6.9 5.1 1.7 10.2 2.4 15.3v.5c.9 15.3 1.6 30.6 2.4 45.8l2.3 45.8 1.1 22.9a94.4 94.4 0 0 1-.1 12.3 71.8 71.8 0 0 1-1.9 12.5 54.5 54.5 0 0 1-2 6.3 42.8 42.8 0 0 1-3.1 6.2 33.3 33.3 0 0 1-9.8 10.4 35.1 35.1 0 0 1-13.2 5.3l-3.5.5-3 .2a35 35 0 0 0-4.7.6 31.9 31.9 0 0 0-8.8 3.2 23.9 23.9 0 0 0-6.9 5.5 16.1 16.1 0 0 0-2.2 3.3 13 13 0 0 0-1.2 3.7 36.6 36.6 0 0 0-.7 9.6 26.2 26.2 0 0 0 2 8.7 20.4 20.4 0 0 0 4.9 6.9 21.4 21.4 0 0 0 7.3 4.3 30.1 30.1 0 0 0 4.4 1.1l1 .2h3.9l45.8 2.7 22.9 1.4 11.5.7h10.5a64.5 64.5 0 0 0 37.6-15.2 61.4 61.4 0 0 0 13.1-15.7 65 65 0 0 0 7.4-19.2l17.4-90.1 8.7-45.1c2.9-15 5.8-30 8.8-45l4.7-22.5 5-22.4c3.4-14.9 7-29.8 11-44.6a2.2 2.2 0 0 1 4.9.6z"></path><path fill="#31323d" d="M1095.2 2319.6h-.5l-1.7.2a18.6 18.6 0 0 0-5.8 2 22.5 22.5 0 0 0-6.7 5.5 30.2 30.2 0 0 0-2.9 4 38.9 38.9 0 0 0-2.4 4.6l-.5 1.2-.5 1.2-.5 1.2-.4 1.3c-.5 1.7-.9 3.4-1.3 5l-.5 2.4c-.2.8-.3 1.6-.4 2.4s-.4 3-.6 4.4-.2 2.6-.3 3.7-.1 2.1-.2 2.9v2.7a6.3 6.3 0 1 1-12.5-.6 6.9 6.9 0 0 1 .1-.8l.5-2.7c.2-.9.3-1.9.6-3.1s.5-2.6.9-4.1.8-3.1 1.3-4.8l.8-2.6.9-2.7c.7-1.8 1.4-3.7 2.3-5.5l.6-1.4.7-1.4.7-1.4.8-1.4a46.9 46.9 0 0 1 3.6-5.2 37.5 37.5 0 0 1 4.2-4.5 28.8 28.8 0 0 1 9.4-5.8 23.9 23.9 0 0 1 7.7-1.5h3.1a2.2 2.2 0 1 1-.5 4.8zm-42.5-4.7h-.6l-1.6.4-2.5.9-.7.3-.8.4-1.6.9-1.7 1.1-1.7 1.3-.9.7-.8.8-1.6 1.7-1.5 2-.7 1-.6 1.1-1.3 2.2-1.1 2.4c-.3.8-.7 1.6-1 2.4l-.8 2.5-.8 2.4-.6 2.5a42.3 42.3 0 0 0-1 4.7l-.6 4.3a35.4 35.4 0 0 0-.3 3.7l-.2 2.8-.2 2.5v.4a6.3 6.3 0 1 1-12.5-.8 6.9 6.9 0 0 1 .1-.8l.5-2.7.6-3.1c.3-1.2.4-2.5.9-4l1.3-4.7a51.3 51.3 0 0 1 1.8-5.2l1-2.7 1.3-2.7 1.3-2.7c.5-.9 1.1-1.8 1.6-2.7l1.7-2.6 1.9-2.4.9-1.2 1.1-1.1 2.1-2.1 2.2-1.8 1.1-.9 1.2-.7 2.2-1.4 2.2-1.1 2.1-.8 1-.4 1-.3a26.5 26.5 0 0 1 3.2-.7l2.2-.2h.8a2.2 2.2 0 1 1 .4 4.4zm621-289.7l2.2 9.4c1.4 6.1 3.4 15.1 5.8 26.6 1.2 5.7 2.5 12.1 3.9 19l4.4 22.5 4.8 25.6 5 28.4 23.3 135.3c1.1 6.1 2 12.8 3.6 17.8a63.3 63.3 0 0 0 7.2 15.7 65.1 65.1 0 0 0 25.9 23.4l4.1 1.9 1.1.4 1 .4 2 .7a45.4 45.4 0 0 0 8.4 1.7l4.3.3h4.6l10-.3 40.1-1.4 39.4-1.2 2.5-.3 1.2-.2.9-.2 1.9-.4 1.9-.6a21.7 21.7 0 0 0 6.5-3.5 17 17 0 0 0 4.3-5.4c.2-.6.6-1.1.7-1.7l.6-1.8a30.4 30.4 0 0 0 .8-3.9 37.8 37.8 0 0 0 .4-4.1v-2.1s0-1.4-.1-2.2l-.2-2.2v-.3a.3.3 0 1 1 0-.1v-1.6l-.2-.8-.2-.9c-.1-.6-.4-1.3-.6-1.9-1.7-5-4.7-9.3-8.4-11.7a17.3 17.3 0 0 0-6.4-2.3l-1.8-.2-2.6-.2h-1.2l-1.5-.2-2.9-.5a39.5 39.5 0 0 1-10.9-4.2 30.1 30.1 0 0 1-9.1-8 34 34 0 0 1-5.3-10.4 47.2 47.2 0 0 1-1.9-10.7c-.1-.9-.1-1.7-.1-2.6v-7.2l.2-9.1.8-35.4.2-8.6v-4.6l.3-4.2.3-4.2c.1-1.4.2-2.7.4-4.2l1-8.4a250.4 250.4 0 0 1 6.4-31.5 277 277 0 0 1 9.1-28l2.7-6.4c.9-2.1 1.7-4.2 2.7-6.2l2.8-5.9c.9-1.9 1.8-3.9 2.8-5.7l2.9-5.4 1.4-2.6 1.5-2.5 2.9-4.9c.9-1.6 1.8-3.2 2.8-4.7l5.6-8.7 5.4-7.7 2.6-3.5 2.5-3.2c1.6-2.1 3.1-4.1 4.6-5.8l4.1-4.9 3.5-4 6.6-7.1a2.2 2.2 0 0 1 3.4 2.8l-5.6 7.8c-3.6 5.1-8.8 12.6-14.9 22.5l-4.7 7.8-4.8 8.8c-.9 1.5-1.7 3.1-2.5 4.7l-2.5 4.9-1.3 2.5-1.2 2.6-2.5 5.4a290.9 290.9 0 0 0-17.7 50.6l-.9 3.6-.4 1.8-.4 1.8-1.5 7.4-.4 1.9-.3 1.9-.6 3.8-.6 3.9-.3 1.9-.2 1.9-.9 7.8c-.2 1.3-.2 2.7-.3 4.1l-.3 4.2-.3 4.2v12.5l-.5 35.4v15.8s0 1.4.1 2a33.7 33.7 0 0 0 1.4 7.5 20.3 20.3 0 0 0 3.2 6.2c2.7 3.6 6.9 5.8 12 6.9l1.8.3.9.2h1.2l2.2.2 3 .3a31.3 31.3 0 0 1 11.7 4.2 31.8 31.8 0 0 1 9 8.5 40.3 40.3 0 0 1 5.4 10.5c.3.9.6 1.8.8 2.8l.4 1.4.3 1.6v2.9l.2 2.7c.1.9.1 1.8.1 2.8s.1 1.8 0 2.8a52 52 0 0 1-.5 5.7 44.4 44.4 0 0 1-1.2 5.8l-1 2.9c-.3 1-.8 1.9-1.3 2.9a31.3 31.3 0 0 1-7.9 10.1 35.8 35.8 0 0 1-10.9 6l-2.8.9-3 .7-1.5.3-1.3.2-2.5.3h-5.7l-5 .2-10 .4-20.1.7-40.1 1.3-10 .3h-5.4l-5.6-.4a59.7 59.7 0 0 1-11-2.3l-2.7-.9-1.4-.5-1.2-.5-4.9-2.3a79.2 79.2 0 0 1-31.4-28.6 77.2 77.2 0 0 1-8.7-19.2l-.7-2.6-.3-1.3c-.1-.4-.2-.9-.3-1.3l-.5-2.3-.2-1.2v-1.4l-1.5-9.3-22-135.6-4.5-28.5-3.8-25.7-3.2-22.7c-1-7-1.8-13.4-2.5-19.3-1.5-11.6-2.5-20.8-3.2-27.1l-1-9.6a2.2 2.2 0 0 1 3.8-.6z"></path><path fill="#31323d" d="M1783.2 2307.4h3.2a34.8 34.8 0 0 1 8 1.7 33.5 33.5 0 0 1 5.1 2.1 34.2 34.2 0 0 1 5.3 3.3 37.9 37.9 0 0 1 5 4.5c.7.9 1.5 1.7 2.2 2.7l1 1.4 1 1.5a46.8 46.8 0 0 1 3.3 6.1 56.5 56.5 0 0 1 2.4 6.2c.4 1 .6 2 .9 3s.5 2 .7 2.9l.6 2.8.4 2.6c.3 1.7.4 3.2.6 4.6s.3 2.5.3 3.5l.2 3.1a6.3 6.3 0 0 1-12.5.8 6.4 6.4 0 0 1 0-.7v-.3l.2-2.7c.1-.9.1-1.9.1-3.1s.1-2.6 0-4v-2.3l-.2-2.4c-.1-.8-.2-1.7-.3-2.5s-.2-1.8-.4-2.6a47.1 47.1 0 0 0-1.3-5.3 38.1 38.1 0 0 0-2.1-5.2l-.6-1.3-.7-1.2c-.4-.8-1-1.6-1.5-2.3a30.5 30.5 0 0 0-3.5-4.1 29.3 29.3 0 0 0-8-5.5 29.5 29.5 0 0 0-6.6-2.2l-1.9-.3h-.7a2.2 2.2 0 0 1-.2-4.8zm50.6-3.2h3.2a34.8 34.8 0 0 1 8 1.7 33.5 33.5 0 0 1 5.1 2.1 34.2 34.2 0 0 1 5.3 3.3 37.9 37.9 0 0 1 5 4.5c.7.9 1.5 1.7 2.2 2.7l1 1.4 1 1.5a46.8 46.8 0 0 1 3.3 6.1 56.6 56.6 0 0 1 2.4 6.2c.4 1 .6 2 .9 3s.5 2 .7 2.9l.6 2.8.4 2.6c.3 1.7.4 3.2.6 4.6s.3 2.5.3 3.5l.2 3.1a6.3 6.3 0 1 1-12.5.1v-.3l.2-2.7c.1-.9.1-1.9.1-3.1s.1-2.6 0-4v-2.3l-.2-2.4c-.1-.8-.2-1.7-.3-2.5s-.2-1.8-.4-2.6a47.1 47.1 0 0 0-1.3-5.3 38 38 0 0 0-2.1-5.2l-.6-1.3-.7-1.2c-.4-.8-1-1.6-1.5-2.3a30.5 30.5 0 0 0-3.5-4.1 29.3 29.3 0 0 0-8-5.5 29.5 29.5 0 0 0-6.6-2.2l-1.9-.3h-.7a2.2 2.2 0 0 1-.2-4.8z"></path><path fill="none" stroke="#31323d" stroke-width="12.5" stroke-miterlimit="10" d="M931.3 2117.4c-38.1 9.1-130.4 43.4-184.5 78.3-26.5 17.1-10.1 55.9 23.2 55.3l280.4-5.5" stroke-linecap="round"></path><path fill="#31323d" d="M840.5 2200.1l-.7.2-2 .6-3.1 1-4 1.5-4.5 2.1a49.4 49.4 0 0 0-4.7 2.8 36 36 0 0 0-4.4 3.5 26.3 26.3 0 0 0-3.7 4.2l-.8 1.1-.7 1.2a21.4 21.4 0 0 0-1.1 2.4c-.2.4-.3.8-.4 1.2a8.9 8.9 0 0 0-.3 1.2 18.1 18.1 0 0 0-.4 2.4v3.6c0 .4.1.8.1 1.2a15.6 15.6 0 0 0 .3 2.2c.2.7.3 1.4.5 2.1a36.6 36.6 0 0 0 1.2 3.6 29.8 29.8 0 0 0 1.2 2.8l1.2 2.4.2.3a6.3 6.3 0 0 1-11.3 5.5l-.3-.7-1.1-3.1c-.4-1-.7-2.2-1.1-3.7a48 48 0 0 1-1-4.9c-.1-.9-.2-1.9-.3-2.9a24.9 24.9 0 0 1-.1-3.2v-1.7l.2-1.7c.1-.6.1-1.2.2-1.7l.4-1.8a27.7 27.7 0 0 1 1-3.5 16.1 16.1 0 0 1 .7-1.7l.8-1.7a30.5 30.5 0 0 1 2-3.2l1.1-1.5 1.2-1.4a34.5 34.5 0 0 1 5.4-4.9 43.4 43.4 0 0 1 5.8-3.6 56.1 56.1 0 0 1 5.7-2.6l5.2-1.8 4.4-1.2 3.5-.7 2.3-.3h.8a2.2 2.2 0 0 1 .8 4.4h-.1zm-47.5 2h-.6l-1.7.5a38.1 38.1 0 0 0-5.9 2.5 32.6 32.6 0 0 0-3.6 2.2 29.2 29.2 0 0 0-3.5 2.9 23.5 23.5 0 0 0-2.9 3.7 18.7 18.7 0 0 0-2 4.2 21.2 21.2 0 0 0-.6 2.2c-.1.8-.3 1.5-.3 2.3a24.7 24.7 0 0 0 .1 4.6 34.5 34.5 0 0 0 .8 4.3c.4 1.4.7 2.7 1.2 3.9l.6 1.7.7 1.5.6 1.3.6 1.1 1.1 2.1v.2a6.3 6.3 0 0 1-11.2 5.6l-.3-.8-.9-2.7-.5-1.4-.5-1.7-.5-1.9c-.2-.7-.3-1.4-.5-2.2s-.6-3.3-.8-5.1a44.7 44.7 0 0 1-.2-5.9 34.2 34.2 0 0 1 .8-6.3c.2-1.1.6-2.1.9-3.2a29.7 29.7 0 0 1 1.3-3.1 26.9 26.9 0 0 1 3.6-5.6 31 31 0 0 1 4.5-4.3 35.8 35.8 0 0 1 4.8-3 38.6 38.6 0 0 1 4.6-2 43.3 43.3 0 0 1 7.1-2l2-.3h.8a2.2 2.2 0 0 1 .8 4.4h-.4z"></path><path fill="none" stroke="#31323d" stroke-width="12.5" stroke-miterlimit="10" d="M2020.7 2120.2c47.5 13.8 136.8 46.1 179.8 75.5 26.1 17.8 10.1 55.9-23.2 55.3l-261.6-5.1" stroke-linecap="round"></path><path fill="#31323d" d="M2107.6 2193.7h.8l2.3.4 3.5.8 4.5 1.4 5.2 2a58.4 58.4 0 0 1 5.6 2.8 45.8 45.8 0 0 1 5.7 3.8 36.7 36.7 0 0 1 5.3 5.1l1.2 1.5 1.1 1.6a31 31 0 0 1 1.9 3.3c.3.6.5 1.2.8 1.7s.5 1.2.7 1.8l.6 1.8.3.9.2.9a26.4 26.4 0 0 1 .6 3.5 25.1 25.1 0 0 1 .2 3.4 42.1 42.1 0 0 1-.4 6.2 50.3 50.3 0 0 1-1 5c-.4 1.5-.7 2.8-1.1 3.7l-1.1 3.2a6.3 6.3 0 0 1-11.8-4.1l.3-.7.2-.3 1.2-2.4c.4-.8.7-1.7 1.2-2.8s.8-2.3 1.2-3.7a31.5 31.5 0 0 0 .8-4.4 15.7 15.7 0 0 0 .1-2.4 16.7 16.7 0 0 0-.1-2.5v-1.2l-.2-1.3c-.1-.4-.2-.8-.4-1.3a12.8 12.8 0 0 0-.4-1.3 21.8 21.8 0 0 0-1.1-2.5l-.7-1.2-.8-1.2a28.5 28.5 0 0 0-3.7-4.4 38.4 38.4 0 0 0-4.4-3.8 51.5 51.5 0 0 0-4.7-3l-4.5-2.3a66.6 66.6 0 0 0-7.1-2.9l-2-.6-.7-.2h-.1a2.2 2.2 0 0 1 .8-4.3zm47.5 2h.8l2.1.4a44.7 44.7 0 0 1 7.1 2.4 40.4 40.4 0 0 1 4.5 2.3 38.2 38.2 0 0 1 4.7 3.3 33.1 33.1 0 0 1 4.4 4.5 30 30 0 0 1 4.8 8.8c.4 1.1.6 2.2.9 3.2s.4 2.2.6 3.3.3 2.2.2 3.2.1 2.1 0 3.1l-.2 2.9c-.3 1.8-.5 3.6-.8 5.2l-.5 2.3-.6 2-.5 1.8-.5 1.4-.9 2.7a6.3 6.3 0 0 1-11.8-4.1l.3-.7v-.3l1.1-2.2.6-1.2.6-1.4.7-1.6.6-1.7c.5-1.2.8-2.6 1.2-4l.4-2.2c.2-.7.2-1.5.3-2.3s.1-1.5.1-2.3-.1-1.6-.1-2.4-.2-1.6-.3-2.4a20.2 20.2 0 0 0-.6-2.3 20.6 20.6 0 0 0-2-4.4 25.7 25.7 0 0 0-2.9-3.9 31.5 31.5 0 0 0-3.5-3.2 34.4 34.4 0 0 0-3.6-2.4 39.4 39.4 0 0 0-5.9-2.9l-1.7-.6-.6-.2h-.1a2.2 2.2 0 0 1 1.1-4.1zM1290.8 864.6a52.1 52.1 0 0 0-2.3-5.3c-.9-1.8-1.8-3.5-2.9-5.2a80.7 80.7 0 0 0-6.9-9.6 79.4 79.4 0 0 0-17.5-15.6 81.2 81.2 0 0 0-21-9.8 90 90 0 0 0-11.3-2.7l-5.8-.8-5.8-.5h-.1a6.2 6.2 0 0 1-2-11.8l3.6-1.6 3.5-1.5 7.1-2.7q7.1-2.5 14.5-4.5a152.8 152.8 0 0 1 30.1-5 94.5 94.5 0 0 1 31.1 3 69.1 69.1 0 0 1 7.6 2.6 63.5 63.5 0 0 1 14.1 8 68.6 68.6 0 0 1 6.2 5.3l-10.4 2.9.5-2.4.5-2.5c.3-1.7.6-3.4.8-5.1.5-3.4.8-6.9 1.1-10.4a117.4 117.4 0 0 0-.4-20.6 78.3 78.3 0 0 0-4.6-19.6 52.4 52.4 0 0 0-10-16.5l-.2-.3a6.2 6.2 0 0 1 5.5-10.2l3.9.6 3.7.7 7.4 1.6q7.3 1.8 14.5 4.2a129.1 129.1 0 0 1 27.5 12.9c8.6 5.5 16.6 12.5 22.6 21.2a64.3 64.3 0 0 1 4 6.8 59.9 59.9 0 0 1 3.1 7.3 59.1 59.1 0 0 1 2.1 7.6 65.8 65.8 0 0 1 1 7.8l-8.6-1.4c1.3-3.2 2.7-6.2 4.1-9.2s2.9-6 4.5-8.9q4.6-8.8 9.9-17.4c3.5-5.7 7.3-11.2 11.3-16.6a166.5 166.5 0 0 1 13.1-15.5c2.3-2.5 4.8-4.8 7.4-7.1a99.5 99.5 0 0 1 8.1-6.5 87 87 0 0 1 8.9-5.6 67.5 67.5 0 0 1 9.7-4.4 60.2 60.2 0 0 1 10.5-2.7 53.1 53.1 0 0 1 11-.6 55.9 55.9 0 0 1 10.9 1.5 67.3 67.3 0 0 1 10.3 3.5 6.1 6.1 0 0 1 2.4 9.5v.2l-2 2.6-2 2.8-3.9 5.7q-3.8 5.7-7.1 11.7a128.7 128.7 0 0 0-10.7 24.8c-2.6 8.5-3.8 17.2-2.8 25.4a36.4 36.4 0 0 0 3.5 11.6 35.4 35.4 0 0 0 3.1 5.1 41.8 41.8 0 0 0 4 4.6l-8.3-.3 2.9-2.3 2.9-2.1 5.8-4.1q5.9-4 12.1-7.5a141.4 141.4 0 0 1 26.3-11.8 90 90 0 0 1 14.4-3.4 64.6 64.6 0 0 1 15.3-.5 49 49 0 0 1 15.3 3.9 46.2 46.2 0 0 1 7 3.8 51.8 51.8 0 0 1 6.2 4.9 6.2 6.2 0 0 1-1.7 10.2h-.4l-2.4 1-2.5 1.1-5 2.4q-5 2.5-9.7 5.5a116.9 116.9 0 0 0-17.8 13.2 68.7 68.7 0 0 0-13.8 16.9 42.5 42.5 0 0 0-5.7 20.7 2.5 2.5 0 0 1-5 .2 49.6 49.6 0 0 1-.1-6.1 48 48 0 0 1 2.3-12.1 52.5 52.5 0 0 1 2.2-5.7 76.4 76.4 0 0 1 13.8-20 126.5 126.5 0 0 1 18.1-15.9q4.8-3.5 10-6.7l5.2-3.1 2.7-1.5 2.8-1.4-1.8 10.3a39.4 39.4 0 0 0-4.6-3.6 33.7 33.7 0 0 0-5.1-2.8 36.5 36.5 0 0 0-11.4-2.9c-8-.7-16.5.7-24.7 3.4a129.1 129.1 0 0 0-24 10.8q-5.8 3.3-11.3 7l-5.5 3.8-2.7 2-2.5 2h-.1a6.2 6.2 0 0 1-8.3-.4 54.1 54.1 0 0 1-5.4-6.1 47.9 47.9 0 0 1-4.3-7 48.9 48.9 0 0 1-4.7-15.5 63.6 63.6 0 0 1 0-15.7 88.7 88.7 0 0 1 3.2-14.9 141 141 0 0 1 11.8-27.3q3.6-6.4 7.6-12.6l4.1-6.1 2.2-3 2.3-3 2.3 9.6a55.1 55.1 0 0 0-8.2-3 43.7 43.7 0 0 0-8.5-1.4 41.1 41.1 0 0 0-8.6.3 48.4 48.4 0 0 0-8.5 2 56 56 0 0 0-8.2 3.5 75.8 75.8 0 0 0-7.8 4.7 88.6 88.6 0 0 0-7.3 5.6c-2.4 2-4.7 4.1-6.9 6.3a156 156 0 0 0-12.6 14.2c-3.9 5-7.6 10.2-11.1 15.6s-6.8 10.9-9.9 16.5q-2.3 4.2-4.5 8.5c-1.4 2.8-2.9 5.8-4.1 8.6a4.5 4.5 0 0 1-8.6-1.4 56.8 56.8 0 0 0-1.1-6.6 49.8 49.8 0 0 0-1.9-6.4 50.4 50.4 0 0 0-2.8-6 54.6 54.6 0 0 0-3.6-5.6 67.5 67.5 0 0 0-20.2-17.7 118 118 0 0 0-25.5-11c-4.5-1.4-9-2.5-13.6-3.5l-6.9-1.3-3.4-.5-3.3-.4 5.3-10.4a64.9 64.9 0 0 1 12.5 20.5 90.7 90.7 0 0 1 5.4 22.7 129.8 129.8 0 0 1 .4 22.9q-.4 5.7-1.2 11.3-.4 2.8-.9 5.6l-.5 2.8c-.2 1-.4 1.8-.7 2.9a6.2 6.2 0 0 1-10.3 3h-.1a56.2 56.2 0 0 0-4.9-4.2 51 51 0 0 0-11.1-6.4 56.7 56.7 0 0 0-6.3-2.1 82.2 82.2 0 0 0-27-2.5 140.3 140.3 0 0 0-27.6 4.6q-6.8 1.8-13.5 4.2l-6.6 2.5-3.2 1.3-3.1 1.4-2.1-11.9 6.4 1 6.4 1.4a101.1 101.1 0 0 1 12.4 3.9 90.9 90.9 0 0 1 22.6 12.7 87.2 87.2 0 0 1 24.4 29.5q1.4 2.9 2.7 5.8a56.2 56.2 0 0 1 2.2 6.1 2.5 2.5 0 0 1-4.8 1.5z"></path><path fill="#31323d" d="M1784.2 1453.3l5.7-5.2 2.9-2.6 2.8-2.6 5.6-5.2 5.5-5.3 2.8-2.6 2.8-2.7 5.5-5.4 5.4-5.4 5.4-5.4 5.3-5.5 5.3-5.5 5.3-5.6 5.2-5.6 5.2-5.7 5.1-5.7 5-5.7 4.9-5.7a6.3 6.3 0 0 1 8.1-1.3 58.8 58.8 0 0 0 14.9 6.7 75.6 75.6 0 0 0 16.5 2.8c11.3.7 22.9-.6 34.2-3.1a217.4 217.4 0 0 0 33.6-10.5q8.2-3.3 16.3-7.1l8-3.9 3.9-2 2-1 1-.5h.2l-.2.2-.3.2a3.7 3.7 0 0 0-1.2 2.4 3.4 3.4 0 0 0 .6 2.2 3.7 3.7 0 0 0 2.1 1.5h-5.6l-4.9-.3a179.9 179.9 0 0 1-18.6-2.7c-6.1-1.2-12.2-2.7-18.1-4.3s-11.9-3.4-17.7-5.4c-11.7-3.9-23.1-8.4-34.3-13.3q-8.4-3.7-16.7-7.6c-5.6-2.7-11-5.3-16.5-8.3a6.9 6.9 0 0 1 5-12.8h.1c13.3 3.5 26.9 6 40.3 6.3a91 91 0 0 0 19.6-1.6 51.3 51.3 0 0 0 17.3-6.6 32.7 32.7 0 0 0 6.7-5.6l.7-.8-.3.3-.3.7v.4a3.9 3.9 0 0 0 .4 3.2 4 4 0 0 0 2.8 1.8h-2l-5.8-.6-5.6-.9c-3.7-.7-7.4-1.7-11-2.8a136.4 136.4 0 0 1-39.8-20.1 185.9 185.9 0 0 1-32.2-30.1 252.5 252.5 0 0 1-25.2-35.7c-3.7-6.3-7.1-12.6-10.4-19.1-1.6-3.2-3.3-6.5-4.7-9.8l-2.2-4.9-1.1-2.5-1.1-2.4c-5.7-12.8-11.6-25.6-18-38s-13.1-25-19.8-37.4-13.6-24.7-20.7-36.9c-14.1-24.4-28.8-48.5-44.3-71.9q-11.7-17.6-24.1-34.5c-8.4-11.2-17.1-22.3-26.2-32.7a235.8 235.8 0 0 0-30-28.4q-8.1-6.4-16.7-12.1l-17.7-11.6.4.3-7.5-3.9-7.6-3.7-7.8-3.4-3.9-1.6-4-1.5-8-2.8-8.1-2.5-4.1-1.1-2-.6-.7-.2-.5-.2-1-.3-8.3-2.5a6.3 6.3 0 0 1 3.5-12l8.4 2.4 1.9.5 2.2.6 4.3 1.2 8.6 2.6 8.5 2.9 4.2 1.6 4.2 1.6 8.2 3.5 8.1 3.8 8 4.1.4.2h.1l17.9 11.5q9.1 6 17.7 12.7a249.2 249.2 0 0 1 31.8 29.8c9.6 10.8 18.5 22 27.1 33.4s16.8 23.1 24.7 35 15.6 23.8 23.1 36 14.7 24.4 21.9 36.7 14.1 24.7 20.9 37.2 13.5 25 20 37.7 12.6 25.7 18.4 38.8c2.9 6.5 5.7 12.7 8.9 18.9s6.4 12.3 9.9 18.2a238.3 238.3 0 0 0 23.8 33.6 171.7 171.7 0 0 0 29.7 27.8 136.2 136.2 0 0 0 17.2 10.6 116.6 116.6 0 0 0 18.5 7.6c3.2 1 6.4 1.8 9.6 2.4l4.8.8 4.7.5h3.3a10.1 10.1 0 0 1 4 1.6 10.3 10.3 0 0 1 3 3.1 10.5 10.5 0 0 1 1.5 4 10.4 10.4 0 0 1-.3 4.3l-.4 1-.6 1.3-.4.6h-1.1l-.4.5-1.1 1.2a46.7 46.7 0 0 1-9.6 8 65.2 65.2 0 0 1-22.1 8.5 104.9 104.9 0 0 1-22.7 1.8c-15-.4-29.5-3.1-43.5-6.8l5.1-12.8c5.1 2.7 10.5 5.4 15.9 8s10.8 5.1 16.3 7.4c10.9 4.8 22 9.2 33.2 13q8.4 2.9 16.9 5.3c5.7 1.6 11.4 3 17.1 4.2a166.6 166.6 0 0 0 17.2 2.6l4.2.3h6.4l1.7.2a9.7 9.7 0 0 1 5.8 4 9.9 9.9 0 0 1 1.7 6.5 9.6 9.6 0 0 1-3.2 6.3l-.7.6-.5.3-.3.2-.5.3h-.3l-1 .5-2.1 1.1-4.1 2.1-8.3 4q-8.4 3.9-17 7.3a230.3 230.3 0 0 1-35.6 10.9c-12.2 2.6-24.9 4.1-37.8 3.2a88.2 88.2 0 0 1-19.2-3.4 70.9 70.9 0 0 1-18-8.2l8.2-1.3-5.2 5.9-5.2 5.8c-3.5 3.8-7.1 7.6-10.7 11.3l-5.5 5.5-5.6 5.5-5.6 5.4-5.7 5.3c-3.8 3.5-7.7 6.9-11.6 10.3l-6 5-6 4.9-6.1 4.8-6.2 4.7-3.1 2.3-3.2 2.2-6.4 4.4a2.5 2.5 0 0 1-3.4-3.4zm-703.1 27.7l-6.9-3.8-6.8-3.9q-6.8-4-13.5-8.2a247.5 247.5 0 0 1-25.7-18.7 143.5 143.5 0 0 1-11.8-11 87 87 0 0 1-10.3-13 47.5 47.5 0 0 1-6.8-16.3c-.1-.8-.3-1.5-.4-2.3s-.1-.8-.1-1.2v-1.1l-.3-3.9-.6-7.8 9.5 5a57 57 0 0 1-7.3 3.7q-3.7 1.6-7.4 2.7c-2.5.8-4.9 1.4-7.4 2.1l-7.3 1.7c-4.9.9-9.8 1.7-14.8 2.3l-3.7.4h-2.2a9.3 9.3 0 0 1-2.7-.7 9.4 9.4 0 0 1-4.1-3.4 9.5 9.5 0 0 1-1.6-4.9 9.3 9.3 0 0 1 1.4-5.3 9.6 9.6 0 0 1 1.7-2l.5-.4h.2l.4-.3 1.4-1.1 5.1-4.4 5-4.8c3.3-3.3 6.5-6.8 9.6-10.3s6.2-7.2 9.2-10.9l4.4-5.6 4.2-5.6 7.8 9.3-6.1 2.8c-2 1-4.1 1.8-6.2 2.7l-3.1 1.3-3.2 1.2-3.2 1.2-3.2 1.1-6.4 2.1-6.5 1.8-6.6 1.6-6.6 1.4-3.3.6-3.4.5-6.8.8c-4.5.4-9.1.7-13.6.7h-6.9l-3.4-.2H908l-.7-.2-.6-.2a9.3 9.3 0 0 1-4.1-2.8 9.5 9.5 0 0 1-1.8-9.1 9.3 9.3 0 0 1 2.7-4.1 9.7 9.7 0 0 1 2-1.3l.7-.3.4-.2 1.5-.6 1.5-.6.8-.3.7-.3c3.6-1.7 7.3-3.7 10.9-5.7s7.1-4.4 10.6-6.8 6.8-4.9 10.1-7.6 6.5-5.4 9.7-8.3c6.3-5.7 12.3-11.7 18.1-18q4.3-4.7 8.4-9.6l4-4.9 3.8-5 9.5 8.1a95.4 95.4 0 0 1-43.8 25.4c-16.5 4.4-33.7 4.5-50.1 2.2q-6.2-.9-12.2-2.2l-6-1.4-3-.8-1.5-.4h-1.1a9.3 9.3 0 0 1-2.2-1.1 9.4 9.4 0 0 1 1.8-16.4l1.1-.4 1.4-.5 2.7-.9q5.5-1.9 10.9-4.1a254.8 254.8 0 0 0 78.4-50.1 244.7 244.7 0 0 0 30.8-35.1 251.2 251.2 0 0 0 23.7-40.3c1.6-3.5 3.2-7.1 4.7-10.7l2.2-5.4.5-1.4.3-.7.2-.5v-.2l.2-.3 1.2-2.7q4.7-10.8 8.7-21.9l1.9-5.6 2-5.7 4-11.4q4.1-11.3 8.3-22.6 8.5-22.5 18-44.7c6.3-14.8 12.9-29.5 20-43.9s14.7-28.8 23-42.7 17.4-27.5 28.2-40l4.1-4.6 4.2-4.5 8.3-8.6 1-1.1.3-.3h.1l.3-.3.5-.5 2.2-2.1 2.2-2.1 2.3-2.1 4.7-4.1 4.7-3.9a248.4 248.4 0 0 1 86.7-45.2 6.2 6.2 0 0 1 3.5 12 235.9 235.9 0 0 0-82.3 42.9l-4.5 3.7-4.4 3.8-2.2 1.9-2.2 2.1-2.2 2.1-.5.5-.3.3-1 1.1-8.3 8.6-4 4.2-3.8 4.3c-10 11.8-18.8 24.8-26.9 38.3s-15.5 27.5-22.5 41.7-13.5 28.7-19.8 43.3-12.1 29.4-17.8 44.3q-4.2 11.2-8.3 22.4l-4 11.3-1.9 5.6-2 5.7q-4.1 11.5-9 22.7l-1.2 2.8-.2.3v.2h.1l-.3.7-.6 1.4-2.3 5.7c-1.6 3.8-3.2 7.5-5 11.2a263.6 263.6 0 0 1-24.8 42.3 257.2 257.2 0 0 1-32.4 36.9 267.3 267.3 0 0 1-82.3 52.6q-5.7 2.3-11.5 4.3l-2.9 1-1.4.5a1 1 0 1 1 .3-.3 3.3 3.3 0 0 0 1-1.2 3 3 0 0 0 0-2.7 3.2 3.2 0 0 0-1.1-1.2l-.8-.4h.3l1.4.4 2.8.7 5.6 1.3q5.7 1.2 11.3 2.1c15.2 2.2 30.6 2 45.1-1.9a82.9 82.9 0 0 0 38.2-22.1 6.2 6.2 0 0 1 9.5 8.1l-4.2 5.4-4.2 5.2q-4.3 5.1-8.8 10.1c-6 6.6-12.3 12.9-19 18.9q-5 4.5-10.2 8.7c-3.5 2.8-7.1 5.5-10.8 8.1s-7.5 5-11.4 7.4-7.9 4.4-12.2 6.4l-.8.4-.8.3-1.5.6-1.5.6-.4.2.6-.4a3.2 3.2 0 0 0 1-1.4 3 3 0 0 0 .1-1.5 3.1 3.1 0 0 0-.7-1.4 3.3 3.3 0 0 0-1.4-1h1.7l3.1.2h6.2c4.2 0 8.3-.3 12.5-.7l6.2-.8 3.1-.5 3.1-.6 6.2-1.3 6.1-1.5 6.1-1.7 6-1.9 3-1 3-1.1 3-1.1 2.9-1.2c1.9-.8 3.9-1.6 5.8-2.5l5.8-2.7h.1a6.2 6.2 0 0 1 7.7 9.3l-4.5 6-4.6 5.8q-4.6 5.7-9.5 11.3c-3.3 3.7-6.6 7.3-10.2 10.9l-5.5 5.2c-1.9 1.7-3.8 3.3-5.9 5l-1.4 1.1-.4.3.6-.7a3.3 3.3 0 0 0 .5-1.8 3 3 0 0 0-.5-1.5 3.1 3.1 0 0 0-1.4-1.1l-.9-.2h-.4l3.5-.4c4.7-.6 9.3-1.3 13.9-2.2l6.8-1.5 6.6-1.8c2.2-.7 4.2-1.4 6.3-2.3a44.8 44.8 0 0 0 5.6-2.8h.1a6.2 6.2 0 0 1 8.6 2.2 6.3 6.3 0 0 1 .9 2.9v13.4s.1 1 .1 1.6a36.5 36.5 0 0 0 4.5 12.7 77 77 0 0 0 8.4 12 134.5 134.5 0 0 0 10.4 11 239.8 239.8 0 0 0 23.8 19.5q6.3 4.6 12.7 8.8l6.5 4.2 6.6 4.1a2.5 2.5 0 0 1-2.5 4.3z"></path></g></g><g id="item_g"></g><g id="item_f"></g><g id="eye"><defs><linearGradient id="eyeColor1" x2="0%" y2="100%"><stop offset="0%" stop-color="#b8bdff"></stop></linearGradient><linearGradient id="eyeColor2" x2="0%" y2="100%"><stop offset="0%" stop-color="#b8bdff"></stop></linearGradient></defs><defs><clipPath id="eyeClipPath"><circle cx="1704.9" cy="1111.9" r="129.7" fill="#fff" stroke="#31323d" stroke-width="10" stroke-miterlimit="10" transform="rotate(-1.3 1649.506 1076.573)" stroke-linecap="round"></circle></clipPath><clipPath id="eyeClipPath2"><circle cx="1162" cy="1128.5" r="129.7" fill="#fff" stroke="#31323d" stroke-width="10" stroke-miterlimit="10" transform="rotate(-1.3 1124.802 1092.66)" stroke-linecap="round"></circle></clipPath></defs><circle cx="1704.9" cy="1111.9" r="129.7" fill="#fff" transform="rotate(-1.3 1649.506 1076.573)"></circle><g clip-path="url(#eyeClipPath)"><circle cx="1705.3" cy="1115" r="80.2" fill="url(#eyeColor1)" transform="rotate(-1.3 1649.456 1080.98)"></circle><circle cx="1705.3" cy="1115" r="58" fill="#31323d" transform="rotate(-1.3 1649.456 1080.98)"></circle><circle cx="1735.7" cy="1070.5" r="30.9" fill="#fff" transform="rotate(-1.3 1680.807 1037.258)"></circle></g><circle cx="1704.9" cy="1111.9" r="129.7" fill="none" stroke="#31323d" stroke-width="10" stroke-miterlimit="10" transform="rotate(-1.3 1649.506 1076.573)" stroke-linecap="round"></circle><circle cx="1162" cy="1128.5" r="129.7" fill="#fff" transform="rotate(-1.3 1124.802 1092.66)"></circle><g clip-path="url(#eyeClipPath2)"><circle cx="1160.4" cy="1129.9" r="80.2" fill="url(#eyeColor2)" transform="rotate(-1.3 1120.395 1092.61)"></circle><circle cx="1160.4" cy="1129.9" r="58" fill="#31323d" transform="rotate(-1.3 1120.395 1092.61)"></circle><circle cx="1190.8" cy="1085.3" r="30.9" fill="#fff" transform="rotate(-1.3 1151.745 1048.887)"></circle></g><circle cx="1162" cy="1128.5" r="129.7" fill="none" stroke="#31323d" stroke-width="10" stroke-miterlimit="10" transform="rotate(-1.3 1124.802 1092.66)" stroke-linecap="round"></circle></g><g id="item_e"></g><g id="mouth"><path d="M1608.1,1318.4c21.8,70.2,0,124.5,0,124.5-26.6,79.8-121.2,120.2-211.2,90.2-38.1-12.7-69.2-35.9-90.5-64.6,0,0-38.3-46.9-8.3-99.4" fill="#ded0ee"></path><path d="M1427.1,1274.9l-10.1,99.2c-1.7,16.7-24.5,20.1-31,4.6l-13.8-33.1,29.1-24Z" fill="#fff" stroke="#31323d" stroke-linecap="round" stroke-miterlimit="10" stroke-width="7"></path><path d="M1443.5,1266.7l21.6,94.4c6.5,23.2,39.3,23.5,46.2.4l13.8-46.1" fill="#fff" stroke="#31323d" stroke-linecap="round" stroke-miterlimit="10" stroke-width="7"></path><path d="M1308.5,1471.3s23.7,133.7,171.7,123.7c126.5-8.5,126.4-147.7,126.4-147.7s-33.9,95.7-163.1,97.7C1361.7,1539.5,1308.5,1471.3,1308.5,1471.3Z" fill="#595959" opacity=".2" style="mix-blend-mode:multiply"></path><path d="M1371.7,1227a15,15,0,0,1,2.6-16.1c8.4-9.3,26.7-23.4,62.2-25.9s53.2,8.7,61.8,17a14.9,14.9,0,0,1,3.5,15.9h0a20.8,20.8,0,0,1-17.4,13.5c-10,1-23.7,4.9-31.6,17.9a13.2,13.2,0,0,1-1.7,2.3l-0.3.3a17.7,17.7,0,0,1-25.3.2h0s-8.1-12-35-12.4a20.7,20.7,0,0,1-18.5-12.3V1227Z" fill="#31323d"></path><path d="M1446.8,1255.9l0.4,0.6,0.5,0.6,0.7,0.9c1.1,1.4,2.9,3.5,5.3,6s5.4,5.6,9,8.9,7.9,6.8,12.7,10.5c2.5,1.8,5,3.7,7.7,5.4l4.2,2.7,4.4,2.7a168.1,168.1,0,0,0,19.5,9.9c3.4,1.6,7.1,2.8,10.7,4.2l5.6,1.8c1.9,0.6,3.8,1.2,5.7,1.7l5.8,1.5c1.9,0.5,3.9.8,5.9,1.2l3,0.6,1.5,0.3,1.5,0.2,6,0.8,3,0.4,3,0.2,6.1,0.5h12.1l6-.3h3l3-.2,5.9-.6,2.9-.3,2.9-.4,11.2-1.9,10.6-2.5c1.7-.4,3.4-0.9,5.1-1.4l4.9-1.4,4.7-1.4,4.5-1.6,8.4-3,3.8-1.5,3.6-1.5,6.5-2.8,2.9-1.3,2.6-1.3,10.3-5h0.1a1.5,1.5,0,0,1,1.4,2.7l-10.1,5.5-2.6,1.4-2.8,1.5-6.5,3.1-3.6,1.7c-1.2.6-2.5,1.2-3.8,1.7l-8.4,3.4-4.5,1.8-4.8,1.6-4.9,1.7c-1.7.6-3.4,1.2-5.1,1.6l-10.8,3-11.4,2.5-2.9.5-3,.5-6,.9-3.1.4-3.1.3-6.2.6-6.3.2-6.4.2-6.4-.2h-3.2l-3.2-.2-6.4-.6H1548l-1.6-.2-3.2-.5c-2.1-.3-4.2-0.6-6.3-1l-6.2-1.3c-2.1-.4-4.1-1-6.1-1.5l-6-1.6c-3.9-1.3-7.9-2.4-11.6-4a179.9,179.9,0,0,1-21.3-9.6l-4.8-2.6-4.6-2.7c-3-1.8-5.8-3.7-8.5-5.5-5.3-3.7-10.1-7.3-14.1-10.7s-7.5-6.5-10.2-9.2-4.8-4.9-6.2-6.5l-0.9-1-0.7-.8-0.5-.6a7.5,7.5,0,1,1,11.5-9.6l0.2,0.2h0.1Z" fill="#31323d"></path><path d="M1177.3,1333.3l3.2,1.8c2.1,1.1,5.2,2.8,9.2,4.8a284.9,284.9,0,0,0,34.3,14c7.3,2.4,15.2,4.7,23.7,6.7a216.2,216.2,0,0,0,27,4.5,175.2,175.2,0,0,0,29.1.6,140.6,140.6,0,0,0,29.3-5.1,126.6,126.6,0,0,0,14-4.9c2.2-1,4.5-1.9,6.7-3.1l3.3-1.6,3.2-1.8a122.3,122.3,0,0,0,22.9-16.9,146.9,146.9,0,0,0,17.8-19.9c1.2-1.7,2.5-3.4,3.7-5.1l3.4-5.1c2.1-3.4,4.2-6.7,5.9-10,3.7-6.5,6.6-12.8,9.1-18.3s4.4-10.5,5.9-14.7,2.6-7.4,3.3-9.6l1.1-3.4v-0.2a7.5,7.5,0,0,1,14.2,4.7v0.3l-1.3,3.5c-0.9,2.3-2.1,5.7-3.9,10s-4,9.4-6.8,15.2-6.1,12.3-10.3,19.1c-2,3.4-4.3,6.9-6.7,10.5l-3.8,5.3c-1.3,1.8-2.8,3.5-4.2,5.4a158.7,158.7,0,0,1-20,20.8,133,133,0,0,1-25.5,17.4l-3.5,1.8-3.6,1.7c-2.4,1.2-4.9,2.1-7.3,3.1a135.9,135.9,0,0,1-15.2,4.7,149.1,149.1,0,0,1-31.3,4.3,182.5,182.5,0,0,1-30.3-1.7,222.5,222.5,0,0,1-27.6-5.6c-8.6-2.3-16.7-5-24-7.7a289,289,0,0,1-34.2-15.5c-4-2.1-7.1-3.9-9.2-5.2l-3.2-2h0A1.5,1.5,0,0,1,1177.3,1333.3Z" fill="#31323d"></path><path d="M1542.4,1260.3l7.4-1.2c4.9-.8,11.9-1.9,21-3.1a703.9,703.9,0,0,1,75.4-5.9,689,689,0,0,1,106.6,5.7c19.4,2.6,39.3,6.1,59.3,10.6s40.1,10.1,59.9,16.6,39.2,14,58,22.3l13.9,6.3,13.6,6.7,6.7,3.4,6.6,3.5c4.4,2.3,8.8,4.6,13,7l12.6,7.2,12.1,7.4,3,1.8,2.9,1.9,5.8,3.8,5.7,3.7,5.6,3.8c14.8,10,28.3,20.2,40.4,29.9s22.9,19.1,32.3,27.6c4.6,4.3,9,8.3,12.9,12.1l5.7,5.5,5.1,5.1c3.2,3.2,6,6.1,8.5,8.7l3.4,3.5,2.8,3,5.1,5.5-5.1-5.4-2.8-2.9-3.4-3.5c-2.5-2.5-5.3-5.4-8.6-8.5l-5.1-5-5.7-5.4c-4-3.8-8.4-7.7-13.1-11.9-9.5-8.3-20.3-17.6-32.7-27.1s-25.9-19.5-40.8-29.2l-5.6-3.7-5.8-3.6-5.8-3.7-2.9-1.8-3-1.8-12.2-7.2-12.6-7c-4.2-2.4-8.6-4.5-13-6.8l-6.6-3.4-6.7-3.2-13.6-6.4-13.9-6.1c-18.7-7.9-38.2-15.1-57.9-21.3s-39.7-11.4-59.6-15.6-39.6-7.4-58.9-9.6a681.3,681.3,0,0,0-105.5-4,694.9,694.9,0,0,0-74.3,6.9c-8.9,1.3-15.9,2.5-20.6,3.4l-7.3,1.4h0a5,5,0,0,1-1.8-9.8h0.1Z" fill="#31323D"></path><path d="M1342,1293.3l-4.6-.9c-3-.5-7.4-1.3-13.1-2.1a355.2,355.2,0,0,0-47.4-3.1,343.7,343.7,0,0,0-66.9,6.4,312.1,312.1,0,0,0-36.7,9.7A298.7,298.7,0,0,0,1137,1318a277.7,277.7,0,0,0-34,19.6c-5.4,3.5-10.5,7.5-15.7,11.2s-10,7.9-14.5,12.1l-3.5,3-3.3,3.1-6.5,6.3-6.1,6.4c-2,2.1-3.9,4.3-5.8,6.4a289.4,289.4,0,0,0-19.9,25.1c-5.7,8.1-10.6,15.8-14.7,22.8l-2.9,5.1-2.6,4.8c-1.6,3.1-3.1,5.9-4.4,8.5-2.6,5.2-4.5,9.3-5.7,12.2l-1.9,4.4,1.8-4.4c1.2-2.9,3-7.1,5.5-12.3,1.2-2.7,2.7-5.5,4.2-8.7l2.5-4.8c0.9-1.7,1.8-3.4,2.8-5.2,3.9-7.1,8.6-14.9,14.2-23.2a291.4,291.4,0,0,1,19.4-25.7c1.9-2.2,3.7-4.4,5.7-6.6l6-6.6,6.4-6.5,3.3-3.3,3.4-3.2c4.6-4.4,9.4-8.3,14.3-12.5s10.2-8,15.6-11.7a282.2,282.2,0,0,1,34.1-20.7,304.1,304.1,0,0,1,36.7-15.8,318.4,318.4,0,0,1,37.2-10.7,351.3,351.3,0,0,1,68.2-8.2,364.3,364.3,0,0,1,48.6,2.1c5.9,0.7,10.4,1.3,13.6,1.8l4.8,0.8a5,5,0,1,1-1.6,9.9H1342Z" fill="#31323D"></path><path d="M714.1,1421l5.5-4.7c3.6-3,8.9-7.4,15.7-12.9,13.7-10.9,33.6-26,58.8-42.4a739.6,739.6,0,0,1,89.6-49.8c17-8,34.9-15.5,53.4-22.4s37.5-13.2,56.9-18.6,38.8-10,58.3-13.7l14.5-2.6,3.7-.6,3.6-.5,7.2-1.1,7.1-1.1,7.2-.9,7.1-.9,3.5-.4,3.5-.4,13.9-1.4,13.7-1c4.5-.4,9-0.5,13.4-0.8l6.6-.3,6.5-.2,12.8-.3h12.4l12,0.2h5.8l5.7,0.2,11.1,0.5,10.5,0.6,10,0.8,9.4,0.8,8.8,0.9,8.2,1,14.5,1.9,11.6,1.7,8.6,1.4,7.1,1.2a5,5,0,1,1-1.7,9.9h-0.2l-7-1.3-8.4-1.5-11.4-1.9-14.2-2.1-8.1-1.1-8.7-1-9.3-1-9.9-.9-10.4-.8-10.9-.7-5.6-.3-5.8-.2-11.8-.4-12.2-.2h-19.1l-6.5.2c-4.4.2-8.8,0.2-13.3,0.5l-13.6.8-13.8,1.1-3.5.3-3.5.4-7,.8-7.1.8-7.1,1-7.2,1-3.6.5-3.6.6-14.4,2.3c-19.3,3.3-38.8,7.6-58,12.7s-38.3,11-56.8,17.6-36.4,13.8-53.4,21.5a737.3,737.3,0,0,0-90,48.3c-25.4,15.9-45.5,30.7-59.3,41.4-6.9,5.3-12.3,9.7-15.9,12.6Z" fill="#31323D"></path><path d="M1567.1,1232.8l321.4-34.7h1.1l0.8,0.7,65.5,54-2-.2,85.6-41.8,0.8-.4,0.5,0.6,40.4,45.9h-0.9l51.1-61.9-50.2,62.6-0.5.6-0.5-.5-41.2-45.3,1.3,0.3-85,43.1-1,.5-0.9-.7-66.3-52.9,1.9,0.5-320.8,39.7a5,5,0,1,1-1.2-9.9h0.1Z" fill="#31323D"></path><path d="M1326.7,1314.5l-0.6-.2-1.7-.5c-1.6-.4-3.8-1-6.8-1.6a118.2,118.2,0,0,0-25-2.2,106.7,106.7,0,0,0-16.7,1.7,93.4,93.4,0,0,0-18,5.2,86.7,86.7,0,0,0-17.7,9.5l-2.2,1.5-2,1.6-4,3.3a96.2,96.2,0,0,0-7.5,7.4,98.4,98.4,0,0,0-12.4,17,106.3,106.3,0,0,0-8.5,18.6,110.3,110.3,0,0,0-4.7,18.7,119.5,119.5,0,0,0-1.5,17.2,117.9,117.9,0,0,0,.7,14.7c0.4,4.4,1.1,8.1,1.7,11.2s1.2,5.5,1.6,7.1l0.7,2.5-0.8-2.5c-0.5-1.6-1.2-4-2-7.1s-1.6-6.8-2.2-11.2a119,119,0,0,1-1.3-14.8,121.5,121.5,0,0,1,.8-17.6,113,113,0,0,1,4-19.3,109.9,109.9,0,0,1,7.9-19.6,102.9,102.9,0,0,1,12.2-18.3,101.4,101.4,0,0,1,7.6-8.1c1.4-1.2,2.7-2.5,4.1-3.7l2.2-1.8,2.1-1.6a93.1,93.1,0,0,1,18.5-11,100.6,100.6,0,0,1,19.1-6.4,114.8,114.8,0,0,1,17.9-2.6,127.2,127.2,0,0,1,27,1.2c3.2,0.5,5.8,1,7.5,1.4l2,0.5,0.6,0.2a5,5,0,1,1-2.4,9.7h-0.2Z" fill="#31323D"></path><path d="M1556,1281.8l2.7-.3,7.9-.7,5.7-.2h6.7a128.8,128.8,0,0,1,15.9,1.6,121.4,121.4,0,0,1,37.5,12.7,115.4,115.4,0,0,1,18.5,12.5,106.4,106.4,0,0,1,16,16.5,102.8,102.8,0,0,1,6.6,9.5c1,1.7,2,3.3,2.8,5l1.3,2.6,1.2,2.5c0.8,1.6,1.5,3.5,2.3,5.2s1.3,3.5,1.9,5.2a103.3,103.3,0,0,1,2.9,10.5,102.2,102.2,0,0,1,2.3,20.4,114.4,114.4,0,0,1-1.2,18.3,128.8,128.8,0,0,1-6.7,26.5c-1.1,3.1-2.2,5.5-2.9,7.1l-1.2,2.4,1-2.5c0.7-1.6,1.6-4,2.6-7.2a127.8,127.8,0,0,0,5.6-26.5,112.5,112.5,0,0,0,.4-18,100.1,100.1,0,0,0-6.3-29.8c-0.7-1.6-1.3-3.3-2.1-4.9s-1.4-3.2-2.4-4.9a95.2,95.2,0,0,0-12.2-18.2,100.9,100.9,0,0,0-15.8-15,109.1,109.1,0,0,0-17.9-11,113.8,113.8,0,0,0-35.6-10.4,120.1,120.1,0,0,0-14.8-.9h-6.2l-5.2.4-7.3,1-2.7.4a5,5,0,1,1-1.6-9.9h0.2Z" fill="#31323D"></path><path d="M1610.5,1443.7l-1.1,4-0.6,2.2c-0.2.8-.5,1.7-0.8,2.6l-2.4,6.5c-1,2.4-2.1,5-3.5,7.8l-2.2,4.3-1.2,2.3-1.4,2.3c-0.9,1.5-1.8,3.2-2.9,4.8l-3.3,4.9c-0.5.9-1.2,1.7-1.8,2.5l-1.9,2.5-2,2.6-2.2,2.5-2.2,2.6-2.4,2.5c-1.6,1.7-3.2,3.5-5,5.1l-2.7,2.5-2.8,2.5-2.9,2.4-3,2.4c-2.1,1.5-4.1,3.2-6.3,4.7s-4.4,3-6.7,4.5l-3.5,2.1-3.6,2.1-3.7,2-3.7,1.9a168,168,0,0,1-32.5,11.9,178.4,178.4,0,0,1-35.3,5.3c-6,.3-12,0.3-17.9,0s-11.8-.9-17.7-1.7a190,190,0,0,1-33.5-7.9l-2-.6-1-.3-0.6-.2-0.5-.2-3.7-1.4c-2.4-.9-5-2-7.5-3.1s-4.9-2.2-7.3-3.3-4.6-2.3-6.9-3.5a181.6,181.6,0,0,1-42.5-31.2c-2.5-2.6-4.9-4.9-6.9-7.3l-2.9-3.4-2.6-3.1c-1.7-2-3-3.8-4.2-5.4s-2.2-3-2.9-4.1l-2.3-3.5a2.5,2.5,0,0,1,3.9-3.1h0.1l2.7,3,3.3,3.6c1.3,1.4,2.8,3,4.6,4.7l2.8,2.7,3.1,2.9c2.2,2,4.6,4.1,7.2,6.3a211,211,0,0,0,18.5,13.5,201.2,201.2,0,0,0,23.6,13.1c2.2,1,4.4,2.1,6.6,2.9s4.6,1.9,6.9,2.7l3.5,1.3,3.7,1.3,3.8,1.3,0.5,0.2c0.1,0.1-.1,0,0,0h0.3l0.9,0.3,1.9,0.5a196.7,196.7,0,0,0,31.3,6.5c5.4,0.7,10.9,1.1,16.4,1.3s11,0.2,16.5-.1a180.5,180.5,0,0,0,32.5-4.7,169.9,169.9,0,0,0,30.1-10.2l3.5-1.6,3.4-1.7c2.3-1.1,4.4-2.4,6.6-3.6s4.2-2.5,6.3-3.8,4-2.7,6-4l2.8-2.1,2.8-2.1,2.7-2.1,2.6-2.2c1.8-1.4,3.3-2.9,4.9-4.4l2.3-2.2,2.2-2.2,2.2-2.2,2-2.2c1.3-1.5,2.6-2.9,3.8-4.4l3.5-4.3c1.1-1.4,2.1-2.9,3.1-4.2s3.6-5.5,5.3-7.9,2.8-4.9,4.1-7l2.9-5.8c0.4-.8.8-1.7,1.1-2.4l0.9-2.1,1.7-3.8A2.5,2.5,0,0,1,1610.5,1443.7Z" fill="#31323d"></path></g><g id="robot"><g id="robo_leg"><defs><linearGradient id="robo_leg__c" x1="968.42" x2="1023.68" y1="2157.38" y2="2157.38" gradientUnits="userSpaceOnUse"><stop offset=".04" stop-color="#f456e9"></stop><stop offset=".49" stop-color="#ff5a9d"></stop><stop offset=".52" stop-color="#fd659e"></stop><stop offset=".61" stop-color="#fa7b9f"></stop><stop offset=".7" stop-color="#f888a0"></stop><stop offset=".78" stop-color="#f78ca0"></stop><stop offset=".96" stop-color="#fab5c2"></stop></linearGradient><linearGradient id="robo_leg__d" x1="998.03" x2="1001.72" y1="2141.38" y2="2024.58" gradientUnits="userSpaceOnUse"><stop offset="0" stop-color="#ff0069"></stop><stop offset="1" stop-color="#ccf" stop-opacity="0"></stop></linearGradient><linearGradient id="robo_leg__a" x1="1057.61" x2="1008.53" y1="2430.61" y2="2209.75" gradientUnits="userSpaceOnUse"><stop offset="0" stop-color="#fff"></stop><stop offset="1" stop-color="#231f20"></stop></linearGradient><linearGradient id="robo_leg__e" x1="1079.96" x2="1079.96" y1="2299.73" y2="2219.22" xlink:href="#robo_leg__a"></linearGradient><linearGradient id="robo_leg__f" x1="947.77" x2="1112.9" y1="1956.86" y2="2044.01" gradientUnits="userSpaceOnUse"><stop offset="0" stop-color="#fff" stop-opacity="0"></stop><stop offset="1" stop-color="#231f20"></stop></linearGradient><linearGradient id="robo_leg__g" x1="1185.64" x2="1124.75" y1="2105.13" y2="2173.64" gradientUnits="userSpaceOnUse"><stop offset=".1" stop-color="#fff"></stop><stop offset=".2" stop-color="#fff" stop-opacity=".85"></stop><stop offset=".41" stop-color="#fff" stop-opacity=".48"></stop><stop offset=".67" stop-color="#fff" stop-opacity="0"></stop></linearGradient><linearGradient id="robo_leg__h" x1="1089.54" x2="1030.65" y1="2215.7" y2="2261.75" gradientUnits="userSpaceOnUse"><stop offset=".04" stop-color="#fff"></stop><stop offset=".1" stop-color="#fff" stop-opacity=".83"></stop><stop offset=".18" stop-color="#fff" stop-opacity=".61"></stop><stop offset=".26" stop-color="#fff" stop-opacity=".42"></stop><stop offset=".34" stop-color="#fff" stop-opacity=".27"></stop><stop offset=".42" stop-color="#fff" stop-opacity=".15"></stop><stop offset=".5" stop-color="#fff" stop-opacity=".07"></stop><stop offset=".58" stop-color="#fff" stop-opacity=".02"></stop><stop offset=".65" stop-color="#fff" stop-opacity="0"></stop></linearGradient><linearGradient id="robo_leg__b" x1="969.84" x2="1020.11" y1="2159.49" y2="2159.49" gradientUnits="userSpaceOnUse"><stop offset=".1" stop-color="#fff"></stop><stop offset=".19" stop-color="#fff" stop-opacity=".83"></stop><stop offset=".31" stop-color="#fff" stop-opacity=".61"></stop><stop offset=".43" stop-color="#fff" stop-opacity=".42"></stop><stop offset=".55" stop-color="#fff" stop-opacity=".27"></stop><stop offset=".67" stop-color="#fff" stop-opacity=".15"></stop><stop offset=".79" stop-color="#fff" stop-opacity=".07"></stop><stop offset=".9" stop-color="#fff" stop-opacity=".02"></stop><stop offset="1" stop-color="#fff" stop-opacity="0"></stop></linearGradient><linearGradient id="robo_leg__i" x1="1044.95" x2="896.07" y1="2020.7" y2="2003.31" xlink:href="#robo_leg__b"></linearGradient><linearGradient id="robo_leg__j" x1="1038.74" x2="1010.38" y1="2129.43" y2="2159.18" xlink:href="#robo_leg__b"></linearGradient><linearGradient id="robo_leg__k" x1="1069.26" x2="1072.98" y1="1972.45" y2="2085.02" xlink:href="#robo_leg__b"></linearGradient></defs><g style="isolation:isolate"><path fill="#e6e7e8" d="M1123.3,1942.9c-4.6,0-107.3,3.1-107.3,3.1l-24.5,29.1,4.6,90.4,19.9,19.9,88.9,4.6,29.1-7.7,15.3-16.8,4.6-93.5Z"></path><path fill="#e6e7e8" d="M1009.9,2283.5l-22.5-1L966,2318.2c0,22.5,19.4,52.1,19.4,52.1l131.7,3.1,72.4-38.8,6.7-42-36-17.3-6.6-34.6-.7-31.1,15.3-31.3,23.5-16.3,25.5,5.4,2.1-12.6,12.2-100c-2-24.6-36.8-32.7-36.8-32.7l-44.4-3.1-.8,43.4-16.1,18.8-28.5,8.8-82.6-3.1.9,35.3c-.6,4.9,2.3,6.3,5.9,9.7a31,31,0,0,1,6.9,34.4c-8-1.8-15.1,6.4-16.5,14.4s.5,16.4-.5,24.5c-.7,6.1-3,12.1-2.9,18.2.3,12.6,12.8,23.5,25.3,22.1l-2.9,20.7c-.4,3.5-1.1,7.3-3.6,9.7a15.6,15.6,0,0,1-5.7,3C1023.1,2281.1,1016.4,2283.5,1009.9,2283.5Z"></path><path fill="url(#robo_leg__c)" d="M1022.3,2240.9c-18.1-2-33.2-15.7-41.4-31.9s-10.5-34.7-11.8-52.8c-1.1-15.9-1.5-32.2,3.2-47.4s15.2-29.5,30.2-34.9l8.9,6.9,9.2,26s-35.2,50.6-6.1,84.3l9.2,4.6Z"></path><path fill="#886662" d="M1220.1,2220c-5.8,25.3-6.2,46.4-43.5,67.6-13.8-7.3-16.9-19.6-18.6-30.8-2.5-17.5-3.7-35.3,2.4-52.4,3-8.7,21-42.9,40.5-42.4C1222.1,2162.5,1222,2212,1220.1,2220Z"></path><path fill="url(#robo_leg__d)" d="M1000.6,2088.4s-22.5,11-16.7,73.6c5.2,56.8,26.7,59.9,26.7,59.9s-14.1-10.8-18.7-56C985.6,2104.4,1011.8,2078.6,1000.6,2088.4Z"></path><g><path style="mix-blend-mode:multiply" fill="url(#robo_leg__a)" d="M963.2,2306.8l113.3,6.8s-3.8,38.3,37.6,59L981.6,2368S958.6,2319.8,963.2,2306.8Z" opacity=".5"></path><path style="mix-blend-mode:multiply" d="M1043.7,2008.9c-3,20.9,2.4,42.1,2.3,63.2a9.9,9.9,0,0,1-.7,4.5,8.2,8.2,0,0,1-3.2,3.2,20.2,20.2,0,0,1-17.7,2.1c10.1-22.5-.8-48.9,2.8-73.3.9-5.7,3-11.9,7.9-14.9,3-1.9,6.6-2.3,10.1-2.5,8.1-.3,22.8-1.5,26.8,7.3C1077.7,2011,1051.5,2008.3,1043.7,2008.9Z" opacity=".4"></path><path d="M1039.5 2143.6L1139.5 2144.6 1135.5 2180.4 1032.9 2178.1 1040.5 2167.1 1039.5 2143.6z" style="mix-blend-mode:multiply" opacity=".4"></path><path style="mix-blend-mode:multiply" fill="url(#robo_leg__e)" d="M1041.4,2245.5l90.2,3.2-4.3,30s-1.3,11.9-7.5,14.3l-5.7,2.2-15.1,4.7-6.4-9.2-64.3-7.2Z"></path><path style="mix-blend-mode:multiply" d="M1172.7,2251.6c1.7,10.2,6.4,20.7,15.5,25.7-4.1,4.4-11.3,5.2-16.9,2.9s-9.7-7.5-12.2-13.1-3.4-11.6-4.1-17.7c-1-8.1-6.4-35.4,7.4-33.4,8,1.2,8.2,5.4,8.7,12.7S1171.5,2244,1172.7,2251.6Z" opacity=".3"></path><path style="mix-blend-mode:multiply" fill="url(#robo_leg__f)" d="M1098.2 1942.9L1016 1946 991.9 1970.8 996.1 2065.5 1018.5 2087.5 1104.9 2090 1124.8 2062.4 1108.8 2087.5 1078.8 2085.8 1075.3 2055.4 1124.8 1978.2 1098.2 1942.9z" opacity=".4"></path><path style="mix-blend-mode:multiply" d="M1041.4,2245.5l113.6,3.9-1.9-15.7-104.7-1s-3-33,0-54.1l-29.3-4.4,2.4,61.4Z" opacity=".3"></path><path style="mix-blend-mode:multiply" d="M1146.2,2073.1l-35.2,35.2h-65.4l3,20.9,93.9,2.6c1.7,0,17.3-.2,15.1,17.5s-4.4,31.2-4.4,31.2h-20l6.3-35.8-102.4-2-9.8-10.2-6.1-46.6s87.8,3.4,89.8,3.2l12.9-2.1Z" opacity=".3"></path><path style="mix-blend-mode:multiply" d="M1015,2108.3l-15.1-11.2-8,10.5s-8.8,21.2-4.8,40.1c0,0-1.5,27.6,10.1,47.2l6.9,8.8,10.4-12.6,5.6,3.8.5,45.8s-29.8-2.3-43.1-39.5-18.1-112.8,25.6-128.7l17,17.5,1.4,23.2Z" opacity=".3"></path><path style="mix-blend-mode:multiply" d="M1186.3,2186.3s-5.4,64.7,21.9,72.7c0,0-11.3,23.1-18.6,24.9C1189.6,2283.9,1149,2245.8,1186.3,2186.3Z" opacity=".3"></path><path style="mix-blend-mode:multiply" d="M1142.4,2251s-102.8-6.8-102.4-3.2c.1,1.5-1.5,12.9-1.2,14.7s105.1,1.2,105.3,2.3c3.5,14.5,14,35.6,45.7,37.1l2.9-16.1s-28.1,9.8-39.6-34.8Z" opacity=".3"></path><path d="M1108.8 2087.5L1128.1 2061.9 1151.9 2059.3 1134 2082.3 1108.8 2087.5z" style="mix-blend-mode:multiply" opacity=".3"></path></g><g><path style="mix-blend-mode:overlay" fill="url(#robo_leg__g)" d="M1204.5 2051.7L1208.2 2024.3 1196.6 2023.2 1196 2028.6 1101.8 2141.4 1132.5 2142.6 1132.6 2150.4 1190.8 2080.9 1181.5 2170.5 1192.7 2166.7 1204.5 2051.7"></path><path style="mix-blend-mode:overlay" fill="#fff" d="M1104.9 2372.3L984.6 2372.3 976.1 2355.8 1092.1 2355.8 1104.9 2372.3z" opacity=".6"></path><path style="mix-blend-mode:overlay" fill="url(#robo_leg__h)" d="M1165.2,2181.9l-32-1.5-21.1,1.4-53.5,56.8h-6.9l-14.2-7.4,29.1-46.2-23-3.1s-7.1,13-15.3,25.8l-6-24.3-.8,52.2,18.5,12.2,115,1.6v-10.8h-4.7Z" opacity=".9"></path><path style="mix-blend-mode:overlay" fill="url(#robo_leg__b)" d="M1003,2078.9s-19.7,18.2-15.9,27.9c0,0-9.9,12.7-7.2,44.1l1.4,1.8s-3.3,27,10.2,47.4c0,0,6,20.9,28.6,21.8l-2.4,18.2s-38.6-13.9-43.5-45.2S960.3,2092.5,1003,2078.9Z" opacity=".8"></path><path style="mix-blend-mode:overlay" fill="url(#robo_leg__i)" d="M1004.7 1978.6L1008.9 2060.9 1027.1 2080.9 1021.2 2085.8 996.1 2065.5 991.9 1970.8 1018.5 1949.8 1004.7 1978.6z" opacity=".9"></path><path style="mix-blend-mode:overlay" fill="url(#robo_leg__j)" d="M1037.1,2089.5l5.4,38.2,12.1,14.9-1.3,34.7-26.2,2.4s11.2-21.8,11.2-23.3-1.8-16.4-1.8-16.4-13.4-15.9-13.4-16.9-4.6-35.6-4.6-35.6Z" opacity=".8"></path><path style="mix-blend-mode:overlay" fill="#fff" d="M1180.9,2196.2s-1,30.7,4.3,53c0,0,6.5,26.1,16,23.5l-7.5,6-4.8,3.8s-18.4-15.9-17.4-37.9S1180.9,2196.2,1180.9,2196.2Z" opacity=".9"></path><path style="mix-blend-mode:overlay" fill="#fff" d="M1054.6 2247.8L1046.4 2283.9 1028.3 2283.5 1036.9 2245.8 1054.6 2247.8z" opacity=".6"></path></g><g><path style="mix-blend-mode:overlay" fill="#fff" d="M1090.1 2289.6L1078.8 2310.1 974.2 2302.9 986.4 2287.6 1090.1 2289.6z"></path><path style="mix-blend-mode:overlay" fill="#fff" d="M1116.1 2340.7L1117.9 2369.6 1184.5 2335.6 1168.5 2322.1 1116.1 2340.7"></path><path style="mix-blend-mode:overlay" fill="#fff" d="M1157.7 2192.6L1032.1 2189.6 1035.2 2242.4 1023.7 2238.8 1022.2 2185.7 1019.1 2174.2 1037.5 2179.6 1163.1 2181.1 1157.7 2192.6z"></path><path style="mix-blend-mode:overlay" fill="#fff" d="M1097.2,1943.7l23,29.1s21.4,5.4,29.1-.8h0l-26-29.1-26.1.8"></path><path style="mix-blend-mode:overlay" fill="#fff" d="M1208.2 2024.3L1191.7 2163 1212.6 2170.5 1229.7 2037.9 1208.2 2024.3z"></path><path style="mix-blend-mode:overlay" fill="#fff" d="M1015,2108.3s-15.8-.2-18.9,19.4-5.8,54.9,23,76.8c0,0-15.8-37.8-12.5-66.6S1015,2108.3,1015,2108.3Z" opacity=".9"></path><path style="mix-blend-mode:overlay" fill="url(#robo_leg__k)" d="M1013.4 1956.4L1097.2 1959.8 1111 1984 1111 2055.4 1091.1 2088.4 1111 2086.2 1124.8 2062.4 1124.8 1978.2 1103.3 1944.5 1016 1946 1013.4 1956.4z"></path><path style="mix-blend-mode:overlay" fill="#f9f9f9" d="M1189.4,2182.2a23,23,0,0,1,6.5,16.5c0,10.7-.9,38.1,7,26.1s8.1-41.7-5.1-49.1c-2.7-1.5,2.3-7.9-.3-8.7-9.9-2.8-26.2,5.3-31.9,13.5,0,0,12.3-4.7,19.1,0Z" opacity=".9"></path><path style="mix-blend-mode:overlay" fill="#fff" d="M1150.3 2246.8L1143 2298.8 1104.9 2312.6 1114.1 2331 1157.2 2314.2 1163.1 2279.6 1150.3 2246.8z"></path></g><g fill="none" stroke="#31323d" stroke-linecap="round" stroke-linejoin="round"><path stroke-width="12.5" d="M1123.3,1942.9c-4.6,0-107.3,3.1-107.3,3.1l-24.5,29.1,4.6,90.4,19.9,19.9,88.9,4.6,29.1-7.7,15.3-16.8,4.6-93.5Z"></path><path stroke-width="6" d="M1096.9 1948L1124.8 1978.2 1124.8 2062.4 1104.9 2090"></path><path stroke-width="6" d="M1153.9 1972L1124.8 1978.2"></path><path stroke-width="6" d="M1146.2 2059.3L1124.8 2062.4"></path><path stroke-width="6" d="M1086.5,2086.9s-10.7-3-10.7-33.7l-1.6-50.5s0-10.8-15.3-10.8h-16.8s-13.8.6-13.8,16.4l1,62.8s1.5,10.2-9.2,11.2"></path><path stroke-width="6" d="M1072.7,2006.8l-21.4.5s-9.2,1-8.7,10.7l3,52.6s.6,11.7-9.1,12.7"></path><path stroke-width="12.5" d="M1151.9,2019s45,4.1,54.2,6.1l25.4,17.4-17.3,138.8"></path><path stroke-width="12.5" d="M1199.7,2276.5l-9.2,59.1-73.4,37.8-131.7-3.1s-22.5-22.5-20.4-64.4l22.4-23.4s20.5.8,45,1l8.1-36.7-19.4-9.2s-3-52.1-2-63.4c0,0,9.2-8.2,19.4-4.1l1-27.5-12.2-10.2-6.2-42.9"></path><path stroke-width="6" d="M1039.5,2142.6s78.2,2.1,100,2l-3,33.7"></path><path stroke-width="8" d="M1028.3,2177.3s102.4,7.2,139.9,4.1"></path><path stroke-width="8" d="M1040.5 2246.8L1154.9 2249.8"></path><path stroke-width="6" d="M1130.5 2250.8L1126 2290.6 1101.8 2299.9"></path><path stroke-width="8" d="M1031.3,2285.6l63.4,2s4.3,31.9,21.4,45.1l41.1-18.4,6.1-35.8"></path><path stroke-width="8" d="M969 2309L1078.3 2312.1 1094.7 2287.6"></path><path stroke-width="6" d="M1078.3,2312.1s-.6,36.1,32.7,58.2"></path><path stroke-width="6" d="M1039.5,2314.2s-6.1,35.7,18.4,56.1"></path><path stroke-width="6" d="M998.7,2309s-12.3,39.9,16.3,59.3"></path><path stroke-width="8" d="M1197.5 2028.7L1181.7 2163"></path><path stroke-width="8" d="M975.4,2110.9s24.8-13.8,35,14.8"></path><path stroke-width="8" d="M969.5,2160.5s10.8-18.9,35.3-10.8"></path><path stroke-width="8" d="M985.6,2216.9s-1.2-20.2,23.3-28.4"></path><ellipse cx="1187.1" cy="2224.3" stroke-width="12.5" rx="60.4" ry="31.4" transform="translate(-1179.8 3093.1) rotate(-82.1)"></ellipse><path stroke-width="6" d="M1208.2,2174.4c-15.8-2.2-31.8,19.4-35.8,48.2s5.5,53.9,21.3,56.1"></path><path stroke-width="12.5" d="M1002.5,2073.9c-15,5.4-25.5,19.6-30.2,34.9s-4.3,31.5-3.2,47.4c1.3,18.1,3.6,36.6,11.8,52.8s23.3,29.9,41.4,31.9"></path><path stroke-width="12.5" d="M1020.6,2106.8s-31.5,35.8-1.5,88.1"></path></g></g></g></g><g id="item_d"></g><g id="item_c"></g><g id="item_b"></g><g id="item_a"></g></svg>